<?xml version="1.0" encoding="UTF-8" standalone="no"?>
<svg
   xmlns:dc="http://purl.org/dc/elements/1.1/"
   xmlns:cc="http://creativecommons.org/ns#"
   xmlns:rdf="http://www.w3.org/1999/02/22-rdf-syntax-ns#"
   xmlns:svg="http://www.w3.org/2000/svg"
   xmlns="http://www.w3.org/2000/svg"
   xmlns:sodipodi="http://sodipodi.sourceforge.net/DTD/sodipodi-0.dtd"
   xmlns:inkscape="http://www.inkscape.org/namespaces/inkscape"
   width="1000"
   height="1000"
   viewBox="0 0 1000 1000"
   version="1.1"
   id="svg2"
   inkscape:version="0.91 r13725"
   sodipodi:docname="action-create_security_group.svg">
  <metadata
     id="metadata30">
    <rdf:RDF>
      <cc:Work
         rdf:about="">
        <dc:format>image/svg+xml</dc:format>
        <dc:type
           rdf:resource="http://purl.org/dc/dcmitype/StillImage" />
        <dc:title>sb_create_security_group</dc:title>
      </cc:Work>
    </rdf:RDF>
  </metadata>
  <sodipodi:namedview
     pagecolor="#ffffff"
     bordercolor="#666666"
     borderopacity="1"
     objecttolerance="10"
     gridtolerance="10"
     guidetolerance="10"
     inkscape:pageopacity="0"
     inkscape:pageshadow="2"
     inkscape:window-width="1366"
     inkscape:window-height="703"
     id="namedview28"
     showgrid="false"
     inkscape:zoom="0.2565"
     inkscape:cx="-198.83041"
     inkscape:cy="488.71885"
     inkscape:window-x="0"
     inkscape:window-y="0"
     inkscape:window-maximized="1"
     inkscape:current-layer="svg2" />
  <!-- Generator: Sketch 3.8.3 (29802) - http://www.bohemiancoding.com/sketch -->
  <title
     id="title4">sb_create_security_group</title>
  <desc
     id="desc6">Created with Sketch.</desc>
  <defs
     id="defs8" />
  <path
     id="+"
     transform="matrix(32.258065,0,0,32.258065,-15.629032,-2597.2742)"
     style="fill:#000000;fill-opacity:1;fill-rule:evenodd;stroke:none;stroke-width:1"
     d="m 21.345,92.951 0,3.582 -2.268,0 0,-3.582 -3.312,0 0,-1.998 3.312,0 0,-3.564 2.268,0 0,3.564 3.33,0 0,1.998 z m -4.74436,5.23204 -0.65008,0 c -0.08304,0 -0.16688,-0.06688 -0.16688,-0.16672 l 0,-1.53328 c 0,-1.76688 -1.36672,-3.26672 -3.13312,-3.33312 -1.84992,-0.06688 -3.3836799,1.41632 -3.3836799,3.2664 l 0,1.6168 C 9.2668801,98.11616 9.2000001,98.2 9.1,98.2 l -0.6499199,0 c -0.2500801,0 -0.45008,0.2 -0.45008,0.44992 l 0,5.9 C 8.0000001,104.8 8.2,105 8.4500801,105 l 8.1331199,0 c 0.24992,0 0.44992,-0.2 0.44992,-0.45008 l 0,-5.9168 c 0.01744,-0.25008 -0.18256,-0.45008 -0.43248,-0.45008 l 0,0 z m -6.3168,-1.76672 c 0,-1.2832 1.06672,-2.31696 2.36672,-2.25008 1.21696,0.06688 2.15008,1.1 2.15008,2.3168 l 0,1.55008 c 0,0.08304 -0.06688,0.16688 -0.16688,0.16688 l -4.2,0 c -0.0832,0 -0.16688,-0.06688 -0.16688,-0.16688 l 0,-1.6168 0.01696,0 z M 16,80.499999 c -4.110664,0 -8.053457,1.633187 -10.9601347,4.539865 -2.9066782,2.906678 -4.53986532,6.849471 -4.53986532,10.960135 0,4.110661 1.63318712,8.053461 4.53986532,10.960131 C 7.946543,109.86681 11.889336,111.5 16,111.5 c 4.110663,0 8.053456,-1.63319 10.960134,-4.53987 C 29.866812,104.05346 31.5,100.11066 31.5,95.999999 31.5,91.889335 29.866812,87.946542 26.960134,85.039864 24.053456,82.133186 20.110663,80.499999 16,80.499999 Z m 0,0.999992 c 3.845831,0 7.533655,1.527526 10.253068,4.24694 2.719413,2.719413 4.246939,6.407237 4.246939,10.253068 0,3.845831 -1.527526,7.533651 -4.246939,10.253071 -2.719413,2.71941 -6.407237,4.24694 -10.253068,4.24694 -3.845831,0 -7.5336552,-1.52753 -10.2530684,-4.24694 -2.7194134,-2.71942 -4.2469395,-6.40724 -4.2469395,-10.253071 0,-3.845831 1.5275261,-7.533655 4.2469395,-10.253068 C 8.4663448,83.027517 12.154169,81.499991 16,81.499991 Z" />
</svg>
