<?xml version="1.0" encoding="UTF-8" standalone="no"?>
<svg
   xmlns:dc="http://purl.org/dc/elements/1.1/"
   xmlns:cc="http://creativecommons.org/ns#"
   xmlns:rdf="http://www.w3.org/1999/02/22-rdf-syntax-ns#"
   xmlns:svg="http://www.w3.org/2000/svg"
   xmlns="http://www.w3.org/2000/svg"
   xmlns:sodipodi="http://sodipodi.sourceforge.net/DTD/sodipodi-0.dtd"
   xmlns:inkscape="http://www.inkscape.org/namespaces/inkscape"
   width="1000"
   height="1000"
   viewBox="0 0 1000 1000"
   version="1.1"
   id="svg2"
   inkscape:version="0.91 r13725"
   sodipodi:docname="action-create_group_user.svg">
  <metadata
     id="metadata40">
    <rdf:RDF>
      <cc:Work
         rdf:about="">
        <dc:format>image/svg+xml</dc:format>
        <dc:type
           rdf:resource="http://purl.org/dc/dcmitype/StillImage" />
        <dc:title>sb_create_group_user</dc:title>
      </cc:Work>
    </rdf:RDF>
  </metadata>
  <sodipodi:namedview
     pagecolor="#ffffff"
     bordercolor="#666666"
     borderopacity="1"
     objecttolerance="10"
     gridtolerance="10"
     guidetolerance="10"
     inkscape:pageopacity="0"
     inkscape:pageshadow="2"
     inkscape:window-width="1366"
     inkscape:window-height="703"
     id="namedview38"
     showgrid="false"
     inkscape:zoom="0.513"
     inkscape:cx="78.947368"
     inkscape:cy="503.89864"
     inkscape:window-x="0"
     inkscape:window-y="0"
     inkscape:window-maximized="1"
     inkscape:current-layer="svg2" />
  <!-- Generator: Sketch 3.8.3 (29802) - http://www.bohemiancoding.com/sketch -->
  <title
     id="title4">sb_create_group_user</title>
  <desc
     id="desc6">Created with Sketch.</desc>
  <defs
     id="defs8" />
  <path
     style="color:#000000;font-style:normal;font-variant:normal;font-weight:normal;font-stretch:normal;font-size:medium;line-height:normal;font-family:sans-serif;text-indent:0;text-align:start;text-decoration:none;text-decoration-line:none;text-decoration-style:solid;text-decoration-color:#000000;letter-spacing:normal;word-spacing:normal;text-transform:none;direction:ltr;block-progression:tb;writing-mode:lr-tb;baseline-shift:baseline;text-anchor:start;white-space:normal;clip-rule:nonzero;display:inline;overflow:visible;visibility:visible;opacity:1;isolation:auto;mix-blend-mode:normal;color-interpolation:sRGB;color-interpolation-filters:linearRGB;solid-color:#000000;solid-opacity:1;fill:#000000;fill-opacity:1;fill-rule:evenodd;stroke:none;stroke-width:32.25806427;stroke-linecap:butt;stroke-linejoin:miter;stroke-miterlimit:4;stroke-dasharray:none;stroke-dashoffset:0;stroke-opacity:1;color-rendering:auto;image-rendering:auto;shape-rendering:auto;text-rendering:auto;enable-background:accumulate"
     d="M 500.5,-0.5 C 367.89795,-0.5 240.71107,52.183457 146.94727,145.94727 53.183457,239.71107 0.5,366.89795 0.5,499.5 0.5,632.10205 53.183457,759.28893 146.94727,853.05273 240.71107,946.81654 367.89795,999.5 500.5,999.5 633.10205,999.5 760.28893,946.81654 854.05273,853.05273 947.81654,759.28893 1000.5,632.10205 1000.5,499.5 1000.5,366.89795 947.81654,239.71107 854.05273,145.94727 760.28893,52.183457 633.10205,-0.5 500.5,-0.5 Z m 0,32.257812 c 124.05907,0 243.02113,49.275036 330.74414,136.998048 87.72301,87.72301 136.99805,206.68507 136.99805,330.74414 0,124.05907 -49.27504,243.02113 -136.99805,330.74414 C 743.52113,917.96715 624.55907,967.24219 500.5,967.24219 376.44093,967.24219 257.47887,917.96715 169.75586,830.24414 82.032848,742.52113 32.757812,623.55907 32.757812,499.5 32.757812,375.44093 82.032848,256.47887 169.75586,168.75586 257.47887,81.032848 376.44093,31.757812 500.5,31.757812 Z"
     id="ellipse15"
     inkscape:connector-curvature="0" />
  <path
     style="fill:#000000;fill-rule:evenodd;stroke:none;stroke-width:1;fill-opacity:1"
     inkscape:connector-curvature="0"
     id="Fill-1"
     d="m 826.27079,512.31246 c 57.91626,17.24494 48,59.9809 47.8188,88.58303 l -144.52713,0 c -5.20522,-17.3118 -18.02058,-33.50297 -48.70829,-42.58542 l -9.71861,-2.94387 c -40.58752,-11.95939 -62.28139,-18.43251 -67.94784,-31.4289 -1.41645,-4.70013 -0.95548,-9.86858 12.55184,-14.90323 43.50306,-12.86261 65.50993,-19.60335 70.71516,-36.12903 l 2.76742,0 c -0.77419,-0.65226 -1.48258,-1.30484 -2.12484,-2.09065 -21.49623,-21.04183 -37.90255,-62.07171 -37.90255,-95.18996 0,-46.85068 35.33287,-77.69417 68.78791,-77.69417 33.38916,0 67.04187,33.26884 67.04187,80.16965 0,33.13503 -18.26768,72.92713 -40.65339,93.233 4.56281,19.21865 29.71587,25.49103 81.89981,40.97968 l 0,0 z" />
  <path
     style="fill:#000000;fill-rule:evenodd;stroke:none;stroke-width:1;fill-opacity:1"
     inkscape:connector-curvature="0"
     id="Fill-2"
     d="m 726.48217,708.64714 -449.06521,0 c -0.26355,-4.58323 -0.57652,-9.14936 -1.08717,-14.50194 -1.41661,-18.03096 -2.76732,-36.53032 2.17433,-53.50774 6.06177,-19.871 21.82567,-37.38355 58.17982,-48.15535 l 14.08374,-4.58304 c 63.96155,-18.54958 98.19081,-29.00358 109.52368,-53.50774 l 3.59094,-6.13861 -0.24839,-7.77778 c -0.83871,-0.51838 -1.34935,-1.05387 -2.51903,-2.42548 -3.85439,-4.04777 -7.7089,-8.02868 -11.31632,-12.86261 -24.84007,-32.01433 -42.46533,-81.4743 -42.46533,-122.3202 0,-52.2031 38.08374,-107.53403 94.89636,-107.53403 44.40906,0 92.14552,44.62603 92.14552,111.26403 0,42.46832 -21.8092,95.13978 -51.60742,126.10036 -1.9271,2.15774 -4.11807,4.0478 -6.04529,5.95461 l -3.60742,3.26165 1.10354,4.83393 c 7.72546,30.64278 42.46533,41.09678 112.27452,61.28552 l 14.34729,4.56632 c 36.17297,10.78855 53.22168,28.50181 60.68362,48.1552 l 0.26451,0 c 6.88539,19.08483 6.04529,39.79193 5.20523,59.12774 -0.26452,2.80968 -0.26452,6.02161 -0.51065,8.76484 l 0,0 z" />
  <path
     style="fill:#000000;fill-rule:evenodd;stroke:none;stroke-width:1;fill-opacity:1"
     inkscape:connector-curvature="0"
     id="Fill-3"
     d="m 176.39293,512.31246 c -57.96568,17.24494 -48,59.9809 -47.80233,88.58303 l 144.51064,0 c 5.22169,-17.3118 18.02059,-33.50297 48.77418,-42.58542 l 9.65271,-2.94387 c 40.60401,-11.95939 62.3473,-18.43248 68.01375,-31.4289 -1.54839,-5.16845 1.28484,-12.87936 -12.61771,-14.90323 -43.42075,-12.86261 -65.49349,-19.60335 -70.64929,-36.12903 l -2.70162,0 c 0.70839,-0.65226 1.48258,-1.30484 2.12484,-2.09065 21.49623,-21.04183 37.90255,-62.07167 37.90255,-95.18996 0,-46.85065 -35.31639,-77.69417 -68.78792,-77.69417 -33.45505,0 -67.04186,33.26884 -67.04186,80.16968 0,33.135 18.20178,72.9271 40.60398,93.23297 -4.62867,19.21865 -29.86409,25.49103 -81.98214,40.97968 l 0,0 z" />
</svg>
