<?xml version="1.0" encoding="UTF-8" standalone="no"?>
<svg
   xmlns:dc="http://purl.org/dc/elements/1.1/"
   xmlns:cc="http://creativecommons.org/ns#"
   xmlns:rdf="http://www.w3.org/1999/02/22-rdf-syntax-ns#"
   xmlns:svg="http://www.w3.org/2000/svg"
   xmlns="http://www.w3.org/2000/svg"
   xmlns:sodipodi="http://sodipodi.sourceforge.net/DTD/sodipodi-0.dtd"
   xmlns:inkscape="http://www.inkscape.org/namespaces/inkscape"
   width="1000"
   height="1000"
   viewBox="0 0 1000 1000"
   version="1.1"
   id="svg2"
   inkscape:version="0.91 r13725"
   sodipodi:docname="action-view_email_templates.svg">
  <metadata
     id="metadata35">
    <rdf:RDF>
      <cc:Work
         rdf:about="">
        <dc:format>image/svg+xml</dc:format>
        <dc:type
           rdf:resource="http://purl.org/dc/dcmitype/StillImage" />
        <dc:title>sb_view_email_templates</dc:title>
      </cc:Work>
    </rdf:RDF>
  </metadata>
  <sodipodi:namedview
     pagecolor="#ffffff"
     bordercolor="#666666"
     borderopacity="1"
     objecttolerance="10"
     gridtolerance="10"
     guidetolerance="10"
     inkscape:pageopacity="0"
     inkscape:pageshadow="2"
     inkscape:window-width="1366"
     inkscape:window-height="703"
     id="namedview33"
     showgrid="false"
     inkscape:zoom="0.513"
     inkscape:cx="500"
     inkscape:cy="500"
     inkscape:window-x="0"
     inkscape:window-y="0"
     inkscape:window-maximized="1"
     inkscape:current-layer="svg2" />
  <!-- Generator: Sketch 3.8.3 (29802) - http://www.bohemiancoding.com/sketch -->
  <title
     id="title4">sb_view_email_templates</title>
  <desc
     id="desc6">Created with Sketch.</desc>
  <defs
     id="defs8" />
  <path
     id="@"
     style="fill:#000000;fill-rule:evenodd;stroke:none;stroke-width:1"
     d="m 503.98388,442.20972 c -1.80645,-0.25807 -3.64516,-0.45162 -5.51613,-0.58065 -1.87097,-0.12903 -3.77419,-0.19355 -5.70968,-0.19355 -7.35487,0 -14.25803,1.64516 -20.70968,4.93549 -6.45164,3.29032 -12.09674,7.7419 -16.93548,13.35484 -4.83874,5.61293 -8.64516,12.09674 -11.41935,19.45161 -2.7742,7.35487 -4.16129,15.09674 -4.16129,23.22581 0,8.00003 1.6129,14.09674 4.8387,18.29032 3.22584,4.19358 7.93546,6.29032 14.12904,6.29032 3.09677,0 6.19355,-0.48387 9.29032,-1.45161 3.09677,-0.96774 6.06452,-2.64516 8.90323,-5.03226 2.83871,-2.3871 5.38709,-5.54835 7.64516,-9.48387 2.25806,-3.93552 4.16129,-8.93545 5.70967,-15 l 13.93549,-53.80645 z m 27.09677,48.19355 c -1.80645,7.61293 -2.74193,13.90319 -2.80645,18.87096 -0.0645,4.96778 0.61291,8.87097 2.03226,11.70968 1.41935,2.83871 3.45161,4.80645 6.09677,5.90323 2.64517,1.09677 5.70965,1.64516 9.19355,1.64516 5.03229,0 9.80642,-1.67742 14.32258,-5.03226 4.51617,-3.35484 8.45158,-8.03223 11.80646,-14.03226 3.35483,-6.00003 6,-13.09674 7.93548,-21.29032 1.93548,-8.19358 2.90323,-17.12897 2.90323,-26.80645 0,-16.3872 -2.51613,-30.87091 -7.54839,-43.45162 -5.03229,-12.58071 -12.09674,-23.06448 -21.19355,-31.45161 -9.09681,-8.38713 -20.03219,-14.7419 -32.80645,-19.06452 -12.77426,-4.32261 -26.83865,-6.48387 -42.19355,-6.48387 -11.22587,0 -21.90316,1.41936 -32.03226,4.25807 -10.1291,2.83871 -19.5161,6.87093 -28.16129,12.09677 -8.64519,5.22584 -16.45158,11.5161 -23.41936,18.87097 -6.96777,7.35487 -12.90319,15.54835 -17.80645,24.58065 -4.90326,9.03229 -8.67742,18.74187 -11.32258,29.12903 -2.64516,10.38716 -3.96774,21.258 -3.96774,32.6129 0,20.90332 3.22581,39.29026 9.67742,55.16129 6.45164,15.87104 15.32252,29.09671 26.6129,39.67742 11.29039,10.58071 24.61284,18.54836 39.96774,23.90323 15.35491,5.35487 31.99991,8.03226 49.93549,8.03226 10.06458,0 19.38706,-0.54839 27.96774,-1.64516 8.58068,-1.09678 16.45158,-2.54839 23.61291,-4.35484 7.16132,-1.80645 13.58061,-3.87097 19.25806,-6.19355 5.67745,-2.32258 10.64513,-4.70968 14.90323,-7.16129 3.74196,-2.06452 7,-2.67742 9.77419,-1.83871 2.77419,0.83871 4.80645,2.93548 6.09677,6.29032 l 7.35484,18.77419 c -13.29038,8.77423 -28.93538,15.93549 -46.93548,21.48388 -18.0001,5.54838 -38.67729,8.32258 -62.03226,8.32258 -23.74207,0 -45.67732,-3.70968 -65.80645,-11.12904 -20.12913,-7.41938 -37.51607,-18.06445 -52.16129,-31.93548 -14.64523,-13.87103 -26.09675,-30.70958 -34.35484,-50.51613 -8.2581,-19.80655 -12.3871,-42.09665 -12.3871,-66.87097 0,-13.67748 1.80645,-27.03219 5.41935,-40.06452 3.61294,-13.03232 8.70965,-25.29025 15.29033,-36.77419 6.58067,-11.48393 14.54835,-22.03219 23.90322,-31.64516 9.35487,-9.61297 19.77413,-17.87094 31.25807,-24.77419 11.48393,-6.90326 23.90316,-12.2903 37.25806,-16.1613 13.35491,-3.871 27.38704,-5.80645 42.09678,-5.80645 12.25813,0 24.29026,1.3871 36.09677,4.16129 11.80652,2.7742 22.96768,6.83868 33.48387,12.19355 10.5162,5.35487 20.19352,11.93545 29.03226,19.74194 8.83875,7.80648 16.45158,16.67735 22.83871,26.6129 6.38713,9.93555 11.35484,20.8709 14.90323,32.80645 3.54842,11.93555 5.32258,24.80639 5.32258,38.61291 0,13.80651 -2.06452,26.74187 -6.19355,38.80645 -4.12906,12.06458 -9.87093,22.61287 -17.22581,31.64516 -7.35487,9.03229 -16.09671,16.129 -26.2258,21.29032 -10.1291,5.16133 -21.19349,7.74194 -33.19355,7.74194 -8.51616,0 -16.25803,-1.93548 -23.22581,-5.80645 -6.96777,-3.871 -12,-10.25803 -15.09677,-19.16129 -7.61294,8.90326 -15.64513,15.25803 -24.09678,19.06451 -8.45164,3.80649 -17.58058,5.70968 -27.38709,5.70968 -8.2581,0 -15.45158,-1.41935 -21.58065,-4.25806 -6.12906,-2.83871 -11.25803,-6.80642 -15.3871,-11.90323 -4.12906,-5.09681 -7.2258,-11.129 -9.29032,-18.09677 -2.06452,-6.96778 -3.09677,-14.5161 -3.09677,-22.64517 0,-7.35487 0.93548,-14.80641 2.80645,-22.35483 1.87097,-7.54842 4.67739,-14.83868 8.41935,-21.87097 3.74197,-7.03229 8.45158,-13.64513 14.12904,-19.83871 5.67745,-6.19358 12.32254,-11.58062 19.93548,-16.16129 7.61294,-4.58068 16.22574,-8.19355 25.83871,-10.83871 9.61297,-2.64516 20.29026,-3.96774 32.03226,-3.96774 5.29035,0 10.129,0.19354 14.51613,0.58064 4.38713,0.3871 8.51609,0.96774 12.38709,1.74194 3.871,0.77419 7.5161,1.74193 10.93549,2.90322 3.41935,1.16129 6.87093,2.45161 10.35484,3.87097 l -18.7742,72.58065 z M 490.84766,243.60352 c -101.88641,0 -191.11478,61.12927 -255.07813,120.7207 -63.96335,59.59143 -103.54492,119.27344 -103.54492,119.27344 l -5.92383,8.92187 5.92383,8.91992 c 0,0 39.58157,59.68396 103.54492,119.27539 63.96335,59.59143 153.19172,120.72071 255.07813,120.72071 101.88638,0 191.11673,-61.12928 255.08007,-120.72071 63.96335,-59.59143 103.54493,-119.27539 103.54493,-119.27539 l 16.63086,-25.04883 -21.67969,0 C 833.34585,460.62475 798.6534,413.44606 745.92773,364.32422 681.96439,304.73279 592.73404,243.60352 490.84766,243.60352 Z m 0,32.25781 c 88.75667,0 172.12229,55.26223 233.09179,112.06445 47.0226,43.80859 79.6811,86.8683 92.39844,104.59375 -12.71744,17.72558 -45.37601,60.78337 -92.39844,104.5918 -60.9695,56.80222 -144.33512,112.0664 -233.09179,112.0664 -88.7567,0 -172.12034,-55.26418 -233.08985,-112.0664 C 210.7367,553.30412 178.0776,510.24607 165.35938,492.51953 178.0775,474.79312 210.73652,431.73315 257.75781,387.92578 318.72732,331.12356 402.09096,275.86133 490.84766,275.86133 Z M 500.5,-0.5 C 367.89795,-0.5 240.71107,52.183457 146.94727,145.94727 53.183457,239.71107 0.5,366.89795 0.5,499.5 0.5,632.10205 53.183457,759.28893 146.94727,853.05273 240.71107,946.81654 367.89795,999.5 500.5,999.5 633.10205,999.5 760.28893,946.81654 854.05273,853.05273 947.81654,759.28893 1000.5,632.10205 1000.5,499.5 1000.5,366.89795 947.81654,239.71107 854.05273,145.94727 760.28893,52.183457 633.10205,-0.5 500.5,-0.5 Z m 0,32.257812 c 124.05907,0 243.02113,49.275036 330.74414,136.998048 87.72301,87.72301 136.99805,206.68507 136.99805,330.74414 0,124.05907 -49.27504,243.02113 -136.99805,330.74414 C 743.52113,917.96715 624.55907,967.24219 500.5,967.24219 376.44093,967.24219 257.47887,917.96715 169.75586,830.24414 82.032848,742.52113 32.757812,623.55907 32.757812,499.5 32.757812,375.44093 82.032848,256.47887 169.75586,168.75586 257.47887,81.032848 376.44093,31.757812 500.5,31.757812 Z" />
</svg>
