<?xml version="1.0" encoding="UTF-8" standalone="no"?>
<svg
   xmlns:dc="http://purl.org/dc/elements/1.1/"
   xmlns:cc="http://creativecommons.org/ns#"
   xmlns:rdf="http://www.w3.org/1999/02/22-rdf-syntax-ns#"
   xmlns:svg="http://www.w3.org/2000/svg"
   xmlns="http://www.w3.org/2000/svg"
   xmlns:sodipodi="http://sodipodi.sourceforge.net/DTD/sodipodi-0.dtd"
   xmlns:inkscape="http://www.inkscape.org/namespaces/inkscape"
   width="1000"
   height="1000"
   viewBox="0 0 1000 1000"
   version="1.1"
   id="svg2"
   inkscape:version="0.91 r13725"
   sodipodi:docname="action-security_suite_settings.svg">
  <metadata
     id="metadata40">
    <rdf:RDF>
      <cc:Work
         rdf:about="">
        <dc:format>image/svg+xml</dc:format>
        <dc:type
           rdf:resource="http://purl.org/dc/dcmitype/StillImage" />
        <dc:title>sb_security_suite_settings</dc:title>
      </cc:Work>
    </rdf:RDF>
  </metadata>
  <sodipodi:namedview
     pagecolor="#ffffff"
     bordercolor="#666666"
     borderopacity="1"
     objecttolerance="10"
     gridtolerance="10"
     guidetolerance="10"
     inkscape:pageopacity="0"
     inkscape:pageshadow="2"
     inkscape:window-width="1366"
     inkscape:window-height="703"
     id="namedview38"
     showgrid="false"
     inkscape:zoom="0.513"
     inkscape:cx="500"
     inkscape:cy="500"
     inkscape:window-x="0"
     inkscape:window-y="0"
     inkscape:window-maximized="1"
     inkscape:current-layer="svg2" />
  <!-- Generator: Sketch 3.8.3 (29802) - http://www.bohemiancoding.com/sketch -->
  <title
     id="title4">sb_security_suite_settings</title>
  <desc
     id="desc6">Created with Sketch.</desc>
  <defs
     id="defs8" />
  <path
     id="Fill-3"
     transform="matrix(32.258065,0,0,32.258065,242.43549,209.17746)"
     style="fill:#000000;fill-rule:evenodd;stroke:none;stroke-width:1"
     d="m 13.311321,8.5 -1.20283,0 0,2.40566 1.20283,0 0,6.014151 2.40566,0 0,-6.014151 1.20283,0 0,-2.40566 -1.20283,0 0,-8.41981132 -2.40566,0 z m -13.23113232,3.608491 0,2.40566 1.20283022,0 0,2.40566 2.4056603,0 0,-2.40566 1.2028302,0 0,-2.40566 -1.2028302,0 0,-12.02830232 -2.4056603,0 0,12.02830232 z m 6.01415092,-8.4198118 0,2.4056604 1.2028302,0 0,10.8254714 2.4056604,0 0,-10.8254714 1.2028298,0 0,-2.4056604 -1.2028298,0 0,-3.60849052 -2.4056604,0 0,3.60849052 z M 7.9999997,-6.5000012 c -4.1106635,0 -8.05345672,1.6331872 -10.9601345,4.5398653 -2.9066781,2.9066778 -4.5398653,6.849471 -4.5398653,10.9601345 0,4.1106634 1.6331872,8.0534564 4.5398653,10.9601344 2.90667778,2.906678 6.849471,4.539865 10.9601345,4.539865 4.1106633,0 8.0534563,-1.633187 10.9601343,-4.539865 2.906678,-2.906678 4.539865,-6.849471 4.539865,-10.9601344 0,-4.1106635 -1.633187,-8.0534567 -4.539865,-10.9601345 C 16.053456,-4.866814 12.110663,-6.5000012 7.9999997,-6.5000012 Z m 0,0.9999922 c 3.8458313,0 7.5336553,1.5275261 10.2530683,4.2469394 2.719413,2.7194133 4.246939,6.4072371 4.246939,10.2530682 0,3.8458314 -1.527526,7.5336554 -4.246939,10.2530684 -2.719413,2.719413 -6.407237,4.246939 -10.2530683,4.246939 -3.8458311,0 -7.53365493,-1.527526 -10.2530682,-4.246939 -2.7194133,-2.719413 -4.2469394,-6.407237 -4.2469394,-10.2530684 0,-3.8458311 1.5275261,-7.5336549 4.2469394,-10.2530682 C 0.46634477,-3.9724829 4.1541686,-5.500009 7.9999997,-5.500009 Z" />
</svg>
