<?xml version="1.0" encoding="UTF-8" standalone="no"?>
<svg
   xmlns:dc="http://purl.org/dc/elements/1.1/"
   xmlns:cc="http://creativecommons.org/ns#"
   xmlns:rdf="http://www.w3.org/1999/02/22-rdf-syntax-ns#"
   xmlns:svg="http://www.w3.org/2000/svg"
   xmlns="http://www.w3.org/2000/svg"
   xmlns:sodipodi="http://sodipodi.sourceforge.net/DTD/sodipodi-0.dtd"
   xmlns:inkscape="http://www.inkscape.org/namespaces/inkscape"
   width="1000"
   height="1000"
   viewBox="0 0 1000 1000"
   version="1.1"
   id="svg2"
   inkscape:version="0.91 r13725"
   sodipodi:docname="action-view_diagnostics.svg">
  <metadata
     id="metadata25">
    <rdf:RDF>
      <cc:Work
         rdf:about="">
        <dc:format>image/svg+xml</dc:format>
        <dc:type
           rdf:resource="http://purl.org/dc/dcmitype/StillImage" />
        <dc:title>sb_view_diagnostics</dc:title>
      </cc:Work>
    </rdf:RDF>
  </metadata>
  <sodipodi:namedview
     pagecolor="#ffffff"
     bordercolor="#666666"
     borderopacity="1"
     objecttolerance="10"
     gridtolerance="10"
     guidetolerance="10"
     inkscape:pageopacity="0"
     inkscape:pageshadow="2"
     inkscape:window-width="1366"
     inkscape:window-height="703"
     id="namedview23"
     showgrid="false"
     inkscape:zoom="0.513"
     inkscape:cx="500"
     inkscape:cy="500"
     inkscape:window-x="0"
     inkscape:window-y="0"
     inkscape:window-maximized="1"
     inkscape:current-layer="svg2" />
  <!-- Generator: Sketch 3.8.3 (29802) - http://www.bohemiancoding.com/sketch -->
  <title
     id="title4">sb_view_diagnostics</title>
  <desc
     id="desc6">Created with Sketch.</desc>
  <defs
     id="defs8" />
  <path
     id="path17"
     style="fill:#000000;fill-rule:evenodd;stroke:none;stroke-width:1"
     d="m 620.35807,308.71294 -1.81935,0 0,-30.94194 18.4,0 c 5.65161,0 10.18065,-4.59354 10.18065,-10.18064 l 0,-85.29032 c 0,-5.63871 -4.58065,-10.18065 -10.18065,-10.18065 l -289.71613,0 c -5.65162,0 -10.18065,4.59355 -10.18065,10.18065 l 0,85.29032 c 0,5.63871 4.52903,10.18064 10.18065,10.18064 l 18.4,0 0,30.94194 -1.81936,0 c -49.14839,0 -89.10968,35.74194 -89.10968,79.69032 l 0,353.98711 c 0,43.94838 39.96129,79.69032 89.10968,79.69032 l 256.55484,0 c 49.13549,0 89.10968,-35.74194 89.10968,-79.69032 l 0,-353.98711 c 0,-43.94838 -39.97419,-79.69032 -89.10968,-79.69032 l 0,0 z m 0,472.58065 -256.55484,0 c -26.65806,0 -48.3871,-17.48387 -48.3871,-38.90322 l 0,-353.98711 c 0,-21.47096 21.67742,-38.91613 48.3871,-38.91613 l 22.18065,0 c 11.23871,0 20.36129,-9.12258 20.36129,-20.36129 l 0,-51.35484 171.41936,0 0,51.35484 c 0,11.23871 9.12258,20.36129 20.36129,20.36129 l 22.18064,0 c 26.65807,0 48.3871,17.44517 48.3871,38.91613 l 0,58.06452 -273.74194,0 0,275.09678 273.79355,0 0,20.87742 c 0,21.41935 -21.72903,38.85161 -48.3871,38.85161 l 0,0 z M 446.26775,600.1452 c -9.5871,0 -17.34194,-7.75484 -17.34194,-17.32903 0,-9.5871 7.75484,-17.34194 17.34194,-17.34194 l 77.87097,0 0,-78.58064 c 0,-9.93549 8.06451,-18.05161 18.03871,-18.05161 9.98709,0 18.05161,8.07741 18.05161,18.05161 l 0,78.58064 77.87097,0 c 9.57419,0 17.34194,7.75484 17.34194,17.34194 0,9.57419 -7.76775,17.32903 -17.34194,17.32903 l -77.87097,0 0,78.58065 c 0,9.9871 -8.06452,18.05161 -18.05161,18.05161 -9.9742,0 -18.03871,-8.06451 -18.03871,-18.05161 l 0,-78.58065 -77.87097,0 z M 500.5,-0.5 C 367.89795,-0.5 240.71107,52.183457 146.94727,145.94727 53.183457,239.71107 0.5,366.89795 0.5,499.5 0.5,632.10205 53.183457,759.28893 146.94727,853.05273 240.71107,946.81654 367.89795,999.5 500.5,999.5 633.10205,999.5 760.28893,946.81654 854.05273,853.05273 947.81654,759.28893 1000.5,632.10205 1000.5,499.5 1000.5,366.89795 947.81654,239.71107 854.05273,145.94727 760.28893,52.183457 633.10205,-0.5 500.5,-0.5 Z m 0,32.257812 c 124.05907,0 243.02113,49.275036 330.74414,136.998048 87.72301,87.72301 136.99805,206.68507 136.99805,330.74414 0,124.05907 -49.27504,243.02113 -136.99805,330.74414 C 743.52113,917.96715 624.55907,967.24219 500.5,967.24219 376.44093,967.24219 257.47887,917.96715 169.75586,830.24414 82.032848,742.52113 32.757812,623.55907 32.757812,499.5 32.757812,375.44093 82.032848,256.47887 169.75586,168.75586 257.47887,81.032848 376.44093,31.757812 500.5,31.757812 Z" />
</svg>
