<?xml version="1.0" encoding="UTF-8" standalone="no"?>
<svg
   xmlns:dc="http://purl.org/dc/elements/1.1/"
   xmlns:cc="http://creativecommons.org/ns#"
   xmlns:rdf="http://www.w3.org/1999/02/22-rdf-syntax-ns#"
   xmlns:svg="http://www.w3.org/2000/svg"
   xmlns="http://www.w3.org/2000/svg"
   xmlns:sodipodi="http://sodipodi.sourceforge.net/DTD/sodipodi-0.dtd"
   xmlns:inkscape="http://www.inkscape.org/namespaces/inkscape"
   width="1000"
   height="1000"
   viewBox="0 0 1000 1000"
   version="1.1"
   id="svg2"
   inkscape:version="0.91 r13725"
   sodipodi:docname="action-security_groups.svg">
  <metadata
     id="metadata25">
    <rdf:RDF>
      <cc:Work
         rdf:about="">
        <dc:format>image/svg+xml</dc:format>
        <dc:type
           rdf:resource="http://purl.org/dc/dcmitype/StillImage" />
        <dc:title>sb_security_groups</dc:title>
      </cc:Work>
    </rdf:RDF>
  </metadata>
  <sodipodi:namedview
     pagecolor="#ffffff"
     bordercolor="#666666"
     borderopacity="1"
     objecttolerance="10"
     gridtolerance="10"
     guidetolerance="10"
     inkscape:pageopacity="0"
     inkscape:pageshadow="2"
     inkscape:window-width="1366"
     inkscape:window-height="703"
     id="namedview23"
     showgrid="false"
     inkscape:zoom="0.513"
     inkscape:cx="500"
     inkscape:cy="500"
     inkscape:window-x="0"
     inkscape:window-y="0"
     inkscape:window-maximized="1"
     inkscape:current-layer="svg2" />
  <!-- Generator: Sketch 3.8.3 (29802) - http://www.bohemiancoding.com/sketch -->
  <title
     id="title4">sb_security_groups</title>
  <desc
     id="desc6">Created with Sketch.</desc>
  <defs
     id="defs8" />
  <path
     id="path17"
     style="fill:#000000;fill-rule:evenodd;stroke:none;stroke-width:1"
     d="m 690.85356,427.71165 -31.45549,0 c -4.01806,0 -8.07483,-3.23613 -8.07483,-8.0671 l 0,-74.19096 c 0,-85.4942 -66.13162,-158.0671 -151.60259,-161.28001 C 410.20839,180.93745 335.9942,252.7052 335.9942,342.2252 l 0,78.23226 c 0,4.01806 -3.23613,8.07484 -8.07484,8.07484 l -31.44774,0 c -12.10065,0 -21.77807,9.67742 -21.77807,21.77032 l 0,285.48388 c 0,12.10064 9.67742,21.77806 21.77807,21.77806 l 393.53807,0 c 12.0929,0 21.77032,-9.67742 21.77032,-21.77806 l 0,-286.29678 c 0.84387,-12.10065 -8.83355,-21.77807 -20.92645,-21.77807 l 0,0 z M 385.20194,342.2252 c 0,-62.09032 51.61549,-112.11097 114.51871,-108.87484 58.88517,3.23613 104.03613,53.22581 104.03613,112.10323 l 0,75.00387 c 0,4.01806 -3.23613,8.07484 -8.07484,8.07484 l -203.2258,0 c -4.02581,0 -8.07484,-3.23613 -8.07484,-8.07484 l 0,-78.23226 0.82064,0 z M 500.5,-0.5 C 367.89795,-0.5 240.71107,52.183457 146.94727,145.94727 53.183457,239.71107 0.5,366.89795 0.5,499.5 0.5,632.10205 53.183457,759.28893 146.94727,853.05273 240.71107,946.81654 367.89795,999.5 500.5,999.5 633.10205,999.5 760.28893,946.81654 854.05273,853.05273 947.81654,759.28893 1000.5,632.10205 1000.5,499.5 1000.5,366.89795 947.81654,239.71107 854.05273,145.94727 760.28893,52.183457 633.10205,-0.5 500.5,-0.5 Z m 0,32.257812 c 124.05907,0 243.02113,49.275036 330.74414,136.998048 87.72301,87.72301 136.99805,206.68507 136.99805,330.74414 0,124.05907 -49.27504,243.02113 -136.99805,330.74414 C 743.52113,917.96715 624.55907,967.24219 500.5,967.24219 376.44093,967.24219 257.47887,917.96715 169.75586,830.24414 82.032848,742.52113 32.757812,623.55907 32.757812,499.5 32.757812,375.44093 82.032848,256.47887 169.75586,168.75586 257.47887,81.032848 376.44093,31.757812 500.5,31.757812 Z" />
</svg>
