<?xml version="1.0" encoding="UTF-8"?>
<svg xmlns="http://www.w3.org/2000/svg" xmlns:xlink="http://www.w3.org/1999/xlink" width="1024pt" height="1024pt" viewBox="0 0 1024 1024" version="1.1">
<g id="surface1">
<path style=" stroke:none;fill-rule:evenodd;fill:rgb(0%,0%,0%);fill-opacity:1;" d="M 635.246094 316.121094 L 633.382812 316.121094 L 633.382812 284.4375 L 652.226562 284.4375 C 658.011719 284.4375 662.648438 279.734375 662.648438 274.011719 L 662.648438 186.675781 C 662.648438 180.902344 657.960938 176.25 652.226562 176.25 L 355.554688 176.25 C 349.769531 176.25 345.132812 180.953125 345.132812 186.675781 L 345.132812 274.011719 C 345.132812 279.785156 349.769531 284.4375 355.554688 284.4375 L 374.398438 284.4375 L 374.398438 316.121094 L 372.535156 316.121094 C 322.207031 316.121094 281.285156 352.722656 281.285156 397.726562 L 281.285156 760.207031 C 281.285156 805.210938 322.207031 841.8125 372.535156 841.8125 L 635.246094 841.8125 C 685.5625 841.8125 726.496094 805.210938 726.496094 760.207031 L 726.496094 397.726562 C 726.496094 352.722656 685.5625 316.121094 635.246094 316.121094 Z M 635.246094 800.042969 L 372.535156 800.042969 C 345.238281 800.042969 322.984375 782.140625 322.984375 760.207031 L 322.984375 397.726562 C 322.984375 375.738281 345.183594 357.875 372.535156 357.875 L 395.246094 357.875 C 406.757812 357.875 416.097656 348.535156 416.097656 337.023438 L 416.097656 284.4375 L 591.632812 284.4375 L 591.632812 337.023438 C 591.632812 348.535156 600.972656 357.875 612.480469 357.875 L 635.195312 357.875 C 662.492188 357.875 684.742188 375.738281 684.742188 397.726562 L 684.742188 457.183594 L 404.429688 457.183594 L 404.429688 738.882812 L 684.796875 738.882812 L 684.796875 760.261719 C 684.796875 782.195312 662.542969 800.042969 635.246094 800.042969 Z M 456.976562 614.546875 C 447.160156 614.546875 439.21875 606.609375 439.21875 596.804688 C 439.21875 586.988281 447.160156 579.046875 456.976562 579.046875 L 536.71875 579.046875 L 536.71875 498.578125 C 536.71875 488.40625 544.976562 480.09375 555.191406 480.09375 C 565.417969 480.09375 573.675781 488.367188 573.675781 498.578125 L 573.675781 579.046875 L 653.414062 579.046875 C 663.21875 579.046875 671.171875 586.988281 671.171875 596.804688 C 671.171875 606.609375 663.21875 614.546875 653.414062 614.546875 L 573.675781 614.546875 L 573.675781 695.015625 C 573.675781 705.242188 565.417969 713.5 555.191406 713.5 C 544.976562 713.5 536.71875 705.242188 536.71875 695.015625 L 536.71875 614.546875 Z M 512.511719 -0.511719 C 376.726562 -0.511719 246.488281 53.4375 150.472656 149.449219 C 54.460938 245.464844 0.511719 375.703125 0.511719 511.488281 C 0.511719 647.273438 54.460938 777.511719 150.472656 873.527344 C 246.488281 969.539062 376.726562 1023.488281 512.511719 1023.488281 C 648.296875 1023.488281 778.535156 969.539062 874.550781 873.527344 C 970.5625 777.511719 1024.511719 647.273438 1024.511719 511.488281 C 1024.511719 375.703125 970.5625 245.464844 874.550781 149.449219 C 778.535156 53.4375 648.296875 -0.511719 512.511719 -0.511719 Z M 512.511719 32.519531 C 639.546875 32.519531 761.367188 82.976562 851.195312 172.804688 C 941.023438 262.632812 991.480469 384.453125 991.480469 511.488281 C 991.480469 638.523438 941.023438 760.339844 851.195312 850.171875 C 761.367188 940 639.546875 990.457031 512.511719 990.457031 C 385.476562 990.457031 263.660156 940 173.828125 850.171875 C 84 760.339844 33.542969 638.523438 33.542969 511.488281 C 33.542969 384.453125 84 262.632812 173.828125 172.804688 C 263.660156 82.976562 385.476562 32.519531 512.511719 32.519531 Z M 512.511719 32.519531 "/>
</g>
</svg>
