<?xml version="1.0" encoding="UTF-8"?>
<svg xmlns="http://www.w3.org/2000/svg" xmlns:xlink="http://www.w3.org/1999/xlink" width="1024pt" height="1024pt" viewBox="0 0 1024 1024" version="1.1">
<g id="surface1">
<path style=" stroke:none;fill-rule:evenodd;fill:rgb(0%,0%,0%);fill-opacity:1;" d="M 512 0 C 354.832031 0 223.195312 129.304688 223.195312 286.914062 C 223.195312 419.039062 195.082031 480.199219 163.191406 535.683594 C 131.300781 591.167969 87.359375 647.027344 80.972656 739.085938 L 76.972656 796.710938 L 376.398438 796.710938 L 376.398438 889.054688 C 376.398438 963.117188 438.042969 1024 512 1024 C 585.960938 1024 647.601562 963.117188 647.601562 889.054688 L 647.601562 796.710938 L 947.027344 796.710938 L 943.027344 739.085938 C 936.644531 647.027344 892.703125 591.167969 860.8125 535.683594 C 828.925781 480.199219 800.808594 419.039062 800.808594 286.914062 C 800.808594 129.304688 669.167969 0 512 0 Z M 512 107.789062 C 609.453125 107.789062 693.019531 190.082031 693.019531 286.914062 C 693.019531 435.871094 730.742188 525.6875 767.359375 589.398438 C 790.863281 630.296875 810.398438 657.996094 822.582031 688.921875 L 201.417969 688.921875 C 213.601562 657.996094 233.132812 630.296875 256.640625 589.398438 C 293.261719 525.6875 330.984375 435.871094 330.984375 286.914062 C 330.984375 190.082031 414.546875 107.789062 512 107.789062 Z M 487.847656 902.425781 L 536.152344 902.425781 C 531.660156 910.703125 523.230469 916.210938 512 916.210938 C 500.769531 916.210938 492.339844 910.703125 487.847656 902.425781 Z M 487.847656 902.425781 "/>
</g>
</svg>
