<?xml version="1.0" encoding="UTF-8" standalone="no"?>
<!-- Created with Inkscape (http://www.inkscape.org/) -->

<svg
   xmlns:dc="http://purl.org/dc/elements/1.1/"
   xmlns:cc="http://creativecommons.org/ns#"
   xmlns:rdf="http://www.w3.org/1999/02/22-rdf-syntax-ns#"
   xmlns:svg="http://www.w3.org/2000/svg"
   xmlns="http://www.w3.org/2000/svg"
   xmlns:sodipodi="http://sodipodi.sourceforge.net/DTD/sodipodi-0.dtd"
   xmlns:inkscape="http://www.inkscape.org/namespaces/inkscape"
   version="1.1"
   width="1000"
   height="1000"
   viewBox="0 0 1000 1000"
   id="svg2"
   inkscape:version="0.91 r13725"
   sodipodi:docname="action-subtract.svg">
  <sodipodi:namedview
     pagecolor="#ffffff"
     bordercolor="#666666"
     borderopacity="1"
     objecttolerance="10"
     gridtolerance="10"
     guidetolerance="10"
     inkscape:pageopacity="0"
     inkscape:pageshadow="2"
     inkscape:window-width="1366"
     inkscape:window-height="703"
     id="namedview12"
     showgrid="false"
     inkscape:zoom="0.513"
     inkscape:cx="465.88694"
     inkscape:cy="500"
     inkscape:window-x="0"
     inkscape:window-y="0"
     inkscape:window-maximized="1"
     inkscape:current-layer="svg2" />
  <title
     id="title4">sb_add</title>
  <desc
     id="desc6">Created with Sketch.</desc>
  <metadata
     id="metadata24">
    <rdf:RDF>
      <cc:Work
         rdf:about="">
        <dc:format>image/svg+xml</dc:format>
        <dc:type
           rdf:resource="http://purl.org/dc/dcmitype/StillImage" />
        <dc:title>sb_add</dc:title>
      </cc:Work>
    </rdf:RDF>
  </metadata>
  <defs
     id="defs8" />
  <path
     style="fill:#000000;stroke:none"
     d="m 382.0643,292.95276 c 39.17219,39.17218 78.34442,78.3444 117.51658,117.5166 42.15271,-42.15271 84.30539,-84.30539 126.45807,-126.45808 26.82445,26.82443 53.6489,53.64888 80.47332,80.4733 -42.15268,42.15271 -84.30536,84.30539 -126.45807,126.45807 39.3851,39.3851 78.77017,78.77019 118.15526,118.15529 -23.63103,23.63103 -47.26209,47.2621 -70.89316,70.89313 -39.3851,-39.3851 -78.77016,-78.77016 -118.15526,-118.15526 -42.36555,42.36558 -84.73116,84.7312 -127.09674,127.09675 -26.82442,-26.82442 -53.64888,-53.64888 -80.47331,-80.4733 42.36556,-42.36558 84.73118,-84.73119 127.09676,-127.09674 -39.1722,-39.17219 -78.34442,-78.34442 -117.51662,-117.51661 23.63107,-23.63104 47.26213,-47.2621 70.89317,-70.89315 z M 500.50001,-0.49906718 C 303.87875,-3.1914821 114.35894,123.2842 39.819353,304.95896 -38.024395,483.44917 2.3542447,705.17685 138.63502,844.39736 269.7275,985.49733 485.71085,1037.1626 666.58159,971.20972 854.04205,907.43688 992.36453,723.3183 999.84889,525.21407 1012.2802,332.62903 900.52363,140.24458 728.04166,54.236159 657.97469,18.207971 579.27223,-0.61894686 500.50001,-0.49906718 Z m 0,32.25806518 C 692.16153,28.985933 876.36347,157.71449 939.88092,338.59907 1006.9718,515.98749 952.51821,731.06756 806.67998,853.24711 661.83972,982.64095 434.51597,1003.9632 267.59334,905.31391 103.9385,814.40717 8.9453948,618.76301 37.292078,434.04546 61.753853,240.7194 220.08193,74.322556 411.90307,40.121385 c 29.17887,-5.587126 58.88955,-8.365733 88.59694,-8.362387 z"
     id="polygon20"
     inkscape:connector-curvature="0" />
</svg>
