<?xml version="1.0" encoding="UTF-8"?>
<svg xmlns="http://www.w3.org/2000/svg" xmlns:xlink="http://www.w3.org/1999/xlink" width="1024pt" height="1024pt" viewBox="0 0 1024 1024" version="1.1">
<g id="surface1">
<path style=" stroke:none;fill-rule:nonzero;fill:rgb(0%,0%,0%);fill-opacity:1;" d="M 508.070312 0.167969 C 252.917969 0.167969 52.066406 210.363281 52.066406 472.117188 C 52.066406 604.222656 104.773438 703.722656 182.277344 792.664062 L 158.984375 1023.8125 L 352.609375 905.351562 C 405.617188 927.09375 459.46875 936.078125 520.046875 936.078125 C 775.1875 936.078125 970.042969 735.863281 970.042969 474.113281 C 970.042969 212.359375 763.207031 0.167969 508.070312 0.167969 Z M 511.957031 41.6875 C 742.042969 41.6875 928.5625 232.0625 928.5625 466.898438 C 928.5625 701.738281 742.042969 892.113281 511.957031 892.113281 C 457.328125 892.113281 396.179688 876.875 348.378906 857.363281 L 211.328125 940.375 L 227.992188 777.699219 C 151.34375 700.585938 95.332031 585.421875 95.332031 466.898438 C 95.332031 232.0625 281.863281 41.6875 511.957031 41.6875 Z M 511.957031 41.6875 "/>
<path style=" stroke:none;fill-rule:evenodd;fill:rgb(0%,0%,0%);fill-opacity:1;" d="M 512 261.875 C 448.335938 261.875 395.015625 314.253906 395.015625 378.097656 C 395.015625 431.617188 383.625 456.390625 370.707031 478.867188 C 357.789062 501.339844 339.988281 523.96875 337.402344 561.257812 L 335.785156 584.601562 L 457.070312 584.601562 L 457.070312 622.007812 C 457.070312 652.007812 482.042969 676.667969 512 676.667969 C 541.957031 676.667969 566.929688 652.003906 566.929688 622.007812 L 566.929688 584.601562 L 688.214844 584.601562 L 686.597656 561.257812 C 684.011719 523.96875 666.210938 501.339844 653.292969 478.867188 C 640.375 456.390625 628.988281 431.617188 628.988281 378.097656 C 628.988281 314.253906 575.664062 261.875 512 261.875 Z M 512 305.539062 C 551.476562 305.539062 585.324219 338.871094 585.324219 378.097656 C 585.324219 438.433594 600.605469 474.816406 615.4375 500.625 C 624.960938 517.191406 632.871094 528.410156 637.808594 540.9375 L 386.191406 540.9375 C 391.128906 528.410156 399.039062 517.191406 408.5625 500.625 C 423.394531 474.816406 438.675781 438.433594 438.675781 378.097656 C 438.675781 338.871094 472.523438 305.539062 512 305.539062 Z M 502.214844 627.421875 L 521.785156 627.421875 C 519.964844 630.773438 516.550781 633.007812 512 633.007812 C 507.453125 633.007812 504.035156 630.773438 502.214844 627.421875 Z M 502.214844 627.421875 "/>
</g>
</svg>
