<?xml version="1.0" encoding="UTF-8" standalone="no"?>
<svg
   xmlns:dc="http://purl.org/dc/elements/1.1/"
   xmlns:cc="http://creativecommons.org/ns#"
   xmlns:rdf="http://www.w3.org/1999/02/22-rdf-syntax-ns#"
   xmlns:svg="http://www.w3.org/2000/svg"
   xmlns="http://www.w3.org/2000/svg"
   xmlns:sodipodi="http://sodipodi.sourceforge.net/DTD/sodipodi-0.dtd"
   xmlns:inkscape="http://www.inkscape.org/namespaces/inkscape"
   width="1024pt"
   height="1024pt"
   viewBox="0 0 1024 1024"
   version="1.1"
   id="svg2"
   inkscape:version="0.91 r13725"
   sodipodi:docname="action-schedule-meeting.svg">
  <metadata
     id="metadata11">
    <rdf:RDF>
      <cc:Work
         rdf:about="">
        <dc:format>image/svg+xml</dc:format>
        <dc:type
           rdf:resource="http://purl.org/dc/dcmitype/StillImage" />
      </cc:Work>
    </rdf:RDF>
  </metadata>
  <defs
     id="defs9" />
  <sodipodi:namedview
     pagecolor="#ffffff"
     bordercolor="#666666"
     borderopacity="1"
     objecttolerance="10"
     gridtolerance="10"
     guidetolerance="10"
     inkscape:pageopacity="0"
     inkscape:pageshadow="2"
     inkscape:window-width="1366"
     inkscape:window-height="703"
     id="namedview7"
     showgrid="false"
     inkscape:zoom="0.184375"
     inkscape:cx="-775.59322"
     inkscape:cy="640"
     inkscape:window-x="0"
     inkscape:window-y="0"
     inkscape:window-maximized="1"
     inkscape:current-layer="svg2" />
  <g
     id="surface1">
    <path
       style="fill:#000000;fill-opacity:1;fill-rule:evenodd;stroke:none"
       d="M 512.51172,-0.511719 C 376.72656,-0.511719 246.48828,53.4375 150.47266,149.44922 54.460938,245.46484 0.511719,375.70312 0.511719,511.48828 c 0,135.78516 53.949219,266.02344 149.960941,362.03906 96.01562,96.01172 226.2539,149.96096 362.03906,149.96096 135.78515,0 266.02344,-53.94924 362.03906,-149.96096 96.01172,-96.01562 149.96092,-226.2539 149.96092,-362.03906 0,-135.78516 -53.9492,-266.02344 -149.96092,-362.03906 C 778.53516,53.4375 648.29687,-0.511719 512.51172,-0.511719 Z m 0,33.03125 c 127.03515,0 248.85547,50.457031 338.68359,140.285159 89.82813,89.82812 140.28516,211.64843 140.28516,338.68359 0,127.03516 -50.45703,248.85156 -140.28516,338.68359 C 761.36719,940 639.54687,990.45703 512.51172,990.45703 385.47656,990.45703 263.66016,940 173.82812,850.17187 84,760.33984 33.542969,638.52344 33.542969,511.48828 33.542969,384.45312 84,262.63281 173.82812,172.80469 263.66016,82.976562 385.47656,32.519531 512.51172,32.519531 Z"
       id="path5"
       inkscape:connector-curvature="0"
       sodipodi:nodetypes="scscscscsssscscscs" />
  </g>
  <path
     style="fill:#000000;fill-opacity:1;fill-rule:evenodd;stroke:none"
     d="m 346.58726,280.69321 c 0,44.04271 0,88.08542 0,132.12813 22.02084,0 44.04168,0 66.06251,0 0,-44.04271 0,-88.08542 0,-132.12813 -22.02083,0 -44.04167,0 -66.06251,0 z m 264.25782,0 c 0,44.04271 0,88.08542 0,132.12813 22.02083,0 44.04166,0 66.0625,0 0,-44.04271 0,-88.08542 0,-132.12813 -22.02084,0 -44.04167,0 -66.0625,0 z m -330.32344,33.03126 c 0,143.14062 0,286.28124 0,429.42187 152.75602,0.10552 305.54451,-0.21211 458.27998,0.16045 8.76355,-4.34205 2.12484,-18.73229 4.17315,-27.64805 0,-133.9781 0,-267.95619 0,-401.93427 -11.01042,0 -22.02084,0 -33.03126,0 0,44.0427 0,88.08541 0,132.12812 -44.04323,0 -88.08645,0 -132.12969,0 0,-44.04271 0,-88.08542 0,-132.12812 -44.0427,0 -88.08541,0 -132.12812,0 0,44.0427 0,88.08541 0,132.12812 -44.04323,0 -88.08645,0 -132.12968,0 0,-44.04271 0,-88.08542 0,-132.12812 -11.01146,0 -22.02292,0 -33.03438,0 z"
     id="path4139-3"
     inkscape:connector-curvature="0" />
</svg>
