<?xml version="1.0" encoding="UTF-8"?>
<svg xmlns="http://www.w3.org/2000/svg" xmlns:xlink="http://www.w3.org/1999/xlink" width="1024pt" height="1024pt" viewBox="0 0 1024 1024" version="1.1">
<g id="surface1">
<path style=" stroke:none;fill-rule:evenodd;fill:rgb(0%,0%,0%);fill-opacity:1;" d="M 512.511719 -0.511719 C 229.9375 -0.511719 0.511719 228.914062 0.511719 511.488281 C 0.511719 794.0625 229.9375 1023.488281 512.511719 1023.488281 C 795.085938 1023.488281 1024.511719 794.0625 1024.511719 511.488281 C 1024.511719 228.914062 795.085938 -0.511719 512.511719 -0.511719 Z M 512.511719 32.519531 C 777.234375 32.519531 991.480469 246.765625 991.480469 511.488281 C 991.480469 776.210938 777.234375 990.457031 512.511719 990.457031 C 247.789062 990.457031 33.542969 776.210938 33.542969 511.488281 C 33.542969 246.765625 247.789062 32.519531 512.511719 32.519531 Z M 512.511719 32.519531 "/>
<path style=" stroke:none;fill-rule:evenodd;fill:rgb(0%,0%,0%);fill-opacity:1;" d="M 502.640625 276.003906 C 295.660156 276.003906 135.996094 491.101562 135.996094 491.101562 L 128.449219 501.101562 L 135.996094 511.101562 C 135.996094 511.101562 295.660156 726.199219 502.640625 726.199219 C 709.625 726.199219 869.285156 511.101562 869.285156 511.101562 L 876.835938 501.101562 L 869.285156 491.101562 C 869.285156 491.101562 709.625 276.003906 502.640625 276.003906 Z M 502.640625 309.035156 C 677.03125 309.035156 818.53125 483.058594 832.964844 501.101562 C 818.53125 519.144531 677.03125 693.164062 502.640625 693.164062 C 328.25 693.164062 186.75 519.144531 172.320312 501.101562 C 186.75 483.058594 328.25 309.035156 502.640625 309.035156 Z M 502.640625 309.035156 "/>
<path style=" stroke:none;fill-rule:evenodd;fill:rgb(0%,0%,0%);fill-opacity:1;" d="M 644.640625 494.972656 C 644.640625 577.066406 578.089844 643.617188 495.996094 643.617188 C 413.902344 643.617188 347.351562 577.066406 347.351562 494.972656 C 347.351562 412.878906 413.902344 346.328125 495.996094 346.328125 C 578.089844 346.328125 644.640625 412.878906 644.640625 494.972656 Z M 644.640625 494.972656 "/>
</g>
</svg>
