<?xml version="1.0" encoding="UTF-8" standalone="no"?>
<svg
   xmlns:dc="http://purl.org/dc/elements/1.1/"
   xmlns:cc="http://creativecommons.org/ns#"
   xmlns:rdf="http://www.w3.org/1999/02/22-rdf-syntax-ns#"
   xmlns:svg="http://www.w3.org/2000/svg"
   xmlns="http://www.w3.org/2000/svg"
   xmlns:sodipodi="http://sodipodi.sourceforge.net/DTD/sodipodi-0.dtd"
   xmlns:inkscape="http://www.inkscape.org/namespaces/inkscape"
   width="1000"
   height="1000"
   viewBox="0 0 1000 1000"
   version="1.1"
   id="svg2"
   inkscape:version="0.91 r13725"
   sodipodi:docname="action-show-user-menu-small.svg">
  <metadata
     id="metadata20">
    <rdf:RDF>
      <cc:Work
         rdf:about="">
        <dc:format>image/svg+xml</dc:format>
        <dc:type
           rdf:resource="http://purl.org/dc/dcmitype/StillImage" />
        <dc:title>p_user_icon_small</dc:title>
      </cc:Work>
    </rdf:RDF>
  </metadata>
  <sodipodi:namedview
     pagecolor="#ffffff"
     bordercolor="#666666"
     borderopacity="1"
     objecttolerance="10"
     gridtolerance="10"
     guidetolerance="10"
     inkscape:pageopacity="0"
     inkscape:pageshadow="2"
     inkscape:window-width="1366"
     inkscape:window-height="703"
     id="namedview18"
     showgrid="false"
     inkscape:zoom="0.53196161"
     inkscape:cx="503.33909"
     inkscape:cy="486.96528"
     inkscape:window-x="0"
     inkscape:window-y="0"
     inkscape:window-maximized="1"
     inkscape:current-layer="svg2" />
  <!-- Generator: Sketch 3.8.3 (29802) - http://www.bohemiancoding.com/sketch -->
  <title
     id="title4">p_user_icon_small</title>
  <desc
     id="desc6">Created with Sketch.</desc>
  <defs
     id="defs8" />
  <path
     d="m 503.35878,100.59131 c -115.84646,0 -210.1378,94.29134 -210.1378,210.1378 0,115.89567 94.29134,210.13779 210.1378,210.13779 115.84645,0 210.13779,-94.24212 210.13779,-210.13779 0,-115.84646 -94.29134,-210.1378 -210.13779,-210.1378 m 0,490.00984 c -154.33071,0 -279.87205,-125.54133 -279.87205,-279.87204 0,-154.33071 125.54134,-279.872047 279.87205,-279.872047 154.3307,0 279.87204,125.541337 279.87204,279.872047 0,154.33071 -125.54134,279.87204 -279.87204,279.87204"
     id="path14"
     inkscape:connector-curvature="0"
     style="fill:#000000;fill-rule:evenodd;stroke:none;stroke-width:1;fill-opacity:1" />
  <path
     d="m 89.904056,925.47812 826.870074,0 C 862.98476,744.57261 695.46507,617.30883 503.33909,617.30883 c -192.07677,0 -359.64566,127.26378 -413.435034,308.16929 l 0,0 z m 913.435044,69.73425 -1000.000004,0 7.972441,-41.43701 C 56.537914,718.39151 263.47689,547.57458 503.33909,547.57458 c 239.8622,0 446.75197,170.81693 492.02756,406.20078 l 7.97245,41.43701 z"
     id="path16"
     inkscape:connector-curvature="0"
     style="fill:#000000;fill-rule:evenodd;stroke:none;stroke-width:1;fill-opacity:1" />
</svg>
