<?xml version="1.0" encoding="UTF-8" standalone="no"?>
<svg
   xmlns:dc="http://purl.org/dc/elements/1.1/"
   xmlns:cc="http://creativecommons.org/ns#"
   xmlns:rdf="http://www.w3.org/1999/02/22-rdf-syntax-ns#"
   xmlns:svg="http://www.w3.org/2000/svg"
   xmlns="http://www.w3.org/2000/svg"
   xmlns:sodipodi="http://sodipodi.sourceforge.net/DTD/sodipodi-0.dtd"
   xmlns:inkscape="http://www.inkscape.org/namespaces/inkscape"
   width="1000"
   height="1000"
   viewBox="0 0 1000 1000"
   version="1.1"
   id="svg2"
   inkscape:version="0.91 r13725"
   sodipodi:docname="action-schedule_call.svg">
  <metadata
     id="metadata25">
    <rdf:RDF>
      <cc:Work
         rdf:about="">
        <dc:format>image/svg+xml</dc:format>
        <dc:type
           rdf:resource="http://purl.org/dc/dcmitype/StillImage" />
        <dc:title>sb_schedule_call</dc:title>
      </cc:Work>
    </rdf:RDF>
  </metadata>
  <sodipodi:namedview
     pagecolor="#ffffff"
     bordercolor="#666666"
     borderopacity="1"
     objecttolerance="10"
     gridtolerance="10"
     guidetolerance="10"
     inkscape:pageopacity="0"
     inkscape:pageshadow="2"
     inkscape:window-width="1366"
     inkscape:window-height="703"
     id="namedview23"
     showgrid="false"
     inkscape:zoom="0.513"
     inkscape:cx="500"
     inkscape:cy="500"
     inkscape:window-x="0"
     inkscape:window-y="0"
     inkscape:window-maximized="1"
     inkscape:current-layer="svg2" />
  <!-- Generator: Sketch 3.8.3 (29802) - http://www.bohemiancoding.com/sketch -->
  <title
     id="title4">sb_schedule_call</title>
  <desc
     id="desc6">Created with Sketch.</desc>
  <defs
     id="defs8" />
  <path
     id="path17"
     style="fill:#000000;fill-rule:evenodd;stroke:none;stroke-width:1"
     d="m 777.74011,628.41485 c -2.47774,-2.51032 -4.82578,-4.98826 -7.20616,-7.49052 L 756.82027,606.9263 c -55.21216,-54.30226 -76.88758,-76.51387 -79.17861,-78.06558 -2.50226,-2.38032 -4.98013,-4.76081 -7.49052,-7.2062 -27.15926,-25.55064 -46.04807,-5.17512 -70.64007,32.01755 -2.25032,3.42842 -4.37893,6.66997 -6.31251,9.71655 -0.0645,0.0903 -0.12903,0.1871 -0.19355,0.31613 -0.73129,1.10484 -1.33226,2.06355 -2.03097,3.13581 -27.73606,43.06645 -25.42068,44.017 -35.09661,41.73409 -0.4142,-0.0645 -0.76355,-0.18709 -1.17,-0.31612 -31.48945,-9.83842 -27.86607,-11.73949 -88.99265,-73.93846 -62.16652,-61.12661 -64.10006,-57.51132 -73.93848,-88.99268 -0.12904,-0.37354 -0.22904,-0.75548 -0.31613,-1.17 -2.29097,-9.68406 -1.33226,-7.39303 41.726,-35.09661 1.08064,-0.69871 2.09613,-1.33226 3.14419,-2.03097 0.0968,-0.0645 0.19355,-0.12903 0.31613,-0.19355 3.04645,-1.96612 6.25565,-4.06212 9.71655,-6.31251 37.19268,-24.60013 57.56819,-43.51329 32.01755,-70.6482 -2.47774,-2.50225 -4.82578,-4.98013 -7.2062,-7.48238 -1.55161,-2.29097 -23.7958,-23.96646 -78.06558,-79.17862 l -14.03206,-13.74742 c -2.50226,-2.38032 -4.98013,-4.76077 -7.49052,-7.20619 -30.20584,-28.43474 -58.16939,-8.02671 -87.20533,37.16829 -28.71911,44.71568 -38.17569,71.90742 -38.24069,72.12678 -12.98249,41.06793 11.52014,91.27558 21.83789,108.53951 35.66531,60.07046 49.56584,85.23929 128.74445,163.18301 77.94372,79.17861 103.11252,93.07925 163.18298,128.74442 17.26396,10.31774 67.47161,34.82032 108.50703,21.83806 0.21935,-0.0645 27.38671,-9.52161 72.12677,-38.24097 45.22752,-29.0358 65.63555,-56.99935 37.20078,-87.20519 l 0,0 z M 500.5,-0.5 C 367.89795,-0.5 240.71107,52.183457 146.94727,145.94727 53.183457,239.71107 0.5,366.89795 0.5,499.5 0.5,632.10205 53.183457,759.28893 146.94727,853.05273 240.71107,946.81654 367.89795,999.5 500.5,999.5 633.10205,999.5 760.28893,946.81654 854.05273,853.05273 947.81654,759.28893 1000.5,632.10205 1000.5,499.5 1000.5,366.89795 947.81654,239.71107 854.05273,145.94727 760.28893,52.183457 633.10205,-0.5 500.5,-0.5 Z m 0,32.257812 c 124.05907,0 243.02113,49.275036 330.74414,136.998048 87.72301,87.72301 136.99805,206.68507 136.99805,330.74414 0,124.05907 -49.27504,243.02113 -136.99805,330.74414 C 743.52113,917.96715 624.55907,967.24219 500.5,967.24219 376.44093,967.24219 257.47887,917.96715 169.75586,830.24414 82.032848,742.52113 32.757812,623.55907 32.757812,499.5 32.757812,375.44093 82.032848,256.47887 169.75586,168.75586 257.47887,81.032848 376.44093,31.757812 500.5,31.757812 Z" />
</svg>
