<?xml version="1.0" encoding="UTF-8"?>
<svg xmlns="http://www.w3.org/2000/svg" xmlns:xlink="http://www.w3.org/1999/xlink" width="1024pt" height="1024pt" viewBox="0 0 1024 1024" version="1.1">
<g id="surface1">
<path style=" stroke:none;fill-rule:evenodd;fill:rgb(0%,0%,0%);fill-opacity:1;" d="M 689.070312 410.773438 L 689.070312 529.09375 L 614.152344 529.09375 L 614.152344 410.773438 L 504.75 410.773438 L 504.75 344.773438 L 614.152344 344.773438 L 614.152344 227.046875 L 689.070312 227.046875 L 689.070312 344.773438 L 799.066406 344.773438 L 799.066406 410.773438 Z M 532.351562 583.597656 L 510.878906 583.597656 C 508.136719 583.597656 505.367188 581.390625 505.367188 578.089844 L 505.367188 527.445312 C 505.367188 469.078125 460.21875 419.535156 401.871094 417.34375 C 340.765625 415.132812 290.101562 464.128906 290.101562 525.238281 L 290.101562 578.648438 C 290.101562 581.390625 287.894531 584.160156 284.589844 584.160156 L 263.121094 584.160156 C 254.859375 584.160156 248.253906 590.765625 248.253906 599.019531 L 248.253906 793.910156 C 248.253906 802.171875 254.859375 808.777344 263.121094 808.777344 L 531.777344 808.777344 C 540.03125 808.777344 546.636719 802.171875 546.636719 793.910156 L 546.636719 598.464844 C 547.214844 590.207031 540.609375 583.597656 532.351562 583.597656 Z M 323.695312 525.238281 C 323.695312 482.851562 358.929688 448.707031 401.871094 450.914062 C 442.070312 453.125 472.894531 487.25 472.894531 527.445312 L 472.894531 578.648438 C 472.894531 581.390625 470.683594 584.160156 467.382812 584.160156 L 328.648438 584.160156 C 325.898438 584.160156 323.132812 581.949219 323.132812 578.648438 L 323.132812 525.238281 Z M 512.511719 -0.511719 C 376.726562 -0.511719 246.488281 53.4375 150.472656 149.449219 C 54.460938 245.464844 0.511719 375.703125 0.511719 511.488281 C 0.511719 647.273438 54.460938 777.511719 150.472656 873.527344 C 246.488281 969.539062 376.726562 1023.488281 512.511719 1023.488281 C 648.296875 1023.488281 778.535156 969.539062 874.550781 873.527344 C 970.5625 777.511719 1024.511719 647.273438 1024.511719 511.488281 C 1024.511719 375.703125 970.5625 245.464844 874.550781 149.449219 C 778.535156 53.4375 648.296875 -0.511719 512.511719 -0.511719 Z M 512.511719 32.519531 C 639.546875 32.519531 761.367188 82.976562 851.195312 172.804688 C 941.023438 262.632812 991.480469 384.453125 991.480469 511.488281 C 991.480469 638.523438 941.023438 760.339844 851.195312 850.171875 C 761.367188 940 639.546875 990.457031 512.511719 990.457031 C 385.476562 990.457031 263.660156 940 173.828125 850.171875 C 84 760.339844 33.542969 638.523438 33.542969 511.488281 C 33.542969 384.453125 84 262.632812 173.828125 172.804688 C 263.660156 82.976562 385.476562 32.519531 512.511719 32.519531 Z M 512.511719 32.519531 "/>
</g>
</svg>
