<?xml version="1.0" encoding="UTF-8"?>
<svg xmlns="http://www.w3.org/2000/svg" xmlns:xlink="http://www.w3.org/1999/xlink" width="1024pt" height="1024pt" viewBox="0 0 1024 1024" version="1.1">
<g id="surface1">
<path style=" stroke:none;fill-rule:evenodd;fill:rgb(0%,0%,0%);fill-opacity:1;" d="M 512.511719 -0.511719 C 229.9375 -0.511719 0.511719 228.914062 0.511719 511.488281 C 0.511719 794.0625 229.9375 1023.488281 512.511719 1023.488281 C 795.085938 1023.488281 1024.511719 794.0625 1024.511719 511.488281 C 1024.511719 228.914062 795.085938 -0.511719 512.511719 -0.511719 Z M 512.511719 32.519531 C 777.234375 32.519531 991.480469 246.765625 991.480469 511.488281 C 991.480469 776.210938 777.234375 990.457031 512.511719 990.457031 C 247.789062 990.457031 33.542969 776.210938 33.542969 511.488281 C 33.542969 246.765625 247.789062 32.519531 512.511719 32.519531 Z M 512.511719 32.519531 "/>
<path style=" stroke:none;fill-rule:evenodd;fill:rgb(0%,0%,0%);fill-opacity:1;" d="M 843.164062 603.734375 L 757.945312 603.734375 L 757.945312 420.960938 C 757.945312 361.507812 709.738281 313.292969 650.289062 313.292969 L 408.097656 313.292969 C 348.648438 313.292969 300.480469 361.507812 300.480469 420.960938 L 300.480469 603.734375 L 215.222656 603.734375 L 215.222656 654.179688 L 843.164062 654.179688 Z M 843.164062 603.734375 "/>
</g>
</svg>
