<?xml version="1.0" encoding="UTF-8"?>
<svg xmlns="http://www.w3.org/2000/svg" xmlns:xlink="http://www.w3.org/1999/xlink" width="1024pt" height="1024pt" viewBox="0 0 1024 1024" version="1.1">
<g id="surface1">
<path style=" stroke:none;fill-rule:evenodd;fill:rgb(0%,0%,0%);fill-opacity:1;" d="M 515.4375 103.003906 C 396.8125 103.003906 300.257812 199.558594 300.257812 318.1875 C 300.257812 436.863281 396.8125 533.367188 515.4375 533.367188 C 634.066406 533.367188 730.621094 436.863281 730.621094 318.1875 C 730.621094 199.558594 634.066406 103.003906 515.4375 103.003906 M 515.4375 604.777344 C 357.40625 604.777344 228.851562 476.222656 228.851562 318.1875 C 228.851562 160.152344 357.40625 31.597656 515.4375 31.597656 C 673.472656 31.597656 802.027344 160.152344 802.027344 318.1875 C 802.027344 476.222656 673.472656 604.777344 515.4375 604.777344 "/>
<path style=" stroke:none;fill-rule:evenodd;fill:rgb(0%,0%,0%);fill-opacity:1;" d="M 92.0625 947.691406 L 938.777344 947.691406 C 883.695312 762.441406 712.15625 632.125 515.417969 632.125 C 318.734375 632.125 147.140625 762.441406 92.0625 947.691406 Z M 1027.417969 1019.097656 L 3.417969 1019.097656 L 11.582031 976.664062 C 57.894531 735.632812 269.800781 560.714844 515.417969 560.714844 C 761.039062 560.714844 972.894531 735.632812 1019.253906 976.664062 Z M 1027.417969 1019.097656 "/>
</g>
</svg>
