<?xml version="1.0" encoding="UTF-8"?>
<svg xmlns="http://www.w3.org/2000/svg" xmlns:xlink="http://www.w3.org/1999/xlink" width="1024pt" height="1024pt" viewBox="0 0 1024 1024" version="1.1">
<g id="surface1">
<path style=" stroke:none;fill-rule:evenodd;fill:rgb(0%,0%,0%);fill-opacity:1;" d="M 512.511719 -0.511719 C 376.726562 -0.511719 246.488281 53.4375 150.472656 149.449219 C 54.460938 245.464844 0.511719 375.703125 0.511719 511.488281 C 0.511719 647.273438 54.460938 777.511719 150.472656 873.527344 C 246.488281 969.539062 376.726562 1023.488281 512.511719 1023.488281 C 648.296875 1023.488281 778.535156 969.539062 874.550781 873.527344 C 970.5625 777.511719 1024.511719 647.273438 1024.511719 511.488281 C 1024.511719 375.703125 970.5625 245.464844 874.550781 149.449219 C 778.535156 53.4375 648.296875 -0.511719 512.511719 -0.511719 Z M 512.511719 32.519531 C 639.546875 32.519531 761.367188 82.976562 851.195312 172.804688 C 941.023438 262.632812 991.480469 384.453125 991.480469 511.488281 C 991.480469 638.523438 941.023438 760.339844 851.195312 850.171875 C 761.367188 940 639.546875 990.457031 512.511719 990.457031 C 385.476562 990.457031 263.660156 940 173.828125 850.171875 C 84 760.339844 33.542969 638.523438 33.542969 511.488281 C 33.542969 384.453125 84 262.632812 173.828125 172.804688 C 263.660156 82.976562 385.476562 32.519531 512.511719 32.519531 Z M 512.511719 32.519531 "/>
<path style=" stroke:none;fill-rule:evenodd;fill:rgb(0%,0%,0%);fill-opacity:1;" d="M 846.101562 524.609375 C 905.40625 542.265625 895.253906 586.027344 895.066406 615.316406 L 747.070312 615.316406 C 741.742188 597.589844 728.617188 581.011719 697.195312 571.710938 L 687.242188 568.695312 C 645.679688 556.449219 623.464844 549.820312 617.664062 536.511719 C 616.214844 531.699219 616.6875 526.40625 630.515625 521.25 C 675.0625 508.078125 697.597656 501.175781 702.929688 484.253906 L 705.761719 484.253906 C 704.96875 483.585938 704.246094 482.917969 703.585938 482.113281 C 681.574219 460.566406 664.777344 418.550781 664.777344 384.640625 C 664.777344 336.664062 700.957031 305.082031 735.214844 305.082031 C 769.40625 305.082031 803.863281 339.148438 803.863281 387.175781 C 803.863281 421.105469 785.160156 461.851562 762.234375 482.644531 C 766.910156 502.324219 792.664062 508.746094 846.101562 524.609375 Z M 846.101562 524.609375 "/>
<path style=" stroke:none;fill-rule:evenodd;fill:rgb(0%,0%,0%);fill-opacity:1;" d="M 743.917969 725.65625 L 284.074219 725.65625 C 283.804688 720.960938 283.484375 716.285156 282.960938 710.804688 C 281.511719 692.339844 280.128906 673.398438 285.1875 656.011719 C 291.394531 635.664062 307.539062 617.730469 344.765625 606.703125 L 359.1875 602.007812 C 424.683594 583.015625 459.734375 572.308594 471.339844 547.214844 L 475.015625 540.929688 L 474.761719 532.964844 C 473.902344 532.433594 473.378906 531.886719 472.179688 530.484375 C 468.234375 526.335938 464.289062 522.261719 460.59375 517.3125 C 435.15625 484.527344 417.109375 433.882812 417.109375 392.054688 C 417.109375 338.597656 456.105469 281.941406 514.28125 281.941406 C 559.757812 281.941406 608.640625 327.636719 608.640625 395.875 C 608.640625 439.363281 586.308594 493.296875 555.792969 525 C 553.820312 527.210938 551.578125 529.148438 549.605469 531.097656 L 545.910156 534.4375 L 547.039062 539.390625 C 554.949219 570.765625 590.523438 581.472656 662.007812 602.144531 L 676.699219 606.820312 C 713.742188 617.867188 731.199219 636.007812 738.839844 656.132812 L 739.113281 656.132812 C 746.160156 675.675781 745.300781 696.878906 744.441406 716.679688 C 744.171875 719.554688 744.171875 722.84375 743.917969 725.65625 Z M 743.917969 725.65625 "/>
<path style=" stroke:none;fill-rule:evenodd;fill:rgb(0%,0%,0%);fill-opacity:1;" d="M 180.625 524.609375 C 121.269531 542.265625 131.472656 586.027344 131.675781 615.316406 L 279.65625 615.316406 C 285.003906 597.589844 298.109375 581.011719 329.601562 571.710938 L 339.484375 568.695312 C 381.0625 556.449219 403.328125 549.820312 409.132812 536.511719 C 407.546875 531.21875 410.445312 523.324219 396.210938 521.25 C 351.746094 508.078125 329.144531 501.175781 323.867188 484.253906 L 321.097656 484.253906 C 321.824219 483.585938 322.617188 482.917969 323.273438 482.113281 C 345.285156 460.566406 362.085938 418.550781 362.085938 384.640625 C 362.085938 336.664062 325.921875 305.082031 291.648438 305.082031 C 257.390625 305.082031 222.996094 339.148438 222.996094 387.175781 C 222.996094 421.105469 241.636719 461.851562 264.574219 482.644531 C 259.835938 502.324219 233.996094 508.746094 180.625 524.609375 Z M 180.625 524.609375 "/>
</g>
</svg>
