<?xml version="1.0" encoding="UTF-8" standalone="no"?>
<svg
   xmlns:dc="http://purl.org/dc/elements/1.1/"
   xmlns:cc="http://creativecommons.org/ns#"
   xmlns:rdf="http://www.w3.org/1999/02/22-rdf-syntax-ns#"
   xmlns:svg="http://www.w3.org/2000/svg"
   xmlns="http://www.w3.org/2000/svg"
   xmlns:sodipodi="http://sodipodi.sourceforge.net/DTD/sodipodi-0.dtd"
   xmlns:inkscape="http://www.inkscape.org/namespaces/inkscape"
   width="1024pt"
   height="1024pt"
   viewBox="0 0 1365.3333 1365.3333"
   version="1.1"
   id="svg2"
   inkscape:version="0.92.2 (unknown)"
   sodipodi:docname="action-delete.svg">
  <metadata
     id="metadata19">
    <rdf:RDF>
      <cc:Work
         rdf:about="">
        <dc:format>image/svg+xml</dc:format>
        <dc:type
           rdf:resource="http://purl.org/dc/dcmitype/StillImage" />
        <dc:title>admin_user_management</dc:title>
      </cc:Work>
    </rdf:RDF>
  </metadata>
  <sodipodi:namedview
     pagecolor="#ffffff"
     bordercolor="#666666"
     borderopacity="1"
     objecttolerance="10"
     gridtolerance="10"
     guidetolerance="10"
     inkscape:pageopacity="0"
     inkscape:pageshadow="2"
     inkscape:window-width="1920"
     inkscape:window-height="1015"
     id="namedview17"
     showgrid="false"
     inkscape:zoom="0.35658699"
     inkscape:cx="350.81"
     inkscape:cy="1072.5588"
     inkscape:window-x="0"
     inkscape:window-y="0"
     inkscape:window-maximized="1"
     inkscape:current-layer="svg2"
     showguides="false"
     inkscape:object-nodes="true"
     inkscape:snap-nodes="true"
     inkscape:object-paths="true"
     inkscape:snap-midpoints="true"
     units="pt">
    <inkscape:grid
       type="xygrid"
       id="grid820"
       spacingx="32"
       spacingy="32" />
  </sodipodi:namedview>
  <!-- Generator: Sketch 3.8.3 (29802) - http://www.bohemiancoding.com/sketch -->
  <title
     id="title4">admin_user_management</title>
  <desc
     id="desc6">Created with Sketch.</desc>
  <defs
     id="defs8">
    <inkscape:perspective
       sodipodi:type="inkscape:persp3d"
       inkscape:vp_x="0 : 511.99997 : 1"
       inkscape:vp_y="0 : 999.99995 : 0"
       inkscape:vp_z="1023.9999 : 511.99997 : 1"
       inkscape:persp3d-origin="511.99997 : 341.33331 : 1"
       id="perspective905" />
  </defs>
  <path
     style="color:#000000;font-style:normal;font-variant:normal;font-weight:normal;font-stretch:normal;font-size:medium;line-height:normal;font-family:sans-serif;font-variant-ligatures:normal;font-variant-position:normal;font-variant-caps:normal;font-variant-numeric:normal;font-variant-alternates:normal;font-feature-settings:normal;text-indent:0;text-align:start;text-decoration:none;text-decoration-line:none;text-decoration-style:solid;text-decoration-color:#000000;letter-spacing:normal;word-spacing:normal;text-transform:none;writing-mode:lr-tb;direction:ltr;text-orientation:mixed;dominant-baseline:auto;baseline-shift:baseline;text-anchor:start;white-space:normal;shape-padding:0;clip-rule:nonzero;display:inline;overflow:visible;visibility:visible;opacity:1;isolation:auto;mix-blend-mode:normal;color-interpolation:sRGB;color-interpolation-filters:linearRGB;solid-color:#000000;solid-opacity:1;vector-effect:none;fill:#000000;fill-opacity:1;fill-rule:nonzero;stroke:none;stroke-width:50.31641388;stroke-linecap:butt;stroke-linejoin:miter;stroke-miterlimit:4;stroke-dasharray:none;stroke-dashoffset:0;stroke-opacity:1;color-rendering:auto;image-rendering:auto;shape-rendering:auto;text-rendering:auto;enable-background:accumulate"
     d="m 380.67959,135.96683 h -81.27526 -9.14441 -79.89207 c -11.25742,0 -20.98499,4.00448 -28.91722,11.42683 -7.93221,7.42238 -14.18951,103.63302 -11.37521,117.33976 l 26.61021,129.59916 123.83783,606.71332 0.93851,0.9876 39.33918,191.5881 c 1.58965,7.742 4.7363,15.7518 11.31874,22.9396 6.58244,7.1879 17.7163,12.8052 28.97371,12.8052 h 137.16629 229.97649 218.57176 c 11.22022,0 22.26996,-5.472 28.95406,-12.6897 6.6841,-7.2177 9.9735,-15.4863 11.4489,-23.6349 l 27.2293,-150.3817 4.8793,-26.9493 13.9919,-77.28038 90.567,-500.20365 31.5191,-174.07317 c 2.4363,-13.45606 -3.6208,-109.29657 -11.5006,-116.71817 -7.8797,-7.42159 -17.6847,-11.4686 -28.9048,-11.4686 H 954.6872 Z m 343.56432,0 h -97.19815 z m -166.72718,0 H 453.58924 Z m 327.6439,0 H 797.15358 Z M 222.35486,269.18278 h 55.5053 l 23.84133,25.00096 -62.0602,59.18567 z m 178.47095,0 H 605.5016 l 31.42563,32.9538 L 501.75101,431.04783 372.83976,295.8716 Z m 343.56433,0 H 933.14301 L 972.15544,310.08944 836.97677,439.00069 708.06552,303.82444 Z m 343.56916,0 h 55.3948 l -22.4483,123.98033 -77.6121,-81.38583 z M 336.42669,330.5968 465.33794,465.77303 330.16172,594.68429 277.94614,539.93078 251.57915,411.51336 Z M 671.65245,338.54967 800.56367,473.7259 665.38745,602.63712 536.47619,467.4609 Z m 335.22815,7.95282 102.93,107.93461 -11.3825,62.87342 -97.8149,93.27945 -128.91124,-135.17623 z m -798.25711,105.97405 3.86464,18.8146 z m 22.93966,111.72308 21.37956,104.12401 z M 500.06314,502.18611 628.9744,637.36234 493.79817,766.27357 364.88691,631.09735 Z M 835.2889,510.13896 964.20014,645.31518 829.02392,774.22644 700.11512,639.0502 Z m 276.3104,216.8323 33.4181,-184.5615 z m -28.3891,-125.62151 -14.5863,80.55785 -33.2855,-34.90456 z M 328.4763,665.82011 457.38755,800.9988 352.15795,901.34908 307.83625,685.50196 Z M 663.70205,673.7754 792.61085,808.95164 657.43463,937.8629 528.52337,802.68665 Z m 335.22331,7.95284 58.60594,61.45335 -30.8091,170.15204 -34.05938,32.48209 -128.9137,-135.17623 z m -734.04478,44.73935 37.50392,182.65253 z m 835.62352,61.77766 -11.9772,66.14595 z M 492.11275,837.41187 621.02156,972.58809 485.84531,1101.4969 367.84743,977.76469 364.0958,959.49306 Z m 335.2233,7.95284 L 956.24974,980.54094 821.07352,1109.4522 692.15983,974.27594 Z M 655.7492,1008.9987 784.66045,1144.1773 748.09262,1179.05 H 559.80405 l -39.23352,-41.1401 z m 335.2233,7.9553 14.2768,14.9696 -26.63724,147.1264 h -91.16657 l -31.64921,-33.1848 z m -604.04759,53.7216 62.50735,65.5489 -41.01722,39.1156 z m 220.86401,158.6908 h 87.54271 z"
     id="path862"
     inkscape:connector-curvature="0"
     sodipodi:nodetypes="cccsssccccssccssccccccssccccccccccccccccccccccccccccccccccccccccccccccccccccccccccccccccccccccccccccccccccccccccccccccccccccccccccccccccccccccccccccc" />
</svg>
