<?xml version="1.0" encoding="UTF-8"?>
<svg xmlns="http://www.w3.org/2000/svg" xmlns:xlink="http://www.w3.org/1999/xlink" width="1024pt" height="1024pt" viewBox="0 0 1024 1024" version="1.1">
<g id="surface1">
<path style=" stroke:none;fill-rule:evenodd;fill:rgb(0%,0%,0%);fill-opacity:1;" d="M 377.519531 22.207031 C 169.546875 22.207031 0 191.753906 0 399.726562 C 0 607.699219 169.546875 777.246094 377.519531 777.246094 C 585.492188 777.246094 755.039062 607.699219 755.039062 399.726562 C 755.039062 191.753906 585.492188 22.207031 377.519531 22.207031 Z M 377.519531 111.035156 C 537.484375 111.035156 666.210938 239.761719 666.210938 399.726562 C 666.210938 559.695312 537.484375 688.417969 377.519531 688.417969 C 217.554688 688.417969 88.828125 559.695312 88.828125 399.726562 C 88.828125 239.761719 217.554688 111.035156 377.519531 111.035156 Z M 377.519531 111.035156 "/>
<path style=" stroke:none;fill-rule:evenodd;fill:rgb(0%,0%,0%);fill-opacity:1;" d="M 776.316406 665.3125 C 740.164062 665.332031 707.628906 687.253906 694.039062 720.753906 C 680.449219 754.253906 688.511719 792.648438 714.4375 817.851562 L 871.464844 974.878906 C 893.796875 997.851562 926.765625 1007.023438 957.753906 998.875 C 988.738281 990.730469 1012.9375 966.53125 1021.082031 935.542969 C 1029.230469 904.558594 1020.058594 871.585938 997.085938 849.257812 L 840.058594 692.226562 C 823.320312 675.011719 800.328125 665.304688 776.316406 665.3125 Z M 776.316406 665.3125 "/>
</g>
</svg>
