<?xml version="1.0" encoding="UTF-8"?>
<svg xmlns="http://www.w3.org/2000/svg" xmlns:xlink="http://www.w3.org/1999/xlink" width="1024pt" height="1024pt" viewBox="0 0 1024 1024" version="1.1">
<g id="surface1">
<path style=" stroke:none;fill-rule:evenodd;fill:rgb(0%,0%,0%);fill-opacity:1;" d="M 707.433594 437.976562 L 675.222656 437.976562 C 671.109375 437.976562 666.953125 434.664062 666.953125 429.714844 L 666.953125 353.746094 C 666.953125 266.199219 599.234375 191.882812 511.714844 188.59375 C 420.054688 185.28125 344.058594 258.769531 344.058594 350.4375 L 344.058594 430.546875 C 344.058594 434.664062 340.746094 438.816406 335.789062 438.816406 L 303.585938 438.816406 C 291.195312 438.816406 281.285156 448.726562 281.285156 461.109375 L 281.285156 753.445312 C 281.285156 765.835938 291.195312 775.746094 303.585938 775.746094 L 706.570312 775.746094 C 718.953125 775.746094 728.863281 765.835938 728.863281 753.445312 L 728.863281 460.277344 C 729.726562 447.886719 719.816406 437.976562 707.433594 437.976562 Z M 394.445312 350.4375 C 394.445312 286.859375 447.300781 235.636719 511.714844 238.949219 C 572.011719 242.265625 618.246094 293.453125 618.246094 353.746094 L 618.246094 430.546875 C 618.246094 434.664062 614.933594 438.816406 609.976562 438.816406 L 401.875 438.816406 C 397.753906 438.816406 393.605469 435.503906 393.605469 430.546875 L 393.605469 350.4375 Z M 512.511719 -0.511719 C 376.726562 -0.511719 246.488281 53.4375 150.472656 149.449219 C 54.460938 245.464844 0.511719 375.703125 0.511719 511.488281 C 0.511719 647.273438 54.460938 777.511719 150.472656 873.527344 C 246.488281 969.539062 376.726562 1023.488281 512.511719 1023.488281 C 648.296875 1023.488281 778.535156 969.539062 874.550781 873.527344 C 970.5625 777.511719 1024.511719 647.273438 1024.511719 511.488281 C 1024.511719 375.703125 970.5625 245.464844 874.550781 149.449219 C 778.535156 53.4375 648.296875 -0.511719 512.511719 -0.511719 Z M 512.511719 32.519531 C 639.546875 32.519531 761.367188 82.976562 851.195312 172.804688 C 941.023438 262.632812 991.480469 384.453125 991.480469 511.488281 C 991.480469 638.523438 941.023438 760.339844 851.195312 850.171875 C 761.367188 940 639.546875 990.457031 512.511719 990.457031 C 385.476562 990.457031 263.660156 940 173.828125 850.171875 C 84 760.339844 33.542969 638.523438 33.542969 511.488281 C 33.542969 384.453125 84 262.632812 173.828125 172.804688 C 263.660156 82.976562 385.476562 32.519531 512.511719 32.519531 Z M 512.511719 32.519531 "/>
</g>
</svg>
