<?xml version="1.0" encoding="UTF-8" standalone="no"?>
<!-- Created with Inkscape (http://www.inkscape.org/) -->

<svg
   xmlns:dc="http://purl.org/dc/elements/1.1/"
   xmlns:cc="http://creativecommons.org/ns#"
   xmlns:rdf="http://www.w3.org/1999/02/22-rdf-syntax-ns#"
   xmlns:svg="http://www.w3.org/2000/svg"
   xmlns="http://www.w3.org/2000/svg"
   xmlns:sodipodi="http://sodipodi.sourceforge.net/DTD/sodipodi-0.dtd"
   xmlns:inkscape="http://www.inkscape.org/namespaces/inkscape"
   width="1024"
   height="1024"
   viewBox="0 0 1024 1024"
   id="svg2"
   version="1.1"
   inkscape:version="0.91 r13725"
   sodipodi:docname="action-vcard.svg">
  <defs
     id="defs4" />
  <sodipodi:namedview
     id="base"
     pagecolor="#ffffff"
     bordercolor="#666666"
     borderopacity="1.0"
     inkscape:pageopacity="0.0"
     inkscape:pageshadow="2"
     inkscape:zoom="0.26124381"
     inkscape:cx="-314.29145"
     inkscape:cy="1022.1181"
     inkscape:document-units="px"
     inkscape:current-layer="layer1"
     showgrid="false"
     units="px"
     inkscape:window-width="1366"
     inkscape:window-height="703"
     inkscape:window-x="0"
     inkscape:window-y="0"
     inkscape:window-maximized="1" />
  <metadata
     id="metadata7">
    <rdf:RDF>
      <cc:Work
         rdf:about="">
        <dc:format>image/svg+xml</dc:format>
        <dc:type
           rdf:resource="http://purl.org/dc/dcmitype/StillImage" />
        <dc:title></dc:title>
      </cc:Work>
    </rdf:RDF>
  </metadata>
  <g
     inkscape:label="Layer 1"
     inkscape:groupmode="layer"
     id="layer1"
     transform="translate(0,-28.362114)">
    <path
       id="rect4660"
       style="fill:#000000;fill-opacity:1;fill-rule:evenodd;stroke:none;stroke-width:15.3846159;stroke-miterlimit:4;stroke-dasharray:none;stroke-opacity:1"
       d="m 456.75725,668.67048 396.80142,0 c 11.32992,0 20.45112,9.1212 20.45112,20.45112 l 0,51.46496 c 0,11.32992 -9.1212,20.45112 -20.45112,20.45112 l -396.80142,0 c -11.32993,0 -20.45114,-9.1212 -20.45114,-20.45112 l 0,-51.46496 c 0,-11.32992 9.12121,-20.45112 20.45114,-20.45112 z m 2.92159,-122.70683 390.95824,0 c 12.94848,0 23.37271,10.42423 23.37271,23.37273 l 0,45.62177 c 0,12.94849 -10.42423,23.37272 -23.37271,23.37272 l -390.95824,0 c -12.94849,0 -23.37273,-10.42423 -23.37273,-23.37272 l 0,-45.62177 c 0,-12.9485 10.42424,-23.37273 23.37273,-23.37273 z m 0,-113.94204 390.95824,0 c 12.94848,0 23.37271,10.42424 23.37271,23.37273 l 0,45.62177 c 0,12.94848 -10.42423,23.37273 -23.37271,23.37273 l -390.95824,0 c -12.94849,0 -23.37273,-10.42425 -23.37273,-23.37273 l 0,-45.62177 c 0,-12.94849 10.42424,-23.37273 23.37273,-23.37273 z m 0,-122.70681 390.95824,0 c 12.94848,0 23.37271,10.42423 23.37271,23.37272 l 0,45.62178 c 0,12.94848 -10.42423,23.37272 -23.37271,23.37272 l -390.95824,0 c -12.94849,0 -23.37273,-10.42424 -23.37273,-23.37272 l 0,-45.62178 c 0,-12.94849 10.42424,-23.37272 23.37273,-23.37272 z m -286.31591,0 142.62301,0 c 11.32993,0 20.45114,9.12121 20.45114,20.45114 l 0,159.56381 c 0,11.32994 -9.12121,20.45114 -20.45114,20.45114 l -142.62301,0 c -11.32993,0 -20.45113,-9.1212 -20.45113,-20.45114 l 0,-159.56381 c 0,-11.32993 9.1212,-20.45114 20.45113,-20.45114 z m -42.30216,-78.86904 761.87846,0 c 38.69589,0 69.84817,31.1523 69.84817,69.84819 l 0,480.13633 c 0,38.6959 -31.15228,69.84818 -69.84817,69.84818 l -761.87846,0 c -38.695886,0 -69.848172,-31.15228 -69.848172,-69.84818 l 0,-480.13633 c 0,-38.69589 31.152286,-69.84819 69.848172,-69.84819 z"
       inkscape:connector-curvature="0" />
  </g>
</svg>
