<?xml version="1.0" encoding="UTF-8"?>
<svg xmlns="http://www.w3.org/2000/svg" xmlns:xlink="http://www.w3.org/1999/xlink" width="1024pt" height="1024pt" viewBox="0 0 1024 1024" version="1.1">
<g id="surface1">
<path style=" stroke:none;fill-rule:nonzero;fill:rgb(0%,0%,0%);fill-opacity:1;" d="M 391.234375 299.984375 C 431.347656 340.097656 471.457031 380.207031 511.570312 420.320312 C 554.734375 377.15625 597.898438 333.992188 641.0625 290.828125 C 668.53125 318.296875 696 345.765625 723.46875 373.230469 C 680.304688 416.398438 637.140625 459.5625 593.976562 502.726562 C 634.304688 543.054688 674.636719 583.386719 714.964844 623.714844 C 690.769531 647.914062 666.570312 672.113281 642.371094 696.3125 C 602.042969 655.980469 561.710938 615.648438 521.382812 575.320312 C 478 618.703125 434.617188 662.085938 391.234375 705.46875 C 363.765625 678 336.296875 650.53125 308.828125 623.0625 C 352.210938 579.679688 395.59375 536.296875 438.976562 492.914062 C 398.863281 452.804688 358.75 412.691406 318.640625 372.578125 C 342.835938 348.378906 367.035156 324.183594 391.234375 299.984375 Z M 512.511719 -0.511719 C 311.171875 -3.269531 117.105469 126.242188 40.773438 312.277344 C -38.9375 495.050781 2.410156 722.101562 141.960938 864.664062 C 276.199219 1009.148438 497.367188 1062.054688 682.578125 994.519531 C 874.539062 929.214844 1016.179688 740.679688 1023.84375 537.820312 C 1036.574219 340.613281 922.136719 143.609375 745.515625 55.539062 C 673.765625 18.644531 593.175781 -0.632812 512.511719 -0.511719 Z M 512.511719 32.519531 C 708.773438 29.679688 897.394531 161.5 962.4375 346.726562 C 1031.140625 528.371094 975.378906 748.613281 826.039062 873.726562 C 677.722656 1006.222656 444.945312 1028.058594 274.015625 927.042969 C 106.433594 833.953125 9.160156 633.613281 38.1875 444.460938 C 63.234375 246.496094 225.363281 76.105469 421.789062 41.085938 C 451.667969 35.363281 482.089844 32.519531 512.511719 32.519531 Z M 512.511719 32.519531 "/>
</g>
</svg>
