<?xml version="1.0" encoding="UTF-8" standalone="no"?>
<svg
   xmlns:dc="http://purl.org/dc/elements/1.1/"
   xmlns:cc="http://creativecommons.org/ns#"
   xmlns:rdf="http://www.w3.org/1999/02/22-rdf-syntax-ns#"
   xmlns:svg="http://www.w3.org/2000/svg"
   xmlns="http://www.w3.org/2000/svg"
   xmlns:sodipodi="http://sodipodi.sourceforge.net/DTD/sodipodi-0.dtd"
   xmlns:inkscape="http://www.inkscape.org/namespaces/inkscape"
   width="1024pt"
   height="1024pt"
   viewBox="0 0 1024 1024"
   version="1.1"
   id="svg7"
   sodipodi:docname="action-current-user.svg"
   inkscape:version="0.92.2 (unknown)">
  <metadata
     id="metadata13">
    <rdf:RDF>
      <cc:Work
         rdf:about="">
        <dc:format>image/svg+xml</dc:format>
        <dc:type
           rdf:resource="http://purl.org/dc/dcmitype/StillImage" />
        <dc:title />
      </cc:Work>
    </rdf:RDF>
  </metadata>
  <defs
     id="defs11" />
  <sodipodi:namedview
     pagecolor="#ffffff"
     bordercolor="#666666"
     borderopacity="1"
     objecttolerance="10"
     gridtolerance="10"
     guidetolerance="10"
     inkscape:pageopacity="0"
     inkscape:pageshadow="2"
     inkscape:window-width="1920"
     inkscape:window-height="1015"
     id="namedview9"
     showgrid="false"
     inkscape:zoom="0.34570312"
     inkscape:cx="-414.94412"
     inkscape:cy="152.42321"
     inkscape:window-x="0"
     inkscape:window-y="0"
     inkscape:window-maximized="1"
     inkscape:current-layer="svg7" />
  <path
     style="color:#000000;font-style:normal;font-variant:normal;font-weight:normal;font-stretch:normal;font-size:medium;line-height:normal;font-family:sans-serif;font-variant-ligatures:normal;font-variant-position:normal;font-variant-caps:normal;font-variant-numeric:normal;font-variant-alternates:normal;font-feature-settings:normal;text-indent:0;text-align:start;text-decoration:none;text-decoration-line:none;text-decoration-style:solid;text-decoration-color:#000000;letter-spacing:normal;word-spacing:normal;text-transform:none;writing-mode:lr-tb;direction:ltr;text-orientation:mixed;dominant-baseline:auto;baseline-shift:baseline;text-anchor:start;white-space:normal;shape-padding:0;clip-rule:nonzero;display:inline;overflow:visible;visibility:visible;opacity:1;isolation:auto;mix-blend-mode:normal;color-interpolation:sRGB;color-interpolation-filters:linearRGB;solid-color:#000000;solid-opacity:1;vector-effect:none;fill:#000000;fill-opacity:1;fill-rule:evenodd;stroke:none;stroke-width:30;stroke-linecap:butt;stroke-linejoin:miter;stroke-miterlimit:4;stroke-dasharray:none;stroke-dashoffset:0;stroke-opacity:1;color-rendering:auto;image-rendering:auto;shape-rendering:auto;text-rendering:auto;enable-background:accumulate"
     d="m 351.11523,441.72266 -12.23242,8.68554 C 268.52307,500.37671 222.51953,582.58583 222.51953,675.39844 v 15 h 551.56641 v -15 c 0,-90.99157 -44.21043,-171.88808 -112.3125,-222.08985 l -12.07227,-8.90039 -8.90039,12.07422 c -31.57549,42.83139 -82.21379,70.62696 -139.59961,70.62696 -58.49983,0 -109.97062,-28.87644 -141.40234,-73.1543 z m -6.31835,41.79296 c 37.30035,44.91905 93.54777,73.59376 156.40429,73.59376 61.5519,0 116.7794,-27.5059 154.06641,-70.80274 50.67201,42.09532 84.15575,104.07996 88.36523,174.0918 H 252.98242 c 4.30679,-71.60216 39.2267,-134.75532 91.81446,-176.88282 z"
     id="path4-3"
     inkscape:connector-curvature="0" />
  <path
     style="color:#000000;font-style:normal;font-variant:normal;font-weight:normal;font-stretch:normal;font-size:medium;line-height:normal;font-family:sans-serif;font-variant-ligatures:normal;font-variant-position:normal;font-variant-caps:normal;font-variant-numeric:normal;font-variant-alternates:normal;font-feature-settings:normal;text-indent:0;text-align:start;text-decoration:none;text-decoration-line:none;text-decoration-style:solid;text-decoration-color:#000000;letter-spacing:normal;word-spacing:normal;text-transform:none;writing-mode:lr-tb;direction:ltr;text-orientation:mixed;dominant-baseline:auto;baseline-shift:baseline;text-anchor:start;white-space:normal;shape-padding:0;clip-rule:nonzero;display:inline;overflow:visible;visibility:visible;opacity:1;isolation:auto;mix-blend-mode:normal;color-interpolation:sRGB;color-interpolation-filters:linearRGB;solid-color:#000000;solid-opacity:1;vector-effect:none;fill:#000000;fill-opacity:1;fill-rule:evenodd;stroke:none;stroke-width:30;stroke-linecap:butt;stroke-linejoin:miter;stroke-miterlimit:4;stroke-dasharray:none;stroke-dashoffset:0;stroke-opacity:1;color-rendering:auto;image-rendering:auto;shape-rendering:auto;text-rendering:auto;enable-background:accumulate"
     d="m 495.40625,214.17188 c -80.12095,0 -145.39062,65.26969 -145.39063,145.39062 0,80.12094 65.26968,145.39258 145.39063,145.39258 80.12094,0 145.38867,-65.27209 145.38867,-145.39258 0,-80.12048 -65.26773,-145.39062 -145.38867,-145.39062 z m 0,30 c 63.90824,0 115.38867,51.48194 115.38867,115.39062 0,63.90869 -51.48043,115.39258 -115.38867,115.39258 -63.90825,0 -115.39063,-51.48434 -115.39063,-115.39258 0,-63.90823 51.48238,-115.39063 115.39063,-115.39062 z"
     id="path6"
     inkscape:connector-curvature="0" />
  <path
     inkscape:connector-curvature="0"
     id="path822"
     d="M 512,2.1425781 C 388.50008,2.1425776 270.04973,51.649996 182.77734,139.68359 95.504956,227.71719 46.505859,347.07881 46.505859,471.5 c 0,124.42119 48.999097,243.78281 136.271481,331.81641 C 270.04973,891.35 388.50008,940.85742 512,940.85742 c 123.49992,0 241.95027,-49.50742 329.22266,-137.54101 87.27238,-88.0336 136.27148,-207.39522 136.27148,-331.81641 0,-124.42119 -48.9991,-243.78281 -136.27148,-331.81641 C 753.95027,51.649996 635.49992,2.1425781 512,2.1425781 Z m 0,44.9999999 c 111.47852,0 218.38316,44.652163 297.26562,124.222652 78.88247,79.5705 123.22852,187.52798 123.22852,300.13477 0,112.60679 -44.34605,220.56427 -123.22852,300.13477 C 730.38316,851.20526 623.47852,895.85742 512,895.85742 400.52148,895.85742 293.61684,851.20526 214.73438,771.63477 135.85191,692.06427 91.505859,584.10679 91.505859,471.5 91.505859,358.89321 135.85191,250.93573 214.73438,171.36523 293.61684,91.794741 400.52148,47.142578 512,47.142578 Z"
     style="color:#000000;font-style:normal;font-variant:normal;font-weight:normal;font-stretch:normal;font-size:medium;line-height:normal;font-family:sans-serif;font-variant-ligatures:normal;font-variant-position:normal;font-variant-caps:normal;font-variant-numeric:normal;font-variant-alternates:normal;font-feature-settings:normal;text-indent:0;text-align:start;text-decoration:none;text-decoration-line:none;text-decoration-style:solid;text-decoration-color:#000000;letter-spacing:normal;word-spacing:normal;text-transform:none;writing-mode:lr-tb;direction:ltr;text-orientation:mixed;dominant-baseline:auto;baseline-shift:baseline;text-anchor:start;white-space:normal;shape-padding:0;clip-rule:nonzero;display:inline;overflow:visible;visibility:visible;opacity:1;isolation:auto;mix-blend-mode:normal;color-interpolation:sRGB;color-interpolation-filters:linearRGB;solid-color:#000000;solid-opacity:1;vector-effect:none;fill:#1b1b1b;fill-opacity:1;fill-rule:nonzero;stroke:none;stroke-width:45;stroke-linecap:butt;stroke-linejoin:round;stroke-miterlimit:4;stroke-dasharray:none;stroke-dashoffset:136.73141479;stroke-opacity:1;paint-order:markers fill stroke;color-rendering:auto;image-rendering:auto;shape-rendering:auto;text-rendering:auto;enable-background:accumulate" />
</svg>
