<?xml version="1.0" encoding="UTF-8"?>
<svg xmlns="http://www.w3.org/2000/svg" xmlns:xlink="http://www.w3.org/1999/xlink" width="1024pt" height="1024pt" viewBox="0 0 1024 1024" version="1.1">
<g id="surface1">
<path style=" stroke:none;fill-rule:evenodd;fill:rgb(0%,0%,0%);fill-opacity:1;" d="M 297.96875 280.261719 C 273.964844 280.261719 254.035156 297.121094 249.339844 319.707031 L 521.613281 591.976562 L 793.890625 319.707031 C 789.160156 297.152344 769.257812 280.261719 745.253906 280.261719 L 297.9375 280.261719 M 248.253906 353.753906 L 248.253906 659.492188 L 401.136719 506.609375 L 248.253906 353.734375 M 794.96875 353.734375 L 644.308594 504.386719 L 794.96875 655.046875 L 794.96875 353.675781 M 626.742188 521.902344 L 530.410156 618.234375 C 525.570312 623.074219 517.683594 623.074219 512.84375 618.234375 L 418.734375 524.125 L 250.417969 692.433594 C 256.628906 712.792969 275.503906 727.519531 297.9375 727.519531 L 745.253906 727.519531 C 768.976562 727.519531 788.648438 711.058594 793.6875 688.90625 L 626.710938 521.933594 M 512.511719 -0.511719 C 376.726562 -0.511719 246.488281 53.4375 150.472656 149.449219 C 54.460938 245.464844 0.511719 375.703125 0.511719 511.488281 C 0.511719 647.273438 54.460938 777.511719 150.472656 873.527344 C 246.488281 969.539062 376.726562 1023.488281 512.511719 1023.488281 C 648.296875 1023.488281 778.535156 969.539062 874.550781 873.527344 C 970.5625 777.511719 1024.511719 647.273438 1024.511719 511.488281 C 1024.511719 375.703125 970.5625 245.464844 874.550781 149.449219 C 778.535156 53.4375 648.296875 -0.511719 512.511719 -0.511719 Z M 512.511719 32.519531 C 639.546875 32.519531 761.367188 82.976562 851.195312 172.804688 C 941.023438 262.632812 991.480469 384.453125 991.480469 511.488281 C 991.480469 638.523438 941.023438 760.339844 851.195312 850.171875 C 761.367188 940 639.546875 990.457031 512.511719 990.457031 C 385.476562 990.457031 263.660156 940 173.828125 850.171875 C 84 760.339844 33.542969 638.523438 33.542969 511.488281 C 33.542969 384.453125 84 262.632812 173.828125 172.804688 C 263.660156 82.976562 385.476562 32.519531 512.511719 32.519531 Z M 512.511719 32.519531 "/>
</g>
</svg>
