<?xml version="1.0" encoding="UTF-8"?>
<svg xmlns="http://www.w3.org/2000/svg" xmlns:xlink="http://www.w3.org/1999/xlink" width="1024pt" height="1024pt" viewBox="0 0 1024 1024" version="1.1">
<g id="surface1">
<path style=" stroke:none;fill-rule:evenodd;fill:rgb(0%,0%,0%);fill-opacity:1;" d="M 513.023438 23.953125 C 244.484375 23.953125 26 242.4375 26 510.976562 C 26 779.515625 244.484375 998 513.023438 998 C 781.5625 998 1000.023438 779.515625 1000.023438 510.976562 C 1000.023438 242.4375 781.5625 23.953125 513.023438 23.953125 M 513.023438 1022.976562 C 230.699219 1022.976562 1.023438 793.300781 1.023438 510.976562 C 1.023438 228.652344 230.699219 -1.023438 513.023438 -1.023438 C 795.324219 -1.023438 1025 228.652344 1025 510.976562 C 1025 793.300781 795.324219 1022.976562 513.023438 1022.976562 "/>
<path style=" stroke:none;fill-rule:evenodd;fill:rgb(0%,0%,0%);fill-opacity:1;" d="M 513.011719 249.574219 C 454.21875 249.574219 406.367188 297.425781 406.367188 356.21875 C 406.367188 415.039062 454.21875 462.867188 513.011719 462.867188 C 571.804688 462.867188 619.65625 415.039062 619.65625 356.21875 C 619.65625 297.425781 571.804688 249.574219 513.011719 249.574219 M 513.011719 498.257812 C 434.6875 498.257812 370.976562 434.542969 370.976562 356.21875 C 370.976562 277.894531 434.6875 214.183594 513.011719 214.183594 C 591.335938 214.183594 655.046875 277.894531 655.046875 356.21875 C 655.046875 434.542969 591.335938 498.257812 513.011719 498.257812 "/>
<path style=" stroke:none;fill-rule:evenodd;fill:rgb(0%,0%,0%);fill-opacity:1;" d="M 303.179688 668.207031 L 722.820312 668.207031 C 695.523438 576.398438 610.507812 511.808594 513 511.808594 C 415.523438 511.808594 330.480469 576.398438 303.179688 668.207031 Z M 766.753906 703.597656 L 259.25 703.597656 L 263.296875 682.570312 C 286.246094 563.109375 391.269531 476.417969 513 476.417969 C 634.734375 476.417969 739.730469 563.109375 762.707031 682.570312 Z M 766.753906 703.597656 "/>
</g>
</svg>
