<?xml version="1.0" encoding="UTF-8" standalone="no"?>
<svg
   xmlns:dc="http://purl.org/dc/elements/1.1/"
   xmlns:cc="http://creativecommons.org/ns#"
   xmlns:rdf="http://www.w3.org/1999/02/22-rdf-syntax-ns#"
   xmlns:svg="http://www.w3.org/2000/svg"
   xmlns="http://www.w3.org/2000/svg"
   xmlns:sodipodi="http://sodipodi.sourceforge.net/DTD/sodipodi-0.dtd"
   xmlns:inkscape="http://www.inkscape.org/namespaces/inkscape"
   width="1024pt"
   height="1024pt"
   viewBox="0 0 1024 1024"
   version="1.1"
   id="svg9"
   sodipodi:docname="action-view-record.svg"
   inkscape:version="0.92.2 (unknown)">
  <metadata
     id="metadata15">
    <rdf:RDF>
      <cc:Work
         rdf:about="">
        <dc:format>image/svg+xml</dc:format>
        <dc:type
           rdf:resource="http://purl.org/dc/dcmitype/StillImage" />
        <dc:title></dc:title>
      </cc:Work>
    </rdf:RDF>
  </metadata>
  <defs
     id="defs13" />
  <sodipodi:namedview
     pagecolor="#ffffff"
     bordercolor="#666666"
     borderopacity="1"
     objecttolerance="10"
     gridtolerance="10"
     guidetolerance="10"
     inkscape:pageopacity="0"
     inkscape:pageshadow="2"
     inkscape:window-width="1920"
     inkscape:window-height="1015"
     id="namedview11"
     showgrid="false"
     inkscape:zoom="0.17285156"
     inkscape:cx="682.66667"
     inkscape:cy="682.66667"
     inkscape:window-x="0"
     inkscape:window-y="0"
     inkscape:window-maximized="1"
     inkscape:current-layer="svg9" />
  <path
     inkscape:connector-curvature="0"
     id="path4"
     d="m 502.63998,202.92015 c -274.182,0 -485.685126,284.93465 -485.685126,284.93465 l -9.9971558,13.24676 9.9971558,13.24676 c 0,0 211.503126,284.93466 485.685126,284.93466 274.1872,0 485.68515,-284.93466 485.68515,-284.93466 l 10.00233,-13.24676 -10.00233,-13.24676 c 0,0 -211.49795,-284.93465 -485.68515,-284.93465 z m 0,43.7557 c 231.01105,0 418.45267,230.52462 437.5725,254.42571 C 921.09265,525.00264 733.65103,755.5221 502.63998,755.5221 271.62895,755.5221 84.18733,525.00264 65.072669,501.10156 84.18733,477.20047 271.62895,246.67585 502.63998,246.67585 Z m 0,0"
     style="fill:#000000;fill-opacity:1;fill-rule:evenodd;stroke:none;stroke-width:1.3246758" />
  <path
     inkscape:connector-curvature="0"
     id="path6"
     d="m 690.74394,492.98275 c 0,108.74761 -88.1582,196.90581 -196.9058,196.90581 -108.74761,0 -196.90581,-88.1582 -196.90581,-196.90581 0,-108.7476 88.1582,-196.90582 196.90581,-196.90582 108.7476,0 196.9058,88.15822 196.9058,196.90582 z m 0,0"
     style="fill:#000000;fill-opacity:1;fill-rule:evenodd;stroke:none;stroke-width:1.3246758" />
</svg>
