<?xml version="1.0" encoding="UTF-8"?>
<svg xmlns="http://www.w3.org/2000/svg" xmlns:xlink="http://www.w3.org/1999/xlink" width="1024pt" height="1024pt" viewBox="0 0 1024 1024" version="1.1">
<g id="surface1">
<path style=" stroke:none;fill-rule:evenodd;fill:rgb(0%,0%,0%);fill-opacity:1;" d="M 248.253906 709.679688 L 810.667969 709.679688 L 688.664062 494.640625 L 589.820312 542.875 L 486.453125 348.792969 L 372.792969 420.363281 L 248.253906 234.511719 Z M 512.511719 -0.511719 C 376.726562 -0.511719 246.488281 53.4375 150.472656 149.449219 C 54.460938 245.464844 0.511719 375.703125 0.511719 511.488281 C 0.511719 647.273438 54.460938 777.511719 150.472656 873.527344 C 246.488281 969.539062 376.726562 1023.488281 512.511719 1023.488281 C 648.296875 1023.488281 778.535156 969.539062 874.550781 873.527344 C 970.5625 777.511719 1024.511719 647.273438 1024.511719 511.488281 C 1024.511719 375.703125 970.5625 245.464844 874.550781 149.449219 C 778.535156 53.4375 648.296875 -0.511719 512.511719 -0.511719 Z M 512.511719 32.519531 C 639.546875 32.519531 761.367188 82.976562 851.195312 172.804688 C 941.023438 262.632812 991.480469 384.453125 991.480469 511.488281 C 991.480469 638.523438 941.023438 760.339844 851.195312 850.171875 C 761.367188 940 639.546875 990.457031 512.511719 990.457031 C 385.476562 990.457031 263.660156 940 173.828125 850.171875 C 84 760.339844 33.542969 638.523438 33.542969 511.488281 C 33.542969 384.453125 84 262.632812 173.828125 172.804688 C 263.660156 82.976562 385.476562 32.519531 512.511719 32.519531 Z M 512.511719 32.519531 "/>
</g>
</svg>
