<?xml version="1.0" encoding="UTF-8" standalone="no"?>
<svg
   xmlns:dc="http://purl.org/dc/elements/1.1/"
   xmlns:cc="http://creativecommons.org/ns#"
   xmlns:rdf="http://www.w3.org/1999/02/22-rdf-syntax-ns#"
   xmlns:svg="http://www.w3.org/2000/svg"
   xmlns="http://www.w3.org/2000/svg"
   xmlns:sodipodi="http://sodipodi.sourceforge.net/DTD/sodipodi-0.dtd"
   xmlns:inkscape="http://www.inkscape.org/namespaces/inkscape"
   width="1000"
   height="1000"
   viewBox="0 0 1000 1000"
   version="1.1"
   id="svg2"
   inkscape:version="0.91 r13725"
   sodipodi:docname="action-import_line_item.svg">
  <metadata
     id="metadata29">
    <rdf:RDF>
      <cc:Work
         rdf:about="">
        <dc:format>image/svg+xml</dc:format>
        <dc:type
           rdf:resource="http://purl.org/dc/dcmitype/StillImage" />
        <dc:title>sb_import_line_item</dc:title>
      </cc:Work>
    </rdf:RDF>
  </metadata>
  <sodipodi:namedview
     pagecolor="#ffffff"
     bordercolor="#666666"
     borderopacity="1"
     objecttolerance="10"
     gridtolerance="10"
     guidetolerance="10"
     inkscape:pageopacity="0"
     inkscape:pageshadow="2"
     inkscape:window-width="1366"
     inkscape:window-height="703"
     id="namedview27"
     showgrid="false"
     inkscape:zoom="0.513"
     inkscape:cx="152.04678"
     inkscape:cy="398.63548"
     inkscape:window-x="0"
     inkscape:window-y="0"
     inkscape:window-maximized="1"
     inkscape:current-layer="svg2" />
  <!-- Generator: Sketch 3.8.3 (29802) - http://www.bohemiancoding.com/sketch -->
  <title
     id="title4">sb_import_line_item</title>
  <desc
     id="desc6">Created with Sketch.</desc>
  <defs
     id="defs8" />
  <path
     style="fill:#000000;fill-opacity:1;fill-rule:evenodd;stroke:none;stroke-width:1"
     d="M 500.5 -0.5 C 367.89795 -0.5 240.71107 52.183453 146.94727 145.94727 C 53.183453 239.71107 0.5 366.89795 0.5 499.5 C 0.5 632.10205 53.183453 759.28893 146.94727 853.05273 C 240.71107 946.81654 367.89795 999.5 500.5 999.5 C 633.10205 999.5 760.28893 946.81654 854.05273 853.05273 C 947.81654 759.28893 1000.5 632.10205 1000.5 499.5 C 1000.5 366.89795 947.81654 239.71107 854.05273 145.94727 C 760.28893 52.183453 633.10205 -0.5 500.5 -0.5 z M 500.5 31.757812 C 624.55907 31.757812 743.52113 81.032847 831.24414 168.75586 C 918.96715 256.47887 968.24219 375.44093 968.24219 499.5 C 968.24219 623.55907 918.96715 742.52113 831.24414 830.24414 C 743.52113 917.96715 624.55907 967.24219 500.5 967.24219 C 376.44093 967.24219 257.47887 917.96715 169.75586 830.24414 C 105.20781 765.69609 61.478131 684.23403 42.876953 596.27344 L 386.18359 596.27344 L 386.18359 789.82227 L 708.76367 531.75781 L 386.18359 273.69336 L 386.18359 467.24219 L 33.878906 467.24219 C 41.634656 354.97115 89.667653 248.84406 169.75586 168.75586 C 257.47887 81.032847 376.44093 31.757813 500.5 31.757812 z "
     id="Triangle-21" />
</svg>
