<?xml version="1.0" encoding="UTF-8"?>
<svg xmlns="http://www.w3.org/2000/svg" xmlns:xlink="http://www.w3.org/1999/xlink" width="1024pt" height="1024pt" viewBox="0 0 1024 1024" version="1.1">
<g id="surface1">
<path style=" stroke:none;fill-rule:evenodd;fill:rgb(0%,0%,0%);fill-opacity:1;" d="M 511.234375 247.230469 L 429.929688 736.285156 L 428.652344 742.714844 L 513.851562 742.714844 L 595.164062 253.660156 L 596.429688 247.230469 Z M 388.644531 322.101562 L 366.722656 336.3125 L 201.558594 439.539062 L 182.1875 451.132812 L 182.1875 538.910156 L 201.558594 550.511719 L 366.722656 653.730469 L 388.644531 667.945312 L 388.644531 569.878906 L 268.65625 495.007812 L 388.644531 420.132812 L 388.644531 322.066406 L 388.644531 322.105469 Z M 636.378906 322.101562 L 636.378906 420.167969 L 756.371094 495.042969 L 636.378906 569.914062 L 636.378906 667.980469 L 658.304688 653.765625 L 823.464844 550.546875 L 842.835938 538.945312 L 842.835938 451.167969 L 823.464844 439.574219 L 658.304688 336.347656 L 636.378906 322.136719 Z M 512.511719 -0.511719 C 376.726562 -0.511719 246.488281 53.4375 150.472656 149.449219 C 54.460938 245.464844 0.511719 375.703125 0.511719 511.488281 C 0.511719 647.273438 54.460938 777.511719 150.472656 873.527344 C 246.488281 969.539062 376.726562 1023.488281 512.511719 1023.488281 C 648.296875 1023.488281 778.535156 969.539062 874.550781 873.527344 C 970.5625 777.511719 1024.511719 647.273438 1024.511719 511.488281 C 1024.511719 375.703125 970.5625 245.464844 874.550781 149.449219 C 778.535156 53.4375 648.296875 -0.511719 512.511719 -0.511719 Z M 512.511719 32.519531 C 639.546875 32.519531 761.367188 82.976562 851.195312 172.804688 C 941.023438 262.632812 991.480469 384.453125 991.480469 511.488281 C 991.480469 638.523438 941.023438 760.339844 851.195312 850.171875 C 761.367188 940 639.546875 990.457031 512.511719 990.457031 C 385.476562 990.457031 263.660156 940 173.828125 850.171875 C 84 760.339844 33.542969 638.523438 33.542969 511.488281 C 33.542969 384.453125 84 262.632812 173.828125 172.804688 C 263.660156 82.976562 385.476562 32.519531 512.511719 32.519531 Z M 512.511719 32.519531 "/>
</g>
</svg>
