<?xml version="1.0" encoding="UTF-8"?>
<svg xmlns="http://www.w3.org/2000/svg" xmlns:xlink="http://www.w3.org/1999/xlink" width="1024pt" height="1024pt" viewBox="0 0 1024 1024" version="1.1">
<g id="surface1">
<path style=" stroke:none;fill-rule:evenodd;fill:rgb(0%,0%,0%);fill-opacity:1;" d="M 529.027344 148.132812 L 529.027344 841.8125 L 615.738281 841.8125 L 615.738281 148.132812 Z M 355.609375 234.84375 L 355.609375 755.101562 L 442.320312 755.101562 L 442.320312 234.84375 Z M 702.449219 321.554688 L 702.449219 668.390625 L 789.15625 668.390625 L 789.15625 321.554688 Z M 182.1875 408.261719 L 182.1875 581.683594 L 268.898438 581.683594 L 268.898438 408.261719 Z M 512.511719 -0.511719 C 376.726562 -0.511719 246.488281 53.4375 150.472656 149.449219 C 54.460938 245.464844 0.511719 375.703125 0.511719 511.488281 C 0.511719 647.273438 54.460938 777.515625 150.472656 873.527344 C 246.488281 969.542969 376.726562 1023.488281 512.511719 1023.488281 C 648.296875 1023.488281 778.535156 969.542969 874.550781 873.527344 C 970.5625 777.515625 1024.511719 647.273438 1024.511719 511.488281 C 1024.511719 375.703125 970.5625 245.464844 874.550781 149.449219 C 778.535156 53.4375 648.296875 -0.511719 512.511719 -0.511719 Z M 512.511719 32.523438 C 639.546875 32.523438 761.367188 82.980469 851.195312 172.808594 C 941.023438 262.636719 991.480469 384.453125 991.480469 511.488281 C 991.480469 638.523438 941.023438 760.339844 851.195312 850.171875 C 761.367188 940 639.546875 990.457031 512.511719 990.457031 C 385.476562 990.457031 263.660156 940 173.828125 850.171875 C 84 760.339844 33.542969 638.523438 33.542969 511.488281 C 33.542969 384.453125 84 262.636719 173.828125 172.808594 C 263.660156 82.980469 385.476562 32.523438 512.511719 32.523438 Z M 512.511719 32.523438 "/>
</g>
</svg>
