<?xml version="1.0" encoding="UTF-8"?>
<svg xmlns="http://www.w3.org/2000/svg" xmlns:xlink="http://www.w3.org/1999/xlink" width="1024pt" height="1024pt" viewBox="0 0 1024 1024" version="1.1">
<g id="surface1">
<path style=" stroke:none;fill-rule:evenodd;fill:rgb(0%,0%,0%);fill-opacity:1;" d="M 796.40625 643.496094 C 793.867188 640.925781 791.464844 638.390625 789.027344 635.828125 L 774.984375 621.492188 C 718.445312 565.886719 696.25 543.140625 693.90625 541.554688 C 691.34375 539.117188 688.804688 536.679688 686.234375 534.175781 C 658.421875 508.011719 639.082031 528.875 613.898438 566.960938 C 611.59375 570.472656 609.414062 573.789062 607.433594 576.910156 C 607.371094 577.003906 607.304688 577.101562 607.238281 577.234375 C 606.488281 578.363281 605.871094 579.347656 605.15625 580.445312 C 576.753906 624.542969 579.125 625.519531 569.21875 623.179688 C 568.792969 623.113281 568.4375 622.988281 568.019531 622.855469 C 535.773438 612.78125 539.484375 610.835938 476.890625 547.144531 C 413.234375 484.550781 411.253906 488.253906 401.179688 456.015625 C 401.046875 455.632812 400.945312 455.242188 400.855469 454.816406 C 398.507812 444.902344 399.492188 447.246094 443.582031 418.878906 C 444.6875 418.164062 445.730469 417.515625 446.800781 416.796875 C 446.902344 416.734375 447 416.667969 447.125 416.601562 C 450.246094 414.585938 453.53125 412.441406 457.074219 410.136719 C 495.160156 384.945312 516.027344 365.578125 489.863281 337.792969 C 487.324219 335.230469 484.921875 332.691406 482.484375 330.128906 C 480.894531 327.785156 458.117188 305.589844 402.542969 249.050781 L 388.175781 234.972656 C 385.613281 232.535156 383.074219 230.097656 380.503906 227.59375 C 349.574219 198.476562 320.9375 219.375 291.207031 265.65625 C 261.796875 311.445312 252.113281 339.289062 252.046875 339.511719 C 238.753906 381.566406 263.84375 432.980469 274.410156 450.65625 C 310.929688 512.171875 325.164062 537.941406 406.242188 617.757812 C 486.058594 698.835938 511.832031 713.070312 573.34375 749.589844 C 591.023438 760.15625 642.433594 785.246094 684.453125 771.953125 C 684.679688 771.886719 712.5 762.203125 758.3125 732.792969 C 804.625 703.0625 825.523438 674.425781 796.40625 643.496094 Z M 512.511719 -0.511719 C 376.726562 -0.511719 246.488281 53.4375 150.472656 149.449219 C 54.460938 245.464844 0.511719 375.703125 0.511719 511.488281 C 0.511719 647.273438 54.460938 777.511719 150.472656 873.527344 C 246.488281 969.539062 376.726562 1023.488281 512.511719 1023.488281 C 648.296875 1023.488281 778.535156 969.539062 874.550781 873.527344 C 970.5625 777.511719 1024.511719 647.273438 1024.511719 511.488281 C 1024.511719 375.703125 970.5625 245.464844 874.550781 149.449219 C 778.535156 53.4375 648.296875 -0.511719 512.511719 -0.511719 Z M 512.511719 32.519531 C 639.546875 32.519531 761.367188 82.976562 851.195312 172.804688 C 941.023438 262.632812 991.480469 384.453125 991.480469 511.488281 C 991.480469 638.523438 941.023438 760.339844 851.195312 850.171875 C 761.367188 940 639.546875 990.457031 512.511719 990.457031 C 385.476562 990.457031 263.660156 940 173.828125 850.171875 C 84 760.339844 33.542969 638.523438 33.542969 511.488281 C 33.542969 384.453125 84 262.632812 173.828125 172.804688 C 263.660156 82.976562 385.476562 32.519531 512.511719 32.519531 Z M 512.511719 32.519531 "/>
</g>
</svg>
