<?xml version="1.0" encoding="UTF-8" standalone="no"?>
<svg
   xmlns:dc="http://purl.org/dc/elements/1.1/"
   xmlns:cc="http://creativecommons.org/ns#"
   xmlns:rdf="http://www.w3.org/1999/02/22-rdf-syntax-ns#"
   xmlns:svg="http://www.w3.org/2000/svg"
   xmlns="http://www.w3.org/2000/svg"
   xmlns:sodipodi="http://sodipodi.sourceforge.net/DTD/sodipodi-0.dtd"
   xmlns:inkscape="http://www.inkscape.org/namespaces/inkscape"
   width="1000"
   height="1000"
   viewBox="0 0 1000 1000"
   version="1.1"
   id="svg2"
   inkscape:version="0.91 r13725"
   sodipodi:docname="action-quick_radius_map.svg">
  <metadata
     id="metadata40">
    <rdf:RDF>
      <cc:Work
         rdf:about="">
        <dc:format>image/svg+xml</dc:format>
        <dc:type
           rdf:resource="http://purl.org/dc/dcmitype/StillImage" />
        <dc:title>sb_quick_radius_map</dc:title>
      </cc:Work>
    </rdf:RDF>
  </metadata>
  <sodipodi:namedview
     pagecolor="#ffffff"
     bordercolor="#666666"
     borderopacity="1"
     objecttolerance="10"
     gridtolerance="10"
     guidetolerance="10"
     inkscape:pageopacity="0"
     inkscape:pageshadow="2"
     inkscape:window-width="1366"
     inkscape:window-height="703"
     id="namedview38"
     showgrid="false"
     inkscape:zoom="0.513"
     inkscape:cx="420.07797"
     inkscape:cy="437.24795"
     inkscape:window-x="0"
     inkscape:window-y="0"
     inkscape:window-maximized="1"
     inkscape:current-layer="svg2" />
  <!-- Generator: Sketch 3.8.3 (29802) - http://www.bohemiancoding.com/sketch -->
  <title
     id="title4">sb_quick_radius_map</title>
  <desc
     id="desc6">Created with Sketch.</desc>
  <defs
     id="defs8" />
  <path
     style="color:#000000;font-style:normal;font-variant:normal;font-weight:normal;font-stretch:normal;font-size:medium;line-height:normal;font-family:sans-serif;text-indent:0;text-align:start;text-decoration:none;text-decoration-line:none;text-decoration-style:solid;text-decoration-color:#000000;letter-spacing:normal;word-spacing:normal;text-transform:none;direction:ltr;block-progression:tb;writing-mode:lr-tb;baseline-shift:baseline;text-anchor:start;white-space:normal;clip-rule:nonzero;display:inline;overflow:visible;visibility:visible;opacity:1;isolation:auto;mix-blend-mode:normal;color-interpolation:sRGB;color-interpolation-filters:linearRGB;solid-color:#000000;solid-opacity:1;fill:#000000;fill-opacity:1;fill-rule:evenodd;stroke:none;stroke-width:32.25806427;stroke-linecap:butt;stroke-linejoin:miter;stroke-miterlimit:4;stroke-dasharray:none;stroke-dashoffset:0;stroke-opacity:1;color-rendering:auto;image-rendering:auto;shape-rendering:auto;text-rendering:auto;enable-background:accumulate"
     d="M 500.5,-0.5 C 367.89795,-0.5 240.71107,52.183453 146.94727,145.94727 53.183453,239.71107 0.5,366.89795 0.5,499.5 0.5,632.10205 53.183453,759.28893 146.94727,853.05273 240.71107,946.81654 367.89795,999.5 500.5,999.5 633.10205,999.5 760.28893,946.81654 854.05273,853.05273 947.81654,759.28893 1000.5,632.10205 1000.5,499.5 1000.5,366.89795 947.81654,239.71107 854.05273,145.94727 760.28893,52.183453 633.10205,-0.5 500.5,-0.5 Z m 0,32.257812 c 124.05907,0 243.02113,49.275035 330.74414,136.998048 5.0606,5.06059 9.98645,10.23064 14.78906,15.49414 l -74.08008,28.80273 -10.83593,28.97071 C 632.73643,305.60522 504.28147,355.55294 375.84961,415.75781 L 488.76953,528.67773 C 381.16084,577.4609 244.99756,612.84929 155.32227,668.52344 332.6476,646.59832 546.31893,646.42878 720.03906,630.86523 c 19.5301,-1.79837 58.06827,-2.92362 64.53906,-21.52929 L 666.27148,491.0293 c 99.33847,-24.40697 198.7477,-28.83147 298.08008,-51.67774 2.57192,19.8392 3.89063,39.92511 3.89063,60.14844 0,124.05907 -49.27504,243.02113 -136.99805,330.74414 C 743.52113,917.96715 624.55907,967.24219 500.5,967.24219 376.44093,967.24219 257.47887,917.96715 169.75586,830.24414 82.032847,742.52113 32.757813,623.55907 32.757812,499.5 32.757812,375.44093 82.032847,256.47887 169.75586,168.75586 257.47887,81.032847 376.44093,31.757813 500.5,31.757812 Z"
     id="ellipse15"
     inkscape:connector-curvature="0"
     sodipodi:nodetypes="sssssssssssccccccccccsssssss" />
  <g
     style="fill:#f08377;fill-rule:evenodd;stroke:none;stroke-width:1"
     transform="matrix(22.809896,22.809896,-22.809896,22.809896,676.96978,112.40326)"
     id="g18" />
</svg>
