<?xml version="1.0" encoding="UTF-8"?>
<svg xmlns="http://www.w3.org/2000/svg" xmlns:xlink="http://www.w3.org/1999/xlink" width="1024pt" height="1024pt" viewBox="0 0 1024 1024" version="1.1">
<g id="surface1">
<path style=" stroke:none;fill-rule:evenodd;fill:rgb(0%,0%,0%);fill-opacity:1;" d="M 516.078125 452.824219 C 514.230469 452.558594 512.347656 452.359375 510.429688 452.226562 C 508.515625 452.097656 506.566406 452.03125 504.585938 452.03125 C 497.054688 452.03125 489.984375 453.714844 483.378906 457.082031 C 476.769531 460.453125 470.992188 465.011719 466.035156 470.757812 C 461.082031 476.507812 457.183594 483.144531 454.34375 490.675781 C 451.5 498.210938 450.082031 506.136719 450.082031 514.460938 C 450.082031 522.652344 451.734375 528.894531 455.035156 533.191406 C 458.339844 537.484375 463.160156 539.632812 469.503906 539.632812 C 472.675781 539.632812 475.847656 539.136719 479.015625 538.144531 C 482.1875 537.152344 485.226562 535.4375 488.132812 532.992188 C 491.042969 530.546875 493.652344 527.308594 495.960938 523.28125 C 498.273438 519.25 500.222656 514.128906 501.808594 507.921875 Z M 543.828125 502.171875 C 541.976562 509.96875 541.019531 516.410156 540.953125 521.496094 C 540.886719 526.582031 541.582031 530.582031 543.035156 533.488281 C 544.488281 536.394531 546.566406 538.410156 549.277344 539.53125 C 551.984375 540.65625 555.125 541.21875 558.691406 541.21875 C 563.84375 541.21875 568.734375 539.5 573.359375 536.0625 C 577.980469 532.628906 582.011719 527.839844 585.445312 521.695312 C 588.882812 515.550781 591.589844 508.285156 593.574219 499.894531 C 595.554688 491.503906 596.546875 482.355469 596.546875 472.445312 C 596.546875 455.664062 593.96875 440.832031 588.816406 427.949219 C 583.664062 415.066406 576.429688 404.332031 567.113281 395.742188 C 557.800781 387.15625 546.601562 380.648438 533.519531 376.222656 C 520.441406 371.792969 506.039062 369.582031 490.3125 369.582031 C 478.820312 369.582031 467.886719 371.035156 457.511719 373.941406 C 447.140625 376.847656 437.527344 380.976562 428.675781 386.328125 C 419.824219 391.679688 411.828125 398.121094 404.695312 405.652344 C 397.558594 413.183594 391.480469 421.574219 386.460938 430.824219 C 381.441406 440.074219 377.574219 450.015625 374.867188 460.652344 C 372.15625 471.289062 370.804688 482.417969 370.804688 494.046875 C 370.804688 515.453125 374.105469 534.28125 380.714844 550.53125 C 387.320312 566.785156 396.402344 580.328125 407.964844 591.160156 C 419.527344 601.996094 433.167969 610.15625 448.890625 615.640625 C 464.617188 621.121094 481.660156 623.863281 500.027344 623.863281 C 510.332031 623.863281 519.878906 623.300781 528.664062 622.179688 C 537.453125 621.054688 545.511719 619.570312 552.84375 617.71875 C 560.175781 615.871094 566.75 613.757812 572.566406 611.378906 C 578.378906 609 583.464844 606.554688 587.824219 604.042969 C 591.65625 601.929688 594.992188 601.304688 597.835938 602.160156 C 600.675781 603.019531 602.757812 605.167969 604.078125 608.601562 L 611.609375 627.828125 C 598 636.8125 581.980469 644.144531 563.546875 649.828125 C 545.113281 655.507812 523.941406 658.347656 500.027344 658.347656 C 475.714844 658.347656 453.253906 654.550781 432.640625 646.953125 C 412.027344 639.355469 394.222656 628.457031 379.226562 614.25 C 364.230469 600.046875 352.503906 582.804688 344.046875 562.523438 C 335.589844 542.242188 331.363281 519.414062 331.363281 494.046875 C 331.363281 480.042969 333.214844 466.367188 336.914062 453.019531 C 340.613281 439.675781 345.832031 427.125 352.570312 415.363281 C 359.308594 403.605469 367.46875 392.804688 377.046875 382.960938 C 386.625 373.117188 397.296875 364.660156 409.054688 357.589844 C 420.816406 350.523438 433.53125 345.003906 447.207031 341.042969 C 460.882812 337.078125 475.25 335.097656 490.3125 335.097656 C 502.867188 335.097656 515.1875 336.515625 527.277344 339.355469 C 539.367188 342.199219 550.796875 346.359375 561.566406 351.84375 C 572.332031 357.328125 582.242188 364.066406 591.292969 372.058594 C 600.34375 380.050781 608.140625 389.136719 614.679688 399.308594 C 621.222656 409.484375 626.308594 420.683594 629.941406 432.902344 C 633.574219 445.125 635.390625 458.304688 635.390625 472.445312 C 635.390625 486.582031 633.277344 499.828125 629.050781 512.183594 C 624.820312 524.535156 618.941406 535.335938 611.410156 544.585938 C 603.878906 553.835938 594.925781 561.101562 584.554688 566.386719 C 574.183594 571.671875 562.851562 574.316406 550.566406 574.316406 C 541.84375 574.316406 533.917969 572.332031 526.78125 568.371094 C 519.648438 564.40625 514.492188 557.867188 511.324219 548.75 C 503.527344 557.867188 495.300781 564.371094 486.648438 568.269531 C 477.992188 572.167969 468.644531 574.117188 458.601562 574.117188 C 450.148438 574.117188 442.78125 572.664062 436.503906 569.757812 C 430.230469 566.851562 424.976562 562.789062 420.75 557.566406 C 416.519531 552.347656 413.347656 546.171875 411.234375 539.035156 C 409.121094 531.902344 408.0625 524.171875 408.0625 515.847656 C 408.0625 508.316406 409.023438 500.6875 410.9375 492.957031 C 412.855469 485.226562 415.726562 477.761719 419.558594 470.5625 C 423.390625 463.359375 428.214844 456.589844 434.027344 450.246094 C 439.839844 443.902344 446.644531 438.386719 454.441406 433.695312 C 462.238281 429.007812 471.054688 425.308594 480.898438 422.597656 C 490.742188 419.890625 501.675781 418.535156 513.699219 418.535156 C 519.117188 418.535156 524.074219 418.734375 528.566406 419.128906 C 533.058594 419.527344 537.285156 420.121094 541.25 420.914062 C 545.214844 421.707031 548.945312 422.699219 552.449219 423.886719 C 555.949219 425.074219 559.484375 426.398438 563.050781 427.851562 Z M 502.628906 249.449219 C 398.296875 249.449219 306.925781 312.046875 241.429688 373.066406 C 175.929688 434.089844 135.398438 495.203125 135.398438 495.203125 L 129.332031 504.339844 L 135.398438 513.472656 C 135.398438 513.472656 175.929688 574.589844 241.429688 635.613281 C 306.925781 696.632812 398.296875 759.230469 502.628906 759.230469 C 606.960938 759.230469 698.332031 696.632812 763.828125 635.613281 C 829.328125 574.589844 869.859375 513.472656 869.859375 513.472656 L 886.890625 487.824219 L 864.691406 487.824219 C 853.347656 471.679688 817.820312 423.367188 763.828125 373.066406 C 698.332031 312.046875 606.960938 249.449219 502.628906 249.449219 Z M 502.628906 282.480469 C 593.515625 282.480469 678.882812 339.070312 741.3125 397.234375 C 789.464844 442.097656 822.90625 486.1875 835.929688 504.339844 C 822.90625 522.492188 789.464844 566.582031 741.3125 611.441406 C 678.882812 669.609375 593.515625 726.199219 502.628906 726.199219 C 411.742188 726.199219 326.375 669.609375 263.945312 611.441406 C 215.792969 566.582031 182.351562 522.492188 169.328125 504.339844 C 182.351562 486.1875 215.792969 442.09375 263.945312 397.234375 C 326.375 339.070312 411.742188 282.480469 502.628906 282.480469 Z M 512.511719 -0.511719 C 376.726562 -0.511719 246.488281 53.4375 150.472656 149.449219 C 54.460938 245.464844 0.511719 375.703125 0.511719 511.488281 C 0.511719 647.273438 54.460938 777.511719 150.472656 873.527344 C 246.488281 969.539062 376.726562 1023.488281 512.511719 1023.488281 C 648.296875 1023.488281 778.535156 969.539062 874.550781 873.527344 C 970.5625 777.511719 1024.511719 647.273438 1024.511719 511.488281 C 1024.511719 375.703125 970.5625 245.464844 874.550781 149.449219 C 778.535156 53.4375 648.296875 -0.511719 512.511719 -0.511719 Z M 512.511719 32.519531 C 639.546875 32.519531 761.367188 82.976562 851.195312 172.804688 C 941.023438 262.632812 991.480469 384.453125 991.480469 511.488281 C 991.480469 638.523438 941.023438 760.339844 851.195312 850.171875 C 761.367188 940 639.546875 990.457031 512.511719 990.457031 C 385.476562 990.457031 263.660156 940 173.828125 850.171875 C 84 760.339844 33.542969 638.523438 33.542969 511.488281 C 33.542969 384.453125 84 262.632812 173.828125 172.804688 C 263.660156 82.976562 385.476562 32.519531 512.511719 32.519531 Z M 512.511719 32.519531 "/>
</g>
</svg>
