<?xml version="1.0" encoding="UTF-8" standalone="no"?>
<svg
   xmlns:dc="http://purl.org/dc/elements/1.1/"
   xmlns:cc="http://creativecommons.org/ns#"
   xmlns:rdf="http://www.w3.org/1999/02/22-rdf-syntax-ns#"
   xmlns:svg="http://www.w3.org/2000/svg"
   xmlns="http://www.w3.org/2000/svg"
   xmlns:sodipodi="http://sodipodi.sourceforge.net/DTD/sodipodi-0.dtd"
   xmlns:inkscape="http://www.inkscape.org/namespaces/inkscape"
   width="1024"
   height="1024"
   viewBox="0 0 1024 1024"
   version="1.1"
   id="svg2"
   inkscape:version="0.91 r13725"
   sodipodi:docname="admin-contacts.svg">
  <metadata
     id="metadata17">
    <rdf:RDF>
      <cc:Work
         rdf:about="">
        <dc:format>image/svg+xml</dc:format>
        <dc:type
           rdf:resource="http://purl.org/dc/dcmitype/StillImage" />
        <dc:title>admin_geocoded_counts</dc:title>
      </cc:Work>
    </rdf:RDF>
  </metadata>
  <sodipodi:namedview
     pagecolor="#ffffff"
     bordercolor="#666666"
     borderopacity="1"
     objecttolerance="10"
     gridtolerance="10"
     guidetolerance="10"
     inkscape:pageopacity="0"
     inkscape:pageshadow="2"
     inkscape:window-width="1366"
     inkscape:window-height="703"
     id="namedview15"
     showgrid="false"
     inkscape:zoom="0.513"
     inkscape:cx="512"
     inkscape:cy="512"
     inkscape:window-x="0"
     inkscape:window-y="0"
     inkscape:window-maximized="1"
     inkscape:current-layer="svg2" />
  <!-- Generator: Sketch 3.8.3 (29802) - http://www.bohemiancoding.com/sketch -->
  <title
     id="title4">admin_geocoded_counts</title>
  <desc
     id="desc6">Created with Sketch.</desc>
  <defs
     id="defs8" />
  <path
     style="color:#000000;font-style:normal;font-variant:normal;font-weight:normal;font-stretch:normal;font-size:medium;line-height:normal;font-family:sans-serif;text-indent:0;text-align:start;text-decoration:none;text-decoration-line:none;text-decoration-style:solid;text-decoration-color:#000000;letter-spacing:normal;word-spacing:normal;text-transform:none;direction:ltr;block-progression:tb;writing-mode:lr-tb;baseline-shift:baseline;text-anchor:start;white-space:normal;clip-rule:nonzero;display:inline;overflow:visible;visibility:visible;opacity:1;isolation:auto;mix-blend-mode:normal;color-interpolation:sRGB;color-interpolation-filters:linearRGB;solid-color:#000000;solid-opacity:1;fill:#000000;fill-opacity:1;fill-rule:evenodd;stroke:none;stroke-width:37.0370369;stroke-linecap:butt;stroke-linejoin:miter;stroke-miterlimit:4;stroke-dasharray:none;stroke-dashoffset:0;stroke-opacity:1;color-rendering:auto;image-rendering:auto;shape-rendering:auto;text-rendering:auto;enable-background:accumulate"
     d="M 512,12 C 379.39887,12 252.21042,64.684108 158.44727,158.44727 64.684108,252.21042 12,379.39887 12,512 12,644.60113 64.684108,771.78958 158.44727,865.55273 252.21042,959.31589 379.39887,1012 512,1012 644.60113,1012 771.78958,959.31589 865.55273,865.55273 959.31589,771.78958 1012,644.60113 1012,512 1012,379.39887 959.31589,252.21042 865.55273,158.44727 771.78958,64.684108 644.60113,12 512,12 Z m 0,37.037109 c 122.79253,0 240.53585,48.772183 327.36328,135.599611 86.82743,86.82743 135.59961,204.57075 135.59961,327.36328 0,122.79253 -48.77218,240.53585 -135.59961,327.36328 C 752.53585,926.19071 634.79253,974.96289 512,974.96289 389.20747,974.96289 271.46415,926.19071 184.63672,839.36328 97.809292,752.53585 49.037109,634.79253 49.037109,512 49.037109,389.20747 97.809292,271.46415 184.63672,184.63672 271.46415,97.809292 389.20747,49.037109 512,49.037109 Z"
     id="Oval-7"
     inkscape:connector-curvature="0" />
  <path
     style="fill:#000000;fill-rule:evenodd;stroke:none;stroke-width:1"
     d="m 511.0027,833.28978 c 16.39533,-16.99112 31.03566,-39.73423 47.75826,-58.22467 67.39844,-81.05429 139.48876,-164.7073 167.20528,-268.81437 21.77289,-79.67226 1.08272,-171.18176 -60.27046,-228.22192 -65.89717,-65.30058 -173.77765,-81.47676 -255.48561,-37.23607 -80.15552,40.23186 -129.05321,131.79431 -119.6695,220.75724 8.88143,96.58965 66.62606,179.29699 125.02199,253.27192 31.34905,39.8563 66.04513,77.09808 95.44004,118.46787 z M 389.19644,405.27059 c 26.89931,-3.9068 53.79862,-7.8136 80.69793,-11.7204 13.17919,-25.50996 24.50413,-52.15187 38.88297,-76.92949 12.29433,-1.6037 13.71432,17.19083 20.03747,25.6319 8.43942,17.0992 16.87884,34.19839 25.31826,51.29759 28.32742,4.65664 57.15713,7.20437 85.15971,13.22486 5.28445,11.18686 -12.13252,18.34489 -18.20454,26.96995 -13.64472,13.3089 -27.28945,26.6178 -40.93417,39.9267 4.31691,28.38311 10.79789,56.59274 13.71509,85.08806 -8.99038,8.52833 -21.18407,-5.85571 -31.25618,-8.96445 C 545.74199,540.92023 528.87099,532.04515 512,523.17007 c -25.66074,12.8853 -50.47822,27.80222 -76.6846,39.37296 -10.85347,-5.94223 -0.95581,-21.97174 -1.10953,-32.51815 3.22557,-18.78439 6.45113,-37.56879 9.67669,-56.35318 -20.18464,-20.43259 -42.03817,-39.43806 -61.14246,-60.79448 -2.08793,-4.12357 2.88119,-7.6994 6.45634,-7.60663 z"
     id="path13"
     inkscape:connector-curvature="0" />
</svg>
