<?xml version="1.0" encoding="UTF-8" standalone="no"?>
<svg
   xmlns:dc="http://purl.org/dc/elements/1.1/"
   xmlns:cc="http://creativecommons.org/ns#"
   xmlns:rdf="http://www.w3.org/1999/02/22-rdf-syntax-ns#"
   xmlns:svg="http://www.w3.org/2000/svg"
   xmlns="http://www.w3.org/2000/svg"
   xmlns:sodipodi="http://sodipodi.sourceforge.net/DTD/sodipodi-0.dtd"
   xmlns:inkscape="http://www.inkscape.org/namespaces/inkscape"
   width="1024"
   height="1024"
   viewBox="0 0 1024 1024"
   version="1.1"
   id="svg2"
   inkscape:version="0.91 r13725"
   sodipodi:docname="admin-donate.svg">
  <metadata
     id="metadata19">
    <rdf:RDF>
      <cc:Work
         rdf:about="">
        <dc:format>image/svg+xml</dc:format>
        <dc:type
           rdf:resource="http://purl.org/dc/dcmitype/StillImage" />
        <dc:title>admin_donate</dc:title>
      </cc:Work>
    </rdf:RDF>
  </metadata>
  <sodipodi:namedview
     pagecolor="#ffffff"
     bordercolor="#666666"
     borderopacity="1"
     objecttolerance="10"
     gridtolerance="10"
     guidetolerance="10"
     inkscape:pageopacity="0"
     inkscape:pageshadow="2"
     inkscape:window-width="1366"
     inkscape:window-height="703"
     id="namedview17"
     showgrid="false"
     inkscape:zoom="0.513"
     inkscape:cx="512"
     inkscape:cy="512"
     inkscape:window-x="0"
     inkscape:window-y="0"
     inkscape:window-maximized="1"
     inkscape:current-layer="svg2" />
  <!-- Generator: Sketch 3.8.3 (29802) - http://www.bohemiancoding.com/sketch -->
  <title
     id="title4">admin_donate</title>
  <desc
     id="desc6">Created with Sketch.</desc>
  <defs
     id="defs8" />
  <path
     id="Fill-2"
     style="fill:#000000;fill-rule:evenodd;stroke:none;stroke-width:1"
     d="m 692.74074,369.9595 c 21.91011,-18.94716 32.00789,-38.51851 36.14026,-55.11901 8.88888,-34.97086 -4.74867,-64.60049 -15.98423,-75.86765 -13.02911,-13.02124 -42.65874,-24.2884 -77.03703,-17.77778 -34.97086,6.54222 -83.54764,33.20889 -126.82271,119.75901 -42.65086,-86.55012 -91.26716,-113.21679 -126.23802,-120.3121 -34.37827,-6.51062 -64.0079,4.75654 -77.03704,17.77778 -11.25926,11.26716 -24.87308,40.89679 -15.9842,75.86765 4.13235,16.6005 14.23013,36.72494 36.14025,55.11901 l -94.23012,0 c -7.09531,0 -13.02124,5.92593 -13.02124,13.02914 l 0,90.05827 586.66667,0 0,-89.47358 c 0,-7.10321 -5.92593,-13.02913 -13.02122,-13.02913 l -99.57137,0 0,-0.0316 z M 639.99211,243.76098 c 28.46022,-5.34123 49.78566,5.34124 56.29629,11.26716 5.92593,5.92593 16.60837,27.25136 10.06615,53.33334 -4.75652,17.77778 -18.37037,41.48148 -55.71159,61.04493 l -128.58469,0 C 562.95506,276.93827 608.6084,250.2716 639.99211,243.76098 l 0,0 z M 312.3121,308.94617 c -6.51852,-26.08198 4.13234,-47.40741 10.05827,-53.33333 5.92592,-5.92593 27.83604,-16.6084 56.29629,-11.26716 31.42321,5.92592 77.62173,33.17728 118.51852,125.61382 l -129.20099,0 C 330.67456,349.84296 317.02913,326.72395 312.3121,308.94617 l 0,0 z m 442.06616,464.60049 -484.75653,0 c -6.51062,0 -11.85186,-5.34122 -11.85186,-11.85185 l 0,-269.04494 509.04494,0 0,269.04494 c -0.58481,6.51063 -5.92593,11.85185 -12.43655,11.85185 l 0,0 z M 512,12 C 379.39887,12 252.21042,64.684108 158.44727,158.44727 64.684108,252.21042 12,379.39887 12,512 12,644.60113 64.684108,771.78958 158.44727,865.55273 252.21042,959.31589 379.39887,1012 512,1012 644.60113,1012 771.78958,959.31589 865.55273,865.55273 959.31589,771.78958 1012,644.60113 1012,512 1012,379.39887 959.31589,252.21042 865.55273,158.44727 771.78958,64.684108 644.60113,12 512,12 Z m 0,37.037109 c 122.79253,0 240.53585,48.772183 327.36328,135.599611 86.82743,86.82743 135.59961,204.57075 135.59961,327.36328 0,122.79253 -48.77218,240.53585 -135.59961,327.36328 C 752.53585,926.19071 634.79253,974.96289 512,974.96289 389.20747,974.96289 271.46415,926.19071 184.63672,839.36328 97.809292,752.53585 49.037109,634.79253 49.037109,512 49.037109,389.20747 97.809292,271.46415 184.63672,184.63672 271.46415,97.809292 389.20747,49.037109 512,49.037109 Z" />
</svg>
