<?xml version="1.0" encoding="UTF-8" standalone="no"?>
<svg
   xmlns:dc="http://purl.org/dc/elements/1.1/"
   xmlns:cc="http://creativecommons.org/ns#"
   xmlns:rdf="http://www.w3.org/1999/02/22-rdf-syntax-ns#"
   xmlns:svg="http://www.w3.org/2000/svg"
   xmlns="http://www.w3.org/2000/svg"
   xmlns:sodipodi="http://sodipodi.sourceforge.net/DTD/sodipodi-0.dtd"
   xmlns:inkscape="http://www.inkscape.org/namespaces/inkscape"
   width="1024"
   height="1024"
   viewBox="0 0 1024 1024"
   version="1.1"
   id="svg2"
   inkscape:version="0.91 r13725"
   sodipodi:docname="admin-rename-modules.svg">
  <metadata
     id="metadata16">
    <rdf:RDF>
      <cc:Work
         rdf:about="">
        <dc:format>image/svg+xml</dc:format>
        <dc:type
           rdf:resource="http://purl.org/dc/dcmitype/StillImage" />
        <dc:title>admin_rename_modules</dc:title>
      </cc:Work>
    </rdf:RDF>
  </metadata>
  <sodipodi:namedview
     pagecolor="#ffffff"
     bordercolor="#666666"
     borderopacity="1"
     objecttolerance="10"
     gridtolerance="10"
     guidetolerance="10"
     inkscape:pageopacity="0"
     inkscape:pageshadow="2"
     inkscape:window-width="1366"
     inkscape:window-height="703"
     id="namedview14"
     showgrid="false"
     inkscape:zoom="0.513"
     inkscape:cx="512"
     inkscape:cy="512"
     inkscape:window-x="0"
     inkscape:window-y="0"
     inkscape:window-maximized="1"
     inkscape:current-layer="svg2" />
  <!-- Generator: Sketch 3.8.3 (29802) - http://www.bohemiancoding.com/sketch -->
  <title
     id="title4">admin_rename_modules</title>
  <desc
     id="desc6">Created with Sketch.</desc>
  <defs
     id="defs8" />
  <path
     id="ab"
     style="fill:#000000;fill-rule:evenodd;stroke:none;stroke-width:1"
     d="m 281.47544,451.17404 18.34665,23.71666 c 19.4019,-20.31237 46.07067,-26.41507 67.95884,-26.41507 28.1357,0 42.04555,11.82059 48.73214,22.80011 7.89219,12.96096 7.70889,28.20204 7.70889,40.75589 l 0,8.50237 -7.60711,0 c -34.89318,0 -72.24321,-0.36667 -102.3816,10.71015 -37.36371,13.73163 -54.31836,41.41818 -54.31836,67.67729 0,34.75237 30.20421,67.04486 79.6964,67.04486 29.09627,0 59.2119,-10.59063 85.0583,-31.77193 l 0,25.95378 35.35093,0 0,-146.77415 c 0,-19.41611 -0.69741,-37.75615 -11.63122,-55.97822 -15.54593,-25.90874 -45.60586,-39.35982 -82.37356,-39.35982 -31.95624,0 -62.40958,10.27971 -84.5403,33.13808 l 0,0 z m 144.08889,97.99848 0,15.66189 c 0,12.27078 -0.1037,27.6354 -16.0837,44.61996 -8.60667,9.148 -31.25996,27.95541 -62.28651,27.95541 -31.40582,0 -49.75803,-19.83334 -49.75803,-41.008 0,-17.20734 12.08087,-36.55356 41.78024,-43.64367 21.51446,-5.13607 53.23067,-3.58555 77.84563,-3.58555 l 8.50237,0 z m 136.55374,-234.03262 0,345.00825 24.16426,0 12.97663,-31.32378 c 15.55708,23.11204 41.69315,37.17533 70.11848,37.17533 48.57415,0 99.032,-41.27233 99.032,-127.2087 0,-82.75585 -48.70329,-121.20926 -95.25855,-121.20926 -30.16978,0 -57.97482,16.05889 -72.99667,42.0947 l 0,-132.90177 c 0,-2.75515 0.56148,-3.88889 2.9963,-5.8227 0.86889,-0.69067 3.70511,-2.69589 2.82111,-5.81207 l -43.8533,0 z m 98.02934,134.53429 c 22.26137,0 69.4354,13.32096 69.4354,96.9574 0,72.545 -46.85855,85.78493 -70.02833,85.78493 -16.2017,0 -51.98859,-6.47541 -57.95811,-51.63563 -1.62852,-12.32141 -1.4563,-26.27937 -1.4563,-46.77959 0,-21.42482 0.82334,-36.672 6.20908,-49.70586 8.82596,-21.35851 30.35004,-34.62125 53.79829,-34.62125 l 0,0 z M 512,12 C 379.39887,12 252.21042,64.684108 158.44727,158.44727 64.684108,252.21042 12,379.39887 12,512 12,644.60113 64.684108,771.78958 158.44727,865.55273 252.21042,959.31589 379.39887,1012 512,1012 644.60113,1012 771.78958,959.31589 865.55273,865.55273 959.31589,771.78958 1012,644.60113 1012,512 1012,379.39887 959.31589,252.21042 865.55273,158.44727 771.78958,64.684108 644.60113,12 512,12 Z m 0,37.037109 c 122.79253,0 240.53585,48.772183 327.36328,135.599611 86.82743,86.82743 135.59961,204.57075 135.59961,327.36328 0,122.79253 -48.77218,240.53585 -135.59961,327.36328 C 752.53585,926.19071 634.79253,974.96289 512,974.96289 389.20747,974.96289 271.46415,926.19071 184.63672,839.36328 97.809292,752.53585 49.037109,634.79253 49.037109,512 49.037109,389.20747 97.809292,271.46415 184.63672,184.63672 271.46415,97.809292 389.20747,49.037109 512,49.037109 Z" />
</svg>
