<?xml version="1.0" encoding="UTF-8" standalone="no"?>
<svg
   xmlns:dc="http://purl.org/dc/elements/1.1/"
   xmlns:cc="http://creativecommons.org/ns#"
   xmlns:rdf="http://www.w3.org/1999/02/22-rdf-syntax-ns#"
   xmlns:svg="http://www.w3.org/2000/svg"
   xmlns="http://www.w3.org/2000/svg"
   xmlns:sodipodi="http://sodipodi.sourceforge.net/DTD/sodipodi-0.dtd"
   xmlns:inkscape="http://www.inkscape.org/namespaces/inkscape"
   width="1024"
   height="1024"
   viewBox="0 0 1024 1024"
   version="1.1"
   id="svg2"
   inkscape:version="0.91 r13725"
   sodipodi:docname="admin-upgrade-wizard.svg">
  <metadata
     id="metadata20">
    <rdf:RDF>
      <cc:Work
         rdf:about="">
        <dc:format>image/svg+xml</dc:format>
        <dc:type
           rdf:resource="http://purl.org/dc/dcmitype/StillImage" />
        <dc:title>admin_upgrade_wizard</dc:title>
      </cc:Work>
    </rdf:RDF>
  </metadata>
  <sodipodi:namedview
     pagecolor="#ffffff"
     bordercolor="#666666"
     borderopacity="1"
     objecttolerance="10"
     gridtolerance="10"
     guidetolerance="10"
     inkscape:pageopacity="0"
     inkscape:pageshadow="2"
     inkscape:window-width="1366"
     inkscape:window-height="703"
     id="namedview18"
     showgrid="false"
     inkscape:zoom="0.513"
     inkscape:cx="512"
     inkscape:cy="512"
     inkscape:window-x="0"
     inkscape:window-y="0"
     inkscape:window-maximized="1"
     inkscape:current-layer="svg2" />
  <!-- Generator: Sketch 3.8.3 (29802) - http://www.bohemiancoding.com/sketch -->
  <title
     id="title4">admin_upgrade_wizard</title>
  <desc
     id="desc6">Created with Sketch.</desc>
  <defs
     id="defs8" />
  <path
     id="Fill-3"
     style="fill:#000000;fill-rule:evenodd;stroke:none;stroke-width:1"
     d="m 447.0973,467.3171 c -29.0909,-29.28065 -58.18181,-58.5613 -87.27272,-87.84195 -29.28065,29.28065 -58.5613,58.5613 -87.84195,87.84195 8.87384,8.87384 17.74768,17.74768 26.62152,26.62152 14.01611,-14.02985 28.03221,-28.05971 42.04831,-42.08956 0,83.12041 0,166.24082 0,249.36123 12.57792,0 25.15584,0 37.73376,0 0,-83.12041 0,-166.24082 0,-249.36123 14.02985,14.02985 28.05971,28.05971 42.08956,42.08956 8.87384,-8.87384 17.74768,-17.74768 26.62152,-26.62152 z M 742.21096,579.90791 C 712.9303,550.83075 683.64967,521.75359 654.369,492.67643 c -29.09091,29.07716 -58.18182,58.15432 -87.27273,87.23148 8.87384,8.87383 17.74768,17.74768 26.62152,26.62153 14.02985,-14.02985 28.05971,-28.05971 42.08956,-42.08957 0,45.59013 0,91.18027 0,136.77042 12.57791,0 25.15584,0 37.73376,0 0,-45.59015 0,-91.18029 0,-136.77042 14.01611,14.02986 28.03222,28.05972 42.04833,42.08957 8.87386,-8.87385 17.74767,-17.7477 26.62152,-26.62153 z M 507.09679,219.82851 c -29.07716,29.07716 -58.15432,58.15432 -87.23148,87.23148 8.86009,8.87384 17.72018,17.74768 26.58028,26.62152 14.02985,-14.02985 28.0597,-28.05971 42.08955,-42.08956 0,174.06972 0,348.13945 0,522.20916 12.37443,0 24.74886,0 37.12329,0 0,-174.06971 0,-348.13944 0,-522.20916 14.02986,14.02985 28.05971,28.05971 42.08956,42.08956 8.8601,-8.87384 17.72018,-17.74768 26.58028,-26.62152 -29.07716,-29.07716 -58.15432,-58.15432 -87.23148,-87.23148 z M 512,12 C 379.39887,12 252.21042,64.684108 158.44727,158.44727 64.684108,252.21042 12,379.39887 12,512 12,644.60113 64.684108,771.78958 158.44727,865.55273 252.21042,959.31589 379.39887,1012 512,1012 644.60113,1012 771.78958,959.31589 865.55273,865.55273 959.31589,771.78958 1012,644.60113 1012,512 1012,379.39887 959.31589,252.21042 865.55273,158.44727 771.78958,64.684108 644.60113,12 512,12 Z m 0,37.037109 c 122.79253,0 240.53585,48.772183 327.36328,135.599611 86.82743,86.82743 135.59961,204.57075 135.59961,327.36328 0,122.79253 -48.77218,240.53585 -135.59961,327.36328 C 752.53585,926.19071 634.79253,974.96289 512,974.96289 389.20747,974.96289 271.46415,926.19071 184.63672,839.36328 97.809292,752.53585 49.037109,634.79253 49.037109,512 49.037109,389.20747 97.809292,271.46415 184.63672,184.63672 271.46415,97.809292 389.20747,49.037109 512,49.037109 Z" />
</svg>
