<?xml version="1.0" encoding="UTF-8" standalone="no"?>
<svg
   xmlns:dc="http://purl.org/dc/elements/1.1/"
   xmlns:cc="http://creativecommons.org/ns#"
   xmlns:rdf="http://www.w3.org/1999/02/22-rdf-syntax-ns#"
   xmlns:svg="http://www.w3.org/2000/svg"
   xmlns="http://www.w3.org/2000/svg"
   xmlns:sodipodi="http://sodipodi.sourceforge.net/DTD/sodipodi-0.dtd"
   xmlns:inkscape="http://www.inkscape.org/namespaces/inkscape"
   width="1024"
   height="1024"
   viewBox="0 0 1024 1024"
   version="1.1"
   id="svg2"
   inkscape:version="0.91 r13725"
   sodipodi:docname="admin-password.svg">
  <metadata
     id="metadata20">
    <rdf:RDF>
      <cc:Work
         rdf:about="">
        <dc:format>image/svg+xml</dc:format>
        <dc:type
           rdf:resource="http://purl.org/dc/dcmitype/StillImage" />
        <dc:title>admin_password_management</dc:title>
      </cc:Work>
    </rdf:RDF>
  </metadata>
  <sodipodi:namedview
     pagecolor="#ffffff"
     bordercolor="#666666"
     borderopacity="1"
     objecttolerance="10"
     gridtolerance="10"
     guidetolerance="10"
     inkscape:pageopacity="0"
     inkscape:pageshadow="2"
     inkscape:window-width="1366"
     inkscape:window-height="703"
     id="namedview18"
     showgrid="false"
     inkscape:zoom="0.513"
     inkscape:cx="512"
     inkscape:cy="512"
     inkscape:window-x="0"
     inkscape:window-y="0"
     inkscape:window-maximized="1"
     inkscape:current-layer="svg2" />
  <!-- Generator: Sketch 3.8.3 (29802) - http://www.bohemiancoding.com/sketch -->
  <title
     id="title4">admin_password_management</title>
  <desc
     id="desc6">Created with Sketch.</desc>
  <defs
     id="defs8" />
  <path
     id="Fill-3"
     style="fill:#000000;fill-rule:evenodd;stroke:none;stroke-width:1"
     d="m 725.06074,440.24692 c -2.17678,23.69136 -4.3536,47.38271 -6.53037,71.07407 21.66518,-9.25926 43.33037,-18.51852 64.99555,-27.77777 4.33778,13.32921 8.67556,26.65843 13.01333,39.98765 -22.53037,5.41563 -45.06074,10.83127 -67.59111,16.24691 15.36789,17.82716 30.73582,35.65432 46.10371,53.48148 -11.46471,8.11934 -22.92937,16.23869 -34.39408,24.35803 -12.14418,-20.07819 -24.2884,-40.15638 -36.43259,-60.23457 -11.91507,20.07819 -23.83011,40.15638 -35.74518,60.23457 -10.8326,-8.11934 -21.66519,-16.23869 -32.49778,-24.35803 15.601,-17.60082 31.20196,-35.20164 46.80296,-52.80247 -22.74767,-5.86831 -45.4953,-11.73662 -68.24296,-17.60493 4.55507,-13.10289 9.11011,-26.20576 13.66518,-39.30864 21.23456,9.25925 42.46915,18.51851 63.70371,27.77777 -2.39408,-23.69136 -4.78815,-47.38271 -7.18223,-71.07407 13.44397,0 26.88789,0 40.33186,0 z m -197.59408,0 c -2.16099,23.69136 -4.32197,47.38271 -6.48296,71.07407 21.64938,-9.25926 43.29877,-18.51852 64.94815,-27.77777 4.33778,13.32921 8.67555,26.65843 13.01333,39.98765 -22.53037,5.41563 -45.06074,10.83127 -67.59111,16.24691 15.3837,17.82716 30.76741,35.65432 46.15111,53.48148 -11.48049,8.11934 -22.96099,16.23869 -34.44148,24.35803 -12.1442,-20.07819 -24.2884,-40.15638 -36.43259,-60.23457 -11.89926,20.07819 -23.79852,40.15638 -35.69778,60.23457 -10.83259,-8.11934 -21.66519,-16.23869 -32.49778,-24.35803 15.58519,-17.60082 31.17037,-35.20164 46.75556,-52.80247 -22.73185,-5.86831 -45.46371,-11.73662 -68.19556,-17.60493 4.53926,-13.10289 9.07852,-26.20576 13.61778,-39.30864 21.23457,9.25925 42.46914,18.51851 63.7037,27.77777 -2.39407,-23.69136 -4.78815,-47.38271 -7.18222,-71.07407 13.44395,0 26.8879,0 40.33185,0 z m -197.54666,0 c -2.17679,23.69136 -4.35359,47.38271 -6.53037,71.07407 21.66518,-9.25926 43.33037,-18.51852 64.99555,-27.77777 4.33778,13.32921 8.67556,26.65843 13.01333,39.98765 -22.53037,5.41563 -45.06074,10.83127 -67.59111,16.24691 15.3679,17.82716 30.73581,35.65432 46.10371,53.48148 -11.4805,8.11934 -22.96099,16.23869 -34.44148,24.35803 -12.1284,-20.07819 -24.25679,-40.15638 -36.38519,-60.23457 -11.91506,20.07819 -23.83012,40.15638 -35.74518,60.23457 -10.8326,-8.11934 -21.66519,-16.23869 -32.49778,-24.35803 15.60099,-17.60082 31.20197,-35.20164 46.80296,-52.80247 -22.74765,-5.86831 -45.49531,-11.73662 -68.24296,-17.60493 4.55506,-13.10289 9.11012,-26.20576 13.66518,-39.30864 21.23457,9.25925 42.46914,18.51851 63.70371,27.77777 -2.39408,-23.69136 -4.78815,-47.38271 -7.18223,-71.07407 13.44396,0 26.8879,0 40.33186,0 z M 512,12 C 379.39887,12 252.21042,64.684108 158.44727,158.44727 64.684108,252.21042 12,379.39887 12,512 12,644.60113 64.684108,771.78958 158.44727,865.55273 252.21042,959.31589 379.39887,1012 512,1012 644.60113,1012 771.78958,959.31589 865.55273,865.55273 959.31589,771.78958 1012,644.60113 1012,512 1012,379.39887 959.31589,252.21042 865.55273,158.44727 771.78958,64.684108 644.60113,12 512,12 Z m 0,37.037109 c 122.79253,0 240.53585,48.772183 327.36328,135.599611 86.82743,86.82743 135.59961,204.57075 135.59961,327.36328 0,122.79253 -48.77218,240.53585 -135.59961,327.36328 C 752.53585,926.19071 634.79253,974.96289 512,974.96289 389.20747,974.96289 271.46415,926.19071 184.63672,839.36328 97.809292,752.53585 49.037109,634.79253 49.037109,512 49.037109,389.20747 97.809292,271.46415 184.63672,184.63672 271.46415,97.809292 389.20747,49.037109 512,49.037109 Z" />
</svg>
