<?xml version="1.0" encoding="UTF-8" standalone="no"?>
<svg
   xmlns:dc="http://purl.org/dc/elements/1.1/"
   xmlns:cc="http://creativecommons.org/ns#"
   xmlns:rdf="http://www.w3.org/1999/02/22-rdf-syntax-ns#"
   xmlns:svg="http://www.w3.org/2000/svg"
   xmlns="http://www.w3.org/2000/svg"
   xmlns:sodipodi="http://sodipodi.sourceforge.net/DTD/sodipodi-0.dtd"
   xmlns:inkscape="http://www.inkscape.org/namespaces/inkscape"
   width="1024"
   height="1024"
   viewBox="0 0 1024 1024"
   version="1.1"
   id="svg2"
   inkscape:version="0.91 r13725"
   sodipodi:docname="dashlet-charts-pie.svg">
  <metadata
     id="metadata16">
    <rdf:RDF>
      <cc:Work
         rdf:about="">
        <dc:format>image/svg+xml</dc:format>
        <dc:type
           rdf:resource="http://purl.org/dc/dcmitype/StillImage" />
        <dc:title>opps_lead_source_dark</dc:title>
      </cc:Work>
    </rdf:RDF>
  </metadata>
  <sodipodi:namedview
     pagecolor="#ffffff"
     bordercolor="#666666"
     borderopacity="1"
     objecttolerance="10"
     gridtolerance="10"
     guidetolerance="10"
     inkscape:pageopacity="0"
     inkscape:pageshadow="2"
     inkscape:window-width="1366"
     inkscape:window-height="703"
     id="namedview14"
     showgrid="false"
     inkscape:zoom="0.51321706"
     inkscape:cx="586.04275"
     inkscape:cy="512"
     inkscape:window-x="0"
     inkscape:window-y="0"
     inkscape:window-maximized="1"
     inkscape:current-layer="svg2" />
  <!-- Generator: Sketch 39.1 (31720) - http://www.bohemiancoding.com/sketch -->
  <title
     id="title4">opps_lead_source_dark</title>
  <desc
     id="desc6">Created with Sketch.</desc>
  <defs
     id="defs8" />
  <path
     style="fill:#000000;fill-rule:evenodd;stroke:none;stroke-width:1"
     d="M 925.20188,793.39434 C 835.23184,925.23442 683.69304,1011.7885 512,1011.7885 300.2751,1011.7885 119.31017,880.19246 46.371144,694.33131 L 514.09838,541.06827 925.20188,793.39434 Z m 18.86915,-29.80023 C 987.22611,689.63031 1012,603.59673 1012,511.77227 1012,380.69673 961.55753,261.43067 879.005,172.27393 L 551.33242,522.52442 944.07103,763.59411 Z M 848.13119,141.66036 C 763.93573,65.142694 653.50238,16.977556 532.00781,12.211468 l 0,479.618072 316.12338,-350.16918 z M 491.99219,12.211468 C 225.10756,22.703368 12.000006,242.36632 12.000006,511.77227 c 0,50.65392 7.563927,99.56731 21.536861,145.65034 l 458.455323,-150.46522 0,-494.745922 z"
     id="path12"
     inkscape:connector-curvature="0" />
</svg>
