<?xml version="1.0" encoding="UTF-8" standalone="no"?>
<svg
   xmlns:dc="http://purl.org/dc/elements/1.1/"
   xmlns:cc="http://creativecommons.org/ns#"
   xmlns:rdf="http://www.w3.org/1999/02/22-rdf-syntax-ns#"
   xmlns:svg="http://www.w3.org/2000/svg"
   xmlns="http://www.w3.org/2000/svg"
   xmlns:sodipodi="http://sodipodi.sourceforge.net/DTD/sodipodi-0.dtd"
   xmlns:inkscape="http://www.inkscape.org/namespaces/inkscape"
   width="1024"
   height="1024"
   viewBox="0 0 1024 1024"
   version="1.1"
   id="svg2"
   inkscape:version="0.91 r13725"
   sodipodi:docname="dashlet-sugarnews.svg">
  <metadata
     id="metadata16">
    <rdf:RDF>
      <cc:Work
         rdf:about="">
        <dc:format>image/svg+xml</dc:format>
        <dc:type
           rdf:resource="http://purl.org/dc/dcmitype/StillImage" />
        <dc:title>suitecrm_news_dark</dc:title>
      </cc:Work>
    </rdf:RDF>
  </metadata>
  <sodipodi:namedview
     pagecolor="#ffffff"
     bordercolor="#666666"
     borderopacity="1"
     objecttolerance="10"
     gridtolerance="10"
     guidetolerance="10"
     inkscape:pageopacity="0"
     inkscape:pageshadow="2"
     inkscape:window-width="1366"
     inkscape:window-height="703"
     id="namedview14"
     showgrid="false"
     inkscape:zoom="0.54104029"
     inkscape:cx="512"
     inkscape:cy="512"
     inkscape:window-x="0"
     inkscape:window-y="0"
     inkscape:window-maximized="1"
     inkscape:current-layer="svg2" />
  <!-- Generator: Sketch 39.1 (31720) - http://www.bohemiancoding.com/sketch -->
  <title
     id="title4">suitecrm_news_dark</title>
  <desc
     id="desc6">Created with Sketch.</desc>
  <defs
     id="defs8" />
  <g
     id="Page-1"
     style="fill:#000000;fill-rule:evenodd;stroke:none;stroke-width:1"
     transform="matrix(38.461538,0,0,38.461538,-64.92307,-77.4713)">
    <g
       id="suitecrm_news_dark"
       style="fill:#000000">
      <path
         d="m 19.378053,5.6949867 -14.1429597,0 C 4.93592,5.6949867 4.6936,5.9373067 4.6936,6.23648 l 0,6.06008 c 0,0.299173 0.24232,0.541493 0.5414933,0.541493 l 14.1415737,0 c 0.299173,0 0.54184,-0.24232 0.54184,-0.541493 l 0,-6.06008 c 0,-0.30056 -0.24128,-0.5414933 -0.540454,-0.5414933 l 0,0 z m 8.080454,1.34576 -4.84536,0 0,-3.4989067 C 22.613147,3.24232 22.370827,3 22.071307,3 L 2.5414933,3 C 2.24232,3 2,3.24232 2,3.54184 l 0,20.875573 c 0,1.7836 1.45184,3.235094 3.2350933,3.235094 l 19.5284267,0 C 26.54816,27.653893 28,26.2024 28,24.417413 L 28,7.5825867 c 0,-0.2991734 -0.24232,-0.54184 -0.541493,-0.54184 l 0,0 z M 5.2350933,26.57056 c -1.1862933,0 -2.1531466,-0.965467 -2.1531466,-2.15176 0,-0.02011 0.00555,-0.03779 0.00555,-0.05824 l -0.00416,0 0,-20.2772267 18.4464793,0 0,20.3340797 c 0,0.826107 0.31408,1.579067 0.826107,2.15176 l -17.1208263,0 0,0.0014 z m 21.6815737,-2.211387 -0.0055,0 c 0,0.02045 0.0055,0.03813 0.0055,0.05824 0,1.186294 -0.965467,2.15176 -2.15176,2.15176 -1.186294,0 -2.15176,-0.965466 -2.15176,-2.15176 0,-0.02011 0.0055,-0.03779 0.0055,-0.05824 l -0.0055,0 0,-8.17232 c 0.04195,0.01109 0.08528,0.01768 0.131386,0.01768 l 2.020374,0 c 0.299173,0 0.541493,-0.24232 0.541493,-0.541493 0,-0.29952 -0.24232,-0.54184 -0.541493,-0.54184 l -2.020374,0 c -0.04611,0 -0.08944,0.0069 -0.131386,0.01768 l 0,-1.64528 c 0.04195,0.01075 0.08528,0.01768 0.131386,0.01768 l 2.020374,0 c 0.299173,0 0.541493,-0.242667 0.541493,-0.54184 0,-0.299173 -0.24232,-0.54184 -0.541493,-0.54184 l -2.020374,0 c -0.04611,0 -0.08944,0.0069 -0.131386,0.01768 l 0,-1.646667 c 0.04195,0.01109 0.08528,0.01768 0.131386,0.01768 l 2.020374,0 c 0.299173,0 0.541493,-0.24232 0.541493,-0.541493 0,-0.29952 -0.24232,-0.54184 -0.541493,-0.54184 l -2.020374,0 c -0.04611,0 -0.08944,0.00693 -0.131386,0.01768 l 0,-1.6289867 4.30352,0 0,16.2375197 z M 5.25,15.692507 l 5.95816,0 c 0.29952,0 0.54184,-0.24232 0.54184,-0.541494 0,-0.299173 -0.24232,-0.54184 -0.54184,-0.54184 l -5.95816,0 c -0.2991733,0 -0.54184,0.242667 -0.54184,0.54184 0,0.299174 0.2426667,0.541494 0.54184,0.541494 l 0,0 z m 8.124827,0 5.958506,0 c 0.299174,0 0.541494,-0.24232 0.541494,-0.541494 0,-0.299173 -0.24232,-0.54184 -0.541494,-0.54184 l -5.958506,0 c -0.299174,0 -0.541494,0.242667 -0.541494,0.54184 0,0.299174 0.24232,0.541494 0.541494,0.541494 l 0,0 z m -2.166667,1.083333 -5.95816,0 c -0.2991733,0 -0.54184,0.242667 -0.54184,0.54184 0,0.299173 0.2426667,0.541493 0.54184,0.541493 l 5.95816,0 c 0.29952,0 0.54184,-0.24232 0.54184,-0.541493 0,-0.299173 -0.24232,-0.54184 -0.54184,-0.54184 l 0,0 z m 8.125173,0 -5.958506,0 c -0.299174,0 -0.541494,0.242667 -0.541494,0.54184 0,0.299173 0.24232,0.541493 0.541494,0.541493 l 5.958506,0 c 0.299174,0 0.541494,-0.24232 0.541494,-0.541493 0,-0.299173 -0.24232,-0.54184 -0.541494,-0.54184 l 0,0 z m -8.125173,2.166667 -5.95816,0 c -0.2991733,0 -0.54184,0.242666 -0.54184,0.54184 0,0.299173 0.2426667,0.541493 0.54184,0.541493 l 5.95816,0 c 0.29952,0 0.54184,-0.24232 0.54184,-0.541493 0,-0.299174 -0.24232,-0.54184 -0.54184,-0.54184 l 0,0 z m 8.125173,0 -5.958506,0 c -0.299174,0 -0.541494,0.242666 -0.541494,0.54184 0,0.299173 0.24232,0.541493 0.541494,0.541493 l 5.958506,0 c 0.299174,0 0.541494,-0.24232 0.541494,-0.541493 0,-0.299174 -0.24232,-0.54184 -0.541494,-0.54184 l 0,0 z m -8.125173,2.166666 -5.95816,0 c -0.2991733,0 -0.54184,0.242667 -0.54184,0.54184 0,0.299174 0.2426667,0.541494 0.54184,0.541494 l 5.95816,0 c 0.29952,0 0.54184,-0.24232 0.54184,-0.541494 0,-0.299173 -0.24232,-0.54184 -0.54184,-0.54184 l 0,0 z m 8.125173,0 -5.958506,0 c -0.299174,0 -0.541494,0.242667 -0.541494,0.54184 0,0.299174 0.24232,0.541494 0.541494,0.541494 l 5.958506,0 c 0.299174,0 0.541494,-0.24232 0.541494,-0.541494 0,-0.299173 -0.24232,-0.54184 -0.541494,-0.54184 l 0,0 z"
         id="path12"
         inkscape:connector-curvature="0"
         style="fill:#000000" />
    </g>
  </g>
</svg>
