<?xml version="1.0" encoding="UTF-8" standalone="no"?>
<svg
   xmlns:dc="http://purl.org/dc/elements/1.1/"
   xmlns:cc="http://creativecommons.org/ns#"
   xmlns:rdf="http://www.w3.org/1999/02/22-rdf-syntax-ns#"
   xmlns:svg="http://www.w3.org/2000/svg"
   xmlns="http://www.w3.org/2000/svg"
   xmlns:sodipodi="http://sodipodi.sourceforge.net/DTD/sodipodi-0.dtd"
   xmlns:inkscape="http://www.inkscape.org/namespaces/inkscape"
   width="1024"
   height="1024"
   viewBox="0 0 1024 1024"
   version="1.1"
   id="svg2"
   inkscape:version="0.91 r13725"
   sodipodi:docname="dashlet-charts-groupby.svg">
  <metadata
     id="metadata22">
    <rdf:RDF>
      <cc:Work
         rdf:about="">
        <dc:format>image/svg+xml</dc:format>
        <dc:type
           rdf:resource="http://purl.org/dc/dcmitype/StillImage" />
        <dc:title>campaign_roi_dark</dc:title>
      </cc:Work>
    </rdf:RDF>
  </metadata>
  <sodipodi:namedview
     pagecolor="#ffffff"
     bordercolor="#666666"
     borderopacity="1"
     objecttolerance="10"
     gridtolerance="10"
     guidetolerance="10"
     inkscape:pageopacity="0"
     inkscape:pageshadow="2"
     inkscape:window-width="1366"
     inkscape:window-height="703"
     id="namedview20"
     showgrid="false"
     inkscape:zoom="0.513"
     inkscape:cx="512"
     inkscape:cy="512"
     inkscape:window-x="0"
     inkscape:window-y="0"
     inkscape:window-maximized="1"
     inkscape:current-layer="svg2" />
  <!-- Generator: Sketch 39.1 (31720) - http://www.bohemiancoding.com/sketch -->
  <title
     id="title4">campaign_roi_dark</title>
  <desc
     id="desc6">Created with Sketch.</desc>
  <defs
     id="defs8" />
  <path
     id="path18"
     style="fill:#000000;stroke:none"
     d="m 826.56807,885.7104 -93.25875,0 c -6.6613,0 -11.11643,-4.67051 -11.11643,-9.36794 l 0,-402.31957 c 0,-5.6136 5.54225,-9.36797 11.11643,-9.36797 l 93.25875,0 c 6.66136,0 11.11648,4.66155 11.11648,9.36797 l 0,402.31957 c 1.08735,4.69755 -4.45529,9.36794 -11.11648,9.36794 l 0,0 z m -148.73507,0 -93.25876,0 c -6.6613,0 -11.11642,-8.27012 -11.11642,-16.58796 l 0,-712.39243 c 0,-9.94007 5.54224,-16.58798 11.11642,-16.58798 l 93.25876,0 c 6.66136,0 11.11648,8.25423 11.11648,16.58798 l 0,712.39243 c 1.08734,8.31784 -4.45529,16.58796 -11.11648,16.58796 l 0,0 z m -148.73507,-10.20137 -93.25874,0 c -6.66134,0 -11.11645,-6.77088 -11.11645,-13.58081 l 0,-343.12833 c 0,-8.13809 5.53158,-13.58086 11.11645,-13.58086 l 93.25874,0 c 6.66134,0 11.10578,6.7709 11.10578,13.58086 l 0,343.16738 c 0,6.77088 -5.53159,13.54176 -11.10578,13.54176 l 0,0 z m -148.74573,5.19846 -93.25875,0 c -6.65068,0 -11.10578,-5.55638 -11.10578,-11.14482 l 0,-596.59419 c 0,-6.66765 5.53157,-11.13412 11.10578,-11.13412 l 93.25875,0 c 6.672,0 11.11644,5.54568 11.11644,11.13412 l 0,596.59419 c 0,5.58827 -5.57419,11.14482 -11.11644,11.14482 l 0,0 z m -148.72442,-4.27726 c -31.49296,-0.0519 -62.9925,0.10367 -94.48135,-0.0777 -8.3502,-1.32212 -10.60974,-10.79944 -9.89384,-18.01517 0.0424,-64.09822 -0.0847,-128.20006 0.0636,-192.29603 0.16775,-7.22843 6.81267,-13.35409 14.06084,-12.08722 30.4903,0.0518 60.98715,-0.10348 91.47335,0.0776 8.35437,1.31788 10.60939,10.79943 9.89384,18.01531 -0.0379,63.64626 0.0758,127.29537 -0.0569,190.93986 -0.30652,6.12068 -4.07878,13.4737 -11.05951,13.44339 z M 992.89073,1012 32.332569,1012 c -11.249781,0 -19.700637,-8.4509 -19.700637,-19.70064 l 0,-960.598724 c 0,-11.249781 8.450856,-19.700637 19.700637,-19.700637 11.24978,0 19.714158,8.450856 19.714158,19.700637 l 0,929.594224 c 0,5.65193 4.218668,9.88412 9.8706,9.88412 l 929.594223,0 c 11.24975,0 19.70065,8.45086 19.70065,19.70064 1.4197,12.66948 -7.0311,21.12038 -18.32147,21.12038 l 0,0 z" />
</svg>
