<?xml version="1.0" encoding="UTF-8" standalone="no"?>
<svg
   xmlns:dc="http://purl.org/dc/elements/1.1/"
   xmlns:cc="http://creativecommons.org/ns#"
   xmlns:rdf="http://www.w3.org/1999/02/22-rdf-syntax-ns#"
   xmlns:svg="http://www.w3.org/2000/svg"
   xmlns="http://www.w3.org/2000/svg"
   xmlns:sodipodi="http://sodipodi.sourceforge.net/DTD/sodipodi-0.dtd"
   xmlns:inkscape="http://www.inkscape.org/namespaces/inkscape"
   width="1024"
   height="1024"
   viewBox="0 0 1024 1024"
   version="1.1"
   id="svg2"
   inkscape:version="0.91 r13725"
   sodipodi:docname="dashlet-charts-funnel.svg">
  <metadata
     id="metadata16">
    <rdf:RDF>
      <cc:Work
         rdf:about="">
        <dc:format>image/svg+xml</dc:format>
        <dc:type
           rdf:resource="http://purl.org/dc/dcmitype/StillImage" />
        <dc:title>my_pipeline_sales_stage_dark</dc:title>
      </cc:Work>
    </rdf:RDF>
  </metadata>
  <sodipodi:namedview
     pagecolor="#ffffff"
     bordercolor="#666666"
     borderopacity="1"
     objecttolerance="10"
     gridtolerance="10"
     guidetolerance="10"
     inkscape:pageopacity="0"
     inkscape:pageshadow="2"
     inkscape:window-width="1366"
     inkscape:window-height="703"
     id="namedview14"
     showgrid="false"
     inkscape:zoom="0.60478179"
     inkscape:cx="574.83258"
     inkscape:cy="512"
     inkscape:window-x="0"
     inkscape:window-y="0"
     inkscape:window-maximized="1"
     inkscape:current-layer="svg2" />
  <!-- Generator: Sketch 39.1 (31720) - http://www.bohemiancoding.com/sketch -->
  <title
     id="title4">my_pipeline_sales_stage_dark</title>
  <desc
     id="desc6">Created with Sketch.</desc>
  <defs
     id="defs8" />
  <path
     style="fill:#000000;fill-rule:evenodd;stroke:none;stroke-width:1"
     d="M 309.88434,88.973731 C 205.13114,96.10751 104.71154,167.25861 51.174871,272.11849 32.627046,308.52076 21.066324,344.56302 14.759263,385.13887 c -3.386878,22.76143 -3.746899,68.13758 -0.573357,88.65886 12.814132,83.17854 53.176651,148.48925 115.220514,186.825 9.32059,5.84036 435.85383,238.30818 458.82862,250.06893 16.45436,8.38718 31.61529,14.33422 47.81632,18.44115 23.22811,5.84035 33.22872,6.9871 60.63043,6.9871 27.49507,0 41.97596,-1.77357 66.35082,-8.0805 112.19365,-29.2685 206.78622,-128.39468 238.04149,-249.69557 8.6405,-33.24207 11.7741,-61.57718 10.734,-95.53932 -1.4136,-44.21607 -10.054,-80.365 -28.13506,-117.80732 C 959.87154,416.03412 925.60276,380.08523 878.55983,354.77698 872.1594,351.39009 428.01172,110.44174 421.918,107.88158 403.95686,100.17443 384.83568,94.600749 365.35447,91.213871 c -6.04036,-1.040065 -39.78915,-3.7469 -41.40259,-3.280204 -0.16,0 -6.61374,0.466679 -14.06754,1.040072 l 0,0 z M 797.1014,388.57909 c 74.07128,12.50746 134.22171,69.84436 154.64964,147.40918 6.2004,23.53482 7.44047,34.89553 7.44047,64.84407 0,29.7485 -1.14679,40.26918 -7.60047,66.25746 -9.69396,39.53579 -30.41525,81.2984 -56.83021,113.96711 -43.5894,54.11004 -102.39307,88.64554 -165.17033,96.92604 -18.06778,2.45357 -47.60296,1.61357 -63.80396,-1.77357 -117.91404,-24.1615 -183.81147,-144.849 -151.51611,-277.56397 5.00029,-20.52129 11.77407,-38.60239 22.13472,-59.48371 28.80178,-58.07029 72.29782,-102.4064 127.24793,-129.59476 43.13603,-21.29464 88.75221,-28.42842 133.44832,-20.98796 l 0,0 z"
     id="path12"
     inkscape:connector-curvature="0" />
</svg>
