<?xml version="1.0" encoding="UTF-8" standalone="no"?>
<svg
   xmlns:dc="http://purl.org/dc/elements/1.1/"
   xmlns:cc="http://creativecommons.org/ns#"
   xmlns:rdf="http://www.w3.org/1999/02/22-rdf-syntax-ns#"
   xmlns:svg="http://www.w3.org/2000/svg"
   xmlns="http://www.w3.org/2000/svg"
   xmlns:sodipodi="http://sodipodi.sourceforge.net/DTD/sodipodi-0.dtd"
   xmlns:inkscape="http://www.inkscape.org/namespaces/inkscape"
   width="1024"
   height="1024"
   viewBox="0 0 1024 1024"
   version="1.1"
   id="svg2"
   inkscape:version="0.91 r13725"
   sodipodi:docname="dashlet-charts-horizontal.svg">
  <metadata
     id="metadata22">
    <rdf:RDF>
      <cc:Work
         rdf:about="">
        <dc:format>image/svg+xml</dc:format>
        <dc:type
           rdf:resource="http://purl.org/dc/dcmitype/StillImage" />
        <dc:title>opps_lead_source_outcome_dark</dc:title>
      </cc:Work>
    </rdf:RDF>
  </metadata>
  <sodipodi:namedview
     pagecolor="#ffffff"
     bordercolor="#666666"
     borderopacity="1"
     objecttolerance="10"
     gridtolerance="10"
     guidetolerance="10"
     inkscape:pageopacity="0"
     inkscape:pageshadow="2"
     inkscape:window-width="1366"
     inkscape:window-height="703"
     id="namedview20"
     showgrid="false"
     inkscape:zoom="0.50097656"
     inkscape:cx="513.13858"
     inkscape:cy="513.13857"
     inkscape:window-x="0"
     inkscape:window-y="0"
     inkscape:window-maximized="1"
     inkscape:current-layer="svg2" />
  <!-- Generator: Sketch 39.1 (31720) - http://www.bohemiancoding.com/sketch -->
  <title
     id="title4">opps_lead_source_outcome_dark</title>
  <desc
     id="desc6">Created with Sketch.</desc>
  <defs
     id="defs8" />
  <path
     id="Fill-6"
     style="fill:#000000;stroke:none"
     d="m 358.08213,113.74467 c -72.46276,0 -144.92551,0 -217.38827,0 0,60.86871 0,121.73743 0,182.60615 72.46276,0 144.92551,0 217.38827,0 0,-60.86872 0,-121.73744 0,-182.60615 z m 260.86596,258.69552 c -159.41808,0 -318.83615,0 -478.25423,0 0,60.86872 0,121.73744 0,182.60616 159.41808,0 318.83615,0 478.25423,0 0,-60.86872 0,-121.73744 0,-182.60616 z m 260.86589,256.5112 c -246.37336,0 -492.74675,0 -739.12012,0 0,60.86871 0,121.73747 0,182.60618 246.37337,0 492.74676,0 739.12012,0 0,-60.86871 0,-121.73747 0,-182.60618 z M 42.273438,10.962891 C 32.36448,11.126189 19.306595,14.439064 12,12 l 0,1000 991.5156,0 c 17.9908,0.6651 4.1483,-30.50269 8.4844,-43.49219 l -221.74219,0 0,-65.20898 -43.47851,0 0,65.20898 -202.16797,0 0,-65.20898 -43.47656,0 0,65.20898 -199.99805,0 0,-65.20898 -43.47656,0 0,65.20898 -202.167972,0 0,-948.023435 c 0.290993,-7.870952 -5.511784,-9.648494 -13.21875,-9.521484 z" />
</svg>
