<?xml version="1.0" encoding="UTF-8" standalone="no"?>
<svg
   xmlns:dc="http://purl.org/dc/elements/1.1/"
   xmlns:cc="http://creativecommons.org/ns#"
   xmlns:rdf="http://www.w3.org/1999/02/22-rdf-syntax-ns#"
   xmlns:svg="http://www.w3.org/2000/svg"
   xmlns="http://www.w3.org/2000/svg"
   xmlns:sodipodi="http://sodipodi.sourceforge.net/DTD/sodipodi-0.dtd"
   xmlns:inkscape="http://www.inkscape.org/namespaces/inkscape"
   width="1024"
   height="1024"
   viewBox="0 0 1024 1024"
   version="1.1"
   id="svg2"
   inkscape:version="0.91 r13725"
   sodipodi:docname="dashlet-jotpad.svg">
  <metadata
     id="metadata16">
    <rdf:RDF>
      <cc:Work
         rdf:about="">
        <dc:format>image/svg+xml</dc:format>
        <dc:type
           rdf:resource="http://purl.org/dc/dcmitype/StillImage" />
        <dc:title>jotpad_dark</dc:title>
      </cc:Work>
    </rdf:RDF>
  </metadata>
  <sodipodi:namedview
     pagecolor="#ffffff"
     bordercolor="#666666"
     borderopacity="1"
     objecttolerance="10"
     gridtolerance="10"
     guidetolerance="10"
     inkscape:pageopacity="0"
     inkscape:pageshadow="2"
     inkscape:window-width="1366"
     inkscape:window-height="703"
     id="namedview14"
     showgrid="false"
     inkscape:zoom="0.513"
     inkscape:cx="586.07407"
     inkscape:cy="512"
     inkscape:window-x="0"
     inkscape:window-y="0"
     inkscape:window-maximized="1"
     inkscape:current-layer="svg2" />
  <!-- Generator: Sketch 39.1 (31720) - http://www.bohemiancoding.com/sketch -->
  <title
     id="title4">jotpad_dark</title>
  <desc
     id="desc6">Created with Sketch.</desc>
  <defs
     id="defs8" />
  <path
     id="path12"
     style="fill:#000000;fill-rule:evenodd;stroke:none;stroke-width:1"
     d="m 425.37794,490.26087 -173.24417,0 0,43.47826 173.24417,0 0,-43.47826 z m -173.24417,217.39131 389.79936,0 0,-43.47825 -389.79936,0 0,43.47825 z m 584.699,-565.2174 -303.17725,282.60871 64.96654,65.21738 -86.62206,0 0,-86.95651 303.17725,-282.60871 -21.65551,-43.478258 -69.3121,65.217388 -645.320015,0 -43.311038,43.47826 0,782.60871 43.311038,43.47825 736.287625,0 43.31103,-43.47825 0,-691.28986 64.96659,-69.57972 -64.96659,-65.21739 -21.65551,0 z m -21.65552,804.34784 -21.65551,21.73913 -692.9766,0 -21.655515,-21.73913 0,-739.13045 21.655515,-21.73913 577.14844,0 -209.00461,195.6522 0,152.17389 151.58861,0 194.89967,-209.81159 0,622.85508 z m 86.6221,-934.782621 -43.31107,0 -43.31103,43.478262 129.93313,130.434779 43.31103,-43.47826 0,-43.478257 -86.62206,-86.956524 z m -649.66558,608.695671 389.79936,0 0,-43.47829 -389.79936,0 0,43.47829 z" />
</svg>
