<svg xmlns="http://www.w3.org/2000/svg" width="1024" height="1024" viewBox="0 0 1024 1024"><path d="M813.732 988.822c2.542-1.919-302.5-188.934-299.317-188.897 3.294 0-320.667 179.726-317.967 181.613 2.61 1.83 86.209-346.079 87.157-343.038.98 3.145-270.02-249.434-270.982-246.284-.93 3.045 355.78-24.954 353.183-23.114C363.118 371 519.59 35.22 516.297 35.277c-3.184 0 133.676 330.657 131.122 328.755-2.642-1.964 365.065 43.082 363.99 39.968-1.038-3.01-273.164 229.313-272.144 226.295 1.055-3.121 71.837 360.51 74.467 358.527z" fill-rule="evenodd"/></svg>