<?xml version="1.0" encoding="UTF-8" standalone="no"?>
<svg
   xmlns:dc="http://purl.org/dc/elements/1.1/"
   xmlns:cc="http://creativecommons.org/ns#"
   xmlns:rdf="http://www.w3.org/1999/02/22-rdf-syntax-ns#"
   xmlns:svg="http://www.w3.org/2000/svg"
   xmlns="http://www.w3.org/2000/svg"
   xmlns:xlink="http://www.w3.org/1999/xlink"
   xmlns:sodipodi="http://sodipodi.sourceforge.net/DTD/sodipodi-0.dtd"
   xmlns:inkscape="http://www.inkscape.org/namespaces/inkscape"
   width="1000"
   height="1000"
   viewBox="0 0 1000 1000"
   version="1.1"
   id="svg2"
   inkscape:version="0.91 r13725"
   sodipodi:docname="module-history.svg">
  <metadata
     id="metadata24">
    <rdf:RDF>
      <cc:Work
         rdf:about="">
        <dc:format>image/svg+xml</dc:format>
        <dc:type
           rdf:resource="http://purl.org/dc/dcmitype/StillImage" />
        <dc:title>acc_history</dc:title>
      </cc:Work>
    </rdf:RDF>
  </metadata>
  <sodipodi:namedview
     pagecolor="#ffffff"
     bordercolor="#666666"
     borderopacity="1"
     objecttolerance="10"
     gridtolerance="10"
     guidetolerance="10"
     inkscape:pageopacity="0"
     inkscape:pageshadow="2"
     inkscape:window-width="1366"
     inkscape:window-height="703"
     id="namedview22"
     showgrid="false"
     inkscape:zoom="0.42607973"
     inkscape:cx="37.910331"
     inkscape:cy="613.73489"
     inkscape:window-x="0"
     inkscape:window-y="0"
     inkscape:window-maximized="1"
     inkscape:current-layer="g4170" />
  <!-- Generator: Sketch 3.8.3 (29802) - http://www.bohemiancoding.com/sketch -->
  <title
     id="title4">acc_history</title>
  <desc
     id="desc6">Created with Sketch.</desc>
  <defs
     id="defs8">
    <polygon
       id="path-1"
       points="0,22.826557 0,0.0057132113 25.968547,0.0057132113 25.968547,0.0057132113 25.968547,22.826557 " />
  </defs>
  <g
     id="g4170"
     transform="matrix(38.508059,0,0,38.508059,-65.015613,-196.37969)">
    <use
       transform="translate(2,4)"
       xlink:href="#path-1"
       id="use17"
       x="0"
       y="0"
       width="100%"
       height="100%"
       style="fill:none;fill-rule:evenodd;stroke:none;stroke-width:1" />
    <g
       id="g4139"
       transform="translate(-0.31162309,2.6297376)"
       inkscape:transform-center-x="44.592593"
       inkscape:transform-center-y="-28.163743">
      <path
         id="Fill-4"
         transform="translate(2,4)"
         style="fill:#000000;fill-opacity:1;fill-rule:evenodd;stroke:none;stroke-width:1"
         d="m 14.607341,4.934002 -0.81154,0 -0.811541,0 0,8.150308 6.492192,0 0,-1.630062 -4.869111,0 z m -2.2e-5,-4.8901718 c -6.329866,0 -11.3612583,5.1347048 -11.3612583,11.4104308 l -3.2460738,0 4.0576141,4.890185 4.05757,-4.890185 -3.2460297,0 c 0,-5.379225 4.3009937,-9.7803692 9.7381777,-9.7803692 5.437185,0 9.738222,4.4011442 9.738222,9.7803692 0,5.379181 -4.301037,9.780413 -9.738222,9.780413 l 0,1.630018 c 6.329866,0 11.361258,-5.134705 11.361258,-11.410431 0,-6.275726 -5.031392,-11.4104308 -11.361258,-11.4104308" />
    </g>
  </g>
</svg>
