<?xml version="1.0" encoding="UTF-8" standalone="no"?>
<svg width="1024" height="1024" viewBox="0 0 1024 1024" version="1.1" xmlns="http://www.w3.org/2000/svg">
    <path id="path6248"
          d="M 481.53208,549.90878 C 425.30623,541.49961 382.61814,523.98022 342.99687,493.05328 240.28344,412.87887 207.64451,272.26523 264.68689,155.68148 325.73571,30.909304 468.58128,-28.741958 600.56327,15.421971 c 38.9831,13.044564 74.61928,35.432799 105.07597,66.013412 23.96605,24.063587 38.62797,44.056777 52.05758,70.986447 21.69214,43.49806 30.7183,85.20712 28.92197,133.64572 -1.50155,40.48935 -9.35186,72.53572 -26.54561,108.36395 -37.73939,78.64108 -107.58609,133.28539 -193.79016,151.61106 -12.58369,2.6751 -23.54166,3.59385 -48.07986,4.03113 -17.47988,0.31149 -33.98187,0.23728 -36.67108,-0.16491 z"
          style="stroke-width:1.62982595"/>
    <path id="path6250"
          d="m 99.349309,876.472 c 0.01093,-140.75778 0.149826,-147.6691 3.225601,-160.49855 11.01712,-45.95373 44.84571,-82.4809 91.29289,-98.5755 l 15.48334,-5.36521 297.99997,-0.43311 c 293.57139,-0.42668 298.20489,-0.38446 311.7879,2.84151 26.25159,6.23473 49.43113,19.59057 68.41751,39.42155 16.3824,17.11117 26.41457,34.99708 33.65365,59.99967 3.51184,12.12927 3.55459,13.82243 4.06383,160.97982 l 0.51465,148.72162 H 512.56326 99.33789 Z"
          style="stroke-width:1.62982595"/>
</svg>
