<?xml version="1.0" encoding="UTF-8" standalone="no"?>
<svg
   xmlns:dc="http://purl.org/dc/elements/1.1/"
   xmlns:cc="http://creativecommons.org/ns#"
   xmlns:rdf="http://www.w3.org/1999/02/22-rdf-syntax-ns#"
   xmlns:svg="http://www.w3.org/2000/svg"
   xmlns="http://www.w3.org/2000/svg"
   xmlns:sodipodi="http://sodipodi.sourceforge.net/DTD/sodipodi-0.dtd"
   xmlns:inkscape="http://www.inkscape.org/namespaces/inkscape"
   width="1024"
   height="1024"
   viewBox="0 0 1024 1024"
   version="1.1"
   id="svg2"
   inkscape:version="0.91 r13725"
   sodipodi:docname="module-contracts-sign.svg">
  <metadata
     id="metadata18">
    <rdf:RDF>
      <cc:Work
         rdf:about="">
        <dc:format>image/svg+xml</dc:format>
        <dc:type
           rdf:resource="http://purl.org/dc/dcmitype/StillImage" />
        <dc:title>acc_contracts</dc:title>
      </cc:Work>
    </rdf:RDF>
  </metadata>
  <sodipodi:namedview
     pagecolor="#ffffff"
     bordercolor="#666666"
     borderopacity="1"
     objecttolerance="10"
     gridtolerance="10"
     guidetolerance="10"
     inkscape:pageopacity="0"
     inkscape:pageshadow="2"
     inkscape:window-width="1920"
     inkscape:window-height="1015"
     id="namedview16"
     showgrid="false"
     inkscape:zoom="1.022584"
     inkscape:cx="477.28403"
     inkscape:cy="512"
     inkscape:window-x="0"
     inkscape:window-y="0"
     inkscape:window-maximized="1"
     inkscape:current-layer="svg2" />
  <!-- Generator: Sketch 3.8.3 (29802) - http://www.bohemiancoding.com/sketch -->
  <title
     id="title4">acc_contracts</title>
  <desc
     id="desc6">Created with Sketch.</desc>
  <defs
     id="defs8" />
  <path
     transform="matrix(42.448939,0,0,42.448939,3.228967,109.58787)"
     style="fill:#000000;fill-rule:evenodd;stroke:none;stroke-width:1;fill-opacity:1"
     d="m 23.970966,17.585922 -23.970966,0 0,1.373894 23.970966,0 z"
     id="Fill-1" />
  <path
     style="fill:#000000;fill-rule:evenodd;stroke:none;stroke-width:1;fill-opacity:1"
     inkscape:connector-curvature="0"
     id="Fill-2"
     d="m 266.77312,188.51722 c -9.15872,0 -19.33449,3.12467 -27.47443,9.37219 -13.22869,9.37395 -25.4386,24.99718 -37.65022,47.90718 -42.73725,82.27654 -41.71848,188.50404 2.03584,270.77883 3.05291,6.2493 7.12288,12.49859 12.20991,18.74789 9.15872,-14.58052 16.28159,-28.12008 22.3874,-38.53499 36.63144,-66.6533 60.03419,-140.59687 66.14,-215.5814 2.03585,-18.74613 3.05291,-40.61691 -3.0529,-59.36304 -4.06997,-14.58052 -13.22697,-26.0364 -23.40276,-31.24472 -3.0529,-1.04097 -7.12287,-2.08194 -11.19284,-2.08194 l 0,0 z M 112.10571,702.99581 c -25.438595,0 -48.843059,-9.37222 -67.157071,-27.07737 C 29.684114,661.33965 20.5254,641.5508 15.440074,614.47347 l -7.1228754,-39.57595 76.3140744,-13.53956 7.122876,39.57595 c 2.035851,10.41489 5.088745,15.62147 6.105809,16.66244 4.069962,3.12637 9.158712,5.20832 15.262822,5.20832 18.31572,-1.04098 35.61437,-11.45587 51.89596,-24.99542 -12.21162,-13.53782 -22.3874,-28.11831 -30.52734,-43.74155 -56.983,-106.22751 -57.998357,-238.49316 -2.03413,-345.76163 18.31572,-34.36937 38.66557,-59.36479 63.0871,-76.02724 34.5956,-23.95272 77.33285,-29.16104 111.93016,-14.58052 31.5444,13.53955 56.98129,42.70059 68.17414,81.23382 9.15871,31.24472 8.14164,63.52866 6.10751,89.56505 -7.12287,85.39944 -33.58024,171.83985 -76.31749,247.8671 -7.12288,13.53956 -17.29865,30.202 -27.47273,47.90715 21.36863,8.33124 43.75432,9.37222 65.12294,-1.04271 18.31401,-8.3312 31.54441,-23.95271 48.84136,-46.86444 18.31743,-22.91175 28.49149,-43.74157 33.57853,-66.65331 4.06998,-21.87078 24.42153,-35.41034 45.79015,-31.24472 15.26282,3.12462 27.47444,15.62148 30.52733,31.24472 6.10411,15.62148 38.66559,78.10918 46.80551,89.56504 l 3.05293,5.20658 c 18.3157,26.03639 28.49147,38.53497 39.68432,35.41035 18.31405,-4.16552 34.59564,-24.99542 50.87722,-48.94813 17.29693,-24.99544 30.52733,-54.15649 38.66555,-83.31752 4.07001,-15.62149 17.29867,-28.11833 33.58026,-29.16104 16.27988,-2.08195 31.5427,7.29026 38.66554,21.87078 l 21.36863,43.74156 c 19.33282,39.57596 36.63318,70.81893 62.07003,86.44039 16.28163,10.41493 37.65025,13.53956 55.96595,8.33298 12.20993,-3.12466 16.27989,-9.37395 31.5444,-35.41031 l 19.33108,-34.36764 67.15881,40.61693 -19.33282,34.3676 c -16.28159,28.11835 -34.59559,60.40403 -78.35162,71.8599 -38.66555,10.41489 -80.38402,4.16721 -114.98305,-16.66423 -35.6144,-20.82803 -57.99837,-55.19567 -75.29703,-86.43864 -5.08704,9.37217 -10.17578,17.70341 -16.28159,26.03639 -19.33277,27.07738 -48.84132,68.73524 -97.68269,80.1911 -62.07173,14.58053 -97.68439,-36.44954 -119.05302,-65.61056 l -5.08704,-8.33299 c 0,0 -10.17577,-15.6215 -21.36862,-35.40857 -4.07001,5.20658 -8.14167,10.41489 -12.21163,16.66244 -18.31574,22.91173 -40.6997,51.03182 -76.31408,68.73698 -48.84477,22.91177 -101.75609,16.66248 -147.54625,-7.29027 -29.50685,30.20204 -65.12122,53.11377 -109.89431,55.19572 l -5.08704,0 z" />
</svg>
