<?xml version="1.0" encoding="UTF-8"?>
<svg xmlns="http://www.w3.org/2000/svg" xmlns:xlink="http://www.w3.org/1999/xlink" width="1024pt" height="1024pt" viewBox="0 0 1024 1024" version="1.1">
<g id="surface1">
<path style=" stroke:none;fill-rule:evenodd;fill:rgb(0%,0%,0%);fill-opacity:1;" d="M 161.96875 885.488281 C 253.542969 971.3125 376.585938 1024 512 1024 C 557.710938 1024 601.921875 1017.925781 644.054688 1006.714844 L 342.398438 705.070312 Z M 161.96875 885.488281 "/>
<path style=" stroke:none;fill-rule:evenodd;fill:rgb(0%,0%,0%);fill-opacity:1;" d="M 1004.421875 652.054688 C 1017.0625 607.519531 1024 560.59375 1024 512 C 1024 466.289062 1017.925781 422.078125 1006.714844 379.945312 L 869.5 517.121094 Z M 1004.421875 652.054688 "/>
<path style=" stroke:none;fill-rule:evenodd;fill:rgb(0%,0%,0%);fill-opacity:1;" d="M 332.160156 347.941406 L 151.46875 528.644531 C 147.46875 532.644531 141.011719 532.644531 137.011719 528.644531 C 133.011719 524.644531 133.011719 518.183594 137.011719 514.183594 C 137.011719 514.183594 137.066406 514.183594 137.066406 514.128906 L 317.753906 333.441406 L 142.351562 158.023438 C 54.191406 249.980469 0 374.621094 0 512 C 0 652 56.210938 778.773438 147.25 871.207031 L 501.390625 517.121094 Z M 289.382812 544.796875 C 289.382812 522.664062 307.308594 504.75 329.441406 504.75 C 351.574219 504.75 369.488281 522.71875 369.488281 544.796875 L 329.441406 606.617188 Z M 289.382812 544.796875 "/>
<path style=" stroke:none;fill-rule:evenodd;fill:rgb(0%,0%,0%);fill-opacity:1;" d="M 685.382812 672.207031 L 346.617188 333.441406 L 501.707031 178.339844 L 840.484375 517.121094 Z M 685.382812 672.207031 "/>
<path style=" stroke:none;fill-rule:evenodd;fill:rgb(0%,0%,0%);fill-opacity:1;" d="M 635.890625 15.195312 C 596.214844 5.339844 554.722656 0 512 0 C 463.40625 0 416.480469 6.9375 371.945312 19.578125 L 501.761719 149.382812 Z M 635.890625 15.195312 "/>
<path style=" stroke:none;fill-rule:evenodd;fill:rgb(0%,0%,0%);fill-opacity:1;" d="M 487.261719 163.839844 L 349.8125 26.40625 C 276.699219 50.832031 210.929688 91.257812 156.699219 143.523438 L 332.160156 318.984375 Z M 487.261719 163.839844 "/>
<path style=" stroke:none;fill-rule:evenodd;fill:rgb(0%,0%,0%);fill-opacity:1;" d="M 356.910156 690.558594 L 666.554688 1000.214844 C 742.179688 976.324219 810.078125 935.253906 866.03125 881.757812 L 515.835938 531.578125 Z M 356.910156 690.558594 "/>
<path style=" stroke:none;fill-rule:evenodd;fill:rgb(0%,0%,0%);fill-opacity:1;" d="M 855.039062 502.660156 L 1000.214844 357.5 C 949.273438 196.375 820.796875 69.808594 658.609375 21.4375 L 516.21875 163.839844 Z M 855.039062 502.660156 "/>
<path style=" stroke:none;fill-rule:evenodd;fill:rgb(0%,0%,0%);fill-opacity:1;" d="M 699.953125 686.722656 L 880.53125 867.300781 C 932.851562 813.070312 973.277344 747.300781 997.648438 674.1875 L 855.039062 531.578125 Z M 699.953125 686.722656 "/>
<path style=" stroke:none;fill-rule:evenodd;fill:rgb(0%,0%,0%);fill-opacity:1;" d="M 347.996094 541.382812 C 347.996094 566.136719 310.886719 566.136719 310.886719 541.382812 C 310.886719 516.640625 347.996094 516.640625 347.996094 541.382812 "/>
</g>
</svg>
