<?xml version="1.0" encoding="UTF-8"?>
<svg xmlns="http://www.w3.org/2000/svg" xmlns:xlink="http://www.w3.org/1999/xlink" width="1024pt" height="1024pt" viewBox="0 0 1024 1024" version="1.1">
<g id="surface1">
<path style=" stroke:none;fill-rule:evenodd;fill:rgb(0%,0%,0%);fill-opacity:1;" d="M 1016.472656 486.574219 C 1013.683594 480.824219 1010.542969 475.132812 1005.808594 470.398438 C 1005.503906 470.097656 1005.15625 470.039062 1004.914062 469.808594 L 847.164062 312.042969 C 824.34375 289.226562 787.070312 289.226562 764.3125 312.042969 C 741.496094 334.859375 741.496094 372.136719 764.3125 394.894531 L 830.15625 460.734375 L 562.824219 460.734375 L 562.824219 193.402344 L 629.257812 259.839844 C 652.0625 282.65625 689.351562 282.65625 712.109375 259.839844 C 734.910156 237.019531 734.910156 199.746094 712.109375 176.988281 L 554.222656 19.117188 C 553.996094 18.8125 553.871094 18.464844 553.628906 18.222656 C 547.773438 12.351562 540.886719 8.085938 533.605469 5.308594 C 526.898438 2.109375 519.675781 -0.03125 511.789062 -0.03125 C 502.488281 -0.03125 494.25 3.109375 486.785156 7.433594 C 480.972656 10.226562 475.285156 13.425781 470.492188 18.222656 C 470.1875 18.523438 470.128906 18.875 469.898438 19.117188 L 311.3125 177.640625 C 288.496094 200.457031 288.496094 237.734375 311.3125 260.492188 C 334.117188 283.308594 371.394531 283.308594 394.148438 260.492188 L 460.765625 193.875 L 460.765625 460.675781 L 192.78125 460.675781 L 259.988281 393.480469 C 282.808594 370.664062 282.808594 333.386719 259.988281 310.632812 C 237.171875 287.8125 199.898438 287.8125 177.140625 310.632812 L 17.964844 469.808594 C 17.660156 470.035156 17.3125 470.160156 17.066406 470.398438 C 5.628906 481.839844 -0.0585938 496.949219 0 512 C -0.0585938 527.050781 5.628906 542.160156 17.066406 553.597656 C 17.371094 553.902344 17.71875 553.960938 17.964844 554.191406 L 176.777344 713.019531 C 199.59375 735.835938 236.867188 735.835938 259.625 713.019531 C 282.445312 690.203125 282.445312 652.925781 259.625 630.167969 L 192.25 562.792969 L 460.765625 562.792969 L 460.765625 831.308594 L 393.859375 764.402344 C 371.042969 741.585938 333.769531 741.585938 311.011719 764.402344 C 288.195312 787.222656 288.195312 824.496094 311.011719 847.253906 L 469.839844 1006.066406 C 470.066406 1006.371094 470.1875 1006.71875 470.429688 1006.960938 C 481.871094 1018.402344 496.917969 1024.089844 512.03125 1024.03125 C 527.078125 1024.089844 542.191406 1018.402344 553.628906 1006.960938 C 553.933594 1006.660156 553.992188 1006.308594 554.222656 1006.066406 L 711.988281 848.316406 C 734.804688 825.5 734.804688 788.222656 711.988281 765.464844 C 689.167969 742.648438 651.894531 742.648438 629.136719 765.464844 L 562.824219 831.78125 L 562.824219 562.792969 L 830.625 562.792969 L 764.191406 629.226562 C 741.375 652.03125 741.375 689.320312 764.191406 712.078125 C 787.007812 734.878906 824.285156 734.878906 847.042969 712.078125 L 1004.914062 554.191406 C 1005.214844 553.964844 1005.566406 553.839844 1005.808594 553.597656 C 1011.679688 547.726562 1015.941406 540.855469 1018.71875 533.574219 C 1021.921875 526.867188 1024 519.644531 1024 511.757812 C 1024.058594 502.394531 1020.859375 494.097656 1016.472656 486.574219 Z M 1016.472656 486.574219 "/>
</g>
</svg>
