<?xml version="1.0" encoding="UTF-8"?>
<svg xmlns="http://www.w3.org/2000/svg" xmlns:xlink="http://www.w3.org/1999/xlink" width="1024pt" height="1024pt" viewBox="0 0 1024 1024" version="1.1">
<g id="surface1">
<path style=" stroke:none;fill-rule:evenodd;fill:rgb(0%,0%,0%);fill-opacity:1;" d="M 992.824219 281.851562 C 967.253906 255.382812 926.117188 255.382812 900.550781 281.851562 L 641.515625 551.125 L 474.757812 378.511719 L 382.484375 283 L 290.210938 378.511719 L 31.175781 646.636719 C 5.609375 673.101562 5.609375 715.679688 31.175781 742.148438 C 56.746094 768.617188 97.882812 768.617188 123.449219 742.148438 L 382.484375 474.027344 L 549.242188 646.636719 L 641.515625 742.148438 L 733.789062 646.636719 L 992.824219 377.363281 C 1018.390625 350.898438 1018.390625 308.316406 992.824219 281.851562 "/>
<path style=" stroke:none;fill-rule:evenodd;fill:rgb(0%,0%,0%);fill-opacity:1;" d="M 832.734375 653.542969 C 832.734375 702.476562 871.0625 742.148438 918.335938 742.148438 C 965.613281 742.148438 1003.941406 702.476562 1003.941406 653.542969 C 1003.941406 604.601562 965.613281 564.933594 918.335938 564.933594 C 871.0625 564.933594 832.734375 604.601562 832.734375 653.542969 Z M 832.734375 653.542969 "/>
</g>
</svg>
