<?xml version="1.0" encoding="UTF-8" standalone="no"?>
<svg
   xmlns:dc="http://purl.org/dc/elements/1.1/"
   xmlns:cc="http://creativecommons.org/ns#"
   xmlns:rdf="http://www.w3.org/1999/02/22-rdf-syntax-ns#"
   xmlns:svg="http://www.w3.org/2000/svg"
   xmlns="http://www.w3.org/2000/svg"
   xmlns:sodipodi="http://sodipodi.sourceforge.net/DTD/sodipodi-0.dtd"
   xmlns:inkscape="http://www.inkscape.org/namespaces/inkscape"
   width="1024"
   height="1024"
   viewBox="0 0 1024 1024"
   version="1.1"
   id="svg17"
   sodipodi:docname="module-documents.svg"
   inkscape:version="0.91 r13725">
  <metadata
     id="metadata21">
    <rdf:RDF>
      <cc:Work
         rdf:about="">
        <dc:format>image/svg+xml</dc:format>
        <dc:type
           rdf:resource="http://purl.org/dc/dcmitype/StillImage" />
        <dc:title>acc_documents</dc:title>
      </cc:Work>
    </rdf:RDF>
  </metadata>
  <sodipodi:namedview
     pagecolor="#ffffff"
     bordercolor="#666666"
     borderopacity="1"
     objecttolerance="10"
     gridtolerance="10"
     guidetolerance="10"
     inkscape:pageopacity="0"
     inkscape:pageshadow="2"
     inkscape:window-width="1920"
     inkscape:window-height="1015"
     id="namedview19"
     showgrid="false"
     inkscape:zoom="0.44834434"
     inkscape:cx="167.28276"
     inkscape:cy="514.44365"
     inkscape:window-x="0"
     inkscape:window-y="0"
     inkscape:window-maximized="1"
     inkscape:current-layer="svg17" />
  <!-- Generator: Sketch 3.8.3 (29802) - http://www.bohemiancoding.com/sketch -->
  <title
     id="title2">acc_documents</title>
  <desc
     id="desc4">Created with Sketch.</desc>
  <defs
     id="defs7" />
  <path
     id="Fill-4"
     style="fill:#000000;fill-rule:evenodd;stroke:none;stroke-width:38.77770615"
     d="m 914.25661,927.77087 c 0,13.15657 -8.14874,21.04036 -21.73207,21.04036 l -554.48101,0 c -13.59279,0 -21.73998,-7.87112 -21.73998,-21.04036 l 0,-52.63893 424.01147,0 c 27.195,0 43.49251,-15.78027 43.49251,-42.11031 l 0,-599.96725 108.71701,0 c 13.58333,0 21.73207,7.87958 21.73207,21.04037 z m -804.52263,-136.82998 0,-694.732967 c 0,-13.159923 8.14874,-21.058529 21.74153,-21.058529 l 565.34546,0 c 13.59437,0 21.74155,7.898606 21.74155,21.058529 l 0,694.732967 c 0,13.15235 -8.14718,21.04037 -21.74155,21.04037 l -565.34546,0 c -13.59279,0 -21.74153,-7.88802 -21.74153,-21.04037 z m 826.27516,-631.56581 -152.20161,0 0,-105.275768 C 783.80753,27.780674 767.51002,12 740.31502,12 L 87.981467,12 C 60.797496,12 44.500001,27.780674 44.500001,54.099312 l 0,778.930768 c 0,26.34272 16.297495,42.13142 43.481466,42.13142 l 152.211053,0 0,94.73652 c 0,26.32158 16.30695,42.10198 43.49248,42.10198 l 652.32414,0 C 963.20256,1012 979.5,996.2196 979.5,969.89802 l 0,-768.42108 c 0,-26.33005 -16.29744,-42.10186 -43.49086,-42.10186 z m -326.1624,42.98909 -391.39603,0 0,63.15067 391.39603,0 z m 0,189.46889 -391.39603,0 0,63.14646 391.39603,0 z m 0,189.47314 -391.39603,0 0,63.15068 391.39603,0 z"
     inkscape:connector-curvature="0" />
</svg>
