<?xml version="1.0" encoding="UTF-8"?>
<svg xmlns="http://www.w3.org/2000/svg" xmlns:xlink="http://www.w3.org/1999/xlink" width="1024pt" height="1024pt" viewBox="0 0 1024 1024" version="1.1">
<g id="surface1">
<path style=" stroke:none;fill-rule:evenodd;fill:rgb(0%,0%,0%);fill-opacity:1;" d="M 960.046875 224.316406 L 960.429688 345.628906 C 901.652344 379.339844 863.996094 442.214844 863.996094 512 C 863.996094 575.347656 895.042969 633.039062 944.742188 668.363281 C 955.417969 675.929688 959.992188 678.316406 959.992188 678.316406 L 959.992188 799.738281 L 63.953125 799.683594 L 63.625 678.316406 C 122.347656 644.660156 160.003906 581.730469 160.003906 512 C 160.003906 449.988281 130.292969 393.46875 82.453125 357.984375 C 70.875 349.40625 64.007812 345.777344 64.007812 345.777344 L 64.007812 224.261719 C 64.007812 224.316406 960.046875 224.316406 960.046875 224.316406 Z M 0 365.5 C 0 378.183594 7.523438 389.679688 19.195312 394.738281 C 65.441406 414.992188 95.996094 460.691406 95.996094 512 C 95.996094 563.308594 65.441406 609.007812 19.195312 629.261719 C 7.523438 634.320312 0 645.816406 0 658.5 L 0 799.738281 C 0 835.0625 28.644531 863.605469 63.953125 863.605469 L 960.046875 863.605469 C 995.355469 863.605469 1024 835.007812 1024 799.738281 L 1024 658.5 C 1024 645.816406 1016.476562 634.320312 1004.804688 629.261719 C 958.558594 609.007812 928.003906 563.308594 928.003906 512 C 928.003906 460.691406 958.558594 414.992188 1004.804688 394.738281 C 1016.476562 389.679688 1024 378.183594 1024 365.5 L 1024 224.261719 C 1024 188.9375 995.355469 160.394531 960.046875 160.394531 L 63.953125 160.394531 C 28.644531 160.394531 0 188.992188 0 224.261719 Z M 0 365.5 "/>
<path style=" stroke:none;fill-rule:evenodd;fill:rgb(0%,0%,0%);fill-opacity:1;" d="M 640 368.265625 L 640 655.734375 C 640 673.476562 625.648438 687.808594 607.996094 687.808594 L 416.003906 687.808594 C 398.296875 687.808594 384 673.53125 384 655.734375 L 384 368.265625 C 384 350.523438 398.351562 336.191406 416.003906 336.191406 L 607.996094 336.191406 C 625.703125 336.191406 640 350.46875 640 368.265625 Z M 416.003906 272.269531 C 362.988281 272.269531 320.007812 315.253906 320.007812 368.265625 L 320.007812 655.734375 C 320.007812 708.851562 362.933594 751.730469 416.003906 751.730469 L 607.996094 751.730469 C 661.011719 751.730469 703.992188 708.746094 703.992188 655.734375 L 703.992188 368.265625 C 703.992188 315.148438 661.066406 272.269531 607.996094 272.269531 Z M 416.003906 272.269531 "/>
</g>
</svg>
