<?xml version="1.0" encoding="UTF-8"?>
<svg xmlns="http://www.w3.org/2000/svg" xmlns:xlink="http://www.w3.org/1999/xlink" width="1024pt" height="1024pt" viewBox="0 0 1024 1024" version="1.1">
<g id="surface1">
<path style=" stroke:none;fill-rule:evenodd;fill:rgb(0%,0%,0%);fill-opacity:1;" d="M 661.199219 305.421875 L 661.199219 485.066406 L 362.816406 485.066406 L 362.816406 305.421875 L 363.328125 305.421875 C 363.152344 302.394531 362.816406 299.441406 362.816406 296.402344 C 362.816406 212.09375 429.601562 143.734375 511.964844 143.734375 C 594.328125 143.734375 661.199219 212.09375 661.199219 296.402344 C 661.199219 299.441406 660.941406 302.394531 660.785156 305.421875 Z M 836.6875 485.066406 L 801.605469 485.066406 L 801.605469 305.421875 L 801.179688 305.421875 C 801.28125 302.394531 801.605469 299.441406 801.605469 296.402344 C 801.605469 132.71875 671.945312 0 511.964844 0 C 352.136719 0 222.480469 132.71875 222.480469 296.402344 C 222.480469 299.441406 222.734375 302.394531 222.820312 305.421875 L 222.480469 305.421875 L 222.480469 485.066406 L 187.3125 485.066406 C 158.253906 485.066406 134.683594 509.175781 134.683594 538.933594 L 134.683594 970.132812 C 134.683594 999.890625 158.238281 1024 187.3125 1024 L 836.6875 1024 C 865.761719 1024 889.316406 999.890625 889.316406 970.132812 L 889.316406 538.933594 C 889.328125 509.175781 865.761719 485.066406 836.6875 485.066406 Z M 836.6875 485.066406 "/>
</g>
</svg>
