<?xml version="1.0" encoding="UTF-8"?>
<svg xmlns="http://www.w3.org/2000/svg" xmlns:xlink="http://www.w3.org/1999/xlink" width="1024pt" height="1024pt" viewBox="0 0 1024 1024" version="1.1">
<g id="surface1">
<path style=" stroke:none;fill-rule:evenodd;fill:rgb(0%,0%,0%);fill-opacity:1;" d="M 159.484375 12.046875 C 153.894531 13.132812 149.878906 18.046875 150.003906 23.675781 L 150.003906 1000.371094 C 150.003906 1006.789062 155.234375 1012 161.679688 1012 L 862.320312 1012 C 868.765625 1012 873.996094 1006.789062 873.996094 1000.371094 L 873.996094 186.457031 C 874.0625 183.371094 872.90625 180.332031 870.710938 178.101562 L 707.230469 15.316406 C 704.988281 13.132812 701.9375 11.984375 698.835938 12.046875 L 161.679688 12.046875 C 160.949219 11.984375 160.214844 11.984375 159.484375 12.046875 Z M 173.359375 35.300781 L 687.160156 35.300781 L 687.160156 186.457031 C 687.160156 192.875 692.390625 198.085938 698.835938 198.085938 L 850.644531 198.085938 L 850.644531 988.746094 L 173.359375 988.746094 Z M 710.515625 51.65625 L 834.214844 174.828125 L 710.515625 174.828125 Z M 266.777344 174.828125 C 260.332031 174.828125 255.097656 180.039062 255.097656 186.457031 C 255.097656 192.875 260.332031 198.085938 266.777344 198.085938 L 593.742188 198.085938 C 600.1875 198.085938 605.417969 192.875 605.417969 186.457031 C 605.417969 180.039062 600.1875 174.828125 593.742188 174.828125 Z M 266.777344 314.359375 C 260.332031 314.359375 255.097656 319.566406 255.097656 325.984375 C 255.097656 332.402344 260.332031 337.613281 266.777344 337.613281 L 757.222656 337.613281 C 763.671875 337.613281 768.902344 332.402344 768.902344 325.984375 C 768.902344 319.566406 763.671875 314.359375 757.222656 314.359375 Z M 266.777344 453.886719 C 260.332031 453.886719 255.097656 459.09375 255.097656 465.515625 C 255.097656 471.933594 260.332031 477.140625 266.777344 477.140625 L 757.222656 477.140625 C 763.671875 477.140625 768.902344 471.933594 768.902344 465.515625 C 768.902344 459.09375 763.671875 453.886719 757.222656 453.886719 Z M 266.777344 593.414062 C 260.332031 593.414062 255.097656 598.625 255.097656 605.042969 C 255.097656 611.460938 260.332031 616.667969 266.777344 616.667969 L 757.222656 616.667969 C 763.671875 616.667969 768.902344 611.460938 768.902344 605.042969 C 768.902344 598.625 763.671875 593.414062 757.222656 593.414062 Z M 544.835938 721.316406 C 540.945312 721.984375 537.660156 724.585938 536.085938 728.214844 L 479.894531 862.65625 L 439.007812 872.828125 C 432.6875 874.410156 428.859375 880.765625 430.507812 887.011719 C 432.144531 893.308594 438.589844 897.058594 444.863281 895.371094 L 491.574219 883.742188 C 495.214844 882.828125 498.191406 880.285156 499.589844 876.828125 L 546.300781 764.910156 L 582.796875 864.84375 C 586.316406 874.097656 599.160156 875.015625 603.957031 866.300781 L 651.039062 781.996094 L 688.25 865.574219 C 690.570312 870.71875 696.285156 873.496094 701.765625 872.113281 L 748.472656 860.488281 C 754.796875 858.90625 758.625 852.550781 756.976562 846.300781 C 755.339844 840.007812 748.894531 836.257812 742.621094 837.945312 L 705.40625 847.03125 L 662.714844 751.46875 C 658.824219 742.757812 646.648438 742.152344 641.914062 750.382812 L 595.9375 832.859375 L 557.976562 728.945312 C 556.09375 723.5 550.503906 720.292969 544.835938 721.316406 Z M 544.835938 721.316406 "/>
</g>
</svg>
