<?xml version="1.0" encoding="UTF-8" standalone="no"?>
<svg width="1024" height="1024" viewBox="0 0 1024 1024" version="1.1" xmlns="http://www.w3.org/2000/svg">
    <path id="path5420"
          d="m 191.54521,80.496187 c -16.22394,-7.469212 -16.31222,-29.776077 -0.14882,-37.600648 6.8602,-3.320963 7.90831,-3.331665 325.40621,-3.322605 214.73477,0.0061 320.50526,0.559366 324.60466,1.697861 8.71748,2.421039 14.56367,10.635926 14.56367,20.464465 0,8.999868 -3.60713,14.803408 -11.79627,18.979157 -5.26506,2.684711 -24.12671,2.847738 -325.84934,2.816401 -307.58855,-0.03194 -320.51876,-0.152022 -326.78011,-3.034631 z"
          style="stroke-width:1.62982595"/>
    <path id="path5422"
          d="m 143.2736,165.25219 c -5.43236,-5.43236 -6.32416,-7.33466 -6.30353,-13.44607 0.0305,-9.03507 2.65944,-14.20033 9.61224,-18.88582 l 5.51421,-3.71603 h 365.27287 c 353.17888,0 365.46091,0.10052 370.95184,3.03588 3.99285,2.1345 6.62436,5.30162 8.86314,10.66709 2.91799,6.9933 2.98612,8.19968 0.81491,14.43162 -1.51445,4.34689 -4.36729,8.14264 -7.90721,10.52065 l -5.53797,3.72024 H 517.07763 149.60116 Z"
          style="stroke-width:1.62982595"/>
    <path id="path5424"
          d="M 24.846311,979.03179 C 15.292174,974.27075 9.2211991,967.81793 4.2649059,957.15585 0.87556031,949.86463 0.8555762,948.84242 0.8555762,782.76448 V 615.70732 l 3.7544904,-8.14913 C 12.605874,590.20328 25.447601,582.29657 47.699564,581.02782 l 14.274485,-0.81389 v -161.6458 c 0,-178.9883 -0.413987,-171.75306 10.561013,-184.57487 3.159736,-3.69144 9.554346,-8.61 14.210247,-10.93014 l 8.465274,-4.21842 H 516.41894 c 318.12128,0 422.77408,0.4691 427.60577,1.9167 8.89518,2.66507 20.61403,13.50706 25.16655,23.2835 l 3.82365,8.21123 0.0163,163.98057 0.0163,163.98057 9.3715,1.09681 c 12.53811,1.4674 21.82079,6.22057 29.75759,15.23721 12.0428,13.68138 11.5087,4.49121 11.0184,189.58703 l -0.4386,165.31314 -4.4019,8.34429 c -4.9281,9.34179 -11.9747,15.97184 -21.67526,20.39388 -6.26099,2.8541 -25.47618,2.97328 -484.96068,3.00765 l -478.441353,0.0358 z M 935.56076,782.76448 V 668.67666 H 834.51155 733.46234 v 15.65556 c 0,27.986 -7.7375,47.45564 -26.25839,66.07311 -12.58726,12.65291 -28.98125,21.37437 -45.45395,24.18109 -7.35798,1.25369 -55.14955,1.65823 -156.46329,1.32444 l -145.86942,-0.4806 -11.40879,-4.5303 c -24.58154,-9.76106 -44.0972,-29.71932 -52.59849,-53.79136 -3.18813,-9.02744 -4.32976,-16.02234 -4.91199,-30.0964 L 289.7395,668.67666 H 188.89538 88.051264 V 782.76448 896.85229 H 511.80601 935.56076 Z M 645.6879,651.97095 c 0.58319,-35.85324 0.64147,-36.36884 5.1496,-45.56032 4.85845,-9.90573 10.50061,-15.55421 21.31654,-21.34045 6.68333,-3.5754 7.1056,-3.591 109.79562,-4.05431 l 103.08649,-0.46512 V 442.88812 305.22547 H 517.5104 149.98465 v 137.65965 137.65965 l 97.3821,0.4681 97.3821,0.4681 7.69389,3.82413 c 4.23163,2.10327 10.35363,6.76816 13.60443,10.36641 10.61891,11.75386 11.16201,14.30697 11.80286,55.48452 l 0.57704,37.07854 h 133.33549 133.33549 z"
          style="stroke-width:1.62982595"/>
</svg>
