<?xml version="1.0" encoding="UTF-8" standalone="no"?>
<svg
   xmlns:dc="http://purl.org/dc/elements/1.1/"
   xmlns:cc="http://creativecommons.org/ns#"
   xmlns:rdf="http://www.w3.org/1999/02/22-rdf-syntax-ns#"
   xmlns:svg="http://www.w3.org/2000/svg"
   xmlns="http://www.w3.org/2000/svg"
   xmlns:sodipodi="http://sodipodi.sourceforge.net/DTD/sodipodi-0.dtd"
   xmlns:inkscape="http://www.inkscape.org/namespaces/inkscape"
   width="1024"
   height="1024"
   viewBox="0 0 1024 1024"
   version="1.1"
   id="svg2"
   inkscape:version="0.91 r13725"
   sodipodi:docname="AM_TaskTemplates.svg">
  <metadata
     id="metadata15">
    <rdf:RDF>
      <cc:Work
         rdf:about="">
        <dc:format>image/svg+xml</dc:format>
        <dc:type
           rdf:resource="http://purl.org/dc/dcmitype/StillImage" />
        <dc:title>acc_project_tasks</dc:title>
      </cc:Work>
    </rdf:RDF>
  </metadata>
  <sodipodi:namedview
     pagecolor="#ffffff"
     bordercolor="#666666"
     borderopacity="1"
     objecttolerance="10"
     gridtolerance="10"
     guidetolerance="10"
     inkscape:pageopacity="0"
     inkscape:pageshadow="2"
     inkscape:window-width="1366"
     inkscape:window-height="703"
     id="namedview13"
     showgrid="false"
     inkscape:zoom="0.17383042"
     inkscape:cx="1042.7904"
     inkscape:cy="774.01693"
     inkscape:window-x="0"
     inkscape:window-y="0"
     inkscape:window-maximized="1"
     inkscape:current-layer="svg2" />
  <!-- Generator: Sketch 3.8.3 (29802) - http://www.bohemiancoding.com/sketch -->
  <title
     id="title4">acc_project_tasks</title>
  <desc
     id="desc6">Created with Sketch.</desc>
  <defs
     id="defs8" />
  <path
     style="fill:#000000;fill-opacity:1;fill-rule:evenodd;stroke:none;stroke-width:1"
     d="m 935.06666,666.70848 -38.42664,0 0,-237.45892 C 962.88002,412.02375 1012,352.01248 1012,280.01697 c 0,-85.39964 -68.90665,-154.67348 -153.85333,-154.67348 -71.6133,0 -131.25331,49.42204 -148.44001,115.97523 l -120.7733,0 0,-77.33034 c 0,-21.31299 -17.29336,-38.64489 -38.44001,-38.64489 l -153.85335,0 c -21.2,0 -38.43998,17.38529 -38.43998,38.64489 l 0,77.33034 -115.41335,0 0,-154.67385 C 242.78667,65.33188 225.49334,48 204.34667,48 L 50.440001,48 C 29.24,48 12,65.3856 12,86.64487 l 0,386.69014 c 0,21.31299 17.293335,38.64627 38.440001,38.64627 l 153.853339,0 c 21.2,0 38.44001,-17.38527 38.44001,-38.64627 l 0,-154.67175 115.35999,0 0,77.32721 c 0,21.31299 17.29331,38.64627 38.44001,38.64627 l 153.85331,0 c 21.2,0 38.44001,-17.38528 38.44001,-38.64627 l 0,-77.32721 120.82668,0 c 13.96001,54.19075 56.09331,96.44234 109.94666,110.53082 l 0,237.45895 -38.42666,0 c -21.2,0 -38.43999,17.37141 -38.43999,38.63241 l 0,77.34107 -159.28001,0 C 566.32001,716.02166 506.64,666.65303 435.02666,666.65303 c -84.96,0 -153.85333,69.27417 -153.85333,154.67522 C 281.17333,906.72583 350.06666,976 435.02666,976 506.64,976 566.26666,926.5655 583.4,860.01265 l 159.38667,0 0,77.34101 c 0,21.31314 17.28001,38.64634 38.42667,38.64634 l 153.85332,0 c 21.20002,0 38.44,-17.3853 38.44,-38.64634 l 0,-232.01622 c 0.0518,-21.25753 -17.23998,-38.62896 -38.44,-38.62896 l 0,0 z"
     id="Page-1-Copy-2"
     inkscape:connector-curvature="0" />
</svg>
