<?xml version="1.0" encoding="UTF-8"?>
<svg width="1024" height="1024" viewBox="0 0 1024 1024" version="1.1" xmlns="http://www.w3.org/2000/svg">
    <g id="Page-1" stroke="none" stroke-width="1" fill="none" fill-rule="evenodd">
        <g id="relationships" fill="#000">
            <g id="Page-1" transform="translate(0.746094, 1.964844)">
                <polygon stroke="null" points="488.7966613769531,779.8194255828857 537.5037841796875,779.8194255828857 537.5037841796875,341.5949993133545 488.7966613769531,341.5949993133545 " id="Fill-1"/>
                <polygon stroke="null" points="147.9866180419922,779.8194255828857 99.27943420410156,779.8194255828857 99.27943420410156,511.99999809265137 927.0210571289062,511.99999809265137 927.0210571289062,779.8194255828857 878.3594360351562,779.8194255828857 878.3594360351562,560.707181930542 147.98544311523438,560.707181930542 " id="Fill-2"/>
                <path stroke="null" id="Fill-3" d="m513.173602,365.925194c94.127095,0 170.40502,-76.277925 170.40502,-170.40502c0,-94.127095 -76.277925,-170.451753 -170.40502,-170.451753c-94.127095,0 -170.451753,76.323506 -170.451753,170.451753c0,94.127095 76.323506,170.40502 170.451753,170.40502zm0,-48.707161c67.194422,0 121.69786,-54.50459 121.69786,-121.69786c0,-67.239965 -54.504627,-121.744555 -121.69786,-121.744555c-67.239965,0 -121.744555,54.50459 -121.744555,121.744555c0,67.194422 54.50459,121.69786 121.744555,121.69786z"/>
                <path stroke="null" id="Fill-4" d="m513.173602,998.931579c67.194422,0 121.69786,-54.50459 121.69786,-121.744592c0,-67.239965 -54.504627,-121.744555 -121.69786,-121.744555c-67.239965,0 -121.744555,54.50459 -121.744555,121.744555c0,67.240002 54.50459,121.744592 121.744555,121.744592zm0,-48.707198c40.307292,0 73.037394,-32.684522 73.037394,-73.037394c0,-40.352872 -32.730102,-73.037394 -73.037394,-73.037394c-40.352872,0 -73.037394,32.684522 -73.037394,73.037394c0,40.352872 32.684522,73.037394 73.037394,73.037394z"/>
                <path stroke="null" id="Fill-5" d="m902.690841,998.931579c67.239965,0 121.744555,-54.50459 121.744555,-121.744592c0,-67.239965 -54.50459,-121.744555 -121.744555,-121.744555c-67.240002,0 -121.744592,54.50459 -121.744592,121.744555c0,67.240002 54.50459,121.744592 121.744592,121.744592zm0,-48.707198c40.352835,0 73.037394,-32.684522 73.037394,-73.037394c0,-40.352872 -32.684559,-73.037394 -73.037394,-73.037394c-40.352872,0 -73.037431,32.684522 -73.037431,73.037394c0,40.352872 32.684559,73.037394 73.037431,73.037394z"/>
                <path stroke="null" id="Fill-6" d="m123.609668,998.931579c67.239965,0 121.744555,-54.50459 121.744555,-121.744592c0,-67.239965 -54.50459,-121.744555 -121.744555,-121.744555c-67.194422,0 -121.69786,54.50459 -121.69786,121.744555c0,67.240002 54.50459,121.744592 121.69786,121.744592zm0,-48.707198c40.352872,0 73.037394,-32.684522 73.037394,-73.037394c0,-40.352872 -32.684522,-73.037394 -73.037394,-73.037394c-40.307292,0 -73.037394,32.684522 -73.037394,73.037394c0,40.352872 32.730102,73.037394 73.037394,73.037394z"/>
            </g>
        </g>
    </g>
</svg>