<?xml version="1.0" encoding="UTF-8"?>
<svg xmlns="http://www.w3.org/2000/svg" xmlns:xlink="http://www.w3.org/1999/xlink" width="1024pt" height="1024pt" viewBox="0 0 1024 1024" version="1.1">
<g id="surface1">
<path style=" stroke:none;fill-rule:evenodd;fill:rgb(0%,0%,0%);fill-opacity:1;" d="M 874.097656 149.902344 C 777.558594 53.363281 649.214844 0 512 0 C 374.785156 0 246.441406 53.363281 149.902344 149.902344 C 53.363281 246.441406 0 374.785156 0 512 C 0 649.214844 53.363281 777.558594 149.902344 874.097656 C 246.441406 970.636719 374.785156 1024 512 1024 C 649.214844 1024 777.558594 970.636719 874.097656 874.097656 C 970.636719 777.558594 1024 649.214844 1024 512 C 1024 374.785156 970.636719 246.441406 874.097656 149.902344 Z M 588.230469 949.078125 C 569.171875 952.890625 550.117188 954.140625 531.058594 955.453125 L 531.058594 794.054688 C 595.855469 792.804688 658.089844 783.871094 715.261719 769.9375 C 706.390625 795.367188 694.957031 818.238281 683.519531 841.105469 C 655.589844 890.59375 622.535156 927.460938 588.230469 949.078125 Z M 341.730469 841.042969 C 329.042969 819.425781 318.859375 795.304688 309.988281 769.875 C 367.160156 783.871094 429.394531 792.746094 494.191406 793.996094 L 494.191406 954.082031 C 475.132812 952.832031 456.078125 951.519531 437.019531 947.707031 C 401.464844 927.460938 368.410156 890.59375 341.730469 841.042969 Z M 435.769531 74.921875 C 454.828125 71.109375 473.882812 69.859375 492.941406 68.546875 L 492.941406 228.632812 C 428.144531 229.882812 365.910156 238.816406 308.738281 252.753906 C 317.609375 227.320312 329.042969 204.453125 340.480469 181.582031 C 368.410156 133.40625 401.464844 96.539062 435.769531 74.921875 Z M 682.269531 182.957031 C 694.957031 204.574219 705.140625 228.695312 714.011719 254.125 C 656.839844 240.128906 594.605469 231.253906 529.808594 230.003906 L 529.808594 68.609375 C 548.867188 69.859375 567.921875 71.167969 586.980469 74.980469 C 622.535156 96.539062 655.589844 133.40625 682.269531 182.957031 Z M 955.390625 496.753906 L 794.054688 496.753906 C 792.804688 430.707031 785.183594 367.160156 769.9375 308.738281 C 795.367188 317.609375 818.238281 329.042969 841.105469 340.480469 C 890.65625 368.410156 927.523438 400.214844 949.078125 435.769531 C 952.890625 456.078125 954.140625 476.445312 955.390625 496.753906 Z M 757.191406 496.753906 L 529.808594 496.753906 L 529.808594 266.808594 C 600.917969 268.058594 668.273438 278.246094 728.007812 295.992188 C 747.066406 356.976562 755.941406 425.585938 757.191406 496.753906 Z M 494.191406 266.808594 L 494.191406 498.066406 L 266.808594 498.066406 C 268.058594 426.894531 278.246094 358.289062 296.050781 296.050781 C 355.726562 278.246094 423.082031 268.058594 494.191406 266.808594 Z M 229.945312 496.753906 L 68.609375 496.753906 C 69.859375 476.445312 71.167969 456.078125 74.980469 435.769531 C 96.601562 400.214844 133.40625 368.410156 182.957031 340.480469 C 204.574219 327.792969 228.695312 317.609375 254.125 308.738281 C 238.816406 367.160156 229.945312 430.707031 229.945312 496.753906 Z M 68.609375 533.621094 L 228.695312 533.621094 C 229.945312 597.164062 238.878906 658.152344 252.8125 715.324219 C 227.382812 706.449219 204.511719 695.015625 181.644531 683.582031 C 132.09375 655.648438 95.226562 623.847656 73.671875 588.292969 C 72.417969 570.421875 69.859375 552.675781 68.609375 533.621094 Z M 266.808594 533.621094 L 494.253906 533.621094 L 494.253906 757.25 C 423.082031 755.941406 355.726562 745.753906 295.992188 728.007812 C 278.246094 669.523438 268.058594 602.226562 266.808594 533.621094 Z M 529.808594 757.191406 L 529.808594 533.621094 L 757.25 533.621094 C 755.941406 602.226562 745.753906 669.523438 728.007812 728.007812 C 668.273438 745.753906 600.917969 755.941406 529.808594 757.191406 Z M 794.054688 533.621094 L 954.140625 533.621094 C 952.890625 551.425781 951.582031 569.171875 947.769531 586.980469 C 926.148438 622.535156 889.34375 654.339844 839.792969 682.269531 C 818.175781 694.957031 794.054688 705.140625 768.625 714.011719 C 785.183594 658.089844 792.804688 597.105469 794.054688 533.621094 Z M 927.460938 355.726562 C 908.402344 339.230469 885.535156 322.671875 858.851562 308.738281 C 828.359375 292.242188 794.054688 276.992188 758.5 265.558594 C 747.066406 228.695312 731.820312 195.699219 715.324219 165.207031 C 701.328125 139.777344 684.832031 116.910156 668.335938 96.601562 C 787.683594 142.277344 881.722656 236.316406 927.460938 355.726562 Z M 355.726562 96.539062 C 339.230469 115.597656 322.671875 138.464844 308.738281 165.148438 C 292.242188 195.640625 276.992188 229.945312 265.558594 265.5 C 228.695312 276.933594 195.699219 292.179688 165.207031 308.675781 C 139.777344 322.671875 116.910156 339.167969 96.601562 355.664062 C 142.277344 236.316406 236.316406 142.277344 355.726562 96.539062 Z M 96.539062 668.273438 C 115.597656 684.769531 138.464844 701.328125 165.148438 715.261719 C 195.640625 731.757812 229.945312 747.007812 265.5 758.441406 C 276.933594 795.304688 292.179688 828.300781 308.675781 858.792969 C 322.671875 884.222656 339.167969 907.089844 355.664062 927.398438 C 236.316406 881.722656 142.277344 787.683594 96.539062 668.273438 Z M 668.273438 927.460938 C 684.769531 908.402344 701.328125 885.535156 715.261719 858.851562 C 731.757812 828.359375 747.007812 794.054688 758.441406 758.5 C 795.304688 747.066406 828.300781 731.820312 858.792969 715.324219 C 884.222656 701.328125 907.089844 684.832031 927.398438 668.335938 C 881.722656 787.683594 787.683594 881.722656 668.273438 927.460938 Z M 668.273438 927.460938 "/>
</g>
</svg>
