<?xml version="1.0" encoding="UTF-8"?>
<svg width="1024" height="1024" viewBox="0 0 1024 1024" version="1.1" xmlns="http://www.w3.org/2000/svg">
    <g id="Page-1" stroke="none" stroke-width="1" fill="none" fill-rule="evenodd">
        <g id="layouts" fill="#000">
            <g id="Page-1" transform="translate(1.753906, 1.386719)">
                <path stroke="null" id="Fill-1" d="m1024.919967,1024.919967l-1024.680833,0l0,-1024.680833l1024.725264,0l-0.044431,1024.680833zm-982.008433,-42.670159l939.336073,0l0,-939.336073l-939.336073,0l0,939.336073z"/>
                <polygon stroke="null" points="213.72308629116037,997.1729619869077 256.4365458094692,997.1729619869077 256.4365458094692,21.580898035515247 213.72308629116037,21.580898035515247 " id="Fill-2"/>
                <polygon stroke="null" points="241.47567469617957,277.7727174013273 1003.5838103771896,277.7727174013273 1003.5838103771896,235.0592766319171 241.47567469617957,235.0592766319171 " id="Fill-3"/>
                <polygon stroke="null" points="241.47567469617957,790.1075761860632 1003.5838103771896,790.1075761860632 1003.5838103771896,747.394135416653 241.47567469617957,747.394135416653 " id="Fill-4"/>
                <polygon stroke="null" points="576.6380541006295,768.7303070085111 619.3514948700397,768.7303070085111 619.3514948700397,256.39546697267383 576.6380541006295,256.39546697267383 " id="Fill-5"/>
                <polygon stroke="null" points="241.47567469617957,533.9623736129654 1003.5838103771896,533.9623736129654 1003.5838103771896,491.24893284355517 241.47567469617957,491.24893284355517 " id="Fill-6"/>
            </g>
        </g>
    </g>
</svg>