<?xml version="1.0" encoding="UTF-8"?>
<svg xmlns="http://www.w3.org/2000/svg" xmlns:xlink="http://www.w3.org/1999/xlink" width="1024pt" height="1024pt" viewBox="0 0 1024 1024" version="1.1">
<g id="surface1">
<path style=" stroke:none;fill-rule:evenodd;fill:rgb(0%,0%,0%);fill-opacity:1;" d="M 756.734375 526.0625 C 803.667969 470.390625 832 398.539062 832 320 C 832 143.273438 688.726562 0 512 0 C 335.273438 0 192 143.273438 192 320 C 192 398.539062 220.332031 470.390625 267.265625 526.0625 L 512 832 Z M 512 219.734375 C 567.398438 219.734375 612.265625 264.601562 612.265625 320 C 612.265625 375.398438 567.398438 420.265625 512 420.265625 C 456.601562 420.265625 411.734375 375.398438 411.734375 320 C 411.734375 264.601562 456.601562 219.734375 512 219.734375 Z M 512 219.734375 "/>
<path style=" stroke:none;fill-rule:evenodd;fill:rgb(0%,0%,0%);fill-opacity:1;" d="M 704 960 C 704 995.328125 618.070312 1024 512 1024 C 405.929688 1024 320 995.328125 320 960 C 320 924.671875 405.929688 896 512 896 C 618.070312 896 704 924.671875 704 960 "/>
</g>
</svg>
