<?xml version="1.0" encoding="UTF-8" standalone="no"?>
<svg
   xmlns:dc="http://purl.org/dc/elements/1.1/"
   xmlns:cc="http://creativecommons.org/ns#"
   xmlns:rdf="http://www.w3.org/1999/02/22-rdf-syntax-ns#"
   xmlns:svg="http://www.w3.org/2000/svg"
   xmlns="http://www.w3.org/2000/svg"
   xmlns:sodipodi="http://sodipodi.sourceforge.net/DTD/sodipodi-0.dtd"
   xmlns:inkscape="http://www.inkscape.org/namespaces/inkscape"
   width="1000"
   height="1000"
   viewBox="0 0 1000 1000"
   version="1.1"
   id="svg2"
   inkscape:version="0.91 r13725"
   sodipodi:docname="module-email_marketing2.svg">
  <metadata
     id="metadata20">
    <rdf:RDF>
      <cc:Work
         rdf:about="">
        <dc:format>image/svg+xml</dc:format>
        <dc:type
           rdf:resource="http://purl.org/dc/dcmitype/StillImage" />
        <dc:title>acc_email_marketing</dc:title>
      </cc:Work>
    </rdf:RDF>
  </metadata>
  <sodipodi:namedview
     pagecolor="#ffffff"
     bordercolor="#666666"
     borderopacity="1"
     objecttolerance="10"
     gridtolerance="10"
     guidetolerance="10"
     inkscape:pageopacity="0"
     inkscape:pageshadow="2"
     inkscape:window-width="1366"
     inkscape:window-height="703"
     id="namedview18"
     showgrid="false"
     inkscape:zoom="7.8666667"
     inkscape:cx="-5.0847458"
     inkscape:cy="15"
     inkscape:window-x="0"
     inkscape:window-y="0"
     inkscape:window-maximized="1"
     inkscape:current-layer="svg2" />
  <!-- Generator: Sketch 3.8.3 (29802) - http://www.bohemiancoding.com/sketch -->
  <title
     id="title4">acc_email_marketing</title>
  <desc
     id="desc6">Created with Sketch.</desc>
  <defs
     id="defs8" />
  <path
     style="fill:#000000;fill-rule:evenodd;stroke:none;stroke-width:1;fill-opacity:1"
     inkscape:connector-curvature="0"
     id="Fill-1"
     d="m 549.68835,514.42022 c 0,66.19183 -99.31742,66.19183 -99.31742,0 0,-66.20667 99.31742,-66.20667 99.31742,0" />
  <path
     style="fill:#000000;fill-rule:evenodd;stroke:none;stroke-width:1;fill-opacity:1"
     inkscape:connector-curvature="0"
     id="Fill-2"
     d="m 952.97275,322.9853 -204.61996,0 -44.91801,44.90319 -7.17028,7.11105 -29.74782,29.74781 182.29427,0 -348.78131,275.75988 -348.78131,-275.75988 182.17575,0 -29.68856,-29.68855 -7.11103,-7.17031 -44.91802,-44.90319 -204.679206,0 c -21.984939,0 -39.8810355,17.06648 -39.8810355,37.95512 l 0,600.98592 C 7.2054863,982.9335 25.042325,1000 47.027264,1000 l 905.945486,0 c 21.99974,0 39.88102,-17.0665 39.88102,-38.01439 l 0,-600.98593 c 0,-20.9479 -17.88128,-38.01438 -39.88102,-38.01438 l 0,0 z M 95.456358,448.85057 355.98679,654.80382 95.456358,872.97919 l 0,-424.12862 z m 53.940142,469.37255 262.08599,-219.4346 88.48788,69.96961 86.28052,-68.23629 263.89335,217.70128 -700.74774,0 z M 904.60291,873.31993 641.92435,656.53714 904.60291,448.85057 l 0,424.46936 z" />
  <path
     style="fill:#000000;fill-rule:evenodd;stroke:none;stroke-width:1;fill-opacity:1"
     inkscape:connector-curvature="0"
     id="Fill-3"
     d="m 352.06091,375.0588 -0.0594,0 55.49567,55.49567 c 51.03648,-51.03648 133.85038,-51.03648 184.94612,0 l 55.55494,-55.55493 -0.0601,0 c -81.64357,-81.58428 -214.17541,-81.58428 -295.87821,0.0601 l 0,0 z" />
  <path
     style="fill:#000000;fill-rule:evenodd;stroke:none;stroke-width:1;fill-opacity:1"
     inkscape:connector-curvature="0"
     id="Fill-4"
     d="m 130.1819,153.25385 55.43642,55.43642 c 173.67213,-173.61288 455.20974,-173.553622 628.76338,0 l 55.49567,-55.43642 c -204.27922,-204.338462 -535.47552,-204.338462 -739.69547,0 l 0,0 z" />
  <path
     style="fill:#000000;fill-rule:evenodd;stroke:none;stroke-width:1;fill-opacity:1"
     inkscape:connector-curvature="0"
     id="Fill-5"
     d="m 241.17325,264.1267 55.45124,55.49567 c 112.32467,-112.32467 294.48563,-112.32467 406.81029,0 l 55.51048,-55.49567 c -143.00582,-142.93175 -374.82546,-142.93175 -517.77201,0 l 0,0 z" />
</svg>
