<?xml version="1.0" encoding="UTF-8" standalone="no"?>
<svg width="1024" height="1024" viewBox="0 0 1024 1024" version="1.1" xmlns="http://www.w3.org/2000/svg">
    <path id="path5986"
          d="M 318.37066,923.20388 C 215.30644,873.00269 128.76268,829.71272 126.0512,827.00399 c -4.12767,-4.1235 -5.19521,-22.20635 -6.5598,-111.11485 L 117.86158,609.69926 71.378259,582.82992 C 45.812431,568.0518 21.826054,553.18328 18.075194,549.78881 2.3683562,535.57432 -2.4158659,511.34992 6.9186663,493.29892 9.5447693,488.22061 33.747683,460.0638 60.702922,430.72827 87.65816,401.39274 109.68495,375.91699 109.65136,374.11551 109.61776,372.31403 87.57574,344.44747 60.669096,312.18978 6.5786807,247.34221 1.7890766,238.22741 8.4143452,212.74697 10.606105,204.31757 16.669352,193.60069 22.669484,187.5508 35.486492,174.62749 353.50034,10.648551 365.74627,10.648551 c 10.60143,0 24.29624,13.594019 24.29624,24.117453 0,4.463538 -3.3004,11.708533 -7.33422,16.099988 C 378.67447,55.257447 303.8015,95.234418 216.3239,139.7037 86.936209,205.47801 57.452214,221.66665 58.230785,226.50717 c 0.526382,3.27263 22.226286,31.37669 48.222005,62.45349 41.31961,49.39585 50.95517,58.98914 76.60182,76.26588 17.33242,11.67588 90.1426,49.67022 177.93589,92.8518 L 509.58953,531.16756 672.28726,449.374 c 89.48377,-44.98646 171.10829,-87.32409 181.38783,-94.0836 13.19152,-8.67432 32.61083,-28.7642 66.00795,-68.28727 26.02483,-30.79851 47.28774,-58.27197 47.25093,-61.05216 -0.0447,-3.37693 -55.0386,-32.88245 -165.67151,-88.88665 C 633.16531,51.970783 627.9971,48.840539 627.9971,32.122504 c 0,-9.702039 13.35701,-21.473953 24.36541,-21.473953 15.54293,0 335.00834,162.326869 349.48349,177.579659 13.8149,14.55712 18.6283,32.69207 13.7837,51.93177 -2.9007,11.51967 -13.6112,26.50444 -49.79468,69.66612 -25.35449,30.24431 -47.89192,57.17979 -50.08319,59.85665 -3.33117,4.06935 4.32553,13.91229 46.71688,60.05608 27.88554,30.35398 52.94449,59.46596 55.68669,64.69327 6.3054,12.02013 4.0562,35.29845 -4.5506,47.09718 -3.4471,4.72542 -25.24432,19.86318 -48.43831,33.63948 -23.19398,13.7763 -46.93814,28.09148 -52.76476,31.81156 l -10.59387,6.76378 v 103.65585 c 0,77.88436 -1.01304,104.99251 -4.07457,109.03197 -5.34971,7.05848 -376.20679,188.21078 -385.1177,188.11818 -3.7705,-0.039 -91.18071,-41.14501 -194.24493,-91.34622 z M 487.83207,784.54207 V 619.6558 l -51.33952,49.4307 c -28.23674,27.18686 -56.78174,52.24645 -63.43335,55.68789 -16.07608,8.31759 -38.4591,8.03055 -55.6738,-0.71393 -7.54802,-3.8341 -42.59158,-23.63648 -77.87458,-44.0053 -35.28301,-20.36878 -64.98659,-37.03414 -66.00795,-37.03414 -1.02137,0 -1.85704,34.25878 -1.85704,76.1306 v 76.13064 l 157.27821,76.90438 c 86.50301,42.29741 157.64491,76.98027 158.09311,77.073 0.44821,0.0929 0.81492,-74.03015 0.81492,-164.71757 z m 211.06246,86.07244 154.01855,-75.68071 v -75.95637 c 0,-41.77603 -0.93718,-75.95641 -2.08266,-75.95641 -1.14544,0 -30.84902,16.67599 -66.00795,37.05774 -84.25274,48.84165 -88.65621,50.95286 -106.2756,50.95286 -25.21572,0 -36.21311,-7.3436 -88.0609,-58.80344 -27.023,-26.8208 -50.17367,-48.76507 -51.44591,-48.76507 -1.27228,0 -2.31322,72.60874 -2.31322,161.35277 0,126.87536 0.87066,161.36629 4.07457,161.41603 2.24101,0.0349 73.38291,-33.99305 158.09312,-75.6174 z M 410.3003,624.27802 468.40656,566.4192 310.92593,489.00247 c -86.61436,-42.57921 -159.07717,-77.41674 -161.02848,-77.41674 -5.82704,0 -96.789364,101.18159 -93.615545,104.13288 6.704794,6.23473 286.902325,166.30714 291.203895,166.36018 2.58953,0.0326 30.85606,-25.97842 62.8145,-57.80077 z m 412.78634,-24.11517 c 78.25642,-45.08571 143.51221,-83.05795 145.01286,-84.38273 2.70375,-2.38692 -91.54928,-107.45404 -96.39427,-107.45404 -5.80547,0 -315.79188,156.93998 -314.83647,159.39548 2.14595,5.51536 116.4922,114.41528 120.13743,114.41528 2.08781,0 67.824,-36.88831 146.08045,-81.97399 z"
          style="stroke-width:3.2596519"/>
    <path id="path5988"
          d="M 497.61102,323.57513 V 264.9014 h -53.78425 -53.78426 v -30.96669 -30.9667 h 53.78426 53.78425 V 145.9241 88.880196 h 34.22635 34.22634 v 57.043904 57.04391 h 53.78426 53.78425 v 30.88595 30.88595 l -52.96934,0.89566 -52.96934,0.89565 -0.89013,57.85883 -0.89013,57.85882 h -34.15113 -34.15113 z"
          style="stroke-width:3.2596519"/>
</svg>
