<?xml version="1.0" encoding="UTF-8"?>
<svg xmlns="http://www.w3.org/2000/svg" xmlns:xlink="http://www.w3.org/1999/xlink" width="1024pt" height="1024pt" viewBox="0 0 1024 1024" version="1.1">
<g id="surface1">
<path style=" stroke:none;fill-rule:evenodd;fill:rgb(0%,0%,0%);fill-opacity:1;" d="M 921.425781 726.179688 L 921.425781 460.832031 L 656.058594 460.832031 C 634.8125 401.269531 578.53125 358.480469 511.925781 358.480469 C 445.320312 358.480469 389.035156 401.347656 367.789062 460.832031 L 204.796875 460.832031 L 204.796875 297.839844 C 264.339844 276.574219 307.148438 220.292969 307.148438 153.6875 C 307.148438 69.09375 238.34375 0.0078125 153.472656 0.0078125 C 68.582031 0.0078125 0 68.816406 0 153.6875 C 0 220.292969 42.882812 276.574219 102.351562 297.839844 L 102.351562 563.183594 L 367.714844 563.183594 C 388.960938 622.730469 445.242188 665.535156 511.851562 665.535156 C 578.457031 665.535156 634.738281 622.652344 655.984375 563.183594 L 819 563.183594 L 819 726.179688 C 759.4375 747.445312 716.628906 803.707031 716.628906 870.3125 C 716.628906 954.90625 785.433594 1023.992188 870.304688 1023.992188 C 955.195312 1023.992188 1024 955.203125 1024 870.3125 C 1023.777344 803.429688 980.894531 747.144531 921.425781 726.179688 Z M 153.75 102.359375 C 181.855469 102.359375 205.074219 125.300781 205.074219 153.6875 C 205.074219 182.085938 182.152344 205.011719 153.75 205.011719 C 125.648438 205.011719 102.425781 182.085938 102.425781 153.6875 C 102.425781 125.300781 125.367188 102.359375 153.75 102.359375 Z M 511.925781 563.183594 C 483.820312 563.183594 460.601562 540.242188 460.601562 511.859375 C 460.601562 483.757812 483.542969 460.535156 511.925781 460.535156 C 540.027344 460.535156 563.25 483.476562 563.25 511.859375 C 563.25 539.964844 540.027344 563.183594 511.925781 563.183594 Z M 870.378906 921.359375 C 842.292969 921.359375 819.054688 898.417969 819.054688 870.035156 C 819.054688 841.632812 841.996094 818.710938 870.378906 818.710938 C 898.484375 818.710938 921.703125 841.632812 921.703125 870.035156 C 921.703125 898.417969 898.484375 921.359375 870.378906 921.359375 Z M 870.378906 921.359375 "/>
</g>
</svg>
