<?xml version="1.0" encoding="UTF-8" standalone="no"?>
<svg
   xmlns:dc="http://purl.org/dc/elements/1.1/"
   xmlns:cc="http://creativecommons.org/ns#"
   xmlns:rdf="http://www.w3.org/1999/02/22-rdf-syntax-ns#"
   xmlns:svg="http://www.w3.org/2000/svg"
   xmlns="http://www.w3.org/2000/svg"
   xmlns:sodipodi="http://sodipodi.sourceforge.net/DTD/sodipodi-0.dtd"
   xmlns:inkscape="http://www.inkscape.org/namespaces/inkscape"
   width="1000"
   height="1000"
   viewBox="0 0 1000 1000"
   version="1.1"
   id="svg2"
   inkscape:version="0.91 r13725"
   sodipodi:docname="module-aow_workflow.svg">
  <metadata
     id="metadata15">
    <rdf:RDF>
      <cc:Work
         rdf:about="">
        <dc:format>image/svg+xml</dc:format>
        <dc:type
           rdf:resource="http://purl.org/dc/dcmitype/StillImage" />
        <dc:title>acc_workflow</dc:title>
      </cc:Work>
    </rdf:RDF>
  </metadata>
  <sodipodi:namedview
     pagecolor="#ffffff"
     bordercolor="#666666"
     borderopacity="1"
     objecttolerance="10"
     gridtolerance="10"
     guidetolerance="10"
     inkscape:pageopacity="0"
     inkscape:pageshadow="2"
     inkscape:window-width="1366"
     inkscape:window-height="703"
     id="namedview13"
     showgrid="false"
     inkscape:zoom="0.513"
     inkscape:cx="500"
     inkscape:cy="500"
     inkscape:window-x="0"
     inkscape:window-y="0"
     inkscape:window-maximized="1"
     inkscape:current-layer="svg2" />
  <!-- Generator: Sketch 3.8.3 (29802) - http://www.bohemiancoding.com/sketch -->
  <title
     id="title4">acc_workflow</title>
  <desc
     id="desc6">Created with Sketch.</desc>
  <defs
     id="defs8" />
  <path
     style="fill:#000000;fill-rule:evenodd;stroke:none;stroke-width:1;fill-opacity:1"
     d="m 899.82895,709.15992 0,-259.12715 -259.14535,0 c -20.74766,-58.16621 -75.71072,-99.95269 -140.75639,-99.95269 -65.04568,0 -120.00874,41.85929 -140.75639,99.95269 l -159.17446,0 0,-159.17447 c 58.148,-20.76584 99.95268,-75.7289 99.95268,-140.77458 C 299.94904,67.475337 232.7558,0.00909578 149.87442,0.00909578 66.974845,0.00909578 -5.590835e-6,67.202342 -5.590835e-6,150.08372 -5.590835e-6,215.1294 41.877476,270.09246 99.952678,290.8583 l 0,259.12716 259.145362,0 c 20.74762,58.14798 75.71068,99.95266 140.75635,99.95266 65.04572,0 120.00874,-41.87746 140.7564,-99.95266 l 159.19266,0 0,159.17446 c -58.16618,20.76582 -99.97086,75.71068 -99.97086,140.75639 0,82.60835 67.19323,150.07459 150.07462,150.07459 C 932.80677,999.9909 1000,932.81587 1000,849.91631 999.78291,784.59763 957.90414,729.63457 899.82895,709.15992 l 0,0 z M 150.14742,99.96178 c 27.44513,0 50.12193,22.40381 50.12193,50.12194 0,27.73632 -22.38561,50.12194 -50.12193,50.12194 -27.44513,0 -50.12194,-22.38562 -50.12194,-50.12194 0,-27.71813 22.40381,-50.12194 50.12194,-50.12194 l 0,0 z m 349.77979,450.02368 c -27.44513,0 -50.12194,-22.40383 -50.12194,-50.12196 0,-27.44513 22.4038,-50.12194 50.12194,-50.12194 27.44512,0 50.12193,22.40384 50.12193,50.12194 0,27.44515 -22.67681,50.12196 -50.12193,50.12196 l 0,0 z m 350.05278,349.77978 c -27.42692,0 -50.12193,-22.4038 -50.12193,-50.12193 0,-27.73634 22.4038,-50.12194 50.12193,-50.12194 27.44512,0 50.12193,22.3856 50.12193,50.12194 0,27.71813 -22.67681,50.12193 -50.12193,50.12193 l 0,0 z"
     id="Page-1-Copy-2"
     inkscape:connector-curvature="0" />
</svg>
