<?xml version="1.0" encoding="UTF-8"?>
<svg xmlns="http://www.w3.org/2000/svg" xmlns:xlink="http://www.w3.org/1999/xlink" width="1024pt" height="1024pt" viewBox="0 0 1024 1024" version="1.1">
<g id="surface1">
<path style=" stroke:none;fill-rule:evenodd;fill:rgb(0%,0%,0%);fill-opacity:1;" d="M 914.257812 927.769531 C 914.257812 940.925781 906.109375 948.8125 892.523438 948.8125 L 338.042969 948.8125 C 324.449219 948.8125 316.304688 940.941406 316.304688 927.769531 L 316.304688 875.132812 L 740.316406 875.132812 C 767.511719 875.132812 783.808594 859.351562 783.808594 833.023438 L 783.808594 233.054688 L 892.523438 233.054688 C 906.109375 233.054688 914.257812 240.933594 914.257812 254.09375 Z M 109.734375 790.941406 L 109.734375 96.207031 C 109.734375 83.046875 117.882812 75.148438 131.476562 75.148438 L 696.820312 75.148438 C 710.414062 75.148438 718.5625 83.046875 718.5625 96.207031 L 718.5625 790.941406 C 718.5625 804.09375 710.414062 811.980469 696.820312 811.980469 L 131.476562 811.980469 C 117.882812 811.980469 109.734375 804.09375 109.734375 790.941406 Z M 936.007812 159.375 L 783.808594 159.375 L 783.808594 54.097656 C 783.808594 27.78125 767.511719 12 740.316406 12 L 87.980469 12 C 60.796875 12 44.5 27.78125 44.5 54.097656 L 44.5 833.03125 C 44.5 859.371094 60.796875 875.160156 87.980469 875.160156 L 240.191406 875.160156 L 240.191406 969.898438 C 240.191406 996.21875 256.5 1012 283.683594 1012 L 936.007812 1012 C 963.203125 1012 979.5 996.21875 979.5 969.898438 L 979.5 201.476562 C 979.5 175.148438 963.203125 159.375 936.007812 159.375 Z M 609.847656 202.363281 L 218.449219 202.363281 L 218.449219 265.515625 L 609.847656 265.515625 Z M 609.847656 391.832031 L 218.449219 391.832031 L 218.449219 454.980469 L 609.847656 454.980469 Z M 609.847656 581.304688 L 218.449219 581.304688 L 218.449219 644.457031 L 609.847656 644.457031 Z M 609.847656 581.304688 "/>
</g>
</svg>
