<?xml version="1.0" encoding="UTF-8" standalone="no"?>
<svg
   xmlns:dc="http://purl.org/dc/elements/1.1/"
   xmlns:cc="http://creativecommons.org/ns#"
   xmlns:rdf="http://www.w3.org/1999/02/22-rdf-syntax-ns#"
   xmlns:svg="http://www.w3.org/2000/svg"
   xmlns="http://www.w3.org/2000/svg"
   xmlns:sodipodi="http://sodipodi.sourceforge.net/DTD/sodipodi-0.dtd"
   xmlns:inkscape="http://www.inkscape.org/namespaces/inkscape"
   width="1024"
   height="1024"
   viewBox="0 0 1024 1024"
   version="1.1"
   id="svg2"
   inkscape:version="0.91 r13725"
   sodipodi:docname="AOS_PDF_Templates.svg">
  <metadata
     id="metadata27">
    <rdf:RDF>
      <cc:Work
         rdf:about="">
        <dc:format>image/svg+xml</dc:format>
        <dc:type
           rdf:resource="http://purl.org/dc/dcmitype/StillImage" />
        <dc:title>my_pdf_templates_dark</dc:title>
      </cc:Work>
    </rdf:RDF>
  </metadata>
  <sodipodi:namedview
     pagecolor="#ffffff"
     bordercolor="#666666"
     borderopacity="1"
     objecttolerance="10"
     gridtolerance="10"
     guidetolerance="10"
     inkscape:pageopacity="0"
     inkscape:pageshadow="2"
     inkscape:window-width="1366"
     inkscape:window-height="703"
     id="namedview25"
     showgrid="false"
     inkscape:zoom="0.51300001"
     inkscape:cx="512"
     inkscape:cy="512"
     inkscape:window-x="0"
     inkscape:window-y="0"
     inkscape:window-maximized="1"
     inkscape:current-layer="svg2" />
  <!-- Generator: Sketch 39.1 (31720) - http://www.bohemiancoding.com/sketch -->
  <title
     id="title4">my_pdf_templates_dark</title>
  <desc
     id="desc6">Created with Sketch.</desc>
  <defs
     id="defs8" />
  <path
     id="Fill-11"
     style="fill:#000000;fill-rule:evenodd;stroke:none;stroke-width:1"
     d="m 902.62666,631.17331 c -260.41777,0 -520.83554,0 -781.25331,0 0,126.94223 0,253.88446 0,380.82669 260.41777,0 520.83554,0 781.25331,0 0,-126.94223 0,-253.88446 0,-380.82669 z M 423.88001,817.21332 c -16.00221,30.93433 -54.03246,24.27686 -83.08,25.05319 0,19.70222 0,39.40444 0,59.10666 -10.55556,0 -21.11111,0 -31.66667,0 0,-52.20444 0,-104.40887 0,-156.61331 31.55108,1.33714 64.06513,-3.57199 94.78146,4.62223 25.39191,11.07954 31.01426,44.81449 19.96521,67.83123 z m 157.54665,40.66666 c -7.90437,30.84031 -40.42068,46.73524 -70.50316,43.44006 -18.66783,0 -37.33566,0 -56.00349,0 0,-52.20445 0,-104.4089 0,-156.61335 31.38171,1.45361 63.82701,-3.96758 94.18811,5.44749 39.192,18.41506 42.44193,71.17995 32.31854,107.7258 z m 139.21332,-86.61332 c -25.24,0 -50.47999,0 -75.71999,0 0,12.36445 0,24.72889 0,37.09334 21.78667,0 43.57335,0 65.36002,0 -2.69649,7.87732 5.89115,27.03877 -5.21478,26.50666 -20.04841,0 -40.09683,0 -60.14524,0 0,22.16889 0,44.33777 0,66.50666 -10.55555,0 -21.1111,0 -31.66665,0 0,-52.20444 0,-104.40888 0,-156.61332 35.79555,0 71.59109,0 107.38664,0 0,8.83555 0,17.67111 0,26.50666 z m -341.81331,1.04001 c -3.8,-0.66666 -11.36,-1.04001 -22.76,-1.04001 l -15.26666,0 0,44.42664 17.29333,0 c 12.45333,0 20.84,-0.82671 25,-2.44009 4.17333,-1.61338 7.50667,-4.17334 9.89333,-7.70665 2.40002,-3.49316 3.6,-7.56001 3.6,-12.14667 0,-5.72 -1.66666,-10.41336 -5.05333,-14.10669 -3.33332,-3.74664 -7.6,-6.0933 -12.70667,-6.98664 l 0,0 z m 162.54668,7.81332 c -3.85334,-3.64002 -8.69334,-6.09334 -14.64001,-7.38666 -4.42668,-1.00014 -13.06667,-1.52005 -25.98667,-1.52005 l -14.21332,0 0,103.70665 23.58666,0 c 8.85333,0 15.21332,-0.51991 19.12001,-1.52005 5.10665,-1.29335 9.37331,-3.42665 12.75998,-6.50666 3.3866,-3.06657 6.14666,-8.06666 8.33334,-15.10668 2.1333,-6.97334 3.22676,-16.55998 3.22676,-28.69331 0,-12.13334 -1.04018,-21.40002 -3.22676,-27.92002 -2.1333,-6.39989 -5.10668,-11.45322 -8.95999,-15.05322 l 0,0 z m -420,-389.21334 c 0,39.77333 0,79.54669 0,119.32002 C 287.4489,344.15112 453.52446,178.07556 619.60002,12.000005 c -39.77333,0 -79.5467,0 -119.32003,0 C 373.97778,138.30222 247.67556,264.60443 121.37335,390.90665 Z M 292.52001,12.000005 c -57.04889,0 -114.09778,0 -171.14666,0 0,57.048887 0,114.097775 0,171.146665 C 178.42223,126.09778 235.47112,69.048892 292.52001,12.000005 Z M 195.22668,599.91997 C 385.28,409.88441 575.33332,219.84888 765.38666,29.813338 756.40911,22.793382 750.48712,8.3965711 737.10921,12.000005 c -24.4275,0 -48.85504,0 -73.28254,0 C 483.00891,192.81778 302.19112,373.63556 121.37335,554.45332 c 0,15.15557 0,30.31109 0,45.46665 24.61777,0 49.23555,0 73.85333,0 z M 121.37335,227.36 c 0,39.77778 0,79.55555 0,119.33333 111.56444,-111.56444 223.12888,-223.12888 334.69332,-334.693325 -39.77778,0 -79.55555,0 -119.33333,0 C 264.94668,83.786669 193.16001,155.57334 121.37335,227.36 Z m 445.16,372.55997 c 39.77333,0 79.54666,0 119.31998,0 C 758.1111,527.67998 830.3689,455.43999 902.62666,383.2 c 0,-39.79111 0,-79.58222 0,-119.37333 -112.03109,112.03108 -224.06222,224.06221 -336.09331,336.0933 z m 336.09331,0 c 0,-57.51999 0,-115.03998 0,-172.55997 -57.51999,57.51999 -115.03999,115.03998 -172.55998,172.55997 57.51999,0 115.03999,0 172.55998,0 z M 847.16001,111.58667 C 827.26224,91.688893 807.36444,71.791115 787.46667,51.893337 604.79556,234.56888 422.12445,417.24443 239.45334,599.91997 c 39.77334,0 79.54667,0 119.32,0 C 521.56891,437.1422 684.36446,274.36444 847.16001,111.58667 Z m 55.46665,55.46667 c -11.1289,-11.12889 -22.25777,-22.25778 -33.38667,-33.38667 -155.41776,155.41777 -310.83556,310.83554 -466.25332,466.2533 39.79111,0 79.58224,0 119.37334,0 C 649.11557,473.14664 775.8711,346.37333 902.62666,219.6 c 0,-17.51555 0,-35.03111 0,-52.54666 z" />
</svg>
