<?xml version="1.0" encoding="UTF-8" standalone="no"?>
<svg
   xmlns:dc="http://purl.org/dc/elements/1.1/"
   xmlns:cc="http://creativecommons.org/ns#"
   xmlns:rdf="http://www.w3.org/1999/02/22-rdf-syntax-ns#"
   xmlns:svg="http://www.w3.org/2000/svg"
   xmlns="http://www.w3.org/2000/svg"
   xmlns:sodipodi="http://sodipodi.sourceforge.net/DTD/sodipodi-0.dtd"
   xmlns:inkscape="http://www.inkscape.org/namespaces/inkscape"
   width="1024"
   height="1024"
   viewBox="0 0 1024 1024"
   version="1.1"
   id="svg2"
   inkscape:version="0.91 r13725"
   sodipodi:docname="ACLRoles.svg">
  <metadata
     id="metadata17">
    <rdf:RDF>
      <cc:Work
         rdf:about="">
        <dc:format>image/svg+xml</dc:format>
        <dc:type
           rdf:resource="http://purl.org/dc/dcmitype/StillImage" />
        <dc:title>admin_role_management</dc:title>
      </cc:Work>
    </rdf:RDF>
  </metadata>
  <sodipodi:namedview
     pagecolor="#ffffff"
     bordercolor="#666666"
     borderopacity="1"
     objecttolerance="10"
     gridtolerance="10"
     guidetolerance="10"
     inkscape:pageopacity="0"
     inkscape:pageshadow="2"
     inkscape:window-width="1366"
     inkscape:window-height="703"
     id="namedview15"
     showgrid="false"
     inkscape:zoom="0.37249375"
     inkscape:cx="77.808951"
     inkscape:cy="-60.361031"
     inkscape:window-x="0"
     inkscape:window-y="0"
     inkscape:window-maximized="1"
     inkscape:current-layer="Page-1" />
  <!-- Generator: Sketch 3.8.3 (29802) - http://www.bohemiancoding.com/sketch -->
  <title
     id="title4">admin_role_management</title>
  <desc
     id="desc6">Created with Sketch.</desc>
  <defs
     id="defs8" />
  <g
     id="Page-1"
     style="fill:none;fill-rule:evenodd;stroke:none;stroke-width:1"
     transform="translate(0,996)">
    <path
       style="fill:#000000;fill-opacity:1"
       inkscape:connector-curvature="0"
       id="path13"
       d="m 337.26001,-758.86698 c -14.58821,0.80851 -29.1014,4.7007 -44.51578,11.67653 -33.43846,14.83543 -59.02893,47.51472 -70.10625,86.51172 l -111.03601,386.13447 -63.816599,0 c -18.099207,-1.54175 -35.785363,14.38411 -35.785363,32.75448 0,17.91907 17.74248,34.29628 35.785363,32.67926 l 928.429259,0 c 18.118,1.54174 35.78537,-14.83538 35.78537,-32.67926 0,-18.29514 -17.74251,-34.29637 -35.78537,-32.75448 l -63.81658,0 -110.96088,-386.13447 c -11.00226,-38.92181 -36.59278,-71.67629 -70.10633,-86.51172 -30.73486,-13.66964 -58.24039,-15.56873 -88.97519,-4.26823 l -130.31811,48.34203 -130.31807,-48.34203 c -15.33927,-5.86649 -29.92751,-8.14162 -44.45946,-7.4083 l 0,0 z m 8.22352,67.42686 c 6.66513,0 13.78095,1.54184 21.27221,4.2494 l 133.84779,49.50783 c 3.51077,1.54165 7.47247,1.91787 11.43401,1.91787 3.96134,0 7.92309,-0.37378 11.43406,-1.91787 l 133.84773,-49.50783 c 39.74697,-14.83542 72.472,15.21146 80.75174,44.44982 l 67.32762,233.34285 -586.64717,0 67.32756,-233.34285 c 6.66515,-23.80429 29.4769,-48.34196 59.40445,-48.69922 l 0,0 z m -145.65731,347.47589 624.42265,0 19.65759,69.34473 -663.73778,0 19.65754,-69.34473 z" />
  </g>
</svg>
