<?xml version="1.0" encoding="UTF-8" standalone="no"?>
<svg
   xmlns:dc="http://purl.org/dc/elements/1.1/"
   xmlns:cc="http://creativecommons.org/ns#"
   xmlns:rdf="http://www.w3.org/1999/02/22-rdf-syntax-ns#"
   xmlns:svg="http://www.w3.org/2000/svg"
   xmlns="http://www.w3.org/2000/svg"
   xmlns:xlink="http://www.w3.org/1999/xlink"
   xmlns:sodipodi="http://sodipodi.sourceforge.net/DTD/sodipodi-0.dtd"
   xmlns:inkscape="http://www.inkscape.org/namespaces/inkscape"
   width="1000"
   height="1000"
   viewBox="0 0 1000 1000"
   version="1.1"
   id="svg2"
   inkscape:version="0.91 r13725"
   sodipodi:docname="module-securitygroups.svg">
  <metadata
     id="metadata22">
    <rdf:RDF>
      <cc:Work
         rdf:about="">
        <dc:format>image/svg+xml</dc:format>
        <dc:type
           rdf:resource="http://purl.org/dc/dcmitype/StillImage" />
        <dc:title>acc_security_groups</dc:title>
      </cc:Work>
    </rdf:RDF>
  </metadata>
  <sodipodi:namedview
     pagecolor="#ffffff"
     bordercolor="#666666"
     borderopacity="1"
     objecttolerance="10"
     gridtolerance="10"
     guidetolerance="10"
     inkscape:pageopacity="0"
     inkscape:pageshadow="2"
     inkscape:window-width="1366"
     inkscape:window-height="703"
     id="namedview20"
     showgrid="false"
     inkscape:zoom="0.2565"
     inkscape:cx="-244.028"
     inkscape:cy="311.44401"
     inkscape:window-x="0"
     inkscape:window-y="0"
     inkscape:window-maximized="1"
     inkscape:current-layer="svg2" />
  <!-- Generator: Sketch 3.8.3 (29802) - http://www.bohemiancoding.com/sketch -->
  <title
     id="title4">acc_security_groups</title>
  <desc
     id="desc6">Created with Sketch.</desc>
  <defs
     id="defs8">
    <polygon
       id="path-1"
       points="17.943417,6.6076584e-15 17.943417,0 2.8391166e-05,0 2.8391166e-05,24.348402 17.943417,24.348402 " />
  </defs>
  <g
     id="Page-1"
     style="fill:none;fill-rule:evenodd;stroke:none;stroke-width:1"
     transform="translate(0,970)">
    <g
       id="acc_security_groups">
      <g
         id="g13"
         transform="translate(6,3)">
        <mask
           id="mask-2"
           fill="white">
          <use
             xlink:href="#path-1"
             id="use16"
             x="0"
             y="0"
             width="100%"
             height="100%" />
        </mask>
        <g
           id="Clip-2" />
        <path
           d="m 639.70229,-674.73684 0,175.43602 -291.39056,0 0,-175.43602 0.50138,0 c -0.17044,-2.95518 -0.50138,-5.83879 -0.50138,-8.80832 0,-82.33275 65.22116,-149.08981 145.65446,-149.08981 80.43331,0 145.7361,66.75706 145.7361,149.08981 0,2.96952 -0.25053,5.85312 -0.40249,8.80832 l 0.40249,0 z m 171.37724,175.43602 -34.26052,0 0,-175.43602 -0.41727,0 c 0.0986,-2.95518 0.41727,-5.83879 0.41727,-8.80832 C 776.81901,-843.39353 650.19661,-973 493.96619,-973 c -156.08117,0 -282.70123,129.60647 -282.70123,289.45484 0,2.96952 0.24971,5.85312 0.33349,8.80832 l -0.33349,0 0,175.43602 -34.34448,0 c -28.3767,0 -51.39196,23.54376 -51.39196,52.60406 l 0,421.092705 c 0,29.0602989 23.00127,52.604056 51.39196,52.604056 l 634.15905,0 c 28.39069,0 51.39194,-23.5437571 51.39194,-52.604056 l 0,-421.092705 c 0.014,-29.0603 -23.00125,-52.60406 -51.39194,-52.60406 l 0,0 z"
           id="Fill-1"
           inkscape:connector-curvature="0"
           style="fill:#000000;fill-opacity:1" />
      </g>
    </g>
  </g>
</svg>
