<?xml version="1.0" encoding="UTF-8" standalone="no"?>
<svg
   xmlns:dc="http://purl.org/dc/elements/1.1/"
   xmlns:cc="http://creativecommons.org/ns#"
   xmlns:rdf="http://www.w3.org/1999/02/22-rdf-syntax-ns#"
   xmlns:svg="http://www.w3.org/2000/svg"
   xmlns="http://www.w3.org/2000/svg"
   xmlns:sodipodi="http://sodipodi.sourceforge.net/DTD/sodipodi-0.dtd"
   xmlns:inkscape="http://www.inkscape.org/namespaces/inkscape"
   width="1000"
   height="1000"
   viewBox="0 0 1000 1000"
   version="1.1"
   id="svg2"
   inkscape:version="0.91 r13725"
   sodipodi:docname="module-jjwg_markers.svg">
  <metadata
     id="metadata17">
    <rdf:RDF>
      <cc:Work
         rdf:about="">
        <dc:format>image/svg+xml</dc:format>
        <dc:type
           rdf:resource="http://purl.org/dc/dcmitype/StillImage" />
        <dc:title>acc_markers_maps</dc:title>
      </cc:Work>
    </rdf:RDF>
  </metadata>
  <sodipodi:namedview
     pagecolor="#ffffff"
     bordercolor="#666666"
     borderopacity="1"
     objecttolerance="10"
     gridtolerance="10"
     guidetolerance="10"
     inkscape:pageopacity="0"
     inkscape:pageshadow="2"
     inkscape:window-width="1366"
     inkscape:window-height="703"
     id="namedview15"
     showgrid="false"
     inkscape:zoom="0.513"
     inkscape:cx="500"
     inkscape:cy="500"
     inkscape:window-x="0"
     inkscape:window-y="0"
     inkscape:window-maximized="1"
     inkscape:current-layer="svg2" />
  <!-- Generator: Sketch 3.8.3 (29802) - http://www.bohemiancoding.com/sketch -->
  <title
     id="title4">acc_markers_maps</title>
  <desc
     id="desc6">Created with Sketch.</desc>
  <defs
     id="defs8" />
  <path
     style="fill:#000000;fill-rule:evenodd;stroke:none;stroke-width:1;fill-opacity:1"
     inkscape:connector-curvature="0"
     id="Fill-1"
     d="M 739.00001,513.73334 C 784.83335,459.36669 812.5,389.20001 812.5,312.5 812.5,139.91667 672.58335,4.4828779e-6 500.00001,4.4828779e-6 327.41668,4.4828779e-6 187.50001,139.91667 187.50001,312.5 c 0,76.70001 27.66667,146.86669 73.5,201.23334 l 239,298.76665 239,-298.76665 z m -239,-299.15 c 54.09999,0 97.91666,43.81667 97.91666,97.91666 0,54.10002 -43.81667,97.91666 -97.91666,97.91666 -54.1,0 -97.91666,-43.81664 -97.91666,-97.91666 0,-54.09999 43.81666,-97.91666 97.91666,-97.91666 l 0,0 z" />
  <path
     style="fill:#000000;fill-rule:evenodd;stroke:none;stroke-width:1;fill-opacity:1"
     inkscape:connector-curvature="0"
     id="Fill-2"
     d="m 687.50002,937.50001 c 0,34.5 -83.91669,62.49999 -187.50001,62.49999 -103.58333,0 -187.5,-27.99999 -187.5,-62.49999 0,-34.50001 83.91667,-62.49999 187.5,-62.49999 103.58332,0 187.50001,27.99998 187.50001,62.49999" />
</svg>
