<?xml version="1.0" encoding="UTF-8"?>
<svg xmlns="http://www.w3.org/2000/svg" xmlns:xlink="http://www.w3.org/1999/xlink" width="1024pt" height="1024pt" viewBox="0 0 1024 1024" version="1.1">
<g id="surface1">
<path style=" stroke:none;fill-rule:evenodd;fill:rgb(0%,0%,0%);fill-opacity:1;" d="M 576 254.890625 L 512 254.890625 L 512 576.277344 L 768 576.277344 L 768 512 L 576 512 Z M 576 62.0625 C 326.398438 62.0625 128 264.535156 128 512 L 0 512 L 160 704.832031 L 320 512 L 192 512 C 192 299.886719 361.597656 126.339844 576 126.339844 C 790.402344 126.339844 960 299.886719 960 512 C 960 724.113281 790.402344 897.664062 576 897.664062 L 576 961.9375 C 825.601562 961.9375 1024 759.464844 1024 512 C 1024 264.535156 825.601562 62.0625 576 62.0625 "/>
</g>
</svg>
