<?xml version="1.0" encoding="UTF-8" standalone="no"?>
<svg
   xmlns:dc="http://purl.org/dc/elements/1.1/"
   xmlns:cc="http://creativecommons.org/ns#"
   xmlns:rdf="http://www.w3.org/1999/02/22-rdf-syntax-ns#"
   xmlns:svg="http://www.w3.org/2000/svg"
   xmlns="http://www.w3.org/2000/svg"
   xmlns:sodipodi="http://sodipodi.sourceforge.net/DTD/sodipodi-0.dtd"
   xmlns:inkscape="http://www.inkscape.org/namespaces/inkscape"
   width="1000"
   height="1000"
   viewBox="0 0 1000 1000"
   version="1.1"
   id="svg2"
   inkscape:version="0.91 r13725"
   sodipodi:docname="module-calls.svg"
   inkscape:export-filename="/var/www/html/sdk/instances/suitecrm-development-mysql/themes/SuiteP/images/actions/Calls.png"
   inkscape:export-xdpi="90"
   inkscape:export-ydpi="90">
  <metadata
     id="metadata25">
    <rdf:RDF>
      <cc:Work
         rdf:about="">
        <dc:format>image/svg+xml</dc:format>
        <dc:type
           rdf:resource="http://purl.org/dc/dcmitype/StillImage" />
        <dc:title>sb_schedule_call</dc:title>
      </cc:Work>
    </rdf:RDF>
  </metadata>
  <sodipodi:namedview
     pagecolor="#ffffff"
     bordercolor="#666666"
     borderopacity="1"
     objecttolerance="10"
     gridtolerance="10"
     guidetolerance="10"
     inkscape:pageopacity="0"
     inkscape:pageshadow="2"
     inkscape:window-width="1366"
     inkscape:window-height="703"
     id="namedview23"
     showgrid="false"
     inkscape:zoom="0.37249375"
     inkscape:cx="-105.56072"
     inkscape:cy="360.27092"
     inkscape:window-x="0"
     inkscape:window-y="0"
     inkscape:window-maximized="1"
     inkscape:current-layer="sb_schedule_call" />
  <!-- Generator: Sketch 3.8.3 (29802) - http://www.bohemiancoding.com/sketch -->
  <title
     id="title4">sb_schedule_call</title>
  <desc
     id="desc6">Created with Sketch.</desc>
  <defs
     id="defs8" />
  <g
     style="fill:none;stroke:none"
     id="sb_schedule_call"
     transform="translate(0,888)">
    <path
       style="fill:#000000;fill-opacity:1"
       inkscape:connector-curvature="0"
       id="path21"
       d="m 976.14276,-123.4984 c -4.51825,-4.57717 -8.79991,-9.09593 -13.1406,-13.65837 l -25.00726,-25.52599 c -100.68083,-99.02176 -140.20651,-139.52521 -144.38424,-142.35478 -4.56295,-4.34044 -9.08139,-8.68149 -13.65917,-13.1407 -49.52562,-46.59226 -83.96983,-9.437 -128.81398,58.3848 -4.10371,6.25183 -7.98511,12.16289 -11.51105,17.71838 -0.11685,0.16257 -0.23369,0.34037 -0.35053,0.5766 -1.33353,2.01476 -2.42931,3.76283 -3.7034,5.71821 -50.57739,78.5327 -46.35522,80.26603 -63.99953,76.10339 -0.75541,-0.1016 -1.39246,-0.35561 -2.13365,-0.58929 C 512.01753,-178.20653 518.62487,-181.6737 407.15898,-295.09502 293.7967,-406.5609 290.27086,-399.96835 272.33022,-457.37539 c -0.23369,-0.68175 -0.41657,-1.37772 -0.57659,-2.13364 -4.17788,-17.65915 -2.42931,-13.48137 76.0884,-63.99959 1.97057,-1.27409 3.82227,-2.4293 5.73356,-3.70339 0.1778,-0.11685 0.35052,-0.23369 0.57659,-0.35053 5.55529,-3.58554 11.40732,-7.40735 17.71838,-11.51106 67.82181,-44.85893 104.97707,-79.34759 58.38481,-128.8288 -4.51825,-4.56295 -8.79991,-9.0814 -13.14065,-13.6443 -2.82962,-4.17787 -43.39226,-43.70341 -142.35464,-144.38418 l -25.59025,-25.07036 c -4.56292,-4.34059 -9.08139,-8.68138 -13.65914,-13.14065 C 180.42956,-915.99343 129.4373,-878.77883 76.489506,-796.36453 24.119486,-714.82436 6.8751534,-665.23952 6.7566404,-664.83951 -16.917282,-589.95113 27.763911,-498.3962 46.578594,-466.91496 111.6152,-357.37494 136.96317,-311.47891 281.3474,-169.34633 423.47978,-24.962702 469.37576,0.38548563 578.91578,65.421973 610.39707,84.237149 701.952,128.91817 776.78115,105.24439 777.18247,105.14279 826.7215,87.881615 908.30617,35.511346 990.77975,-17.43653 1027.9943,-68.429075 976.14276,-123.51009 l 0,0 z" />
  </g>
</svg>
