<?xml version="1.0" encoding="UTF-8"?>
<svg xmlns="http://www.w3.org/2000/svg" xmlns:xlink="http://www.w3.org/1999/xlink" width="1024pt" height="1024pt" viewBox="0 0 1024 1024" version="1.1">
<g id="surface1">
<path style=" stroke:none;fill-rule:evenodd;fill:rgb(0%,0%,0%);fill-opacity:1;" d="M 406.488281 962.558594 C 426.867188 999.15625 466.46875 1024 512 1024 C 557.53125 1024 597.121094 999.15625 617.511719 962.558594 Z M 406.488281 962.558594 "/>
<path style=" stroke:none;fill-rule:evenodd;fill:rgb(0%,0%,0%);fill-opacity:1;" d="M 626.902344 768 C 647.792969 768 668.683594 747.519531 668.683594 727.039062 C 668.683594 552.960938 825.371094 529.316406 825.371094 307.199219 C 825.371094 137.535156 685.0625 0 512 0 C 338.925781 0 198.628906 137.535156 198.628906 307.199219 C 198.628906 529.316406 355.316406 552.960938 355.316406 727.039062 C 355.316406 747.519531 376.207031 768 397.097656 768 Z M 626.902344 768 "/>
<path style=" stroke:none;fill-rule:evenodd;fill:rgb(0%,0%,0%);fill-opacity:1;" d="M 647.792969 824.320312 C 647.792969 838.402344 636.042969 849.921875 621.679688 849.921875 L 402.320312 849.921875 C 387.957031 849.921875 376.207031 838.402344 376.207031 824.320312 C 376.207031 810.238281 387.957031 798.71875 402.320312 798.71875 L 621.679688 798.71875 C 636.042969 798.71875 647.792969 810.238281 647.792969 824.320312 "/>
<path style=" stroke:none;fill-rule:evenodd;fill:rgb(0%,0%,0%);fill-opacity:1;" d="M 647.792969 906.238281 C 647.792969 920.320312 636.042969 931.839844 621.679688 931.839844 L 402.320312 931.839844 C 387.957031 931.839844 376.207031 920.320312 376.207031 906.238281 C 376.207031 892.160156 387.957031 880.640625 402.320312 880.640625 L 621.679688 880.640625 C 636.042969 880.640625 647.792969 892.160156 647.792969 906.238281 "/>
</g>
</svg>
