<?xml version="1.0" encoding="UTF-8"?>
<svg xmlns="http://www.w3.org/2000/svg" xmlns:xlink="http://www.w3.org/1999/xlink" width="1024pt" height="1024pt" viewBox="0 0 1024 1024" version="1.1">
<g id="surface1">
<path style=" stroke:none;fill-rule:evenodd;fill:rgb(0%,0%,0%);fill-opacity:1;" d="M 876.886719 194.984375 C 856.15625 141.503906 815.800781 108.773438 754.710938 82.585938 C 700.15625 58.597656 645.601562 55.308594 593.199219 80.417969 C 498.300781 40.074219 361.910156 49.851562 292.066406 130.59375 C 240.8125 127.308594 191.710938 144.808594 151.296875 175.332031 C 110.957031 206.972656 97.832031 249.539062 91.285156 297.503906 C 9.453125 341.148438 -4.746094 484.070312 29.121094 559.371094 C 73.84375 660.875 213.535156 688.152344 310.660156 649.964844 C 312.8125 669.617188 319.402344 688.152344 331.390625 704.519531 C 354.304688 735.085938 391.402344 749.242188 428.511719 753.621094 C 461.246094 757.984375 499.433594 762.363281 527.789062 743.785156 C 560.523438 750.316406 593.257812 754.695312 624.914062 749.242188 C 625.988281 751.394531 627.082031 753.621094 629.292969 755.773438 C 639.125 765.605469 652.191406 773.214844 666.40625 778.671875 C 691.515625 831.074219 672.9375 889.949219 653.324219 944.503906 C 647.871094 961.949219 662.082031 961.949219 679.527344 964.160156 C 682.828125 964.160156 684.984375 965.25 686.058594 965.25 C 742.78125 969.617188 747.148438 967.40625 772.269531 913.984375 C 797.394531 859.429688 820.292969 803.796875 849.726562 751.394531 C 929.40625 721.960938 980.660156 645.585938 973.050781 556.085938 C 997.027344 524.429688 1005.785156 484.070312 1010.164062 442.59375 C 1022.035156 334.675781 976.238281 236.476562 876.886719 194.984375 Z M 432.832031 676.148438 L 536.488281 426.285156 L 345.546875 460.097656 L 465.566406 179.695312 L 665.269531 149.128906 L 510.347656 336.769531 L 698.003906 311.660156 Z M 432.832031 676.148438 "/>
</g>
</svg>
