<?xml version="1.0" encoding="UTF-8"?>
<svg xmlns="http://www.w3.org/2000/svg" xmlns:xlink="http://www.w3.org/1999/xlink" width="1024pt" height="1024pt" viewBox="0 0 1024 1024" version="1.1">
<g id="surface1">
<path style=" stroke:none;fill-rule:evenodd;fill:rgb(0%,0%,0%);fill-opacity:1;" d="M 982.488281 951.9375 L 900.613281 951.9375 L 900.613281 215.070312 L 982.488281 215.070312 C 1005.398438 215.070312 1024 233.597656 1024 256.566406 L 1024 911.558594 C 1024 933.335938 1005.398438 951.9375 982.488281 951.9375 Z M 163.746094 951.9375 L 163.746094 215.070312 L 286 215.070312 L 367.871094 72.0625 L 653.855469 72.0625 L 735.730469 215.070312 L 857.980469 215.070312 L 857.980469 951.9375 Z M 614.628906 133.195312 L 409.371094 133.195312 L 367.871094 215.070312 L 653.855469 215.070312 Z M 0 911.5 L 0 256.507812 C 0 233.597656 18.542969 215.011719 41.511719 215.011719 L 123.386719 215.011719 L 123.386719 951.878906 L 41.511719 951.878906 C 18.601562 951.9375 0 933.335938 0 911.5 Z M 0 911.5 "/>
</g>
</svg>
