<?xml version="1.0" encoding="UTF-8"?>
<svg xmlns="http://www.w3.org/2000/svg" xmlns:xlink="http://www.w3.org/1999/xlink" width="1024pt" height="1024pt" viewBox="0 0 1024 1024" version="1.1">
<g id="surface1">
<path style=" stroke:none;fill-rule:evenodd;fill:rgb(0%,0%,0%);fill-opacity:1;" d="M 718.175781 580.566406 C 648.683594 580.566406 593.082031 598.847656 551.375 621.695312 C 616.257812 676.546875 644.042969 740.558594 648.683594 745.121094 L 653.324219 754.261719 L 653.324219 854.824219 L 1024 854.824219 L 1024 763.40625 C 1019.359375 763.40625 945.222656 580.566406 718.175781 580.566406 Z M 718.175781 580.566406 "/>
<path style=" stroke:none;fill-rule:evenodd;fill:rgb(0%,0%,0%);fill-opacity:1;" d="M 880.355469 329.152344 C 880.355469 417.5 807.734375 489.144531 718.175781 489.144531 C 628.636719 489.144531 556.015625 417.5 556.015625 329.152344 C 556.015625 240.820312 628.636719 169.175781 718.175781 169.175781 C 807.734375 169.175781 880.355469 240.820312 880.355469 329.152344 "/>
<path style=" stroke:none;fill-rule:evenodd;fill:rgb(0%,0%,0%);fill-opacity:1;" d="M 139.003906 329.152344 C 139.003906 242.3125 213.140625 169.175781 301.183594 169.175781 C 389.210938 169.175781 463.34375 242.3125 463.34375 329.152344 C 463.34375 416.007812 389.210938 489.144531 301.183594 489.144531 C 213.140625 489.144531 139.003906 416.007812 139.003906 329.152344 Z M 301.183594 580.566406 C 74.136719 580.566406 0 763.40625 0 763.40625 L 0 854.824219 L 602.347656 854.824219 L 602.347656 763.40625 C 602.347656 763.40625 528.214844 580.566406 301.183594 580.566406 Z M 301.183594 580.566406 "/>
</g>
</svg>
