<?xml version="1.0" encoding="UTF-8" standalone="no"?>
<svg width="1024" height="1024" viewBox="0 0 1024 1024" version="1.1" xmlns="http://www.w3.org/2000/svg">
    <path id="path5674"
          d="m 508.82902,1023.7816 c -2.3884,-0.3836 -32.65085,-29.63436 -98.09168,-94.8914 -53.17599,-53.03118 -97.63134,-96.25711 -101.47069,-98.66623 -13.67999,-8.58534 -24.14149,-4.81439 -35.53531,12.8128 -5.10125,7.89483 -6.7912,12.59797 -19.16913,53.35725 -8.46227,27.86976 -22.28097,49.11445 -42.28344,65.00769 C 166.41514,997.84914 110.7073,993.93625 69.990933,951.4085 47.27236,927.67797 36.787021,901.87591 38.090608,872.90901 c 1.089664,-24.21389 8.806747,-42.94206 26.217941,-63.62668 17.732326,-21.06823 39.217521,-33.45137 75.640501,-43.59804 27.98853,-7.79892 40.72091,-13.63757 50.59218,-23.1973 7.03864,-6.81687 7.43388,-7.56876 7.43388,-14.10559 0,-5.33611 -0.975,-8.45875 -4.28916,-13.73731 -2.40562,-3.83617 -45.708,-48.39325 -98.608524,-101.47046 C 28.081185,545.95247 0.56952037,517.46892 0.10722767,514.85266 -0.25068673,512.81949 0.31706607,509.09841 1.3693268,506.5627 3.9535225,500.34044 188.1563,316.38087 196.59355,311.59717 c 11.33384,-6.42558 16.63368,-5.67369 25.65956,3.64436 9.02567,9.31805 14.26637,20.28181 20.57186,43.03029 11.14973,40.22988 18.99557,55.43645 39.07826,75.75279 45.4829,46.01099 109.66321,45.37419 153.90327,-1.53446 22.19676,-23.52722 32.12763,-46.71301 32.08916,-74.92035 -0.0384,-28.97457 -11.02515,-53.31122 -34.5979,-76.6543 -18.02162,-17.84585 -36.05287,-27.2176 -70.91546,-36.85406 -33.81697,-9.35257 -52.76909,-20.86875 -54.78557,-33.29409 -1.77293,-10.92541 -0.77491,-12.0494 100.24162,-113.072953 60.09521,-60.098165 96.40672,-95.4162225 99.23689,-96.5210387 2.53149,-0.98973117 6.11945,-1.33115008 8.28942,-0.79025047 2.58136,0.64063997 35.06783,32.08647017 99.84546,96.64226117 98.20692,97.867921 102.40323,101.665721 112.41221,101.665721 5.4993,0 10.88589,-3.22238 17.01754,-10.19269 7.87769,-8.94978 13.47872,-21.54775 19.85317,-44.65184 9.01288,-32.66918 15.26737,-46.218913 29.44216,-63.784339 14.26018,-17.671305 39.35106,-34.188307 60.28702,-39.686685 11.02146,-2.896307 33.66567,-3.241562 44.21033,-0.679002 39.32167,9.560496 74.72877,44.637643 85.1819,84.388396 2.9013,11.03358 3.22622,33.65508 0.63489,44.21221 -2.30055,9.36792 -10.81745,28.00402 -16.71825,36.58169 -12.77167,18.56321 -35.0028,36.26713 -55.97351,44.57627 -6.07895,2.41678 -20.06734,6.92044 -31.08539,10.0239 -11.01805,3.1073 -24.03861,7.50354 -28.93464,9.77839 -15.72985,7.31941 -26.31196,18.04533 -26.32312,26.68054 -0.0138,10.18119 3.7088,14.31658 100.24937,111.36778 51.77563,52.05295 95.1623,96.17655 96.4147,98.05627 3.4158,5.12128 2.7843,9.34107 -2.4586,16.4303 -2.6047,3.52928 -45.96876,47.49176 -96.36468,97.71102 -94.77244,94.4426 -97.93724,97.27753 -108.70317,97.27753 -6.17704,0 -16.46974,-9.87429 -22.74022,-21.81628 -2.6765,-5.09827 -7.79295,-19.4954 -11.36948,-31.9898 -10.62189,-37.10725 -17.9665,-51.69619 -35.01312,-69.54588 -17.07494,-17.88037 -36.19539,-29.67275 -56.79573,-35.02804 -12.02669,-3.14566 -33.83722,-3.14566 -45.59189,-0.0384 -36.52852,9.65563 -69.29253,40.30277 -81.92753,76.63511 -5.40884,15.55566 -6.64938,36.0523 -3.1376,51.83813 3.12878,14.06339 12.3919,32.57673 22.58463,45.14018 19.14562,23.6001 40.01153,36.20575 77.67767,46.92016 24.24458,6.8936 33.07179,10.23873 42.138,15.95079 16.39263,10.33463 19.80966,20.09768 11.63126,33.22504 -6.08934,9.77456 -190.01814,193.28916 -195.38045,194.94256 -2.27945,0.6905 -5.69901,1.0358 -7.59865,0.7672 z"
          style="stroke-width:1.3815726"/>
</svg>
