<?xml version="1.0" encoding="UTF-8" standalone="no"?>
<svg
   xmlns:dc="http://purl.org/dc/elements/1.1/"
   xmlns:cc="http://creativecommons.org/ns#"
   xmlns:rdf="http://www.w3.org/1999/02/22-rdf-syntax-ns#"
   xmlns:svg="http://www.w3.org/2000/svg"
   xmlns="http://www.w3.org/2000/svg"
   xmlns:xlink="http://www.w3.org/1999/xlink"
   xmlns:sodipodi="http://sodipodi.sourceforge.net/DTD/sodipodi-0.dtd"
   xmlns:inkscape="http://www.inkscape.org/namespaces/inkscape"
   width="1024"
   height="1024"
   viewBox="0 0 1024 1024"
   version="1.1"
   id="svg2"
   inkscape:version="0.91 r13725"
   sodipodi:docname="module-aos_invoices.svg">
  <metadata
     id="metadata21">
    <rdf:RDF>
      <cc:Work
         rdf:about="">
        <dc:format>image/svg+xml</dc:format>
        <dc:type
           rdf:resource="http://purl.org/dc/dcmitype/StillImage" />
        <dc:title>acc_invoices</dc:title>
      </cc:Work>
    </rdf:RDF>
  </metadata>
  <sodipodi:namedview
     pagecolor="#ffffff"
     bordercolor="#666666"
     borderopacity="1"
     objecttolerance="10"
     gridtolerance="10"
     guidetolerance="10"
     inkscape:pageopacity="0"
     inkscape:pageshadow="2"
     inkscape:window-width="1366"
     inkscape:window-height="703"
     id="namedview19"
     showgrid="false"
     inkscape:zoom="0.34766084"
     inkscape:cx="-114.42708"
     inkscape:cy="382.2923"
     inkscape:window-x="0"
     inkscape:window-y="0"
     inkscape:window-maximized="1"
     inkscape:current-layer="svg2" />
  <!-- Generator: Sketch 3.8.3 (29802) - http://www.bohemiancoding.com/sketch -->
  <title
     id="title4">acc_invoices</title>
  <desc
     id="desc6">Created with Sketch.</desc>
  <defs
     id="defs8">
    <rect
       id="path-1"
       x="0"
       y="0"
       width="19.200001"
       height="24" />
    <mask
       id="mask-2"
       maskContentUnits="userSpaceOnUse"
       maskUnits="objectBoundingBox"
       x="0"
       y="0"
       width="19.2"
       height="24"
       fill="white">
      <use
         xlink:href="#path-1"
         id="use12"
         x="0"
         y="0"
         width="100%"
         height="100%" />
    </mask>
  </defs>
  <use
     height="100%"
     width="100%"
     y="0"
     x="0"
     style="fill:none;fill-opacity:1;fill-rule:evenodd;stroke:#000000;stroke-width:3.99999597;stroke-opacity:1;stroke-miterlimit:4;stroke-dasharray:none"
     xlink:href="#path-1"
     id="Rectangle-807"
     transform="matrix(35.714286,0,0,35.714286,169.14284,83.428568)" />
  <path
     style="fill:#000000;fill-rule:evenodd;stroke:none;stroke-width:1;fill-opacity:1"
     inkscape:connector-curvature="0"
     id="£"
     d="m 354.28571,526.71428 c 0,-7.61785 2.42858,-14.23928 7.28572,-19.85714 4.85717,-5.61786 12.14281,-8.42857 21.85715,-8.42857 l 24,0 0,-61.71429 c 0,-18.09642 2.76177,-35.28571 8.28571,-51.57142 5.52382,-16.28572 13.95231,-30.61786 25.28571,-43 11.33339,-12.38215 25.52372,-22.23929 42.57143,-29.57143 17.04772,-7.33215 37.19036,-11 60.42857,-11 15.42864,0 29.38089,1.96428 41.85714,5.85714 12.47625,3.90357 23.619,9.33214 33.42857,16.28571 9.80957,6.95358 18.42853,15.14286 25.85714,24.57143 7.42861,9.42857 13.90475,19.57143 19.42857,30.42857 L 629.14285,401 c -8.00003,4.18928 -15.76186,6.04643 -23.28571,5.57143 -7.52386,-0.46429 -14.42854,-4.04643 -20.71429,-10.71429 -7.23814,-7.42857 -13.8095,-12.95357 -19.71427,-16.57143 -5.90479,-3.61785 -13.04759,-5.42857 -21.42858,-5.42857 -15.42864,0 -26.90472,5.38214 -34.42857,16.14286 -7.52385,10.76071 -11.28571,26.23928 -11.28571,46.42857 l 0,62 108.57143,0 0,33.71429 c 0,2.85714 -0.61893,5.57142 -1.85715,8.14285 -1.23821,2.57143 -2.9525,4.90357 -5.14285,7 -2.19036,2.10715 -4.76191,3.76072 -7.71429,5 -2.9525,1.25 -6.23807,1.85715 -9.85715,1.85715 l -83.99999,0 0,44.57142 c 0,11.42858 -2.14286,21.76072 -6.42857,31 -4.28575,9.23929 -10.04757,17.85715 -17.28572,25.85715 8.57146,-1.89286 17.14281,-3.39286 25.71429,-4.42857 8.57146,-1.03572 17.23802,-1.57143 25.99999,-1.57143 l 143.42858,0 0,36.28571 c 0,4.18929 -0.90464,8.475 -2.71429,12.85714 -1.80964,4.38215 -4.33332,8.33215 -7.57142,11.85715 -3.23822,3.53571 -7.19047,6.38214 -11.85716,8.57143 -4.66667,2.17857 -9.85709,3.28571 -15.57142,3.28571 l -272.57142,0 0,-53.14286 c 6.28575,-1.14285 12.33332,-2.96428 18.14285,-5.42857 5.80957,-2.46428 10.90474,-5.61786 15.28572,-9.42857 4.38096,-3.81071 7.90475,-8.38214 10.57143,-13.71429 2.66678,-5.33214 4,-11.525 4,-18.57142 l 0,-68 -53.14286,0 0,-27.42858 z" />
</svg>
