<?xml version="1.0" encoding="UTF-8" standalone="no"?>
<svg width="1024" height="1024" viewBox="0 0 1024 1024" version="1.1" xmlns="http://www.w3.org/2000/svg">
    <path id="path6507"
          d="m 51.13226,997.91326 v -25.2623 H 25.869958 0.60765536 v -50.5246 -50.52461 H 25.869958 51.13226 V 512.22513 152.84851 H 25.869958 0.60765536 V 102.32391 51.799301 H 25.869958 51.13226 V 26.536999 1.2746967 h 50.5246 50.52461 V 26.536999 51.799301 h 230.62037 230.62037 v 50.524609 50.5246 h -25.2623 -25.2623 v 154.01855 154.01855 h 154.01855 154.01855 v -25.2623 -25.2623 h 50.52461 50.5246 v 230.62037 230.62037 h 25.2623 25.26228 v 50.52461 50.5246 h -25.26228 -25.2623 v 25.2623 25.26234 h -50.5246 -50.52461 v -25.26234 -25.2623 H 511.55809 152.18147 v 25.2623 25.26234 H 101.65686 51.13226 Z M 461.8484,716.76003 V 561.91828 l -154.42601,0.41574 -154.42601,0.41572 -0.42037,152.38872 c -0.2312,83.8138 -0.0709,153.30551 0.3563,154.42601 0.61378,1.60998 33.0914,2.03728 154.84639,2.03728 h 154.0697 z m 409.08631,0.008 V 561.93471 H 716.91616 562.89761 V 716.76817 871.60164 H 716.91616 870.93471 Z M 461.8484,306.8588 V 152.83197 l -154.42601,0.41573 -154.42601,0.41572 -0.41577,153.6111 -0.41577,153.61109 H 307.00662 461.8484 Z"
          style="stroke-width:1.62982595"/>
    <path id="path6509"
          d="m 820.02587,255.12009 -0.43068,-50.93206 -50.93206,-0.43068 -50.93206,-0.43067 v -50.50139 -50.50138 h 51.33952 51.33952 V 51.799301 1.2746967 h 50.5246 50.52461 V 51.799301 102.32391 h 50.5246 50.52458 v 50.5246 50.5246 h -50.52458 -50.5246 v 51.33952 51.33952 h -50.50139 -50.50138 z"
          style="stroke-width:1.62982595"/>
</svg>
