<?xml version="1.0" encoding="UTF-8"?>
<svg xmlns="http://www.w3.org/2000/svg" xmlns:xlink="http://www.w3.org/1999/xlink" width="1024pt" height="1024pt" viewBox="0 0 1024 1024" version="1.1">
<g id="surface1">
<path style=" stroke:none;fill-rule:evenodd;fill:rgb(0%,0%,0%);fill-opacity:1;" d="M 554.785156 179.765625 L 634.441406 179.765625 C 648.941406 179.765625 661.964844 189.914062 664.855469 204.359375 C 667.734375 223.207031 653.277344 237.652344 635.898438 237.652344 L 553.367188 237.652344 C 546.140625 237.652344 540.328125 243.464844 540.328125 250.691406 L 540.328125 469.359375 C 540.328125 476.589844 546.140625 482.386719 553.367188 482.386719 L 772.035156 482.386719 C 779.265625 482.386719 785.078125 476.589844 785.078125 469.359375 L 785.078125 389.707031 C 785.078125 375.207031 795.222656 362.167969 809.667969 359.289062 C 828.519531 356.414062 842.960938 370.855469 842.960938 388.234375 L 842.960938 470.777344 C 842.960938 477.992188 848.773438 483.804688 856 483.804688 L 1009.5 483.804688 C 1016.730469 483.804688 1024 476.589844 1022.539062 469.304688 C 1003.691406 220.277344 805.332031 21.917969 556.246094 0.1875 C 549.015625 0.1875 541.746094 6 541.746094 13.214844 L 541.746094 166.726562 C 541.746094 173.957031 547.558594 179.765625 554.785156 179.765625 Z M 554.785156 179.765625 "/>
<path style=" stroke:none;fill-rule:evenodd;fill:rgb(0%,0%,0%);fill-opacity:1;" d="M 179.765625 470.820312 L 179.765625 391.164062 C 179.765625 376.667969 189.914062 363.640625 204.359375 360.75 C 223.207031 357.871094 237.652344 372.328125 237.652344 389.707031 L 237.652344 472.238281 C 237.652344 479.46875 243.464844 485.277344 250.691406 485.277344 L 469.359375 485.277344 C 476.589844 485.277344 482.386719 479.46875 482.386719 472.238281 L 482.386719 250.691406 C 482.386719 243.464844 476.589844 237.652344 469.359375 237.652344 L 389.707031 237.652344 C 375.207031 237.652344 362.167969 227.503906 359.289062 213.0625 C 356.414062 194.210938 370.855469 179.765625 388.234375 179.765625 L 470.777344 179.765625 C 477.992188 179.765625 483.804688 173.957031 483.804688 166.726562 L 483.804688 13.214844 C 483.804688 6 476.589844 -1.269531 469.304688 0.1875 C 220.277344 21.917969 21.917969 220.277344 0.1875 469.359375 C 0.1875 476.589844 6 483.859375 13.214844 483.859375 L 166.726562 483.859375 C 173.957031 483.859375 179.765625 478.050781 179.765625 470.820312 Z M 179.765625 470.820312 "/>
<path style=" stroke:none;fill-rule:evenodd;fill:rgb(0%,0%,0%);fill-opacity:1;" d="M 845.839844 554.785156 L 845.839844 634.441406 C 845.839844 648.941406 835.691406 661.964844 821.246094 664.855469 C 802.398438 667.734375 787.953125 653.277344 787.953125 635.898438 L 787.953125 553.367188 C 787.953125 546.140625 782.144531 540.328125 774.914062 540.328125 L 554.785156 540.328125 C 547.558594 540.328125 541.746094 546.140625 541.746094 553.367188 L 541.746094 772.035156 C 541.746094 779.265625 547.558594 785.078125 554.785156 785.078125 L 634.441406 785.078125 C 648.941406 785.078125 661.964844 795.222656 664.855469 809.667969 C 667.734375 828.519531 653.277344 842.960938 635.898438 842.960938 L 553.367188 842.960938 C 546.140625 842.960938 540.328125 848.773438 540.328125 856 L 540.328125 1009.5 C 540.328125 1016.730469 547.558594 1024 554.828125 1022.539062 C 803.914062 1002.285156 1003.746094 802.453125 1024 553.367188 C 1024 546.140625 1018.1875 538.867188 1010.972656 538.867188 L 858.878906 538.867188 C 851.648438 541.746094 845.839844 547.558594 845.839844 554.785156 Z M 845.839844 554.785156 "/>
<path style=" stroke:none;fill-rule:evenodd;fill:rgb(0%,0%,0%);fill-opacity:1;" d="M 470.820312 845.839844 L 391.164062 845.839844 C 376.667969 845.839844 363.640625 835.691406 360.75 821.246094 C 357.871094 802.398438 372.328125 787.953125 389.707031 787.953125 L 472.238281 787.953125 C 479.46875 787.953125 485.277344 782.144531 485.277344 774.914062 L 485.277344 554.785156 C 485.277344 547.558594 479.46875 541.746094 472.238281 541.746094 L 250.691406 541.746094 C 243.464844 541.746094 237.652344 547.558594 237.652344 554.785156 L 237.652344 634.441406 C 237.652344 648.941406 227.503906 661.964844 213.0625 664.855469 C 194.210938 667.734375 179.765625 653.277344 179.765625 635.898438 L 179.765625 553.367188 C 179.765625 546.140625 173.957031 540.328125 166.726562 540.328125 L 13.214844 540.328125 C 6 540.328125 -1.269531 547.558594 0.1875 554.828125 C 20.441406 803.914062 220.277344 1003.746094 469.359375 1024 C 476.589844 1024 483.859375 1018.1875 483.859375 1010.972656 L 483.859375 858.878906 C 483.859375 851.648438 478.050781 845.839844 470.820312 845.839844 Z M 470.820312 845.839844 "/>
</g>
</svg>
