<?xml version="1.0" encoding="UTF-8" standalone="no"?>
<svg width="1024" height="1024" viewBox="0 0 1024 1024" version="1.1" xmlns="http://www.w3.org/2000/svg">
    <path id="path5547"
          d="m 607.6917,1021.5638 c -6.50541,-2.0572 -206.66926,-107.64825 -211.77796,-111.71777 -1.78553,-1.42234 -5.1337,-6.73494 -7.44038,-11.80576 -3.93466,-8.64975 -4.19705,-19.91677 -4.24456,-182.25929 L 384.17819,542.74139 249.00793,300.89503 C 174.66429,167.87953 111.76956,54.270112 109.24185,48.42965 105.91602,40.745051 105.08386,35.476726 106.23048,29.364762 108.3646,17.988925 119.72152,5.5172556 130.6184,2.5830307 136.49376,1.0009618 263.96311,0.41840242 515.90605,0.82219248 887.71268,1.4180886 892.51119,1.4831779 900.23977,6.0354666 912.34091,13.163283 917.50502,21.618131 917.47992,34.261675 917.45918,44.320276 906.55524,65.589708 784.54744,293.54318 l -132.91074,248.32404 -0.62,227.64235 c -0.60716,222.91757 -0.7157,227.80477 -5.22987,235.46863 -8.32335,14.1309 -24.11543,21.0063 -38.09513,16.5856 z m -24.75076,-293.51153 0.613,-203.40936 120.75903,-225.88235 C 770.73045,174.52526 825.50475,72.100292 826.03364,71.149512 c 0.52889,-0.95078 -140.16081,-1.728691 -312.64379,-1.728691 -172.48298,0 -313.60542,0.842534 -313.60542,1.872297 0,1.029765 56.78752,103.454732 126.19448,227.611032 l 126.19448,225.73876 1.15246,170.15538 1.15246,170.15535 62.23289,33.11576 c 34.22809,18.21365 62.99426,33.17797 63.92482,33.25398 0.93057,0.0761 1.96778,-91.39596 2.30492,-203.27111 z"
          style="stroke-width:2.30492187"/>
</svg>
