<?xml version="1.0" encoding="UTF-8"?>
<svg xmlns="http://www.w3.org/2000/svg" xmlns:xlink="http://www.w3.org/1999/xlink" width="1024pt" height="1024pt" viewBox="0 0 1024 1024" version="1.1">
<g id="surface1">
<path style="fill:none;stroke-width:68.180145;stroke-linecap:butt;stroke-linejoin:miter;stroke:rgb(0%,0%,0%);stroke-opacity:1;stroke-miterlimit:4;" d="M 750.080109 280.30014 C 750.080109 409.9617 643.486023 515.068054 511.989594 515.068054 C 380.496979 515.068054 273.902893 409.9617 273.902893 280.30014 C 273.902893 150.642395 380.496979 45.532227 511.989594 45.532227 C 643.486023 45.532227 750.080109 150.642395 750.080109 280.30014 Z M 750.080109 280.30014 " transform="matrix(1.024,0,0,1.024,0,0)"/>
<path style="fill:none;stroke-width:68.180145;stroke-linecap:butt;stroke-linejoin:miter;stroke:rgb(0%,0%,0%);stroke-opacity:1;stroke-miterlimit:4;" d="M 940.551758 937.656403 C 1056.152344 937.656403 748.680115 515.068054 511.989594 515.068054 C 275.302887 515.068054 -101.139069 900.318146 83.431244 937.656403 C 268.001556 974.990845 824.951172 937.656403 940.551758 937.656403 Z M 940.551758 937.656403 " transform="matrix(1.024,0,0,1.024,0,0)"/>
</g>
</svg>
