<?xml version="1.0" encoding="UTF-8"?>
<svg xmlns="http://www.w3.org/2000/svg" xmlns:xlink="http://www.w3.org/1999/xlink" width="1024pt" height="1024pt" viewBox="0 0 1024 1024" version="1.1">
<g id="surface1">
<path style=" stroke:none;fill-rule:evenodd;fill:rgb(0%,0%,0%);fill-opacity:1;" d="M 562.882812 526.765625 C 562.882812 594.546875 461.179688 594.546875 461.179688 526.765625 C 461.179688 458.96875 562.882812 458.96875 562.882812 526.765625 "/>
<path style=" stroke:none;fill-rule:evenodd;fill:rgb(0%,0%,0%);fill-opacity:1;" d="M 975.84375 330.738281 L 766.3125 330.738281 L 720.316406 376.71875 L 712.976562 384 L 682.511719 414.460938 L 869.183594 414.460938 L 512.03125 696.839844 L 154.878906 414.460938 L 341.425781 414.460938 L 311.023438 384.058594 L 303.742188 376.71875 L 257.746094 330.738281 L 48.15625 330.738281 C 25.644531 330.738281 7.316406 348.214844 7.316406 369.601562 L 7.316406 985.011719 C 7.378906 1006.523438 25.644531 1024 48.15625 1024 L 975.84375 1024 C 998.371094 1024 1016.683594 1006.523438 1016.683594 985.074219 L 1016.683594 369.664062 C 1016.683594 348.214844 998.371094 330.738281 975.84375 330.738281 Z M 97.746094 459.621094 L 364.53125 670.519531 L 97.746094 893.929688 Z M 152.980469 940.261719 L 421.359375 715.558594 L 511.96875 787.207031 L 600.320312 717.335938 L 870.546875 940.261719 Z M 926.3125 894.28125 L 657.332031 672.292969 L 926.3125 459.621094 Z M 926.3125 894.28125 "/>
<path style=" stroke:none;fill-rule:evenodd;fill:rgb(0%,0%,0%);fill-opacity:1;" d="M 360.511719 384.058594 L 360.449219 384.058594 L 417.277344 440.886719 C 469.539062 388.625 554.339844 388.625 606.660156 440.886719 L 663.550781 384 L 663.488281 384 C 579.886719 300.457031 444.171875 300.457031 360.507812 384.0625 Z M 360.511719 384.058594 "/>
<path style=" stroke:none;fill-rule:evenodd;fill:rgb(0%,0%,0%);fill-opacity:1;" d="M 133.304688 156.933594 L 190.074219 213.699219 C 367.914062 35.917969 656.207031 35.980469 833.925781 213.699219 L 890.753906 156.933594 C 681.574219 -52.3125 342.425781 -52.3125 133.304688 156.933594 Z M 133.304688 156.933594 "/>
<path style=" stroke:none;fill-rule:evenodd;fill:rgb(0%,0%,0%);fill-opacity:1;" d="M 246.960938 270.464844 L 303.742188 327.292969 C 418.765625 212.273438 605.296875 212.273438 720.316406 327.292969 L 777.160156 270.464844 C 630.722656 124.105469 393.339844 124.105469 246.960938 270.464844 Z M 246.960938 270.464844 "/>
</g>
</svg>
