<?xml version="1.0" encoding="UTF-8" standalone="no"?>
<svg
   xmlns:dc="http://purl.org/dc/elements/1.1/"
   xmlns:cc="http://creativecommons.org/ns#"
   xmlns:rdf="http://www.w3.org/1999/02/22-rdf-syntax-ns#"
   xmlns:svg="http://www.w3.org/2000/svg"
   xmlns="http://www.w3.org/2000/svg"
   xmlns:sodipodi="http://sodipodi.sourceforge.net/DTD/sodipodi-0.dtd"
   xmlns:inkscape="http://www.inkscape.org/namespaces/inkscape"
   width="1000"
   height="1000"
   viewBox="0 0 1000 1000"
   version="1.1"
   id="svg2"
   inkscape:version="0.91 r13725"
   sodipodi:docname="module-other.svg">
  <metadata
     id="metadata16">
    <rdf:RDF>
      <cc:Work
         rdf:about="">
        <dc:format>image/svg+xml</dc:format>
        <dc:type
           rdf:resource="http://purl.org/dc/dcmitype/StillImage" />
        <dc:title>acc_other</dc:title>
      </cc:Work>
    </rdf:RDF>
  </metadata>
  <sodipodi:namedview
     pagecolor="#ffffff"
     bordercolor="#666666"
     borderopacity="1"
     objecttolerance="10"
     gridtolerance="10"
     guidetolerance="10"
     inkscape:pageopacity="0"
     inkscape:pageshadow="2"
     inkscape:window-width="1366"
     inkscape:window-height="703"
     id="namedview14"
     showgrid="false"
     inkscape:zoom="0.513"
     inkscape:cx="500"
     inkscape:cy="500"
     inkscape:window-x="0"
     inkscape:window-y="0"
     inkscape:window-maximized="1"
     inkscape:current-layer="svg2" />
  <!-- Generator: Sketch 3.8.3 (29802) - http://www.bohemiancoding.com/sketch -->
  <title
     id="title4">acc_other</title>
  <desc
     id="desc6">Created with Sketch.</desc>
  <defs
     id="defs8" />
  <path
     style="fill:#000000;fill-opacity:1;fill-rule:evenodd;stroke:none;stroke-width:1"
     d="m 502.14844,4.4e-6 c -144.43588,0 -263.28811,118.8522256 -263.28811,263.2881056 0,43.34559 36.67931,79.98043 81.12113,79.98043 45.55286,0 81.13592,-36.69411 81.13592,-79.98043 0,-55.55226 45.53803,-101.0903 101.09029,-101.0903 54.45605,0 98.89786,45.53804 98.89786,101.0903 0,51.10808 -22.22091,76.67695 -63.31476,123.32602 -51.09329,52.18952 -118.85222,124.40746 -118.85222,262.19186 0,46.63428 36.6941,82.23217 82.23217,82.23217 44.44181,0 79.96561,-35.53862 79.96561,-82.23217 0,-74.42521 31.13892,-107.75657 73.3142,-152.19838 C 702.25509,444.4181 761.11087,381.05891 761.11087,262.19188 763.24408,118.85223 646.58433,4.4e-6 502.14844,4.4e-6 l 0,0 z m 0,804.4115856 c -54.45604,0 -98.89785,42.23455 -98.89785,97.78681 0,54.45601 44.44181,97.8016 98.89785,97.8016 52.2043,0 97.8016,-43.34559 97.8016,-97.8016 0,-54.44121 -44.44181,-97.78681 -97.8016,-97.78681 l 0,0 z"
     id="path12"
     inkscape:connector-curvature="0" />
</svg>
