<?xml version="1.0" encoding="UTF-8"?>
<svg xmlns="http://www.w3.org/2000/svg" xmlns:xlink="http://www.w3.org/1999/xlink" width="1024pt" height="1024pt" viewBox="0 0 1024 1024" version="1.1">
<g id="surface1">
<path style=" stroke:none;fill-rule:evenodd;fill:rgb(0%,0%,0%);fill-opacity:1;" d="M 943.460938 275.292969 C 943.460938 275.089844 943.410156 274.828125 943.410156 274.625 C 942.679688 264.808594 937.421875 255.925781 928.917969 250.953125 L 526.6875 15.976562 C 517.503906 10.675781 506.207031 10.675781 497.109375 15.976562 L 94.945312 250.953125 C 86.441406 255.925781 81.183594 264.808594 80.453125 274.625 C 80.453125 274.828125 80.386719 275.019531 80.386719 275.292969 C 80.386719 275.828125 80.199219 276.363281 80.199219 276.914062 L 80.199219 746.964844 C 80.199219 757.65625 85.84375 767.554688 95.011719 772.929688 L 497.175781 1007.953125 C 497.515625 1008.160156 497.90625 1008.230469 498.25 1008.4375 C 499.828125 1009.316406 501.496094 1009.984375 503.300781 1010.519531 C 503.894531 1010.726562 504.421875 1010.914062 505.019531 1011.054688 C 507.28125 1011.585938 509.609375 1012 511.992188 1012 C 514.390625 1012 516.71875 1011.585938 518.964844 1011.054688 C 519.578125 1010.917969 520.105469 1010.726562 520.699219 1010.519531 C 522.433594 1009.984375 524.152344 1009.246094 525.75 1008.4375 C 526.074219 1008.230469 526.484375 1008.160156 526.804688 1007.953125 L 928.988281 772.929688 C 938.15625 767.625 943.800781 757.726562 943.800781 746.964844 L 943.800781 276.914062 C 943.667969 276.363281 943.460938 275.828125 943.460938 275.292969 Z M 511.921875 76.507812 L 856.425781 277.84375 L 511.921875 479.128906 L 167.371094 277.773438 Z M 139.320312 330.574219 L 460.046875 518 C 458.769531 518.117188 457.578125 518.535156 456.457031 519.273438 L 423.035156 538.832031 C 418.304688 541.601562 416.722656 547.714844 419.445312 552.484375 C 421.230469 555.71875 424.566406 557.476562 428.015625 557.476562 C 429.667969 557.476562 431.402344 557.0625 432.933594 556.113281 L 466.355469 536.558594 C 470.726562 533.992188 472.257812 528.621094 470.335938 524.042969 L 482.363281 531.101562 L 482.363281 930.226562 L 139.320312 729.683594 Z M 541.503906 930.089844 L 541.503906 530.964844 L 553.527344 523.90625 C 551.589844 528.484375 553.121094 533.925781 557.507812 536.488281 L 590.929688 556.046875 C 592.460938 556.992188 594.179688 557.40625 595.847656 557.40625 C 599.230469 557.40625 602.546875 555.582031 604.417969 552.429688 C 607.140625 547.644531 605.542969 541.535156 600.828125 538.777344 L 567.40625 519.203125 C 566.285156 518.535156 565.007812 518.121094 563.816406 517.929688 L 884.542969 330.503906 L 884.542969 729.628906 Z M 541.503906 930.089844 "/>
<path style=" stroke:none;fill-rule:evenodd;fill:rgb(0%,0%,0%);fill-opacity:1;" d="M 801.554688 656.050781 L 768.132812 636.476562 C 763.421875 633.652344 757.363281 635.339844 754.644531 640.109375 C 751.921875 644.894531 753.503906 651.007812 758.230469 653.761719 L 791.65625 673.335938 C 793.1875 674.28125 794.902344 674.679688 796.570312 674.679688 C 799.957031 674.679688 803.273438 672.871094 805.144531 669.703125 C 807.933594 664.933594 806.265625 658.804688 801.554688 656.050781 Z M 801.554688 656.050781 "/>
<path style=" stroke:none;fill-rule:evenodd;fill:rgb(0%,0%,0%);fill-opacity:1;" d="M 868.519531 695.199219 L 835.097656 675.625 C 830.386719 672.871094 824.347656 674.472656 821.609375 679.257812 C 818.886719 684.027344 820.484375 690.15625 825.195312 692.910156 L 858.621094 712.464844 C 860.152344 713.414062 861.886719 713.828125 863.535156 713.828125 C 866.921875 713.828125 870.253906 712.003906 872.109375 708.851562 C 874.828125 703.996094 873.246094 697.953125 868.519531 695.199219 Z M 868.519531 695.199219 "/>
<path style=" stroke:none;fill-rule:evenodd;fill:rgb(0%,0%,0%);fill-opacity:1;" d="M 734.640625 616.988281 L 701.21875 597.414062 C 696.507812 594.660156 690.449219 596.261719 687.730469 601.046875 C 685.007812 605.816406 686.605469 611.945312 691.316406 614.699219 L 724.742188 634.257812 C 726.273438 635.203125 727.988281 635.617188 729.65625 635.617188 C 733.042969 635.617188 736.375 633.792969 738.230469 630.640625 C 741.019531 625.855469 739.351562 619.742188 734.640625 616.988281 Z M 734.640625 616.988281 "/>
<path style=" stroke:none;fill-rule:evenodd;fill:rgb(0%,0%,0%);fill-opacity:1;" d="M 667.726562 577.910156 L 634.320312 558.335938 C 629.59375 555.511719 623.554688 557.199219 620.832031 561.96875 C 618.109375 566.753906 619.691406 572.867188 624.421875 575.621094 L 657.828125 595.195312 C 659.359375 596.140625 661.09375 596.539062 662.761719 596.539062 C 666.144531 596.539062 669.460938 594.730469 671.316406 591.5625 C 674.121094 586.722656 672.457031 580.59375 667.726562 577.910156 Z M 667.726562 577.910156 "/>
<path style=" stroke:none;fill-rule:evenodd;fill:rgb(0%,0%,0%);fill-opacity:1;" d="M 188.816406 675.625 L 155.394531 695.128906 C 150.683594 697.886719 149.085938 703.996094 151.804688 708.78125 C 153.609375 712.003906 156.925781 713.757812 160.378906 713.757812 C 162.046875 713.757812 163.78125 713.34375 165.292969 712.414062 L 198.71875 692.910156 C 203.445312 690.15625 205.027344 684.027344 202.304688 679.257812 C 199.515625 674.472656 193.480469 672.871094 188.816406 675.625 Z M 188.816406 675.625 "/>
<path style=" stroke:none;fill-rule:evenodd;fill:rgb(0%,0%,0%);fill-opacity:1;" d="M 389.542969 558.335938 L 356.050781 577.910156 C 351.339844 580.664062 349.742188 586.792969 352.464844 591.5625 C 354.265625 594.78125 357.582031 596.539062 361.035156 596.539062 C 362.703125 596.539062 364.421875 596.140625 365.949219 595.195312 L 399.441406 575.621094 C 404.152344 572.867188 405.753906 566.753906 403.03125 561.96875 C 400.242188 557.199219 394.253906 555.511719 389.542969 558.335938 Z M 389.542969 558.335938 "/>
<path style=" stroke:none;fill-rule:evenodd;fill:rgb(0%,0%,0%);fill-opacity:1;" d="M 255.730469 636.546875 L 222.308594 656.050781 C 217.597656 658.804688 216 664.933594 218.71875 669.703125 C 220.523438 672.941406 223.839844 674.679688 227.292969 674.679688 C 228.960938 674.679688 230.679688 674.28125 232.207031 673.335938 L 265.632812 653.832031 C 270.34375 651.074219 271.941406 644.964844 269.21875 640.179688 C 266.429688 635.410156 260.375 633.722656 255.730469 636.546875 Z M 255.730469 636.546875 "/>
<path style=" stroke:none;fill-rule:evenodd;fill:rgb(0%,0%,0%);fill-opacity:1;" d="M 322.628906 597.414062 L 289.222656 616.988281 C 284.496094 619.742188 282.914062 625.855469 285.632812 630.640625 C 287.421875 633.859375 290.738281 635.617188 294.207031 635.617188 C 295.855469 635.617188 297.589844 635.203125 299.121094 634.257812 L 332.527344 614.699219 C 337.257812 611.945312 338.855469 605.816406 336.117188 601.046875 C 333.328125 596.261719 327.289062 594.660156 322.628906 597.414062 Z M 322.628906 597.414062 "/>
</g>
</svg>
