<?xml version="1.0" encoding="UTF-8" standalone="no"?>
<svg width="1024" height="1024" viewBox="0 0 1024 1024" version="1.1" xmlns="http://www.w3.org/2000/svg">
    <path id="path5821"
          d="M 256.96039,127.97543 V 66.042048 h 381.37927 381.37924 v 61.933382 61.93339 H 638.33966 256.96039 Z"
          style="stroke-width:6.5193038"/>
    <path id="path5823"
          d="M 256.96039,382.22828 V 320.2949 h 381.37927 381.37924 v 61.93338 61.93339 H 638.33966 256.96039 Z"
          style="stroke-width:6.5193038"/>
    <path id="path5825"
          d="M 2.7075413,382.22828 V 320.2949 H 64.640927 126.57432 v 61.93338 61.93339 H 64.640927 2.7075413 Z"
          style="stroke-width:6.5193038"/>
    <path id="path5841"
          d="m 257.01354,639.54304 v -63.38535 h 382.61705 382.61701 v 63.38535 63.38536 H 639.63059 257.01354 Z"
          style="stroke-width:2.30492187"/>
    <path id="path5843"
          d="M 1.1672033,639.54304 V 576.15769 H 64.552557 127.93791 v 63.38535 63.38536 H 64.552557 1.1672033 Z"
          style="stroke-width:2.30492187"/>
    <path id="path5845"
          d="M 1.1672033,127.85037 V 64.465008 H 64.552557 127.93791 v 63.385362 63.38535 H 64.552557 1.1672033 Z"
          style="stroke-width:2.30492187"/>
    <path id="path5847"
          d="M 1.1672033,895.38938 V 832.00403 H 64.552557 127.93791 v 63.38535 63.38532 H 64.552557 1.1672033 Z"
          style="stroke-width:2.30492187"/>
    <path id="path5849"
          d="m 257.01354,895.38938 v -63.38535 h 382.61705 382.61701 v 63.38535 63.38532 H 639.63059 257.01354 Z"
          style="stroke-width:2.30492187"/>
</svg>
