<?xml version="1.0" encoding="UTF-8" standalone="no"?>
<svg
   xmlns:dc="http://purl.org/dc/elements/1.1/"
   xmlns:cc="http://creativecommons.org/ns#"
   xmlns:rdf="http://www.w3.org/1999/02/22-rdf-syntax-ns#"
   xmlns:svg="http://www.w3.org/2000/svg"
   xmlns="http://www.w3.org/2000/svg"
   xmlns:sodipodi="http://sodipodi.sourceforge.net/DTD/sodipodi-0.dtd"
   xmlns:inkscape="http://www.inkscape.org/namespaces/inkscape"
   width="1000"
   height="1000"
   viewBox="0 0 1000 1000"
   version="1.1"
   id="svg2"
   inkscape:version="0.91 r13725"
   sodipodi:docname="module-targets.svg">
  <metadata
     id="metadata19">
    <rdf:RDF>
      <cc:Work
         rdf:about="">
        <dc:format>image/svg+xml</dc:format>
        <dc:type
           rdf:resource="http://purl.org/dc/dcmitype/StillImage" />
        <dc:title>acc_targets</dc:title>
      </cc:Work>
    </rdf:RDF>
  </metadata>
  <sodipodi:namedview
     pagecolor="#ffffff"
     bordercolor="#666666"
     borderopacity="1"
     objecttolerance="10"
     gridtolerance="10"
     guidetolerance="10"
     inkscape:pageopacity="0"
     inkscape:pageshadow="2"
     inkscape:window-width="1366"
     inkscape:window-height="703"
     id="namedview17"
     showgrid="false"
     inkscape:zoom="0.513"
     inkscape:cx="500"
     inkscape:cy="500"
     inkscape:window-x="0"
     inkscape:window-y="0"
     inkscape:window-maximized="1"
     inkscape:current-layer="svg2" />
  <!-- Generator: Sketch 3.8.3 (29802) - http://www.bohemiancoding.com/sketch -->
  <title
     id="title4">acc_targets</title>
  <desc
     id="desc6">Created with Sketch.</desc>
  <defs
     id="defs8" />
  <path
     style="fill:#000000;fill-rule:evenodd;stroke:none;stroke-width:1;fill-opacity:1"
     inkscape:connector-curvature="0"
     id="Fill-1"
     d="m 541.78273,175.55372 77.78819,0 c 14.15936,0 26.87969,9.91019 29.70342,24.01524 2.81015,18.40852 -11.30848,32.51357 -28.27798,32.51357 l -80.59835,0 c -7.05931,0 -12.73391,5.6746 -12.73391,12.73391 l 0,213.54421 c 0,7.05932 5.6746,12.72034 12.73391,12.72034 l 213.54422,0 c 7.05931,0 12.73391,-5.66102 12.73391,-12.72034 l 0,-77.78819 c 0,-14.15936 9.91019,-26.89327 24.01524,-29.70342 18.40852,-2.81015 32.51357,11.2949 32.51357,28.2644 l 0,80.61192 c 0,7.04574 5.6746,12.72034 12.73391,12.72034 l 149.90179,0 c 7.05932,0 14.15935,-7.04573 12.73392,-14.15935 C 980.16605,215.11302 786.45579,21.402765 543.20816,0.1840996 c -7.05931,0 -14.15935,5.6746015 -14.15935,12.7203384 l 0,149.915372 c 0,7.05931 5.6746,12.73391 12.73392,12.73391 l 0,0 z" />
  <path
     style="fill:#000000;fill-rule:evenodd;stroke:none;stroke-width:1;fill-opacity:1"
     inkscape:connector-curvature="0"
     id="Fill-2"
     d="m 175.55372,459.78609 0,-77.7882 c 0,-14.15935 9.91019,-26.87969 24.01524,-29.70341 18.40852,-2.81015 32.51357,11.30847 32.51357,28.27798 l 0,80.59834 c 0,7.05932 5.6746,12.73392 12.73391,12.73392 l 213.54421,0 c 7.05932,0 12.72034,-5.6746 12.72034,-12.73392 l 0,-216.35436 c 0,-7.05931 -5.66102,-12.73391 -12.72034,-12.73391 l -77.78819,0 c -14.15936,0 -26.89327,-9.91019 -29.70342,-24.01524 -2.81015,-18.40852 11.2949,-32.51357 28.2644,-32.51357 l 80.61192,0 c 7.04574,0 12.72034,-5.6746 12.72034,-12.73391 l 0,-149.915372 c 0,-7.0457369 -7.04573,-14.1457766 -14.15935,-12.7203384 C 215.11302,21.402765 21.402765,215.11302 0.1840996,458.36065 c 0,7.05932 5.6746015,14.15936 12.7203384,14.15936 l 149.915372,0 c 7.05931,0 12.73391,-5.67461 12.73391,-12.73392 l 0,0 z" />
  <path
     style="fill:#000000;fill-rule:evenodd;stroke:none;stroke-width:1;fill-opacity:1"
     inkscape:connector-curvature="0"
     id="Fill-3"
     d="m 826.0151,541.78273 0,77.78819 c 0,14.15936 -9.91019,26.87969 -24.01524,29.70342 -18.40852,2.81015 -32.51357,-11.30848 -32.51357,-28.27798 l 0,-80.59835 c 0,-7.05931 -5.6746,-12.73391 -12.73391,-12.73391 l -214.96965,0 c -7.05932,0 -12.73392,5.6746 -12.73392,12.73391 l 0,213.54422 c 0,7.05931 5.6746,12.73391 12.73392,12.73391 l 77.78819,0 c 14.15936,0 26.87969,9.91019 29.70342,24.01524 2.81015,18.40852 -11.30848,32.51357 -28.27798,32.51357 l -80.59835,0 c -7.05931,0 -12.73391,5.6746 -12.73391,12.73391 l 0,149.90179 c 0,7.05932 7.05931,14.15935 14.15935,12.73392 C 785.07108,978.79492 980.22035,783.64564 1000,540.39801 c 0,-7.05931 -5.6746,-14.15935 -12.72033,-14.15935 l -148.53066,0 c -7.05931,2.81015 -12.73391,8.48475 -12.73391,15.54407 l 0,0 z" />
  <path
     style="fill:#000000;fill-rule:evenodd;stroke:none;stroke-width:1;fill-opacity:1"
     inkscape:connector-curvature="0"
     id="Fill-4"
     d="m 459.78609,826.0151 -77.7882,0 c -14.15935,0 -26.87969,-9.91019 -29.70341,-24.01524 -2.81015,-18.40852 11.30847,-32.51357 28.27798,-32.51357 l 80.59834,0 c 7.05932,0 12.73392,-5.6746 12.73392,-12.73391 l 0,-214.96965 c 0,-7.05932 -5.6746,-12.73392 -12.73392,-12.73392 l -216.35436,0 c -7.05931,0 -12.73391,5.6746 -12.73391,12.73392 l 0,77.78819 c 0,14.15936 -9.91019,26.87969 -24.01524,29.70342 -18.40852,2.81015 -32.51357,-11.30848 -32.51357,-28.27798 l 0,-80.59835 c 0,-7.05931 -5.6746,-12.73391 -12.73391,-12.73391 l -149.915372,0 c -7.0457369,0 -14.1457766,7.05931 -12.7203384,14.15935 C 19.963751,785.07108 215.11302,980.22035 458.36065,1000 c 7.05932,0 14.15936,-5.6746 14.15936,-12.72033 l 0,-148.53066 c 0,-7.05931 -5.67461,-12.73391 -12.73392,-12.73391 l 0,0 z" />
</svg>
