<?xml version="1.0" encoding="UTF-8"?>
<svg xmlns="http://www.w3.org/2000/svg" xmlns:xlink="http://www.w3.org/1999/xlink" width="1024pt" height="1024pt" viewBox="0 0 1024 1024" version="1.1">
<g id="surface1">
<path style=" stroke:none;fill-rule:evenodd;fill:rgb(0%,0%,0%);fill-opacity:1;" d="M 602.746094 793.136719 C 602.746094 797.363281 602.746094 802.707031 593.03125 802.835938 L 309.320312 802.835938 C 305.109375 802.835938 299.800781 802.835938 299.507812 793.136719 L 299.507812 667.554688 L 602.734375 733.375 L 602.734375 793.136719 Z M 1014.4375 165.195312 C 1008.40625 160.34375 1000.492188 158.484375 992.820312 160.179688 L 91.816406 355.992188 L 91.816406 347.320312 C 91.816406 333.140625 80.335938 321.660156 66.132812 321.660156 L 25.613281 321.660156 C 11.398438 321.660156 0 333.140625 0 347.320312 L 0 631 C 0 645.191406 11.410156 656.765625 25.613281 656.765625 L 66.132812 656.765625 C 80.335938 656.765625 91.816406 645.191406 91.816406 631 L 91.816406 622.324219 L 237.933594 654.101562 L 237.933594 793.148438 C 237.933594 821.789062 256.957031 864.433594 309.320312 864.433594 L 593.03125 864.433594 C 621.769531 864.433594 664.414062 845.507812 664.414062 793.148438 L 664.414062 746.804688 L 992.820312 818.246094 C 994.667969 818.574219 996.574219 818.796875 998.351562 818.796875 C 1004.113281 818.796875 1009.738281 816.808594 1014.4375 813.113281 C 1020.457031 808.261719 1024 800.8125 1024 793.148438 L 1024 185.183594 C 1024 177.398438 1020.445312 170.117188 1014.4375 165.195312 Z M 1014.4375 165.195312 "/>
</g>
</svg>
