<?xml version="1.0" encoding="UTF-8"?>
<svg xmlns="http://www.w3.org/2000/svg" xmlns:xlink="http://www.w3.org/1999/xlink" width="1024pt" height="1024pt" viewBox="0 0 1024 1024" version="1.1">
<g id="surface1">
<path style=" stroke:none;fill-rule:evenodd;fill:rgb(0%,0%,0%);fill-opacity:1;" d="M 571.824219 0 C 837.363281 0 1007.222656 181.863281 1007.222656 437.808594 C 1007.222656 660.363281 854.144531 770.394531 722.488281 770.394531 C 651.933594 770.394531 593.316406 736.910156 578.96875 679.425781 L 576.613281 679.425781 C 545.484375 727.332031 480.871094 758.457031 433.039062 758.457031 C 334.925781 758.457031 270.382812 684.214844 270.382812 574.179688 C 270.382812 421.105469 380.417969 275.171875 516.789062 275.171875 C 555.042969 275.171875 586.117188 291.878906 605.308594 334.925781 L 607.667969 334.925781 L 626.804688 284.734375 L 751.257812 284.734375 L 693.773438 557.476562 C 679.425781 617.242188 696.203125 646.011719 744.039062 646.011719 C 815.871094 646.011719 880.410156 564.695312 880.410156 442.597656 C 880.410156 279.960938 796.660156 122.023438 555.042969 122.023438 C 354.0625 122.023438 153.078125 294.308594 153.078125 559.90625 C 153.078125 796.734375 320.574219 901.976562 500.007812 901.976562 C 557.402344 901.976562 629.160156 882.839844 676.996094 858.914062 L 720.128906 968.945312 C 645.941406 1007.222656 569.410156 1024 483.304688 1024 C 241.617188 1024 16.777344 880.410156 16.777344 564.695312 C 16.777344 224.910156 267.953125 0 571.824219 0 Z M 478.515625 631.59375 C 500.007812 631.59375 519.148438 619.675781 545.484375 583.832031 L 571.824219 433.039062 C 563.398438 416.332031 545.484375 404.324219 523.917969 404.324219 C 461.734375 404.324219 423.460938 497.726562 423.460938 562.265625 C 423.460938 606.535156 442.597656 631.59375 478.515625 631.59375 Z M 478.515625 631.59375 "/>
</g>
</svg>
