<?xml version="1.0" encoding="UTF-8" standalone="no"?>
<svg
   xmlns:dc="http://purl.org/dc/elements/1.1/"
   xmlns:cc="http://creativecommons.org/ns#"
   xmlns:rdf="http://www.w3.org/1999/02/22-rdf-syntax-ns#"
   xmlns:svg="http://www.w3.org/2000/svg"
   xmlns="http://www.w3.org/2000/svg"
   xmlns:sodipodi="http://sodipodi.sourceforge.net/DTD/sodipodi-0.dtd"
   xmlns:inkscape="http://www.inkscape.org/namespaces/inkscape"
   width="1000"
   height="1000"
   viewBox="0 0 1000 1000"
   version="1.1"
   id="svg2"
   inkscape:version="0.91 r13725"
   sodipodi:docname="module-overview.svg">
  <metadata
     id="metadata16">
    <rdf:RDF>
      <cc:Work
         rdf:about="">
        <dc:format>image/svg+xml</dc:format>
        <dc:type
           rdf:resource="http://purl.org/dc/dcmitype/StillImage" />
        <dc:title>acc_overview</dc:title>
      </cc:Work>
    </rdf:RDF>
  </metadata>
  <sodipodi:namedview
     pagecolor="#ffffff"
     bordercolor="#666666"
     borderopacity="1"
     objecttolerance="10"
     gridtolerance="10"
     guidetolerance="10"
     inkscape:pageopacity="0"
     inkscape:pageshadow="2"
     inkscape:window-width="1366"
     inkscape:window-height="703"
     id="namedview14"
     showgrid="false"
     inkscape:zoom="0.513"
     inkscape:cx="500"
     inkscape:cy="500"
     inkscape:window-x="0"
     inkscape:window-y="0"
     inkscape:window-maximized="1"
     inkscape:current-layer="svg2" />
  <!-- Generator: Sketch 3.8.3 (29802) - http://www.bohemiancoding.com/sketch -->
  <title
     id="title4">acc_overview</title>
  <desc
     id="desc6">Created with Sketch.</desc>
  <defs
     id="defs8" />
  <path
     style="fill:#000000;fill-rule:evenodd;stroke:none;stroke-width:1;fill-opacity:1"
     d="M 853.61208,146.38794 C 759.33536,52.111248 634.00038,-1.96704e-6 500,-1.96704e-6 365.99967,-1.96704e-6 240.66465,52.111248 146.38795,146.38794 52.111256,240.66464 6e-6,365.99966 6e-6,500 6e-6,634.00038 52.111256,759.33535 146.38795,853.61208 240.66465,947.88876 365.99967,1000 500,1000 634.00038,1000 759.33536,947.88876 853.61208,853.61208 947.88877,759.33535 1000,634.00038 1000,500 1000,365.99966 947.88877,240.66464 853.61208,146.38794 l 0,0 z M 574.44466,926.83581 c -18.61115,3.72222 -37.22235,4.94314 -55.8335,6.22357 l 0,-157.61418 c 63.27794,-1.22096 124.05459,-9.94583 179.88804,-23.55429 -8.66536,24.83472 -19.83207,47.16809 -30.99873,69.50151 -27.27652,48.32946 -59.55573,84.33089 -93.05581,105.44339 l 0,0 z M 333.72046,821.33287 c -12.38758,-21.1125 -22.33342,-44.6668 -30.99874,-69.50152 55.83346,13.66802 116.61006,22.33338 179.88801,23.55429 l 0,156.33372 c -18.61116,-1.22096 -37.22231,-2.50127 -55.83346,-6.22357 -34.721,-19.77248 -67.00017,-55.77391 -93.05581,-104.16292 l 0,0 z M 425.55535,73.164194 c 18.6112,-3.722222 37.22235,-4.943123 55.8335,-6.223573 l 0,156.333749 c -63.27794,1.22088 -124.05454,9.94581 -179.88804,23.55429 8.66536,-24.83474 19.83207,-47.16813 30.99877,-69.50152 27.27652,-47.04902 59.55569,-83.050446 93.05577,-104.162946 l 0,0 z m 240.7242,105.502946 c 12.38758,21.1125 22.33342,44.66679 30.99878,69.50152 -55.8335,-13.66804 -116.6101,-22.33339 -179.88805,-23.55429 l 0,-157.614191 c 18.61116,1.220875 37.22231,2.501347 55.83346,6.223569 34.721,21.052946 67.00021,57.054372 93.05581,105.443392 l 0,0 z m 266.72029,306.44393 -157.55463,0 c -1.22096,-64.49883 -8.66537,-126.5559 -23.5543,-183.61027 24.83473,8.66536 47.1681,19.83207 69.50152,30.99878 48.38901,27.27651 84.39044,58.3348 105.44339,93.05576 3.72222,19.83207 4.94314,39.7237 6.16402,59.55573 l 0,0 z m -193.55606,0 -222.0535,0 0,-224.55482 c 69.44196,1.22088 135.22126,11.1667 193.55606,28.49741 18.61116,59.55572 27.27652,126.55589 28.49744,196.05741 l 0,0 z m -256.83405,-224.55482 0,225.83529 -222.05347,0 c 1.22089,-69.50152 11.1667,-136.50173 28.55697,-197.27833 58.27524,-17.39026 124.05454,-27.33607 193.4965,-28.55696 l 0,0 z m -258.0549,224.55482 -157.554643,0 c 1.220875,-19.83203 2.501347,-39.72366 6.223569,-59.55573 21.112504,-34.72096 57.054374,-65.77925 105.443394,-93.05576 21.1125,-12.38763 44.66679,-22.33342 69.50152,-30.99878 -14.94848,57.05437 -23.61384,119.11144 -23.61384,183.61027 l 0,0 z m -157.554643,36.00143 156.333753,0 c 1.22087,62.05707 9.9458,121.61279 23.55428,177.44625 C 222.05349,689.89339 199.72009,678.72672 177.3867,667.56001 128.99768,640.2835 92.996256,609.22517 71.94331,574.50421 70.722417,557.05437 68.221079,539.72365 67.000187,521.1125 l 0,0 z m 193.556073,0 222.11302,0 0,218.39082 C 413.16777,738.22285 347.38847,728.27706 289.05367,710.94633 271.72296,653.8324 261.77715,588.11267 260.55626,521.1125 l 0,0 z m 256.83402,218.33127 0,-218.33127 222.11305,0 c -1.2803,67.00017 -11.22626,132.7199 -28.55699,189.83383 -58.3348,17.33073 -124.1141,27.27652 -193.55606,28.49744 l 0,0 z m 258.05493,-218.33127 156.33375,0 c -1.22096,17.39027 -2.50126,34.721 -6.22361,52.11128 -21.11246,34.72096 -57.05438,65.77925 -105.44339,93.05576 -21.1125,12.38759 -44.66675,22.33342 -69.50152,30.99878 16.1694,-54.61262 23.61385,-114.16831 24.83477,-176.16582 l 0,0 z M 905.72332,347.38847 C 887.11217,331.27866 864.77875,315.1093 838.72315,301.5008 808.94529,285.39099 775.44521,270.50206 740.7242,259.33536 729.5575,223.33393 714.66857,191.11429 698.55876,161.33643 684.89075,136.5017 668.7809,114.1683 652.67109,94.336252 769.22164,138.94348 861.05653,230.77839 905.72332,347.38847 l 0,0 z M 347.38847,94.276694 c -16.1098,18.611166 -32.27916,40.944556 -45.88766,67.000176 -16.10982,29.77786 -30.99875,63.27795 -42.16544,97.99893 -36.00143,11.1667 -68.22108,26.05564 -97.99893,42.16544 -24.83473,13.66806 -47.16813,29.77787 -67.00018,45.88767 C 138.94349,230.77839 230.7784,138.94348 347.38847,94.276694 l 0,0 z M 94.276702,652.61153 c 18.611158,16.10981 40.944558,32.27921 67.000178,45.88767 29.77786,16.1098 63.27795,30.99873 97.99893,42.16544 11.1667,36.00143 26.05563,68.22109 42.16544,97.99895 13.66806,24.83472 29.77786,47.1681 45.88767,67.00017 C 230.7784,861.05652 138.94349,769.22163 94.276702,652.61153 l 0,0 z M 652.61154,905.72331 c 16.1098,-18.61115 32.27921,-40.94457 45.88766,-67.00017 16.10981,-29.77786 30.99874,-63.27794 42.16545,-97.99894 36.00143,-11.16671 68.22109,-26.05564 97.99895,-42.16545 24.83472,-13.66801 47.1681,-29.77786 67.00017,-45.88767 -44.60724,116.55055 -136.44213,208.38544 -253.05223,253.05223 l 0,0 z"
     id="path12"
     inkscape:connector-curvature="0" />
</svg>
