<?xml version="1.0" encoding="UTF-8"?>
<svg xmlns="http://www.w3.org/2000/svg" xmlns:xlink="http://www.w3.org/1999/xlink" width="1024pt" height="1024pt" viewBox="0 0 1024 1024" version="1.1">
<g id="surface1">
<path style=" stroke:none;fill-rule:evenodd;fill:rgb(0%,0%,0%);fill-opacity:1;" d="M 514.199219 0 C 366.296875 0 244.59375 121.703125 244.59375 269.605469 C 244.59375 313.992188 282.152344 351.507812 327.660156 351.507812 C 374.308594 351.507812 410.746094 313.933594 410.746094 269.605469 C 410.746094 212.722656 457.375 166.089844 514.261719 166.089844 C 570.023438 166.089844 615.53125 212.722656 615.53125 269.605469 C 615.53125 321.941406 592.777344 348.125 550.699219 395.894531 C 498.378906 449.335938 428.992188 523.285156 428.992188 664.378906 C 428.992188 712.128906 466.566406 748.582031 513.199219 748.582031 C 558.707031 748.582031 595.082031 712.191406 595.082031 664.378906 C 595.082031 588.164062 626.96875 554.035156 670.15625 508.527344 C 719.109375 455.085938 779.378906 390.203125 779.378906 268.484375 C 781.5625 121.703125 662.101562 0 514.199219 0 Z M 514.199219 823.71875 C 458.4375 823.71875 412.929688 866.964844 412.929688 923.851562 C 412.929688 979.613281 458.4375 1024 514.199219 1024 C 567.65625 1024 614.347656 979.613281 614.347656 923.851562 C 614.347656 868.101562 568.839844 823.71875 514.199219 823.71875 Z M 514.199219 823.71875 "/>
</g>
</svg>
