<?xml version="1.0" encoding="UTF-8"?>
<svg xmlns="http://www.w3.org/2000/svg" xmlns:xlink="http://www.w3.org/1999/xlink" width="1024pt" height="1024pt" viewBox="0 0 1024 1024" version="1.1">
<g id="surface1">
<path style=" stroke:none;fill-rule:evenodd;fill:rgb(0%,0%,0%);fill-opacity:1;" d="M 327.679688 57.152344 L 327.679688 198.660156 L 0 198.660156 L 0 966.847656 L 1024 966.847656 L 1024 198.660156 L 696.320312 198.660156 L 696.320312 57.152344 L 655.359375 57.152344 L 655.359375 198.660156 L 368.640625 198.660156 L 368.640625 57.152344 Z M 40.964844 239.09375 L 327.679688 239.09375 L 327.679688 299.730469 L 368.640625 299.730469 L 368.640625 239.09375 L 655.359375 239.09375 L 655.359375 299.730469 L 696.320312 299.730469 L 696.320312 239.09375 L 983.035156 239.09375 L 983.035156 926.429688 L 40.964844 926.429688 Z M 184.320312 441.253906 L 184.320312 481.691406 L 839.679688 481.691406 L 839.679688 441.253906 Z M 184.320312 602.980469 L 184.320312 643.414062 L 839.679688 643.414062 L 839.679688 602.980469 Z M 184.320312 764.703125 L 184.320312 805.140625 L 839.679688 805.140625 L 839.679688 764.703125 Z M 184.320312 764.703125 "/>
</g>
</svg>
