<?xml version="1.0" encoding="UTF-8"?>
<svg xmlns="http://www.w3.org/2000/svg" xmlns:xlink="http://www.w3.org/1999/xlink" width="1024pt" height="1024pt" viewBox="0 0 1024 1024" version="1.1">
<g id="surface1">
<path style=" stroke:none;fill-rule:evenodd;fill:rgb(0%,0%,0%);fill-opacity:1;" d="M 95.113281 93.144531 C 50.152344 93.144531 12.824219 124.722656 4.03125 167.019531 L 513.996094 676.988281 L 1023.976562 167.019531 C 1015.113281 124.777344 977.839844 93.144531 932.878906 93.144531 L 95.058594 93.144531 M 1.996094 230.796875 L 1.996094 803.445312 L 288.347656 517.09375 L 1.996094 230.753906 M 1025.996094 230.753906 L 743.808594 512.929688 L 1025.996094 795.117188 L 1025.996094 230.644531 M 710.90625 545.738281 L 530.476562 726.167969 C 521.410156 735.230469 506.636719 735.230469 497.570312 726.167969 L 321.304688 549.902344 L 6.050781 865.144531 C 17.683594 903.277344 53.03125 930.855469 95.058594 930.855469 L 932.878906 930.855469 C 977.308594 930.855469 1014.160156 900.027344 1023.59375 858.535156 L 710.851562 545.792969 "/>
</g>
</svg>
