<?xml version="1.0" encoding="UTF-8" standalone="no"?>
<svg
   xmlns:dc="http://purl.org/dc/elements/1.1/"
   xmlns:cc="http://creativecommons.org/ns#"
   xmlns:rdf="http://www.w3.org/1999/02/22-rdf-syntax-ns#"
   xmlns:svg="http://www.w3.org/2000/svg"
   xmlns="http://www.w3.org/2000/svg"
   xmlns:sodipodi="http://sodipodi.sourceforge.net/DTD/sodipodi-0.dtd"
   xmlns:inkscape="http://www.inkscape.org/namespaces/inkscape"
   width="1000"
   height="1000"
   viewBox="0 0 1000 1000"
   version="1.1"
   id="svg2"
   inkscape:version="0.91 r13725"
   sodipodi:docname="module-notes.svg">
  <metadata
     id="metadata23">
    <rdf:RDF>
      <cc:Work
         rdf:about="">
        <dc:format>image/svg+xml</dc:format>
        <dc:type
           rdf:resource="http://purl.org/dc/dcmitype/StillImage" />
        <dc:title>acc_notes</dc:title>
      </cc:Work>
    </rdf:RDF>
  </metadata>
  <sodipodi:namedview
     pagecolor="#ffffff"
     bordercolor="#666666"
     borderopacity="1"
     objecttolerance="10"
     gridtolerance="10"
     guidetolerance="10"
     inkscape:pageopacity="0"
     inkscape:pageshadow="2"
     inkscape:window-width="1366"
     inkscape:window-height="703"
     id="namedview21"
     showgrid="false"
     inkscape:zoom="0.36274578"
     inkscape:cx="-246.61858"
     inkscape:cy="672.95687"
     inkscape:window-x="0"
     inkscape:window-y="0"
     inkscape:window-maximized="1"
     inkscape:current-layer="svg2" />
  <!-- Generator: Sketch 3.8.3 (29802) - http://www.bohemiancoding.com/sketch -->
  <title
     id="title4">acc_notes</title>
  <desc
     id="desc6">Created with Sketch.</desc>
  <defs
     id="defs8" />
  <path
     style="fill:#000000;fill-opacity:1;fill-rule:evenodd;stroke:none;stroke-width:1"
     d="m 319.99803,55.811525 0,138.191415 -319.99804405,0 0,572.50781 0,177.67773 1000.00001405,0 0,-177.67773 0,-572.50781 -319.99807,0 0,-138.191415 -40.0039,0 0,138.191415 -279.9961,0 0,-138.191415 -40.0039,0 z M 40.003892,233.49122 l 279.994138,0 0,59.21484 40.0039,0 0,-59.21484 279.9961,0 0,59.21484 40.0039,0 0,-59.21484 279.99415,0 0,611.99414 0,59.23242 -919.992188,0 0,-138.20703 0,-533.01953 z m 139.998038,197.42187 0,39.48828 639.9961,0 0,-39.48828 -639.9961,0 z m 0,157.93555 0,39.48633 639.9961,0 0,-39.48633 -639.9961,0 z m 0,157.93359 0,39.48828 639.9961,0 0,-39.48828 -639.9961,0 z"
     id="Fill-1"
     inkscape:connector-curvature="0" />
</svg>
