<?xml version="1.0" encoding="UTF-8" standalone="no"?>
<svg width="1024" height="1024" viewBox="0 0 1024 1024" version="1.1" xmlns="http://www.w3.org/2000/svg">
    <path id="path5235"
          d="M 290.12689,894.96371 71.73021,768.74539 V 511.9728 255.20023 L 283.60758,133.0578 C 400.14014,65.879466 499.32682,8.8649923 504.02241,6.3589755 512.284,1.9498269 519.65775,5.8912728 732.19804,128.32396 l 219.63818,126.52137 0.83457,255.99096 0.83457,255.99096 -220.06748,127.48632 C 612.40075,964.43103 512.27986,1021.6608 510.94699,1021.4909 509.61411,1021.321 410.24506,964.38376 290.12689,894.96371 Z M 483.28574,732.72307 482.44635,528.39724 410.73401,486.81249 c -39.44179,-22.87161 -72.81248,-41.67165 -74.15708,-41.77788 -1.34461,-0.10624 -2.42408,91.85128 -2.39883,204.35002 l 0.0459,204.54315 72.442,41.56057 c 39.84311,22.8583 73.57086,41.56056 74.95058,41.56056 1.37971,0 2.13083,-91.94663 1.66913,-204.32584 z m 239.96883,101.6468 174.76711,-101.04921 0.0163,-204.8919 c 0.013,-162.64232 -0.82505,-204.54501 -4.05941,-203.20964 -2.24101,0.92526 -82.55068,47.1259 -178.46594,102.66812 l -174.39137,100.98584 -0.83949,204.33167 c -0.71044,172.917 -0.14408,204.16888 3.6837,203.273 2.48656,-0.58227 83.16718,-46.53081 179.2891,-102.10788 z M 278.71811,614.95517 V 410.20891 l -74.12625,-42.69505 c -40.76944,-23.48231 -75.24025,-42.00658 -76.60182,-41.1651 -1.36156,0.84151 -2.47557,92.99063 -2.47557,204.77589 v 203.24588 l 74.15708,42.62367 c 40.78639,23.44299 75.25721,42.64244 76.60182,42.66545 1.3446,0.0228 2.44474,-92.09403 2.44474,-204.70448 z M 689.39842,376.80514 c 95.7823,-55.34809 174.51652,-101.92037 174.96491,-103.49396 0.6785,-2.38104 -41.18048,-27.61849 -149.11691,-89.90499 l -15.27079,-8.81226 -167.43837,106.72026 c -92.0911,58.69613 -167.43838,108.06023 -167.43838,109.69801 0,3.20068 141.18204,86.27001 146.78728,86.36738 1.84943,0.0326 81.72993,-45.22637 177.51226,-100.57444 z M 471.54001,253.72887 C 563.5933,195.22996 640.06163,146.33223 641.46961,145.06724 644.03714,142.76046 518.22608,68.850267 511.8946,68.945833 508.01581,69.004377 168.46913,264.56542 161.94656,270.49751 c -3.4545,3.14176 10.17816,12.404 68.45269,46.50778 40.02143,23.42158 72.99234,42.69733 73.26869,42.83499 0.27635,0.13756 75.81877,-47.6125 167.87207,-106.11141 z"
          style="stroke-width:3.2596519"/>
</svg>
