<?xml version="1.0" encoding="UTF-8"?>
<svg xmlns="http://www.w3.org/2000/svg" xmlns:xlink="http://www.w3.org/1999/xlink" width="1024pt" height="1024pt" viewBox="0 0 1024 1024" version="1.1">
<g id="surface1">
<path style=" stroke:none;fill-rule:evenodd;fill:rgb(2.352941%,2.352941%,2.352941%);fill-opacity:1;" d="M 128.261719 547.800781 C 128.261719 529.261719 134.167969 513.160156 145.988281 499.488281 C 157.804688 485.816406 175.53125 478.980469 199.167969 478.980469 L 257.5625 478.980469 L 257.5625 328.820312 C 257.5625 284.792969 264.285156 242.964844 277.722656 203.339844 C 291.164062 163.714844 311.671875 128.839844 339.246094 98.714844 C 366.824219 68.589844 401.351562 44.609375 442.828125 26.765625 C 484.308594 8.921875 533.320312 0 589.859375 0 C 627.398438 0 661.347656 4.75 691.703125 14.25 C 722.058594 23.753906 749.171875 36.960938 773.039062 53.875 C 796.90625 70.792969 817.878906 90.722656 835.953125 113.660156 C 854.027344 136.601562 869.785156 161.28125 883.226562 187.699219 L 797.023438 241.921875 C 777.558594 252.117188 758.671875 256.636719 740.367188 255.480469 C 722.058594 254.320312 705.261719 245.628906 689.964844 229.410156 C 672.355469 211.335938 656.367188 197.894531 642 189.089844 C 627.632812 180.285156 610.253906 175.878906 589.859375 175.878906 C 552.320312 175.878906 524.398438 188.972656 506.089844 215.15625 C 487.785156 241.34375 478.632812 279 478.632812 328.125 L 478.632812 478.980469 L 742.800781 478.980469 L 742.800781 561.011719 C 742.800781 567.960938 741.292969 574.566406 738.28125 580.824219 C 735.269531 587.078125 731.097656 592.757812 725.769531 597.855469 C 720.4375 602.953125 714.179688 607.007812 706.996094 610.019531 C 699.8125 613.03125 691.820312 614.539062 683.015625 614.539062 L 478.632812 614.539062 L 478.632812 722.988281 C 478.632812 750.792969 473.417969 775.9375 462.988281 798.414062 C 452.5625 820.890625 438.542969 841.863281 420.929688 861.328125 C 441.785156 856.695312 462.640625 853.101562 483.496094 850.554688 C 504.351562 848.003906 525.441406 846.730469 546.757812 846.730469 L 895.738281 846.730469 L 895.738281 935.015625 C 895.738281 945.214844 893.539062 955.640625 889.136719 966.300781 C 884.730469 976.960938 878.589844 986.578125 870.710938 995.148438 C 862.835938 1003.722656 853.21875 1010.675781 841.863281 1016.003906 C 830.507812 1021.335938 817.878906 1024 803.976562 1024 L 140.773438 1024 L 140.773438 894.695312 C 156.066406 891.914062 170.78125 887.511719 184.917969 881.488281 C 199.054688 875.464844 211.449219 867.816406 222.109375 858.546875 C 232.769531 849.277344 241.34375 838.15625 247.832031 825.179688 C 254.320312 812.203125 257.5625 797.140625 257.5625 779.992188 L 257.5625 614.539062 L 128.261719 614.539062 Z M 128.261719 547.800781 "/>
</g>
</svg>
