<?xml version="1.0" encoding="UTF-8"?>
<svg xmlns="http://www.w3.org/2000/svg" xmlns:xlink="http://www.w3.org/1999/xlink" width="1024pt" height="1024pt" viewBox="0 0 1024 1024" version="1.1">
<g id="surface1">
<path style=" stroke:none;fill-rule:evenodd;fill:rgb(0%,0%,0%);fill-opacity:1;" d="M 935.066406 666.707031 L 896.640625 666.707031 L 896.640625 429.25 C 962.878906 412.023438 1012 352.011719 1012 280.015625 C 1012 194.617188 943.09375 125.34375 858.148438 125.34375 C 786.535156 125.34375 726.894531 174.765625 709.707031 241.320312 L 588.933594 241.320312 L 588.933594 163.988281 C 588.933594 142.675781 571.640625 125.34375 550.492188 125.34375 L 396.640625 125.34375 C 375.441406 125.34375 358.199219 142.730469 358.199219 163.988281 L 358.199219 241.320312 L 242.785156 241.320312 L 242.785156 86.644531 C 242.785156 65.332031 225.492188 48 204.347656 48 L 50.441406 48 C 29.238281 48 12 65.386719 12 86.644531 L 12 473.335938 C 12 494.648438 29.292969 511.980469 50.441406 511.980469 L 204.292969 511.980469 C 225.492188 511.980469 242.734375 494.597656 242.734375 473.335938 L 242.734375 318.664062 L 358.09375 318.664062 L 358.09375 395.992188 C 358.09375 417.304688 375.386719 434.636719 396.535156 434.636719 L 550.386719 434.636719 C 571.585938 434.636719 588.828125 417.25 588.828125 395.992188 L 588.828125 318.664062 L 709.652344 318.664062 C 723.613281 372.855469 765.746094 415.105469 819.601562 429.195312 L 819.601562 666.652344 L 781.171875 666.652344 C 759.972656 666.652344 742.734375 684.023438 742.734375 705.285156 L 742.734375 782.625 L 583.453125 782.625 C 566.320312 716.023438 506.640625 666.652344 435.027344 666.652344 C 350.066406 666.652344 281.171875 735.925781 281.171875 821.328125 C 281.171875 906.726562 350.066406 976 435.027344 976 C 506.640625 976 566.265625 926.566406 583.398438 860.011719 L 742.785156 860.011719 L 742.785156 937.355469 C 742.785156 958.667969 760.066406 976 781.214844 976 L 935.066406 976 C 956.265625 976 973.507812 958.613281 973.507812 937.355469 L 973.507812 705.335938 C 973.558594 684.078125 956.265625 666.707031 935.066406 666.707031 Z M 935.066406 666.707031 "/>
</g>
</svg>
