<?xml version="1.0" encoding="UTF-8"?>
<svg width="1024" height="1024" viewBox="0 0 1024 1024" version="1.1" xmlns="http://www.w3.org/2000/svg">
    <g id="Page-1" stroke="none" stroke-width="1" fill="none" fill-rule="evenodd">
        <g id="fields" fill="#000">
            <g id="Page-1" transform="translate(1.589844, 2.257812)">
                <path fill="#000000" stroke="null" id="Fill-1" d="m1024.052843,224.890547l-1024.050589,0l0,-213.800093l1024.050589,0l0,213.800093zm-954.023719,-70.02687l883.99685,0l0,-73.746354l-883.99685,0l0,73.746354z"/>
                <path fill="#000000" stroke="null" id="Fill-2" d="m1024.052843,494.051443l-1024.050589,0l0,-213.800093l1024.050589,0l0,213.800093zm-954.023719,-70.02687l883.99685,0l0,-73.746354l-883.99685,0l0,73.746354z"/>
                <path fill="#000000" stroke="null" id="Fill-3" d="m1024.052843,763.212339l-1024.050589,0l0,-213.800093l1024.050589,0l0,213.800093zm-954.023719,-70.02687l883.99685,0l0,-73.746354l-883.99685,0l0,73.746354z"/>
                <polygon fill="#000000" stroke="null" points="0,975.4891357421875 497.01153564453125,975.4891357421875 497.01153564453125,828.8696899414062 0,828.8696899414062 " id="Fill-4"/>
                <polygon fill="#000000" stroke="null" points="789.1546630859375,871.2849731445312 840.668701171875,994.7899169921875 795.4571533203125,1012.9095458984375 744.1627197265625,889.9199829101562 651.2017822265625,967.5623779296875 651.2017822265625,599.4002685546875 651.6393432617188,599.2251586914062 912.8787841796875,859.2433471679688 " id="Fill-5"/>
            </g>
        </g>
    </g>
</svg>