<?xml version="1.0" encoding="UTF-8" standalone="no"?>
<svg width="1024" height="1024" viewBox="0 0 1024 1024" version="1.1" xmlns="http://www.w3.org/2000/svg">
    <path id="path6621"
          d="m 492.84463,1017.6398 c -5.05204,-2.6919 -29.60916,-16.6943 -54.57135,-31.11649 l -45.38578,-26.22222 -61.79309,-0.0507 c -55.71665,-0.0456 -62.74136,-0.48115 -71.43654,-4.4289 -11.30525,-5.13277 -12.29985,-6.54965 -48.47081,-69.05058 L 183.97331,839.7475 130.98306,809.18575 C 87.638777,784.18726 76.734104,776.87294 71.078051,769.00442 L 64.163285,759.38482 63.396866,694.46481 62.630448,629.54479 32.28042,576.70823 C 4.1119837,527.66961 1.9303923,523.01787 1.9303923,511.99377 c 0,-11.0241 2.1815914,-15.67584 30.3500277,-64.71446 l 30.350028,-52.83656 0.766418,-64.92002 0.766419,-64.92001 6.914766,-9.6196 c 5.657816,-7.87096 16.551389,-15.17512 59.927969,-40.1818 l 53.01321,-30.56221 29.96398,-51.89031 c 16.48019,-28.53966 31.51981,-53.753959 33.42137,-56.031764 1.90156,-2.277802 7.60624,-6.028733 12.67707,-8.335402 8.17155,-3.717153 16.24541,-4.199699 71.01912,-4.244565 l 61.79941,-0.05062 52.29423,-30.323955 C 491.73403,6.3754562 498.88362,2.9316688 510.16568,2.067366 l 12.67708,-0.9711728 54.4207,31.2951268 54.42068,31.295129 59.67296,0.01291 c 32.8201,0.0071 63.34919,1.034145 67.8424,2.282387 12.69351,3.526346 20.51503,13.696791 49.63989,64.547494 14.88467,25.98799 28.59576,49.04753 30.46908,51.24341 1.87333,2.19588 25.82147,16.90615 53.21807,32.6895 50.26182,28.95612 60.17838,36.34572 64.64737,48.17391 1.50797,3.99116 2.45156,30.0764 2.45156,67.77236 v 61.28375 l 30.46012,52.08361 30.46011,52.08358 0.027,16.13446 0.027,16.13445 -30.48725,52.14957 -30.48738,52.14953 v 61.44187 c 0,68.0412 -0.58974,71.49335 -14.21766,83.22656 -4.39424,3.78332 -29.85927,19.32534 -56.58892,34.53783 l -48.5994,27.65906 -28.46028,49.53867 c -31.33094,54.5354 -39.71138,65.60619 -52.31267,69.10626 -4.6865,1.30173 -34.8621,2.34346 -68.08944,2.35061 l -59.67296,0.0129 -54.23983,31.11645 c -48.04643,27.56332 -55.44875,31.11642 -64.82697,31.11642 -6.37166,0 -14.24456,-1.9488 -19.77271,-4.8942 z M 408.28735,751.91144 c 3.42325,-1.78839 8.93277,-6.19655 12.2434,-9.79592 3.31063,-3.59939 61.80213,-99.62703 129.98112,-213.39479 l 123.96181,-206.8505 v -12.84616 c 0,-10.46384 -1.23652,-14.59022 -6.66779,-22.25077 -9.68461,-13.65966 -19.68099,-18.40409 -36.72985,-17.43247 -9.85493,0.56162 -16.07642,2.32382 -21.27609,6.02631 -9.30778,6.62771 -258.29735,420.37151 -260.2613,432.47394 -2.80325,17.27435 5.01408,33.23013 21.08102,43.02807 8.50101,5.18407 28.67132,5.74221 37.66768,1.04229 z m 297.95459,-0.46495 c 44.72629,-13.27776 78.52588,-49.05091 87.58782,-92.70207 3.7218,-17.92782 1.6272,-49.26024 -4.41137,-65.98819 -19.66534,-54.47644 -76.81222,-88.77211 -133.29013,-79.99169 -62.51511,9.719 -107.92689,65.92524 -103.71421,128.36723 4.40326,65.26684 55.66331,113.78745 120.40652,113.97175 12.685,0.0362 25.82379,-1.40155 33.42137,-3.65703 z M 379.8055,508.57018 c 43.11896,-11.02797 75.07608,-42.28569 88.26198,-86.33026 5.13731,-17.16005 4.44857,-49.64951 -1.44783,-68.29956 -6.19845,-19.60532 -19.17548,-39.4548 -35.5694,-54.40639 -22.64489,-20.65263 -49.05215,-30.6347 -81.16861,-30.68211 -34.31263,-0.0507 -58.32464,9.6089 -84.10529,33.83381 -55.48008,52.1322 -49.86531,140.83452 11.78758,186.2208 30.06282,22.13101 65.7547,28.99546 102.24157,19.66371 z"
          style="stroke-width:2.30492187"/>
    <path id="path6623"
          d="m 335.84029,427.66094 c -10.24511,-2.96963 -23.05955,-17.97733 -24.96128,-29.23355 -1.88593,-11.16273 1.61042,-25.32986 8.37297,-33.92703 13.86365,-17.62479 48.82891,-16.75868 62.49687,1.54808 6.4966,8.70149 9.09894,23.56685 6.10772,34.8892 -5.8615,22.18692 -28.15436,33.63985 -52.01628,26.7233 z"
          style="stroke-width:2.30492187"/>
    <path id="path6625"
          d="m 653.04741,666.99977 c -11.86147,-8.07284 -16.76465,-16.3037 -17.7928,-29.8684 -1.78813,-23.59119 15.76967,-43.31287 38.56053,-43.31287 10.35334,0 27.11862,8.41844 33.08888,16.6151 6.5743,9.02596 7.82312,29.5081 2.51663,41.2758 -8.58358,19.03497 -38.82092,27.23638 -56.37324,15.29037 z"
          style="stroke-width:2.30492187"/>
</svg>
