<?xml version="1.0" encoding="UTF-8" standalone="no"?>
<svg
   xmlns:dc="http://purl.org/dc/elements/1.1/"
   xmlns:cc="http://creativecommons.org/ns#"
   xmlns:rdf="http://www.w3.org/1999/02/22-rdf-syntax-ns#"
   xmlns:svg="http://www.w3.org/2000/svg"
   xmlns="http://www.w3.org/2000/svg"
   xmlns:sodipodi="http://sodipodi.sourceforge.net/DTD/sodipodi-0.dtd"
   xmlns:inkscape="http://www.inkscape.org/namespaces/inkscape"
   width="1000"
   height="1000"
   viewBox="0 0 1000 1000"
   version="1.1"
   id="svg2"
   inkscape:version="0.91 r13725"
   sodipodi:docname="module-email_marketing.svg">
  <metadata
     id="metadata16">
    <rdf:RDF>
      <cc:Work
         rdf:about="">
        <dc:format>image/svg+xml</dc:format>
        <dc:type
           rdf:resource="http://purl.org/dc/dcmitype/StillImage" />
        <dc:title>acc_email_marketing</dc:title>
      </cc:Work>
    </rdf:RDF>
  </metadata>
  <sodipodi:namedview
     pagecolor="#ffffff"
     bordercolor="#666666"
     borderopacity="1"
     objecttolerance="10"
     gridtolerance="10"
     guidetolerance="10"
     inkscape:pageopacity="0"
     inkscape:pageshadow="2"
     inkscape:window-width="1366"
     inkscape:window-height="703"
     id="namedview14"
     showgrid="false"
     inkscape:zoom="7.8666667"
     inkscape:cx="-5.0847458"
     inkscape:cy="15"
     inkscape:window-x="0"
     inkscape:window-y="0"
     inkscape:window-maximized="1"
     inkscape:current-layer="svg2" />
  <!-- Generator: Sketch 3.8.3 (29802) - http://www.bohemiancoding.com/sketch -->
  <title
     id="title4">acc_email_marketing</title>
  <desc
     id="desc6">Created with Sketch.</desc>
  <defs
     id="defs8" />
  <path
     style="fill:#000000;fill-rule:evenodd;stroke:none;stroke-width:1;fill-opacity:1"
     d="M 558.42139,-2.142573e-6 C 817.73881,-2.142573e-6 983.61418,177.60246 983.61418,427.5489 c 0,217.33543 -149.48953,324.78941 -278.05942,324.78941 -68.89904,0 -126.1424,-32.70027 -140.15423,-88.83692 l -2.3025,0 c -30.39768,46.78352 -93.49562,77.1812 -140.20777,77.1812 -95.81609,0 -158.84264,-72.50466 -158.84264,-179.95858 0,-149.48953 107.45395,-291.99989 240.62901,-291.99989 37.35901,0 67.70316,16.31444 86.44512,58.34998 l 2.30249,0 18.68843,-49.01469 121.53718,0 -56.13665,266.35013 c -14.01184,58.36787 2.37396,86.46296 49.08611,86.46296 70.14849,0 133.17506,-79.41241 133.17506,-198.64701 0,-158.8248 -81.78637,-313.06227 -317.73882,-313.06227 -196.27305,0 -392.54607,168.24932 -392.54607,427.62032 0,231.2759 163.57276,334.05328 338.80127,334.05328 56.04739,0 126.12451,-18.68842 172.83661,-42.05344 l 42.12482,107.45397 C 630.80105,983.61421 556.06523,1000 471.97628,1000 235.95243,1000 16.385812,859.77439 16.385812,551.46009 16.385812,219.63801 261.67355,-2.142573e-6 558.42139,-2.142573e-6 l 0,0 z M 467.29973,616.78924 c 20.99102,0 39.6794,-11.63788 65.40053,-46.64073 L 558.42139,422.8902 c -8.22863,-16.31443 -25.72113,-28.04156 -46.78352,-28.04156 -60.72398,0 -98.10083,91.21092 -98.10083,154.23749 0,43.23148 18.68842,67.70311 53.76269,67.70311 l 0,0 z"
     id="path12"
     inkscape:connector-curvature="0" />
</svg>
