<?xml version="1.0" encoding="UTF-8" standalone="no"?>
<svg
   xmlns:dc="http://purl.org/dc/elements/1.1/"
   xmlns:cc="http://creativecommons.org/ns#"
   xmlns:rdf="http://www.w3.org/1999/02/22-rdf-syntax-ns#"
   xmlns:svg="http://www.w3.org/2000/svg"
   xmlns="http://www.w3.org/2000/svg"
   xmlns:xlink="http://www.w3.org/1999/xlink"
   xmlns:sodipodi="http://sodipodi.sourceforge.net/DTD/sodipodi-0.dtd"
   xmlns:inkscape="http://www.inkscape.org/namespaces/inkscape"
   width="1000"
   height="1000"
   viewBox="0 0 1000 1000"
   version="1.1"
   id="svg2"
   inkscape:version="0.91 r13725"
   sodipodi:docname="module-bugs.svg">
  <metadata
     id="metadata22">
    <rdf:RDF>
      <cc:Work
         rdf:about="">
        <dc:format>image/svg+xml</dc:format>
        <dc:type
           rdf:resource="http://purl.org/dc/dcmitype/StillImage" />
        <dc:title>acc_bugs</dc:title>
      </cc:Work>
    </rdf:RDF>
  </metadata>
  <sodipodi:namedview
     pagecolor="#ffffff"
     bordercolor="#666666"
     borderopacity="1"
     objecttolerance="10"
     gridtolerance="10"
     guidetolerance="10"
     inkscape:pageopacity="0"
     inkscape:pageshadow="2"
     inkscape:window-width="1366"
     inkscape:window-height="703"
     id="namedview20"
     showgrid="false"
     inkscape:zoom="0.17383042"
     inkscape:cx="1030.2048"
     inkscape:cy="42.295896"
     inkscape:window-x="0"
     inkscape:window-y="0"
     inkscape:window-maximized="1"
     inkscape:current-layer="svg2" />
  <!-- Generator: Sketch 3.8.3 (29802) - http://www.bohemiancoding.com/sketch -->
  <title
     id="title4">acc_bugs</title>
  <desc
     id="desc6">Created with Sketch.</desc>
  <defs
     id="defs8">
    <polygon
       id="path-1"
       points="2.1978022e-05,0 2.1978022e-05,24.922136 11.991725,24.922136 11.991725,24.922136 23.983429,24.922136 23.983429,0 11.991725,0 " />
  </defs>
  <path
     id="Fill-1"
     style="fill:#000000;fill-rule:evenodd;stroke:none;stroke-width:1;fill-opacity:1"
     d="m 824.16149,416.61122 c -2.14469,-24.25119 -6.6052,-46.45956 -13.38678,-66.7556 l 16.7996,-18.33511 C 900.71651,252.04408 937.46397,212.13533 937.46397,85.178196 l 0,-21.357356 c 0,-11.786309 -9.84168,-21.273878 -21.8721,-21.273878 -12.07457,0 -21.87211,9.487569 -21.87211,21.273878 l 0,21.314426 c 0,110.747034 -26.86176,139.933584 -98.6952,217.963884 l -3.67385,3.99645 c -6.60516,-11.35901 -13.86824,-22.16548 -22.52817,-31.90863 -24.23549,-27.39897 -55.9969,-47.8218 -95.4993,-61.69178 -3.76213,-26.25141 -14.17515,-51.52333 -30.27457,-73.60495 46.63498,-19.40044 119.4297,-57.22347 119.4297,-104.705419 l 0,-13.913326 C 762.47833,9.4891955 752.63491,0 740.60448,0 728.52991,0 718.73237,9.4891955 718.73237,21.2735 l 0,13.912948 c 0,18.635664 -54.77109,51.055446 -107.74847,71.349482 -29.83535,-24.464214 -67.32534,-40.545521 -108.57916,-40.545521 -41.95221,0 -79.96959,16.549573 -110.02191,41.737631 C 337.61351,86.582956 281.26566,53.141197 281.26566,35.143895 l 0,-13.870395 C 281.26566,9.4891955 271.4681,0 259.39356,0 247.31901,0 237.51969,9.4891955 237.51969,21.2735 l 0,13.912948 c 0,47.482326 74.93764,86.156032 123.05945,106.067662 -15.61789,21.826 -25.54771,46.79941 -29.2216,72.62545 -39.24137,13.82751 -71.21969,34.03727 -95.41286,61.30942 -10.41134,11.82727 -19.07305,25.14354 -26.64125,39.3121 l -8.4871,-9.36078 C 122.55404,219.11306 106.28181,201.28555 106.28181,85.135266 l 0,-21.314426 c 0,-11.786309 -9.801092,-21.273878 -21.875634,-21.273878 -12.074538,0 -21.872101,9.487569 -21.872101,21.273878 l 0,21.314426 c 0,132.319044 26.597155,161.505594 105.603745,248.213714 l 14.39209,15.82773 c 2.71261,2.97727 6.12546,4.67937 9.71289,5.87148 -5.55753,18.08112 -9.1432,37.86597 -11.19972,59.01068 C 69.096941,447.66917 18.832206,525.44426 18.832206,665.92956 l 0,36.08042 c 0,11.78431 9.797557,21.2735 21.8721,21.2735 12.074543,0 21.872102,-9.48919 21.872102,-21.2735 l 0,-36.08042 c 0,-115.00069 34.518091,-175.92611 116.498342,-205.9633 0.34908,25.91036 2.79904,53.69332 7.43767,83.55916 0.52384,3.6594 1.26812,7.23373 1.88014,10.89233 -2.18705,2.0825 -4.02485,4.42379 -5.20655,7.40348 l -7.87332,19.10352 c -61.50855,149.88738 -78.045353,190.22184 -21.69925,358.79103 3.01776,8.93344 11.5948,14.67651 20.82444,14.67651 2.23111,0 4.54867,-0.36122 6.73571,-0.97905 11.50662,-3.6594 17.76259,-15.69848 14.04287,-26.8035 C 147.70844,784.50462 154.75104,747.57514 203.13564,628.14866 255.23818,842.28384 375.58502,1000 495.93007,1000 c 2.58205,0 5.20657,0 5.25063,-0.24056 2.6246,0.24056 5.16246,0.24056 7.78691,0.24056 119.68895,0 239.42374,-155.97314 291.96368,-368.10688 46.98418,116.40587 53.45889,154.10053 6.3865,294.71662 -3.71799,11.18887 2.58204,23.1449 14.00055,26.8035 2.22933,0.7664 4.54869,0.97905 6.7798,0.97905 9.18554,0 17.71675,-5.74307 20.82267,-14.67651 56.3902,-168.48333 39.8093,-208.77323 -21.61105,-358.53704 l -7.9615,-19.35751 c -0.78649,-1.91399 -2.09896,-3.44674 -3.32276,-4.97791 0.78686,-4.4258 1.66155,-8.76373 2.31761,-13.23204 4.54869,-29.10065 6.8239,-56.07591 7.34951,-81.39076 78.52507,30.63383 111.72922,91.2194 111.72922,203.62518 l 0,36.08043 c 0,11.7843 9.79754,21.27187 21.87211,21.27187 12.07453,0 21.87381,-9.48757 21.87381,-21.27187 l 0,-36.08043 C 981.21201,528.16637 932.25934,451.11709 824.16167,416.61122"
     inkscape:connector-curvature="0" />
  <use
     style="fill:none;fill-rule:evenodd;stroke:none;stroke-width:1"
     xlink:href="#path-1"
     id="use16"
     x="0"
     y="0"
     width="100%"
     height="100%"
     transform="translate(0,970)" />
</svg>
