<?xml version="1.0" encoding="UTF-8" standalone="no"?>
<svg
   xmlns:dc="http://purl.org/dc/elements/1.1/"
   xmlns:cc="http://creativecommons.org/ns#"
   xmlns:rdf="http://www.w3.org/1999/02/22-rdf-syntax-ns#"
   xmlns:svg="http://www.w3.org/2000/svg"
   xmlns="http://www.w3.org/2000/svg"
   xmlns:sodipodi="http://sodipodi.sourceforge.net/DTD/sodipodi-0.dtd"
   xmlns:inkscape="http://www.inkscape.org/namespaces/inkscape"
   width="1000"
   height="1000"
   viewBox="0 0 1000 1000"
   version="1.1"
   id="svg2"
   inkscape:version="0.91 r13725"
   sodipodi:docname="module-aos_product_categories.svg">
  <metadata
     id="metadata15">
    <rdf:RDF>
      <cc:Work
         rdf:about="">
        <dc:format>image/svg+xml</dc:format>
        <dc:type
           rdf:resource="http://purl.org/dc/dcmitype/StillImage" />
        <dc:title>acc_product_categories</dc:title>
      </cc:Work>
    </rdf:RDF>
  </metadata>
  <sodipodi:namedview
     pagecolor="#ffffff"
     bordercolor="#666666"
     borderopacity="1"
     objecttolerance="10"
     gridtolerance="10"
     guidetolerance="10"
     inkscape:pageopacity="0"
     inkscape:pageshadow="2"
     inkscape:window-width="1366"
     inkscape:window-height="703"
     id="namedview13"
     showgrid="false"
     inkscape:zoom="0.24583333"
     inkscape:cx="194.37828"
     inkscape:cy="342.44992"
     inkscape:window-x="0"
     inkscape:window-y="0"
     inkscape:window-maximized="1"
     inkscape:current-layer="svg2" />
  <!-- Generator: Sketch 3.8.3 (29802) - http://www.bohemiancoding.com/sketch -->
  <title
     id="title4">acc_product_categories</title>
  <desc
     id="desc6">Created with Sketch.</desc>
  <defs
     id="defs8" />
  <path
     style="fill:#050505;fill-rule:evenodd;stroke:none;stroke-width:1;fill-opacity:1"
     d="m 718.24415,953.81272 c -61.58304,61.58308 -161.58808,61.58308 -223.18798,0 L 56.580252,526.38671 C 24.99705,497.43125 1.3138588,454.27595 1.3138588,407.95393 l 0,-250.03791 C 1.3138588,70.527398 71.8581,1.107913e-6 159.22988,1.107913e-6 l 250.0379,0 C 455.58981,1.107913e-6 498.74511,23.683192 527.70057,55.266394 L 952.49886,496.38688 c 61.58304,61.58305 61.58304,161.60494 0,223.18798 l -234.25471,234.23786 0,0 z M 680.8833,916.43505 915.1212,682.1972 c 41.06659,-41.04975 41.06659,-107.90508 0,-148.97167 L 480.85638,83.16068 C 463.48981,63.166408 438.22325,52.638672 409.26778,52.638672 L 157.6465,51.055301 c -57.894114,0 -103.69397,48.949759 -103.69397,106.860719 l 0,250.03791 c 0,28.93864 10.527735,54.2052 30.538852,71.58859 L 531.91167,916.43505 c 41.0666,41.0666 107.90507,41.0666 148.97163,0 l 0,0 z M 238.17946,105.27734 c 72.64979,0 131.60511,58.95532 131.60511,131.60511 0,72.63294 -58.95532,131.58826 -131.60511,131.58826 -72.63295,0 -131.58826,-58.95532 -131.58826,-131.58826 0,-72.64979 58.95531,-131.60511 131.58826,-131.60511 l 0,0 z m 0,52.63868 c -43.67746,0 -78.94958,35.27212 -78.94958,78.96643 0,43.67746 35.27212,78.94958 78.94958,78.94958 43.69431,0 78.96643,-35.27212 78.96643,-78.94958 0,-43.69431 -35.27212,-78.96643 -78.96643,-78.96643 l 0,0 z"
     id="Page-1-Copy-2"
     inkscape:connector-curvature="0" />
</svg>
