<?xml version="1.0" encoding="UTF-8"?>
<svg xmlns="http://www.w3.org/2000/svg" xmlns:xlink="http://www.w3.org/1999/xlink" width="1024pt" height="1024pt" viewBox="0 0 1024 1024" version="1.1">
<g id="surface1">
<path style=" stroke:none;fill-rule:evenodd;fill:rgb(0%,0%,0%);fill-opacity:1;" d="M 673.109375 467.0625 C 674.289062 472.953125 683.742188 494.617188 684.976562 500.851562 C 686.472656 508.195312 683.6875 512.699219 676.5 514.472656 C 671.832031 515.597656 667.050781 516.394531 662.378906 517.574219 C 657.390625 518.863281 653.628906 517.367188 650.195312 513.714844 C 635.179688 497.625 611.730469 466.253906 596.699219 450.164062 C 594.761719 448.074219 593.101562 447.429688 590.105469 448.128906 C 576.683594 451.289062 564.335938 449.902344 555.214844 438.683594 C 535.308594 449.367188 515.292969 445.496094 495.386719 440.347656 C 485.933594 437.886719 477.515625 433.164062 469.902344 427.042969 C 461.523438 420.34375 455.78125 411.980469 453.046875 401.574219 C 452.734375 400.394531 452.347656 399.210938 452.085938 398.304688 C 444.296875 400.171875 437.003906 402.4375 429.488281 403.605469 C 414.460938 405.96875 400.035156 404.414062 387.371094 394.875 C 381.460938 390.425781 377.011719 384.78125 374.222656 377.917969 C 373.632812 376.421875 372.710938 374.761719 371.433594 373.855469 C 353.5625 361.140625 344.589844 343.5 342.667969 322.039062 C 340.566406 298.34375 346.101562 276.566406 360.375 257.523438 C 364.605469 251.839844 370.84375 247.652344 376.089844 242.777344 C 377.273438 241.652344 378.785156 240.566406 379.375 239.125 C 393.261719 204.914062 419.886719 186.625 454.765625 178.578125 C 459.863281 177.398438 465.125 176.808594 470.21875 175.738281 C 472.253906 175.3125 474.355469 174.558594 476.074219 173.429688 C 493.558594 161.84375 512.984375 156.324219 533.644531 154.554688 C 556.023438 152.617188 577.757812 156.105469 599.269531 161.953125 C 624.285156 168.761719 649.714844 174.132812 673.4375 185.074219 C 696.1875 195.523438 715.019531 211.078125 731.65625 229.363281 C 739.390625 237.890625 744.0625 248.242188 747.703125 259.128906 C 748.402344 261.164062 750.175781 262.933594 751.835938 264.5 C 756.34375 268.78125 762.03125 272.105469 765.410156 277.101562 C 775.121094 291.3125 779.902344 307.128906 777.703125 324.566406 C 775.988281 338.019531 768.691406 348.152344 758.28125 356.363281 C 756.933594 357.378906 755.585938 358.394531 754.363281 359.371094 C 754.460938 359.742188 754.40625 359.960938 754.460938 360.015625 C 767.554688 372.714844 767.347656 387.898438 762.359375 403.824219 C 752.097656 436.652344 727.90625 454.40625 696.351562 463.632812 C 689.113281 465.71875 681.105469 465.9375 673.109375 467.0625 Z M 673.109375 467.0625 "/>
<path style=" stroke:none;fill-rule:evenodd;fill:rgb(0%,0%,0%);fill-opacity:1;" d="M 452.773438 1012 L 420.476562 944.109375 C 415.804688 934.347656 411.136719 924.695312 406.3125 915.027344 C 391.984375 885.648438 388.976562 885.648438 376.199219 885.648438 C 370.089844 885.648438 362.09375 886.292969 352.324219 887.570312 C 320.714844 891.332031 287.773438 889.503906 257.660156 886.980469 C 232.660156 884.890625 211.832031 874.59375 197.355469 857.269531 C 189.140625 847.410156 175.773438 825.789062 178.835938 791.957031 C 180.441406 774.207031 178.023438 761.21875 170.195312 745.71875 C 166.113281 737.78125 162.625 728.609375 159.628906 717.886719 L 159.082031 715.527344 L 151.730469 677.289062 C 150.824219 671.070312 149.960938 665.496094 149.054688 660.292969 C 134.726562 654.386719 113.898438 642.703125 103.761719 619.527344 C 91.742188 591.90625 101.027344 565.148438 109.023438 547.394531 C 114.0625 536.5625 119.695312 525.785156 126.785156 513.289062 C 134.242188 499.617188 141.058594 487.121094 145.246094 475.316406 C 150.507812 460.40625 150.824219 449.996094 150.179688 447.265625 C 113.472656 337.222656 134.078125 236.230469 211.242188 147.261719 C 283.953125 63.800781 408.085938 12 535.253906 12 C 592.992188 12 649.027344 22.832031 697.3125 43.316406 C 863.234375 113.84375 954.09375 282.621094 918.238281 453.648438 C 913.085938 477.03125 906.21875 498.75 897.742188 518.4375 C 889.265625 538.496094 878.851562 559.09375 869.621094 577.324219 L 865.390625 585.6875 C 834.742188 645.21875 808.394531 696.441406 816.019531 751.457031 C 816.871094 757.785156 817.898438 763.207031 819.289062 768.578125 L 829.960938 816.628906 Z M 376.199219 830.304688 C 418.816406 830.304688 436.523438 850.570312 455.945312 890.578125 C 460.769531 900.171875 465.550781 910.15625 470.328125 920.136719 L 478.160156 936.542969 L 766.589844 787.179688 L 765.300781 781.496094 C 763.582031 774.890625 762.140625 767.230469 761.070312 758.964844 C 751.027344 686.734375 784.039062 622.644531 815.964844 560.644531 L 820.097656 552.433594 C 829.328125 534.199219 838.878906 515.324219 846.707031 496.871094 C 853.90625 480.203125 859.6875 461.859375 863.988281 442.117188 C 894.308594 297.476562 816.816406 154.332031 675.527344 94.320312 C 633.996094 76.734375 585.492188 67.398438 535.101562 67.398438 C 423.527344 67.398438 315.398438 111.910156 252.894531 183.617188 C 188.546875 257.730469 172.023438 338.390625 202.558594 430.046875 C 209.855469 451.660156 202.339844 479.28125 197.242188 493.820312 C 191.554688 509.804688 183.710938 524.179688 175.457031 539.402344 C 168.476562 551.84375 163.492188 561.34375 159.136719 570.570312 C 153.449219 583.171875 151.839844 591.753906 154.316406 597.382812 C 156.675781 602.792969 164.289062 607.570312 177.433594 611.757812 L 181.625 613.089844 L 189.992188 619.101562 L 198.589844 629.289062 L 200.140625 635.398438 C 202.929688 646.082031 204.539062 657.175781 206.144531 667.953125 L 213.070312 703.785156 C 215.007812 710.488281 217.148438 716.007812 219.457031 720.621094 C 231.957031 745.457031 236.367188 768.890625 233.839844 796.886719 C 232.550781 810.890625 237 818.496094 239.746094 821.820312 C 244.570312 827.613281 252.082031 830.992188 262.113281 831.800781 C 289.585938 834.105469 318.945312 835.769531 345.238281 832.652344 C 357.367188 831.101562 367.558594 830.304688 376.199219 830.304688 Z M 376.199219 830.304688 "/>
<path style=" stroke:none;fill-rule:evenodd;fill:rgb(0%,0%,0%);fill-opacity:1;" d="M 322.0625 548.410156 C 304.410156 548.851562 293.40625 539.941406 293.1875 524.546875 C 293.074219 516.132812 289.4375 514.03125 282.621094 512.054688 C 261.039062 505.617188 252.785156 493.933594 257.769531 478.320312 C 262.605469 463.300781 275.808594 458.6875 296.839844 464.757812 C 326.789062 473.394531 356.832031 481.917969 386.722656 490.707031 C 402.234375 495.265625 409.582031 504.765625 408.457031 517.628906 C 407.273438 530.933594 397.726562 538.921875 381.40625 540.804688 C 360.855469 543.207031 340.414062 546.050781 322.0625 548.410156 Z M 322.0625 548.410156 "/>
</g>
</svg>
