<?xml version="1.0" encoding="UTF-8" standalone="no"?>
<svg
   xmlns:dc="http://purl.org/dc/elements/1.1/"
   xmlns:cc="http://creativecommons.org/ns#"
   xmlns:rdf="http://www.w3.org/1999/02/22-rdf-syntax-ns#"
   xmlns:svg="http://www.w3.org/2000/svg"
   xmlns="http://www.w3.org/2000/svg"
   xmlns:sodipodi="http://sodipodi.sourceforge.net/DTD/sodipodi-0.dtd"
   xmlns:inkscape="http://www.inkscape.org/namespaces/inkscape"
   width="1000"
   height="1000"
   viewBox="0 0 1000 1000"
   version="1.1"
   id="svg2"
   inkscape:version="0.91 r13725"
   sodipodi:docname="module-campaigns.svg">
  <metadata
     id="metadata15">
    <rdf:RDF>
      <cc:Work
         rdf:about="">
        <dc:format>image/svg+xml</dc:format>
        <dc:type
           rdf:resource="http://purl.org/dc/dcmitype/StillImage" />
        <dc:title>acc_campaigns</dc:title>
      </cc:Work>
    </rdf:RDF>
  </metadata>
  <sodipodi:namedview
     pagecolor="#ffffff"
     bordercolor="#666666"
     borderopacity="1"
     objecttolerance="10"
     gridtolerance="10"
     guidetolerance="10"
     inkscape:pageopacity="0"
     inkscape:pageshadow="2"
     inkscape:window-width="1366"
     inkscape:window-height="703"
     id="namedview13"
     showgrid="false"
     inkscape:zoom="0.513"
     inkscape:cx="500"
     inkscape:cy="500"
     inkscape:window-x="0"
     inkscape:window-y="0"
     inkscape:window-maximized="1"
     inkscape:current-layer="svg2" />
  <!-- Generator: Sketch 3.8.3 (29802) - http://www.bohemiancoding.com/sketch -->
  <title
     id="title4">acc_campaigns</title>
  <desc
     id="desc6">Created with Sketch.</desc>
  <defs
     id="defs8" />
  <path
     style="fill:#000000;fill-rule:evenodd;stroke:none;stroke-width:1;fill-opacity:1"
     d="m 588.6208,774.54601 c 0,4.13083 0,9.34941 -9.4875,9.47404 l -277.06434,0 c -4.11166,0 -9.29379,0 -9.57954,-9.47404 l 0,-122.63534 296.11984,64.274 0,58.36134 0.0115,0 z M 990.66213,161.32337 c -5.89158,-4.73894 -13.62041,-6.55321 -21.1095,-4.89812 l -879.886637,191.22442 0,-8.47104 c 0,-13.84671 -11.211604,-25.05829 -25.083233,-25.05829 l -39.568567,0 C 11.132976,314.12034 10e-7,325.33192 10e-7,339.17863 l 0,277.03175 c 0,13.86012 11.144483,25.16187 25.014192,25.16187 l 39.568567,0 c 13.871629,0 25.083233,-11.30175 25.083233,-25.16187 l 0,-8.47104 142.691937,31.03041 0,135.78776 c 0,27.96958 18.57605,69.61704 69.71103,69.61704 l 277.06434,0 c 28.06162,0 69.70721,-18.48396 69.70721,-69.61704 l 0,-45.25492 320.71212,69.76475 c 1.80292,0.32083 3.665,0.53708 5.39867,0.53708 5.62879,0 11.11954,-1.94083 15.71083,-5.54825 C 996.54026,789.31709 1000,782.04471 1000,774.55751 l 0,-593.7126 c 0,-7.60418 -3.47124,-14.71547 -9.33787,-19.52154 l 0,0 z"
     id="Fill-1"
     inkscape:connector-curvature="0" />
</svg>
