<?xml version="1.0" encoding="UTF-8"?>
<svg xmlns="http://www.w3.org/2000/svg" xmlns:xlink="http://www.w3.org/1999/xlink" width="1024pt" height="1024pt" viewBox="0 0 1024 1024" version="1.1">
<g id="surface1">
<path style=" stroke:none;fill-rule:evenodd;fill:rgb(0%,0%,0%);fill-opacity:1;" d="M 743.136719 12.292969 L 673.617188 12.292969 L 673.617188 135.679688 L 350.148438 135.679688 L 350.148438 12.292969 L 280.632812 12.292969 L 280.632812 135.679688 L 15.882812 135.679688 L 15.882812 1012.292969 L 1007.882812 1012.292969 L 1007.882812 135.679688 L 743.136719 135.679688 Z M 85.402344 942.882812 L 85.402344 453.046875 L 938.367188 453.046875 L 938.367188 942.882812 Z M 938.367188 205.09375 L 938.367188 382.371094 L 85.402344 382.371094 L 85.402344 205.09375 L 280.695312 205.09375 L 280.695312 288.925781 L 350.214844 288.925781 L 350.214844 205.09375 L 672.5 205.09375 L 672.5 288.925781 L 742 288.925781 L 742 205.09375 Z M 938.367188 205.09375 "/>
</g>
</svg>
