<?xml version="1.0" encoding="UTF-8"?>
<svg xmlns="http://www.w3.org/2000/svg" xmlns:xlink="http://www.w3.org/1999/xlink" width="1024pt" height="1024pt" viewBox="0 0 1024 1024" version="1.1">
<g id="surface1">
<path style=" stroke:none;fill-rule:evenodd;fill:rgb(0%,0%,0%);fill-opacity:1;" d="M 1020.769531 856.089844 L 3.230469 856.089844 L 3.230469 914.410156 L 1020.769531 914.410156 Z M 1020.769531 856.089844 "/>
<path style=" stroke:none;fill-rule:evenodd;fill:rgb(0%,0%,0%);fill-opacity:1;" d="M 266.773438 188.515625 C 257.613281 188.515625 247.4375 191.640625 239.296875 197.890625 C 226.070312 207.261719 213.859375 222.886719 201.648438 245.796875 C 158.910156 328.074219 159.929688 434.300781 203.683594 516.574219 C 206.738281 522.824219 210.808594 529.074219 215.894531 535.324219 C 225.054688 520.742188 232.175781 507.203125 238.28125 496.789062 C 274.914062 430.136719 298.316406 356.191406 304.421875 281.207031 C 306.457031 262.460938 307.472656 240.589844 301.367188 221.84375 C 297.296875 207.261719 288.140625 195.808594 277.964844 190.597656 C 274.914062 189.558594 270.84375 188.515625 266.773438 188.515625 Z M 112.105469 702.996094 C 86.667969 702.996094 63.261719 693.625 44.949219 675.917969 C 29.683594 661.339844 20.527344 641.550781 15.441406 614.472656 L 8.316406 574.898438 L 84.632812 561.359375 L 91.753906 600.933594 C 93.789062 611.347656 96.84375 616.554688 97.859375 617.597656 C 101.929688 620.722656 107.019531 622.804688 113.121094 622.804688 C 131.4375 621.765625 148.738281 611.347656 165.019531 597.808594 C 152.808594 584.269531 142.632812 569.691406 134.492188 554.066406 C 77.507812 447.839844 76.492188 315.574219 132.457031 208.304688 C 150.773438 173.9375 171.121094 148.941406 195.542969 132.277344 C 230.140625 108.324219 272.878906 103.117188 307.472656 117.699219 C 339.019531 131.238281 364.457031 160.398438 375.648438 198.933594 C 384.808594 230.175781 383.789062 262.460938 381.757812 288.496094 C 374.632812 373.898438 348.175781 460.335938 305.4375 536.363281 C 298.316406 549.902344 288.140625 566.566406 277.964844 584.269531 C 299.335938 592.601562 321.71875 593.644531 343.089844 583.230469 C 361.402344 574.898438 374.632812 559.277344 391.929688 536.363281 C 410.246094 513.453125 420.421875 492.621094 425.507812 469.710938 C 429.578125 447.839844 449.929688 434.300781 471.300781 438.464844 C 486.5625 441.589844 498.773438 454.085938 501.828125 469.710938 C 507.929688 485.332031 540.492188 547.820312 548.632812 559.277344 L 551.683594 564.484375 C 570 590.519531 580.175781 603.015625 591.367188 599.894531 C 609.683594 595.726562 625.964844 574.898438 642.246094 550.945312 C 659.542969 525.949219 672.773438 496.789062 680.910156 467.628906 C 684.980469 452.003906 698.210938 439.507812 714.492188 438.464844 C 730.773438 436.382812 746.035156 445.757812 753.15625 460.335938 L 774.527344 504.078125 C 793.859375 543.65625 811.160156 574.898438 836.597656 590.519531 C 852.878906 600.933594 874.246094 604.058594 892.5625 598.851562 C 904.773438 595.726562 908.84375 589.476562 924.105469 563.441406 L 943.4375 529.074219 L 1010.597656 569.691406 L 991.265625 604.058594 C 974.980469 632.175781 956.667969 664.460938 912.910156 675.917969 C 874.246094 686.332031 832.527344 680.085938 797.929688 659.253906 C 762.316406 638.425781 739.929688 604.058594 722.632812 572.816406 C 717.546875 582.1875 712.457031 590.519531 706.351562 598.851562 C 687.019531 625.929688 657.507812 667.585938 608.667969 679.042969 C 546.597656 693.625 510.984375 642.59375 489.613281 613.433594 L 484.527344 605.097656 C 484.527344 605.097656 474.351562 589.476562 463.160156 569.691406 C 459.089844 574.898438 455.015625 580.105469 450.949219 586.351562 C 432.632812 609.265625 410.246094 637.386719 374.632812 655.089844 C 325.789062 678.003906 272.878906 671.753906 227.085938 647.800781 C 197.582031 678.003906 161.964844 700.914062 117.191406 702.996094 Z M 112.105469 702.996094 "/>
</g>
</svg>
