<?xml version="1.0" encoding="UTF-8" standalone="no"?>
<svg
   xmlns:dc="http://purl.org/dc/elements/1.1/"
   xmlns:cc="http://creativecommons.org/ns#"
   xmlns:rdf="http://www.w3.org/1999/02/22-rdf-syntax-ns#"
   xmlns:svg="http://www.w3.org/2000/svg"
   xmlns="http://www.w3.org/2000/svg"
   xmlns:sodipodi="http://sodipodi.sourceforge.net/DTD/sodipodi-0.dtd"
   xmlns:inkscape="http://www.inkscape.org/namespaces/inkscape"
   width="1024"
   height="1024"
   viewBox="0 0 1024 1024"
   version="1.1"
   id="svg2"
   inkscape:version="0.91 r13725"
   sodipodi:docname="module-contracts.svg">
  <metadata
     id="metadata15">
    <rdf:RDF>
      <cc:Work
         rdf:about="">
        <dc:format>image/svg+xml</dc:format>
        <dc:type
           rdf:resource="http://purl.org/dc/dcmitype/StillImage" />
        <dc:title>acc_aos_contracts</dc:title>
      </cc:Work>
    </rdf:RDF>
  </metadata>
  <sodipodi:namedview
     pagecolor="#ffffff"
     bordercolor="#666666"
     borderopacity="1"
     objecttolerance="10"
     gridtolerance="10"
     guidetolerance="10"
     inkscape:pageopacity="0"
     inkscape:pageshadow="2"
     inkscape:window-width="1920"
     inkscape:window-height="1015"
     id="namedview13"
     showgrid="false"
     inkscape:zoom="0.49166667"
     inkscape:cx="336.46371"
     inkscape:cy="245.45761"
     inkscape:window-x="0"
     inkscape:window-y="0"
     inkscape:window-maximized="1"
     inkscape:current-layer="svg2" />
  <!-- Generator: Sketch 3.8.3 (29802) - http://www.bohemiancoding.com/sketch -->
  <title
     id="title4">acc_aos_contracts</title>
  <desc
     id="desc6">Created with Sketch.</desc>
  <defs
     id="defs8" />
  <path
     style="fill:#000000;fill-rule:evenodd;stroke:none;stroke-width:1;fill-opacity:1"
     d="m 159.48481,12.046516 0,0 c -5.58955,1.085221 -9.60655,5.999721 -9.48199,11.627366 l 0,976.698718 c 0,6.4183 5.23144,11.6274 11.67733,11.6274 l 700.64004,0 c 6.44589,0 11.67733,-5.2091 11.67733,-11.6274 l 0,-813.91559 c 0.0634,-3.08514 -1.08999,-6.12375 -3.28533,-8.3562 L 707.22951,15.317682 c -2.24205,-2.185945 -5.2936,-3.333178 -8.392,-3.271166 l -537.15736,0 c -0.73177,-0.06202 -1.46357,-0.06202 -2.19534,0 l 0,0 z m 13.87268,23.254733 513.80268,0 0,151.155761 c 0,6.4183 5.23148,11.62736 11.67734,11.62736 l 151.80534,0 0,790.6609 -677.28536,0 0,-953.444021 z m 537.15735,16.355827 123.70191,123.172564 -123.70191,0 0,-123.172564 z M 266.77616,174.82964 c -6.44589,0 -11.67733,5.20906 -11.67733,11.62737 0,6.4183 5.23144,11.62736 11.67733,11.62736 l 326.96534,0 c 6.44592,0 11.67733,-5.20906 11.67733,-11.62736 0,-6.41831 -5.23141,-11.62737 -11.67733,-11.62737 l -326.96534,0 z m 0,139.5284 c -6.44589,0 -11.67733,5.20906 -11.67733,11.62736 0,6.41831 5.23144,11.62737 11.67733,11.62737 l 490.44802,0 c 6.44589,0 11.67733,-5.20906 11.67733,-11.62737 0,-6.4183 -5.23144,-11.62736 -11.67733,-11.62736 l -490.44802,0 z m 0,139.52839 c -6.44589,0 -11.67733,5.20906 -11.67733,11.62736 0,6.41831 5.23144,11.62737 11.67733,11.62737 l 490.44802,0 c 6.44589,0 11.67733,-5.20906 11.67733,-11.62737 0,-6.4183 -5.23144,-11.62736 -11.67733,-11.62736 l -490.44802,0 z m 0,139.52839 c -6.44589,0 -11.67733,5.20906 -11.67733,11.62737 0,6.4183 5.23144,11.62736 11.67733,11.62736 l 490.44802,0 c 6.44589,0 11.67733,-5.20906 11.67733,-11.62736 0,-6.41831 -5.23144,-11.62737 -11.67733,-11.62737 l -490.44802,0 z m 278.0607,127.90103 0,0 c -3.89246,0.66674 -7.17769,3.27127 -8.75023,6.89891 l -56.19133,134.44335 -40.88625,10.17006 c -6.32134,1.58132 -10.15148,7.93764 -8.5011,14.18539 1.63483,6.29429 8.08071,10.04604 14.35535,8.35622 l 46.70933,-11.62737 c 3.64333,-0.91457 6.61715,-3.45721 8.01843,-6.91443 l 46.70933,-111.91725 36.49558,99.93333 c 3.51875,9.25538 16.36381,10.17005 21.15933,1.4574 l 47.08301,-84.30618 37.21176,83.57751 c 2.31979,5.14707 8.03401,7.92213 13.51458,6.54236 l 46.70934,-11.62737 c 6.3213,-1.58132 10.15147,-7.93764 8.50109,-14.18539 -1.63482,-6.29429 -8.08071,-10.04604 -14.35534,-8.35622 l -37.21176,9.08486 -42.69234,-95.56143 c -3.89245,-8.71289 -16.06801,-9.31751 -20.80123,-1.08534 l -45.97757,82.4768 -37.95911,-103.91766 c -1.88406,-5.44161 -7.47349,-8.65076 -13.14087,-7.62755 l 0,0 z"
     id="Page-1-Copy-2"
     inkscape:connector-curvature="0" />
</svg>
