<?xml version="1.0" encoding="UTF-8"?>
<svg width="1024" height="1024" viewBox="0 0 1024 1024" version="1.1" xmlns="http://www.w3.org/2000/svg">
    <g id="Page-1" stroke="none" stroke-width="1" fill="none" fill-rule="evenodd">
        <g id="labels" fill="#000">
            <g id="Page-1" transform="translate(1.361328, 2.244141)">
                <path stroke="null" id="Fill-1" d="m815.848075,1007.918863c-2.972876,0 -7.461245,0 -10.434122,-1.515531l-602.84066,-213.347535c-8.976776,-2.972876 -16.43866,-10.434122 -19.411236,-17.895104l-120.896397,-319.312431c-5.945752,-14.922528 0,-29.845095 13.406998,-38.822472l295.481147,-173.131272c7.461283,-4.488407 17.895104,-5.945752 26.872481,-2.972876l602.84066,213.407222c7.461283,2.972839 14.922528,8.976776 17.895104,16.43866c2.972876,7.461245 4.488407,16.43866 1.515531,23.899943l-174.578744,492.443703c-4.430221,11.833131 -16.380474,20.809457 -29.845095,20.809457l-0.005668,-0.001764zm-578.949652,-270.127763l559.595138,198.484656l153.717033,-432.753589l-559.654825,-198.484656l-259.62228,152.254657l105.964934,280.498932z"/>
                <path stroke="null" id="Fill-2" d="m364.501041,475.318584c76.943561,27.221708 36.082676,142.52218 -40.804201,115.300472c-76.885376,-27.22167 -36.082676,-142.580366 40.804201,-115.300472"/>
                <path stroke="null" id="Fill-3" d="m344.340673,564.734418c-17.895104,0 -31.361189,-14.922528 -31.361189,-31.361189c2.972876,-282.006091 -96.996492,-417.831023 -164.147889,-441.736935c-25.356387,-8.976814 -47.740199,-1.515531 -65.635303,20.86768c-17.895104,23.899943 -23.899943,47.740161 -17.895104,71.640104c17.895104,71.640104 129.814124,135.818963 171.609172,153.71707c16.43866,7.461245 22.383812,25.35635 16.43866,41.79501c-7.461245,16.438698 -25.35635,22.383812 -41.795047,16.438698c-7.461245,-2.972876 -177.548317,-82.073963 -207.393411,-195.515083c-10.434122,-43.251492 -1.515531,-86.56267 29.845095,-125.325455c34.333764,-44.767585 85.046501,-59.690152 135.818963,-41.795047c104.457737,35.790246 210.437612,205.945939 207.393411,501.427086c-1.573904,14.922566 -14.980752,29.845095 -32.875856,29.845095l-0.001502,0.002966z"/>
            </g>
        </g>
    </g>
</svg>