<?xml version="1.0" encoding="UTF-8" standalone="no"?>
<svg
   xmlns:dc="http://purl.org/dc/elements/1.1/"
   xmlns:cc="http://creativecommons.org/ns#"
   xmlns:rdf="http://www.w3.org/1999/02/22-rdf-syntax-ns#"
   xmlns:svg="http://www.w3.org/2000/svg"
   xmlns="http://www.w3.org/2000/svg"
   xmlns:sodipodi="http://sodipodi.sourceforge.net/DTD/sodipodi-0.dtd"
   xmlns:inkscape="http://www.inkscape.org/namespaces/inkscape"
   width="1000"
   height="1000"
   viewBox="0 0 1000 1000"
   version="1.1"
   id="svg2"
   inkscape:version="0.91 r13725"
   sodipodi:docname="module-case_updates.svg">
  <metadata
     id="metadata15">
    <rdf:RDF>
      <cc:Work
         rdf:about="">
        <dc:format>image/svg+xml</dc:format>
        <dc:type
           rdf:resource="http://purl.org/dc/dcmitype/StillImage" />
        <dc:title>acc_case_updates</dc:title>
      </cc:Work>
    </rdf:RDF>
  </metadata>
  <sodipodi:namedview
     pagecolor="#ffffff"
     bordercolor="#666666"
     borderopacity="1"
     objecttolerance="10"
     gridtolerance="10"
     guidetolerance="10"
     inkscape:pageopacity="0"
     inkscape:pageshadow="2"
     inkscape:window-width="1366"
     inkscape:window-height="703"
     id="namedview13"
     showgrid="false"
     inkscape:zoom="0.513"
     inkscape:cx="500"
     inkscape:cy="500"
     inkscape:window-x="0"
     inkscape:window-y="0"
     inkscape:window-maximized="1"
     inkscape:current-layer="svg2" />
  <!-- Generator: Sketch 3.8.3 (29802) - http://www.bohemiancoding.com/sketch -->
  <title
     id="title4">acc_case_updates</title>
  <desc
     id="desc6">Created with Sketch.</desc>
  <defs
     id="defs8" />
  <path
     style="fill:#000000;fill-rule:evenodd;stroke:none;stroke-width:1;fill-opacity:1"
     d="m 959.461,929.62531 -79.95508,0 0,-719.59575 79.95508,0 c 22.3732,0 40.539,18.09473 40.539,40.5248 l 0,639.64067 c 0,21.26449 -18.1658,39.43028 -40.539,39.43028 l 0,0 z m -799.55083,0 0,-719.59575 119.38538,0 79.95507,-139.654874 279.28134,0 79.95508,139.654874 119.38537,0 0,719.59575 -677.96224,0 z m 440.31441,-799.55083 -200.44916,0 -40.5248,79.95508 279.28134,0 -38.30738,-79.95508 z M 4.371423e-6,890.13816 l 0,-639.64066 C 4.371423e-6,228.12429 18.108942,209.97271 40.539007,209.97271 l 79.955083,0 0,719.59574 -79.955083,0 C 18.165799,929.62531 4.371423e-6,911.45952 4.371423e-6,890.13816 l 0,0 z"
     id="Page-1-Copy-2"
     inkscape:connector-curvature="0" />
</svg>
