<?xml version="1.0" encoding="UTF-8" standalone="no"?>
<svg
   xmlns:dc="http://purl.org/dc/elements/1.1/"
   xmlns:cc="http://creativecommons.org/ns#"
   xmlns:rdf="http://www.w3.org/1999/02/22-rdf-syntax-ns#"
   xmlns:svg="http://www.w3.org/2000/svg"
   xmlns="http://www.w3.org/2000/svg"
   xmlns:sodipodi="http://sodipodi.sourceforge.net/DTD/sodipodi-0.dtd"
   xmlns:inkscape="http://www.inkscape.org/namespaces/inkscape"
   width="1000"
   height="1000"
   viewBox="0 0 1000 1000"
   version="1.1"
   id="svg2"
   inkscape:version="0.91 r13725"
   sodipodi:docname="module-aor_reports.svg">
  <metadata
     id="metadata15">
    <rdf:RDF>
      <cc:Work
         rdf:about="">
        <dc:format>image/svg+xml</dc:format>
        <dc:type
           rdf:resource="http://purl.org/dc/dcmitype/StillImage" />
        <dc:title>acc_reports</dc:title>
      </cc:Work>
    </rdf:RDF>
  </metadata>
  <sodipodi:namedview
     pagecolor="#ffffff"
     bordercolor="#666666"
     borderopacity="1"
     objecttolerance="10"
     gridtolerance="10"
     guidetolerance="10"
     inkscape:pageopacity="0"
     inkscape:pageshadow="2"
     inkscape:window-width="1366"
     inkscape:window-height="703"
     id="namedview13"
     showgrid="false"
     inkscape:zoom="0.061458334"
     inkscape:cx="-5965.7648"
     inkscape:cy="-1426.1889"
     inkscape:window-x="0"
     inkscape:window-y="0"
     inkscape:window-maximized="1"
     inkscape:current-layer="svg2" />
  <!-- Generator: Sketch 3.8.3 (29802) - http://www.bohemiancoding.com/sketch -->
  <title
     id="title4">acc_reports</title>
  <desc
     id="desc6">Created with Sketch.</desc>
  <defs
     id="defs8" />
  <path
     style="fill:#000000;fill-rule:evenodd;stroke:none;stroke-width:1;fill-opacity:1"
     d="M 204.16,-4e-6 125,79.173329 125,920.82668 204.16,1000 795.84,1000 875,920.82668 875,79.173329 795.84,-4e-6 l -591.68,0 z M 761.93332,867.92 l -523.86665,0 0,-31.25332 523.86665,0 0,31.25332 z m 0,-64.06668 -523.86665,0 0,-31.25332 523.86665,0 0,31.25332 z m 0,-64.01332 -523.86665,0 0,-31.24 523.86665,0 0,31.24 z m 0,-64.05332 -523.86665,0 0,-31.25336 523.86665,0 0,31.25336 z m 0,-64.06668 -523.86665,0 0,-31.25332 523.86665,0 0,31.25332 z m 0,-64.06668 -523.86665,0 0,-31.25332 523.86665,0 0,31.25332 z m 0,-64.05332 -523.86665,0 0,-31.25332 523.86665,0 0,31.25332 z m 0,-64.06668 -523.86665,0 0,-31.25332 523.86665,0 0,31.25332 z m 0,-64.06664 -523.86665,0 0,-31.25336 523.86665,0 0,31.25336 z m 0,-64.06668 -523.86665,0 0,-31.24 523.86665,0 0,31.24 z m 0,-64 -523.86665,0 0,-31.25333 523.86665,0 0,31.25333 z m 0,-64.06667 -523.86665,0 0,-31.25333 523.86665,0 0,31.25333 z"
     id="Page-1-Copy-2"
     inkscape:connector-curvature="0" />
</svg>
