<?xml version="1.0" encoding="UTF-8" standalone="no"?>
<svg
   xmlns:dc="http://purl.org/dc/elements/1.1/"
   xmlns:cc="http://creativecommons.org/ns#"
   xmlns:rdf="http://www.w3.org/1999/02/22-rdf-syntax-ns#"
   xmlns:svg="http://www.w3.org/2000/svg"
   xmlns="http://www.w3.org/2000/svg"
   xmlns:sodipodi="http://sodipodi.sourceforge.net/DTD/sodipodi-0.dtd"
   xmlns:inkscape="http://www.inkscape.org/namespaces/inkscape"
   width="1000"
   height="1000"
   viewBox="0 0 1000 1000"
   version="1.1"
   id="svg2"
   inkscape:version="0.91 r13725"
   sodipodi:docname="module-direct_reports.svg">
  <metadata
     id="metadata16">
    <rdf:RDF>
      <cc:Work
         rdf:about="">
        <dc:format>image/svg+xml</dc:format>
        <dc:type
           rdf:resource="http://purl.org/dc/dcmitype/StillImage" />
        <dc:title>acc_direct_reports</dc:title>
      </cc:Work>
    </rdf:RDF>
  </metadata>
  <sodipodi:namedview
     pagecolor="#ffffff"
     bordercolor="#666666"
     borderopacity="1"
     objecttolerance="10"
     gridtolerance="10"
     guidetolerance="10"
     inkscape:pageopacity="0"
     inkscape:pageshadow="2"
     inkscape:window-width="1366"
     inkscape:window-height="703"
     id="namedview14"
     showgrid="false"
     inkscape:zoom="0.513"
     inkscape:cx="500"
     inkscape:cy="500"
     inkscape:window-x="0"
     inkscape:window-y="0"
     inkscape:window-maximized="1"
     inkscape:current-layer="svg2" />
  <!-- Generator: Sketch 3.8.3 (29802) - http://www.bohemiancoding.com/sketch -->
  <title
     id="title4">acc_direct_reports</title>
  <desc
     id="desc6">Created with Sketch.</desc>
  <defs
     id="defs8" />
  <path
     style="fill:#000000;fill-rule:evenodd;stroke:none;stroke-width:1;fill-opacity:1"
     d="m 992.65045,475.16858 c -2.72625,-5.61513 -5.79292,-11.171 -10.41542,-15.7935 -0.29583,-0.29583 -0.63708,-0.35416 -0.87416,-0.57791 L 827.30753,304.72904 c -22.28274,-22.28278 -58.68486,-22.28278 -80.90835,0 -22.28279,22.28274 -22.28279,58.68486 0,80.90835 l 64.29998,64.30003 -261.06689,0 0,-261.06693 64.87782,64.87782 c 22.26795,22.28277 58.68486,22.28277 80.90835,0 22.26795,-22.28277 22.26795,-58.68486 0,-80.90837 L 541.23181,18.668166 c -0.22083,-0.29625 -0.34166,-0.637083 -0.57791,-0.874125 -5.71875,-5.733665 -12.44504,-9.8968683 -19.55658,-12.6081343 -6.5485,-3.1261242 -13.60079,-5.21511535 -21.30491,-5.21511535 -9.08204,0 -17.12692,3.06683255 -24.41625,7.28930645 -5.67441,2.7260827 -11.23029,5.8521902 -15.91203,10.5339432 -0.29584,0.29625 -0.35417,0.637083 -0.57792,0.874125 L 304.018,173.4771 c -22.28276,22.28277 -22.28276,58.68487 0,80.90837 22.26795,22.28277 58.67007,22.28277 80.89356,0 l 65.05561,-65.05561 0,260.54839 -261.70399,0 65.63341,-65.61861 c 22.28277,-22.28278 22.28277,-58.68486 0,-80.90839 -22.28276,-22.28276 -58.68486,-22.28276 -80.90837,0 l -155.446006,155.446 c -0.29625,0.22083 -0.637084,0.34167 -0.874125,0.57792 C 5.4970749,470.54616 -0.05880282,485.30258 4.6383324e-4,499.99974 -0.05870282,514.69686 5.4970749,529.45327 16.668089,540.62431 c 0.29625,0.29583 0.637083,0.35417 0.874125,0.57792 L 172.63264,696.30748 c 22.28277,22.28274 58.68487,22.28274 80.90838,0 22.28276,-22.28279 22.28276,-58.68486 0,-80.9084 l -65.79639,-65.79635 262.22254,0 0,262.22251 -65.33711,-65.33711 c -22.28274,-22.28274 -58.68486,-22.28274 -80.90835,0 -22.28278,22.28279 -22.28278,58.68491 0,80.9084 l 155.10525,155.09042 c 0.22083,0.29583 0.34167,0.63708 0.57792,0.87416 11.17099,11.17104 25.86816,16.72689 40.62457,16.66759 14.69712,0.058 29.45353,-5.49655 40.62457,-16.66759 0.29583,-0.29583 0.35417,-0.63708 0.57792,-0.87416 L 695.30011,828.43361 c 22.28274,-22.28274 22.28274,-58.68486 0,-80.90835 -22.28279,-22.28279 -58.6849,-22.28279 -80.9084,0 l -64.75927,64.75927 0,-262.6818 261.52618,0 -64.87782,64.87781 c -22.28274,22.26796 -22.28274,58.68486 0,80.90836 22.28279,22.26795 58.68486,22.26795 80.9084,0 L 981.36103,541.20223 c 0.29584,-0.22084 0.63709,-0.34167 0.87417,-0.57792 5.73367,-5.73366 9.89687,-12.44516 12.60816,-19.5567 3.12625,-6.54854 5.15584,-13.60079 5.15584,-21.30491 0.0583,-9.14129 -3.06667,-17.24546 -7.34859,-24.59404 l 0,0 z"
     id="path12"
     inkscape:connector-curvature="0" />
</svg>
