<?xml version="1.0" encoding="UTF-8" standalone="no"?>
<svg
   xmlns:dc="http://purl.org/dc/elements/1.1/"
   xmlns:cc="http://creativecommons.org/ns#"
   xmlns:rdf="http://www.w3.org/1999/02/22-rdf-syntax-ns#"
   xmlns:svg="http://www.w3.org/2000/svg"
   xmlns="http://www.w3.org/2000/svg"
   xmlns:sodipodi="http://sodipodi.sourceforge.net/DTD/sodipodi-0.dtd"
   xmlns:inkscape="http://www.inkscape.org/namespaces/inkscape"
   width="1000"
   height="1000"
   viewBox="0 0 1000 1000"
   version="1.1"
   id="svg2"
   inkscape:version="0.91 r13725"
   sodipodi:docname="module-fp_events.svg">
  <metadata
     id="metadata18">
    <rdf:RDF>
      <cc:Work
         rdf:about="">
        <dc:format>image/svg+xml</dc:format>
        <dc:type
           rdf:resource="http://purl.org/dc/dcmitype/StillImage" />
        <dc:title>acc_events</dc:title>
      </cc:Work>
    </rdf:RDF>
  </metadata>
  <sodipodi:namedview
     pagecolor="#ffffff"
     bordercolor="#666666"
     borderopacity="1"
     objecttolerance="10"
     gridtolerance="10"
     guidetolerance="10"
     inkscape:pageopacity="0"
     inkscape:pageshadow="2"
     inkscape:window-width="1366"
     inkscape:window-height="703"
     id="namedview16"
     showgrid="false"
     inkscape:zoom="0.513"
     inkscape:cx="500"
     inkscape:cy="500"
     inkscape:window-x="0"
     inkscape:window-y="0"
     inkscape:window-maximized="1"
     inkscape:current-layer="svg2" />
  <!-- Generator: Sketch 3.8.3 (29802) - http://www.bohemiancoding.com/sketch -->
  <title
     id="title4">acc_events</title>
  <desc
     id="desc6">Created with Sketch.</desc>
  <defs
     id="defs8" />
  <path
     style="fill:#000000;fill-rule:evenodd;stroke:none;stroke-width:1;fill-opacity:1"
     inkscape:connector-curvature="0"
     id="Fill-1"
     d="M 937.54667,219.05882 937.92,337.52719 C 880.52,370.45061 843.74666,431.84906 843.74666,500 c 0,61.86459 30.32001,118.20201 78.85334,152.697 10.42667,7.39179 14.89333,9.72254 14.89333,9.72254 l 0,118.5749 L 62.453332,780.9415 62.132155,662.41986 C 119.47998,629.54939 156.25331,568.09767 156.25331,500 c 0,-60.55938 -29.01332,-115.75139 -75.733307,-150.40622 C 69.21332,341.21643 62.506661,337.67369 62.506661,337.67369 l 0,-118.66814 c 0,0.0533 875.040009,0.0533 875.040009,0.0533 l 0,0 z M 1.7647061e-6,356.9323 C 1.7647061e-6,369.31853 7.3466489,380.54606 18.746649,385.48724 63.906673,405.26526 93.74665,449.89567 93.74665,500 c 0,50.10434 -29.839977,94.73474 -75.000001,114.51275 C 7.3466489,619.45393 1.7647062e-6,630.68148 1.7647062e-6,643.06771 l 0,137.92673 c 0,34.49502 27.9733062352938,62.3707 62.4533302352938,62.3707 l 875.093338,0 c 34.48,0 62.45333,-27.92897 62.45333,-62.3707 l 0,-137.92673 c 0,-12.38623 -7.34667,-23.61378 -18.74667,-28.55496 -45.16,-19.77801 -75,-64.40841 -75,-114.51275 0,-50.10433 29.84,-94.73474 75,-114.51276 C 992.65333,380.54606 1000,369.31853 1000,356.9323 l 0,-137.92675 c 0,-34.49501 -27.97333,-62.3707 -62.45333,-62.3707 l -875.093338,0 c -34.480024,0 -62.4533302352939,27.92896 -62.4533302352939,62.3707 l 0,137.92675 z" />
  <path
     style="fill:#000000;fill-rule:evenodd;stroke:none;stroke-width:1;fill-opacity:1"
     inkscape:connector-curvature="0"
     id="Fill-2"
     d="m 625,359.63596 0,280.72808 c 0,17.32743 -14.01332,31.32519 -31.25333,31.32519 l -187.49333,0 c -17.29335,0 -31.25333,-13.9445 -31.25333,-31.32519 l 0,-280.72808 c 0,-17.32741 14.01331,-31.3252 31.25333,-31.3252 l 187.49333,0 c 17.29334,0 31.25333,13.94451 31.25333,31.3252 l 0,0 z M 406.25334,265.88679 c -51.77333,0 -93.74669,41.98002 -93.74669,93.74917 l 0,280.72808 c 0,51.87571 41.92003,93.74915 93.74669,93.74915 l 187.49333,0 c 51.77333,0 93.74666,-41.97999 93.74666,-93.74915 l 0,-280.72808 c 0,-51.8757 -41.92,-93.74917 -93.74666,-93.74917 l -187.49333,0 z" />
</svg>
