<?xml version="1.0" encoding="UTF-8"?>
<svg xmlns="http://www.w3.org/2000/svg" xmlns:xlink="http://www.w3.org/1999/xlink" width="1024pt" height="1024pt" viewBox="0 0 1024 1024" version="1.1">
<g id="surface1">
<path style=" stroke:none;fill-rule:evenodd;fill:rgb(0%,0%,0%);fill-opacity:1;" d="M 337.261719 237.132812 C 322.671875 237.941406 308.160156 241.832031 292.746094 248.808594 C 259.304688 263.644531 233.714844 296.324219 222.636719 335.320312 L 111.601562 721.457031 L 47.785156 721.457031 C 29.6875 719.914062 12 735.839844 12 754.210938 C 12 772.128906 29.742188 788.507812 47.785156 786.890625 L 976.214844 786.890625 C 994.332031 788.429688 1012 772.054688 1012 754.210938 C 1012 735.914062 994.257812 719.914062 976.214844 721.457031 L 912.398438 721.457031 L 801.4375 335.320312 C 790.433594 296.398438 764.84375 263.644531 731.332031 248.808594 C 700.597656 235.140625 673.089844 233.242188 642.355469 244.542969 L 512.039062 292.882812 L 381.71875 244.542969 C 366.378906 238.675781 351.792969 236.398438 337.261719 237.132812 Z M 345.484375 304.558594 C 352.148438 304.558594 359.265625 306.101562 366.753906 308.808594 L 500.605469 358.316406 C 504.113281 359.859375 508.074219 360.234375 512.039062 360.234375 C 516 360.234375 519.960938 359.859375 523.472656 358.316406 L 657.320312 308.808594 C 697.066406 293.972656 729.792969 324.019531 738.070312 353.257812 L 805.398438 586.601562 L 218.75 586.601562 L 286.078125 353.257812 C 292.746094 329.453125 315.554688 304.917969 345.484375 304.558594 Z M 199.828125 652.035156 L 824.25 652.035156 L 843.90625 721.378906 L 180.167969 721.378906 Z M 199.828125 652.035156 "/>
</g>
</svg>
