<?xml version="1.0" encoding="UTF-8" standalone="no"?>
<svg width="1024" height="1024" viewBox="0 0 1024 1024" version="1.1" xmlns="http://www.w3.org/2000/svg">
    <path id="path138"
          d="M 33.682593,258.51733 C 21.217925,254.18732 10.186666,244.06286 4.5139957,231.74649 2.1810514,226.68126 1.727582,223.5996 1.724586,212.7904 1.7214164,201.35482 2.0967229,199.08122 5.0155792,192.85366 11.74078,178.50503 25.533983,167.82189 41.034071,164.95654 c 11.205057,-2.07136 533.392399,-1.87645 532.594379,0.1988 -0.32499,0.84514 -10.19454,22.6958 -21.93233,48.55702 l -21.34147,47.02041 -245.2628,-0.0401 C 55.451981,260.65507 39.43753,260.5165 33.682593,258.51733 Z"
          style="display:inline;stroke-width:1.22929168"/>
    <path id="path140"
          d="m 430.34153,1005.8735 c -7.71366,-2.7504 -15.57032,-9.82525 -18.78049,-16.91166 -2.82182,-6.22911 -7.73784,-34.12132 -10.48593,-59.49437 -2.50591,-23.13709 -2.83717,-78.38422 -0.60071,-100.18728 6.01897,-58.67836 19.52472,-112.58456 40.54219,-161.81812 2.70292,-6.3316 63.5953,-140.67984 135.31639,-298.55163 101.1505,-222.65151 131.9168,-289.27646 137.15504,-297.011394 26.95422,-39.801504 75.15943,-61.131411 123.08974,-54.464919 41.49269,5.771102 77.79762,32.355846 96.39051,70.58316 14.10811,29.006533 16.85803,60.045433 8.02137,90.538883 -1.67828,5.7914 -8.88492,23.30268 -16.01477,38.91393 -7.12984,15.61126 -12.96335,28.87867 -12.96335,29.48314 0,0.60448 12.72932,6.79606 28.28737,13.75909 33.08114,14.80549 40.53724,18.99273 51.19731,28.75168 17.6642,16.17099 27.8419,36.22772 31.204,61.49203 1.6248,12.21002 0.1345,27.98598 -3.7664,39.86873 -1.3659,4.16051 -27.01767,61.64346 -57.00405,127.73989 -57.98403,127.80927 -57.8256,127.50224 -69.64016,134.96044 -7.42889,4.68965 -17.6749,7.10872 -27.2173,6.42596 -25.82805,-1.84798 -45.15521,-26.46091 -40.51002,-51.58905 0.8361,-4.52287 19.76263,-47.60035 55.4231,-126.14495 29.78437,-65.60212 54.15341,-120.08478 54.15341,-121.07258 0,-4.18805 -5.75093,-7.75036 -31.20824,-19.33141 -14.79814,-6.73198 -27.31913,-12.23996 -27.82442,-12.23996 -0.50529,0 -45.59674,98.32797 -100.20322,218.5066 -54.60646,120.17863 -101.94963,223.85476 -105.20702,230.39138 -42.02014,84.32225 -106.45995,156.44086 -186.97926,209.26018 -31.03061,20.35553 -38.70868,23.01513 -52.37509,18.14223 z"
          style="display:inline;stroke-width:1.22929168"/>
    <path id="path142"
          d="M 41.887245,461.07879 C 26.796425,458.87773 11.743436,447.45598 5.0155792,433.10168 2.0978216,426.87646 1.7210084,424.59622 1.7210084,413.16495 c 0,-11.43128 0.3768132,-13.71152 3.2945708,-19.93674 4.6003619,-9.81515 13.2328358,-18.60784 22.9800218,-23.40652 l 8.09337,-3.98448 223.429469,-0.32037 223.42946,-0.32038 -1.22926,2.77896 c -0.67609,1.52843 -10.52727,23.24667 -21.89148,48.26276 l -20.6622,45.48379 -195.36543,0.15585 c -107.45099,0.0857 -198.311519,-0.27385 -201.912285,-0.79903 z"
          style="display:inline;stroke-width:1.22929168"/>
    <path id="path144"
          d="M 38.467798,660.9782 C 24.146515,657.5022 11.22268,647.00625 5.1892102,633.95136 2.0811359,627.22628 1.7210084,625.10678 1.7210084,613.5395 c 0,-11.45821 0.3731091,-13.70378 3.3228129,-19.99843 C 9.287218,584.4857 19.329306,574.44558 28.765426,569.82413 l 7.37575,-3.61237 177.963274,-0.32357 177.96326,-0.32358 -1.70123,4.01145 c -0.93568,2.2063 -8.32943,18.67076 -16.43054,36.58769 -8.10113,17.91692 -16.8073,37.96974 -19.34704,44.56182 l -4.61771,11.98559 -152.61249,-0.10454 C 80.445962,662.52653 43.277544,662.1456 38.467798,660.9782 Z"
          style="display:inline;stroke-width:1.22929168"/>
    <path id="path146"
          d="M 37.612816,862.38239 C 23.838784,859.04619 11.337791,848.66192 5.1624189,835.42665 2.0802033,828.82074 1.7210084,826.70368 1.7210084,815.14334 c 0,-11.45821 0.3731091,-13.70378 3.3228129,-19.99843 4.2433967,-9.05537 14.2854847,-19.09549 23.7216047,-23.71694 l 7.37575,-3.61236 142.994374,-0.32738 c 136.19679,-0.31182 142.96399,-0.22417 142.35545,1.84393 -2.49041,8.46353 -7.25601,51.67397 -8.81467,79.92402 l -0.83085,15.05883 -133.54962,-0.10242 c -110.25403,-0.0845 -134.79395,-0.4038 -140.683044,-1.8302 z"
          style="display:inline;stroke-width:1.22929168"/>
</svg>
