<?xml version="1.0" encoding="UTF-8" standalone="no"?>
<svg width="1024" height="1024" viewBox="0 0 1024 1024" version="1.1" xmlns="http://www.w3.org/2000/svg">
    <path id="path3816"
          d="M 500.29396,1021.1554 C 496.99014,1019.5748 403.18841,964.53753 291.84591,898.83123 145.37283,812.39391 87.851608,777.85059 83.786249,773.88832 73.564671,763.92694 74.387123,786.7307 74.387123,513.27236 c 0,-169.9182 0.3903,-244.23159 1.305181,-248.49921 0.717844,-3.34082 3.015571,-8.59991 5.10607,-11.6749 C 84.378507,247.83557 96.694234,240.37441 292.843,124.64461 442.94839,36.080661 502.65315,1.4468196 506.69748,0.59006199 c 6.39762,-1.35428762 13.3162,-0.3592275 19.42724,2.79838221 10.66564,5.5080352 411.82106,242.6919358 414.30723,244.9586658 1.54971,1.40099 4.25286,5.00404 6.00715,7.97844 l 3.18958,5.40638 v 250.49651 250.50011 l -3.33219,5.66861 c -1.83278,3.12528 -5.61717,7.23125 -8.41002,9.13875 -10.34636,7.07678 -412.51272,243.79329 -416.44651,245.12249 -6.54631,2.2272 -14.5328,1.6524 -21.14611,-1.5088 z M 482.87322,736.30953 V 531.4816 l -4.89713,-3.08936 c -7.34491,-4.63403 -8.10263,-4.75976 -7.42495,-1.22137 0.32331,1.68837 -0.24068,4.33588 -1.26735,5.90211 -2.53974,3.87606 -38.13484,24.80466 -42.18692,24.80466 -6.52842,0 -11.13839,-8.36282 -7.92205,-14.37269 0.64841,-1.22138 10.12045,-7.47194 21.04912,-13.91289 10.92863,-6.44094 19.72428,-11.84373 19.54585,-12.00538 -1.47965,-1.32914 -324.67609,-191.58321 -325.47149,-191.58321 -0.58313,0 -1.04111,90.0296 -1.04111,204.6555 v 204.65909 l 173.90696,102.8145 c 95.64879,56.54959 174.31243,102.85761 174.80802,102.9079 0.49574,0 0.90094,-92.07719 0.90094,-204.73453 z m 234.87954,101.76196 173.00586,-102.13556 0.30535,-205.09375 c 0.26582,-178.41034 0.079,-205.00754 -1.43189,-204.42919 -0.95482,0.35923 -72.45629,42.42118 -158.89253,93.46022 -86.43624,51.03545 -159.23327,93.9811 -161.7711,95.43597 l -4.61431,2.62236 3.41302,1.72429 c 7.50706,3.77548 33.61658,19.50965 36.15183,21.78715 5.72691,5.14773 1.74261,16.42747 -5.80178,16.42747 -3.47229,0 -38.97536,-20.22091 -41.65473,-23.72338 -0.82586,-1.07768 -1.50193,-3.8114 -1.50193,-6.06735 0,-4.64482 -0.518,-4.62326 -8.31856,0.35922 l -4.89716,3.08936 v 204.95725 c 0,163.48443 0.30534,204.8387 1.50193,204.36452 0.82586,-0.35923 79.35446,-46.55588 174.50768,-102.73188 z M 688.31615,375.26434 c 95.78488,-56.49571 174.1639,-102.99052 174.17569,-103.32101 0.0214,-0.61069 -340.85086,-202.191558 -347.08795,-205.267623 -3.2079,-1.580601 -7.31512,0.747193 -157.57837,89.386573 -84.85659,50.0562 -163.66539,96.56898 -175.13068,103.35838 -18.17399,10.76604 -20.56093,12.52626 -18.62216,13.72608 25.52936,15.79164 347.48594,205.18356 348.56168,205.04346 0.84023,0 79.89694,-46.42656 175.68179,-102.92586 z"
          style="stroke-width:1.20142961;image-rendering:auto"/>
</svg>
