<?xml version="1.0" encoding="UTF-8"?>
<svg xmlns="http://www.w3.org/2000/svg" xmlns:xlink="http://www.w3.org/1999/xlink" width="1024pt" height="1024pt" viewBox="0 0 1024 1024" version="1.1">
<g id="surface1">
<path style=" stroke:none;fill-rule:evenodd;fill:rgb(0%,0%,0%);fill-opacity:1;" d="M 399.375 95.398438 L 302.394531 76.472656 L 312.773438 106.75 C 144.652344 178.960938 26.574219 346.039062 26.574219 540.25 C 26.574219 603.445312 39.304688 663.734375 61.957031 718.855469 C 46.527344 732.273438 36.71875 752.007812 36.71875 773.972656 C 36.71875 814.292969 69.519531 847.09375 109.839844 847.09375 C 150.160156 847.09375 182.976562 814.292969 182.976562 773.972656 C 182.976562 733.65625 150.160156 700.839844 109.839844 700.839844 C 103.421875 700.839844 97.226562 701.761719 91.265625 703.304688 C 70.960938 652.839844 59.609375 597.894531 59.609375 540.191406 C 59.609375 360.441406 168.410156 205.699219 323.492188 138.066406 L 334.445312 169.902344 Z M 149.9375 774.03125 C 149.9375 796.117188 131.980469 814.117188 109.839844 814.117188 C 87.757812 814.117188 69.753906 796.117188 69.753906 774.03125 C 69.753906 751.949219 87.710938 733.933594 109.839844 733.933594 C 131.921875 733.933594 149.9375 751.890625 149.9375 774.03125 Z M 964.726562 608.4375 C 968.003906 586.191406 969.957031 563.417969 969.957031 540.25 C 969.957031 304.75 796.386719 109.15625 570.460938 74.285156 C 565.1875 39.074219 534.855469 12 498.25 12 C 457.929688 12 425.128906 44.816406 425.128906 85.136719 C 425.128906 125.457031 457.929688 158.257812 498.25 158.257812 C 530.832031 158.257812 558.539062 136.804688 567.949219 107.277344 C 776.828125 140.769531 936.917969 322.121094 936.917969 540.308594 C 936.917969 560.953125 935.246094 581.199219 932.441406 601.039062 L 901.121094 593.8125 L 930.089844 688.34375 L 997.425781 616.015625 Z M 498.25 125.160156 C 476.179688 125.160156 458.164062 107.160156 458.164062 85.078125 C 458.164062 62.992188 476.121094 44.976562 498.25 44.976562 C 520.332031 44.976562 538.347656 62.992188 538.347656 85.078125 C 538.347656 107.160156 520.390625 125.160156 498.25 125.160156 Z M 886.671875 700.898438 C 846.355469 700.898438 813.539062 733.714844 813.539062 774.03125 C 813.539062 793.078125 820.9375 810.386719 832.917969 823.410156 C 752.398438 918.453125 632.289062 978.964844 498.308594 978.964844 C 401.152344 978.964844 311.335938 947.070312 238.550781 893.390625 L 260.179688 868.78125 L 163.242188 849.386719 L 194.957031 942.988281 L 216.703125 918.21875 C 295.332031 977.011719 392.78125 1012 498.308594 1012 C 643.65625 1012 773.613281 945.808594 860.230469 842.101562 C 868.421875 845.320312 877.378906 847.152344 886.730469 847.152344 C 927.050781 847.152344 959.851562 814.351562 959.851562 774.03125 C 959.851562 733.714844 926.992188 700.898438 886.671875 700.898438 Z M 886.671875 814.117188 C 864.589844 814.117188 846.574219 796.117188 846.574219 774.03125 C 846.574219 751.949219 864.589844 733.933594 886.671875 733.933594 C 908.757812 733.933594 926.757812 751.949219 926.757812 774.03125 C 926.757812 796.117188 908.757812 814.117188 886.671875 814.117188 Z M 886.671875 814.117188 "/>
</g>
</svg>
