<?xml version="1.0" encoding="UTF-8"?>
<svg xmlns="http://www.w3.org/2000/svg" xmlns:xlink="http://www.w3.org/1999/xlink" width="1024pt" height="1024pt" viewBox="0 0 1024 1024" version="1.1">
<g id="surface1">
<path style=" stroke:none;fill-rule:evenodd;fill:rgb(1.960784%,1.960784%,1.960784%);fill-opacity:1;" d="M 735.480469 976.703125 C 672.421875 1039.765625 570.015625 1039.765625 506.9375 976.703125 L 57.9375 539.019531 C 25.597656 509.371094 1.34375 465.179688 1.34375 417.746094 L 1.34375 161.707031 C 1.34375 72.21875 73.582031 0 163.050781 0 L 419.089844 0 C 466.523438 0 510.714844 24.25 540.367188 56.59375 L 975.359375 508.300781 C 1038.417969 571.359375 1038.417969 673.785156 975.359375 736.84375 Z M 697.222656 938.429688 L 937.085938 698.570312 C 979.136719 656.535156 979.136719 588.074219 937.085938 546.023438 L 492.398438 85.15625 C 474.613281 64.683594 448.742188 53.902344 419.089844 53.902344 L 161.429688 52.28125 C 102.144531 52.28125 55.246094 102.40625 55.246094 161.707031 L 55.246094 417.746094 C 55.246094 447.378906 66.027344 473.25 86.519531 491.050781 L 544.675781 938.429688 C 586.730469 980.480469 655.171875 980.480469 697.222656 938.429688 Z M 243.894531 107.804688 C 318.289062 107.804688 378.660156 168.175781 378.660156 242.566406 C 378.660156 316.945312 318.289062 377.3125 243.894531 377.3125 C 169.519531 377.3125 109.148438 316.945312 109.148438 242.566406 C 109.148438 168.175781 169.519531 107.804688 243.894531 107.804688 Z M 243.894531 161.707031 C 199.171875 161.707031 163.050781 197.824219 163.050781 242.566406 C 163.050781 287.292969 199.171875 323.410156 243.894531 323.410156 C 288.640625 323.410156 324.757812 287.292969 324.757812 242.566406 C 324.757812 197.824219 288.640625 161.707031 243.894531 161.707031 Z M 243.894531 161.707031 "/>
</g>
</svg>
