<?xml version="1.0" encoding="UTF-8"?>
<svg xmlns="http://www.w3.org/2000/svg" xmlns:xlink="http://www.w3.org/1999/xlink" width="1024pt" height="1024pt" viewBox="0 0 1024 1024" version="1.1">
<g id="surface1">
<path style=" stroke:none;fill-rule:evenodd;fill:rgb(0%,0%,0%);fill-opacity:1;" d="M 511.285156 0 C 228.558594 0 0 229.984375 0 512.714844 C 0 795.503906 228.558594 1024 511.285156 1024 C 795.503906 1024 1024 795.503906 1024 512.714844 C 1024 229.984375 795.503906 0 511.285156 0 Z M 511.285156 854.046875 C 323.796875 854.046875 169.953125 700.265625 169.953125 512.773438 C 169.953125 323.796875 323.796875 171.441406 511.285156 171.441406 C 700.265625 171.441406 852.621094 323.796875 852.621094 512.773438 C 852.621094 700.265625 700.265625 854.046875 511.285156 854.046875 Z M 511.285156 854.046875 "/>
<path style=" stroke:none;fill-rule:evenodd;fill:rgb(0%,0%,0%);fill-opacity:1;" d="M 511.285156 354.546875 C 424.832031 354.546875 353.058594 424.890625 353.058594 512.773438 C 353.058594 599.167969 424.832031 670.941406 511.285156 670.941406 C 599.167969 670.941406 669.453125 599.167969 669.453125 512.773438 C 669.453125 424.832031 599.167969 354.546875 511.285156 354.546875 Z M 511.285156 354.546875 "/>
</g>
</svg>
