<?xml version="1.0" encoding="UTF-8"?>
<svg xmlns="http://www.w3.org/2000/svg" xmlns:xlink="http://www.w3.org/1999/xlink" width="1024pt" height="1024pt" viewBox="0 0 1024 1024" version="1.1">
<g id="surface1">
<path style=" stroke:none;fill-rule:evenodd;fill:rgb(0%,0%,0%);fill-opacity:1;" d="M 843.941406 426.609375 C 841.746094 401.777344 837.175781 379.035156 830.234375 358.253906 L 847.4375 339.476562 C 922.332031 258.09375 959.964844 217.226562 959.964844 87.222656 L 959.964844 65.351562 C 959.964844 53.285156 949.886719 43.566406 937.566406 43.566406 C 925.203125 43.566406 915.167969 53.285156 915.167969 65.351562 L 915.167969 87.179688 C 915.167969 200.582031 887.664062 230.46875 814.105469 310.375 L 810.34375 314.464844 C 803.578125 302.835938 796.140625 291.769531 787.273438 281.792969 C 762.457031 253.734375 729.933594 232.820312 689.484375 218.617188 C 685.628906 191.738281 674.96875 165.859375 658.480469 143.246094 C 706.234375 123.382812 780.777344 84.652344 780.777344 36.027344 L 780.777344 21.78125 C 780.777344 9.71875 770.699219 0 758.378906 0 C 746.015625 0 735.980469 9.71875 735.980469 21.785156 L 735.980469 36.03125 C 735.980469 55.113281 679.894531 88.3125 625.648438 109.09375 C 595.097656 84.042969 556.707031 67.574219 514.460938 67.574219 C 471.503906 67.574219 432.574219 84.519531 401.800781 110.3125 C 345.714844 88.660156 288.015625 54.417969 288.015625 35.988281 L 288.015625 21.785156 C 288.015625 9.71875 277.984375 0 265.617188 0 C 253.253906 0 243.21875 9.71875 243.21875 21.785156 L 243.21875 36.03125 C 243.21875 84.652344 319.957031 124.253906 369.234375 144.644531 C 353.242188 166.992188 343.070312 192.566406 339.308594 219.011719 C 299.128906 233.171875 266.382812 253.867188 241.605469 281.792969 C 230.945312 293.90625 222.078125 307.539062 214.328125 322.050781 L 205.636719 312.464844 C 125.496094 224.371094 108.832031 206.117188 108.832031 87.179688 L 108.832031 65.351562 C 108.832031 53.285156 98.796875 43.566406 86.433594 43.566406 C 74.066406 43.566406 64.035156 53.285156 64.035156 65.351562 L 64.035156 87.179688 C 64.035156 222.671875 91.269531 252.558594 172.171875 341.347656 L 186.910156 357.558594 C 189.6875 360.605469 193.183594 362.347656 196.855469 363.570312 C 191.164062 382.085938 187.492188 402.34375 185.386719 423.996094 C 70.753906 458.414062 19.285156 538.054688 19.285156 681.910156 L 19.285156 718.859375 C 19.285156 730.925781 29.316406 740.640625 41.679688 740.640625 C 54.046875 740.640625 64.078125 730.925781 64.078125 718.859375 L 64.078125 681.910156 C 64.078125 564.152344 99.425781 501.761719 183.371094 471.003906 C 183.730469 497.539062 186.238281 525.988281 190.988281 556.570312 C 191.523438 560.316406 192.289062 563.976562 192.914062 567.722656 C 190.675781 569.855469 188.792969 572.253906 187.582031 575.304688 L 179.519531 594.867188 C 116.535156 748.351562 99.601562 789.652344 157.300781 962.269531 C 160.390625 971.417969 169.171875 977.296875 178.625 977.296875 C 180.910156 977.296875 183.28125 976.929688 185.523438 976.296875 C 197.304688 972.546875 203.710938 960.21875 199.902344 948.847656 C 151.253906 803.332031 158.464844 765.515625 208.011719 643.222656 C 261.363281 862.5 384.597656 1024 507.832031 1024 C 510.476562 1024 513.164062 1024 513.210938 1023.753906 C 515.898438 1024 518.496094 1024 521.183594 1024 C 643.746094 1024 766.351562 864.285156 820.152344 647.058594 C 868.265625 766.257812 874.894531 804.859375 826.695312 948.847656 C 822.886719 960.304688 829.335938 972.546875 841.03125 976.296875 C 843.3125 977.078125 845.6875 977.296875 847.972656 977.296875 C 857.378906 977.296875 866.113281 971.417969 869.292969 962.269531 C 927.039062 789.742188 910.058594 748.484375 847.164062 595.128906 L 839.011719 575.304688 C 838.207031 573.34375 836.863281 571.777344 835.609375 570.207031 C 836.414062 565.675781 837.3125 561.234375 837.984375 556.65625 C 842.640625 526.859375 844.972656 499.234375 845.507812 473.3125 C 925.917969 504.683594 959.921875 566.722656 959.921875 681.824219 L 959.921875 718.773438 C 959.921875 730.839844 969.953125 740.554688 982.316406 740.554688 C 994.679688 740.554688 1004.714844 730.839844 1004.714844 718.773438 L 1004.714844 681.824219 C 1004.761719 540.84375 954.632812 461.945312 843.941406 426.609375 "/>
</g>
</svg>
