<?xml version="1.0" encoding="UTF-8"?>
<svg xmlns="http://www.w3.org/2000/svg" xmlns:xlink="http://www.w3.org/1999/xlink" width="1024pt" height="1024pt" viewBox="0 0 1024 1024" version="1.1">
<g id="surface1">
<path style=" stroke:none;fill-rule:evenodd;fill:rgb(0%,0%,0%);fill-opacity:1;" d="M 779.136719 516.3125 C 795.550781 613.023438 769.367188 715.851562 697.246094 792.582031 C 574.878906 922.777344 369.46875 928.996094 239.398438 806.75 C 109.265625 684.429688 102.863281 479.097656 225.242188 348.964844 C 297.410156 272.15625 398.402344 239.691406 495.933594 250.113281 L 599.757812 139.65625 C 438.34375 88.105469 254.402344 128.75 130.898438 260.1875 C -40.363281 442.414062 -31.535156 729.882812 150.695312 901.144531 C 332.847656 1072.402344 620.390625 1063.515625 791.652344 881.359375 C 915.199219 749.921875 944.359375 563.78125 882.964844 405.914062 Z M 779.136719 516.3125 "/>
<path style=" stroke:none;fill-rule:evenodd;fill:rgb(0%,0%,0%);fill-opacity:1;" d="M 990.765625 25.226562 C 957.101562 -8.4375 902.578125 -8.378906 868.914062 25.226562 L 828.335938 65.820312 L 950.167969 187.65625 L 990.765625 147.058594 C 1024.351562 113.410156 1024.414062 58.828125 990.765625 25.226562 Z M 990.765625 25.226562 "/>
<path style=" stroke:none;fill-rule:evenodd;fill:rgb(0%,0%,0%);fill-opacity:1;" d="M 341.148438 674.828125 L 503.515625 634.246094 L 909.574219 228.191406 L 787.675781 106.417969 L 381.683594 512.457031 Z M 341.148438 674.828125 "/>
</g>
</svg>
