<?xml version="1.0" encoding="UTF-8"?>
<svg xmlns="http://www.w3.org/2000/svg" xmlns:xlink="http://www.w3.org/1999/xlink" width="1024pt" height="1024pt" viewBox="0 0 1024 1024" version="1.1">
<g id="surface1">
<path style=" stroke:none;fill-rule:evenodd;fill:rgb(0%,0%,0%);fill-opacity:1;" d="M 985.503906 18.761719 C 961.492188 -6.253906 922.273438 -6.253906 898.261719 18.761719 L 773.230469 149.109375 C 721.980469 113.582031 663.195312 95.984375 604.15625 95.984375 C 525.566406 95.984375 445.953125 127.238281 386.96875 189.742188 L 202.640625 381.753906 C 97.53125 491.144531 84.582031 660.257812 163.527344 784.367188 L 38.496094 914.773438 C 14.484375 939.785156 14.484375 980.269531 38.496094 1005.28125 C 50.476562 1017.761719 66.191406 1024 81.921875 1024 C 97.636719 1024 113.351562 1017.761719 125.332031 1005.226562 L 250.363281 874.875 C 301.613281 910.402344 360.753906 928.003906 419.789062 928.003906 C 497.359375 928.003906 576.972656 896.75 636.980469 834.242188 L 820.941406 642.234375 C 926.113281 532.84375 939.066406 363.730469 860.117188 239.621094 L 985.503906 109.269531 C 1009.515625 84.253906 1009.515625 43.71875 985.503906 18.761719 Z M 788.121094 415.996094 C 788.121094 467.25 768.929688 515.515625 734.15625 551.726562 L 550.195312 743.734375 C 515.277344 779.996094 468.0625 800 419.894531 800 C 392.042969 800 365.40625 792.902344 340.9375 780.75 L 431.613281 685.230469 C 455.625 660.203125 455.625 619.734375 431.613281 594.71875 C 408.621094 569.707031 369.757812 569.707031 345.746094 594.71875 L 254.046875 690.238281 C 242.277344 664.84375 235.566406 637.113281 235.566406 607.992188 C 235.566406 556.734375 254.769531 508.46875 289.582031 472.261719 L 472.886719 280.253906 C 507.699219 243.988281 555.003906 223.984375 604.210938 223.984375 C 632.0625 223.984375 658.59375 231.085938 683.0625 243.238281 L 589.570312 340.738281 C 565.558594 365.75 565.558594 406.234375 589.570312 431.246094 C 601.550781 443.726562 617.265625 450.019531 632.980469 450.019531 C 648.605469 450.019531 664.320312 443.78125 676.300781 431.246094 L 769.691406 333.746094 C 781.421875 359.085938 788.121094 386.871094 788.121094 415.996094 Z M 788.121094 415.996094 "/>
</g>
</svg>
