<?xml version="1.0" encoding="UTF-8"?>
<svg xmlns="http://www.w3.org/2000/svg" xmlns:xlink="http://www.w3.org/1999/xlink" width="1024pt" height="1024pt" viewBox="0 0 1024 1024" version="1.1">
<g id="surface1">
<path style=" stroke:none;fill-rule:evenodd;fill:rgb(0%,0%,0%);fill-opacity:1;" d="M 209.058594 0 L 128 81.074219 L 128 942.925781 L 209.058594 1024 L 814.941406 1024 L 896 942.925781 L 896 81.074219 L 814.941406 0 Z M 780.21875 888.75 L 243.78125 888.75 L 243.78125 856.746094 L 780.21875 856.746094 Z M 780.21875 823.144531 L 243.78125 823.144531 L 243.78125 791.140625 L 780.21875 791.140625 Z M 780.21875 757.597656 L 243.78125 757.597656 L 243.78125 725.605469 L 780.21875 725.605469 Z M 780.21875 692.003906 L 243.78125 692.003906 L 243.78125 660.003906 L 780.21875 660.003906 Z M 780.21875 626.402344 L 243.78125 626.402344 L 243.78125 594.398438 L 780.21875 594.398438 Z M 780.21875 560.796875 L 243.78125 560.796875 L 243.78125 528.792969 L 780.21875 528.792969 Z M 780.21875 495.207031 L 243.78125 495.207031 L 243.78125 463.203125 L 780.21875 463.203125 Z M 780.21875 429.601562 L 243.78125 429.601562 L 243.78125 397.597656 L 780.21875 397.597656 Z M 780.21875 363.996094 L 243.78125 363.996094 L 243.78125 331.996094 L 780.21875 331.996094 Z M 780.21875 298.394531 L 243.78125 298.394531 L 243.78125 266.402344 L 780.21875 266.402344 Z M 780.21875 232.859375 L 243.78125 232.859375 L 243.78125 200.855469 L 780.21875 200.855469 Z M 780.21875 167.253906 L 243.78125 167.253906 L 243.78125 135.25 L 780.21875 135.25 Z M 780.21875 167.253906 "/>
</g>
</svg>
