<?xml version="1.0" encoding="UTF-8" standalone="no"?>
<svg
   xmlns:dc="http://purl.org/dc/elements/1.1/"
   xmlns:cc="http://creativecommons.org/ns#"
   xmlns:rdf="http://www.w3.org/1999/02/22-rdf-syntax-ns#"
   xmlns:svg="http://www.w3.org/2000/svg"
   xmlns="http://www.w3.org/2000/svg"
   xmlns:sodipodi="http://sodipodi.sourceforge.net/DTD/sodipodi-0.dtd"
   xmlns:inkscape="http://www.inkscape.org/namespaces/inkscape"
   width="1024pt"
   height="1024pt"
   viewBox="0 0 1024 1024"
   version="1.1"
   id="svg7"
   sodipodi:docname="module-aos_invoices.svg"
   inkscape:version="0.92.1 unknown">
  <metadata
     id="metadata13">
    <rdf:RDF>
      <cc:Work
         rdf:about="">
        <dc:format>image/svg+xml</dc:format>
        <dc:type
           rdf:resource="http://purl.org/dc/dcmitype/StillImage" />
      </cc:Work>
    </rdf:RDF>
  </metadata>
  <defs
     id="defs11" />
  <sodipodi:namedview
     pagecolor="#ffffff"
     bordercolor="#666666"
     borderopacity="1"
     objecttolerance="10"
     gridtolerance="10"
     guidetolerance="10"
     inkscape:pageopacity="0"
     inkscape:pageshadow="2"
     inkscape:window-width="711"
     inkscape:window-height="480"
     id="namedview9"
     showgrid="false"
     inkscape:zoom="0.17285156"
     inkscape:cx="682.66667"
     inkscape:cy="682.66667"
     inkscape:window-x="0"
     inkscape:window-y="0"
     inkscape:window-maximized="0"
     inkscape:current-layer="svg7" />
  <g
     id="surface1">
    <path
       style="color:#000000;font-style:normal;font-variant:normal;font-weight:normal;font-stretch:normal;font-size:medium;line-height:normal;font-family:sans-serif;font-variant-ligatures:normal;font-variant-position:normal;font-variant-caps:normal;font-variant-numeric:normal;font-variant-alternates:normal;font-feature-settings:normal;text-indent:0;text-align:start;text-decoration:none;text-decoration-line:none;text-decoration-style:solid;text-decoration-color:#000000;letter-spacing:normal;word-spacing:normal;text-transform:none;writing-mode:lr-tb;direction:ltr;text-orientation:mixed;dominant-baseline:auto;baseline-shift:baseline;text-anchor:start;white-space:normal;shape-padding:0;clip-rule:nonzero;display:inline;overflow:visible;visibility:visible;opacity:1;isolation:auto;mix-blend-mode:normal;color-interpolation:sRGB;color-interpolation-filters:linearRGB;solid-color:#000000;solid-opacity:1;vector-effect:none;fill:#000000;fill-opacity:1;fill-rule:nonzero;stroke:none;stroke-width:142.85699463;stroke-linecap:butt;stroke-linejoin:miter;stroke-miterlimit:4;stroke-dasharray:none;stroke-dashoffset:0;stroke-opacity:1;color-rendering:auto;image-rendering:auto;shape-rendering:auto;text-rendering:auto;enable-background:accumulate"
       d="M 97.714268,11.999996 V 83.428568 1012 H 926.25781 V 11.999996 Z M 240.57141,154.85714 H 783.40067 V 869.14286 H 240.57141 Z"
       id="path2"
       inkscape:connector-curvature="0" />
    <path
       style=" stroke:none;fill-rule:evenodd;fill:rgb(0%,0%,0%);fill-opacity:1;"
       d="M 354.285156 526.714844 C 354.285156 519.097656 356.714844 512.476562 361.570312 506.855469 C 366.429688 501.238281 373.714844 498.429688 383.429688 498.429688 L 407.429688 498.429688 L 407.429688 436.714844 C 407.429688 418.617188 410.191406 401.429688 415.714844 385.144531 C 421.238281 368.855469 429.667969 354.523438 441 342.144531 C 452.332031 329.761719 466.523438 319.902344 483.570312 312.570312 C 500.621094 305.238281 520.761719 301.570312 544 301.570312 C 559.429688 301.570312 573.382812 303.535156 585.855469 307.429688 C 598.332031 311.332031 609.476562 316.761719 619.285156 323.714844 C 629.09375 330.667969 637.714844 338.855469 645.144531 348.285156 C 652.570312 357.714844 659.046875 367.855469 664.570312 378.714844 L 629.144531 401 C 621.144531 405.1875 613.382812 407.046875 605.855469 406.570312 C 598.332031 406.105469 591.429688 402.523438 585.144531 395.855469 C 577.90625 388.429688 571.332031 382.902344 565.429688 379.285156 C 559.523438 375.667969 552.382812 373.855469 544 373.855469 C 528.570312 373.855469 517.09375 379.238281 509.570312 390 C 502.046875 400.761719 498.285156 416.238281 498.285156 436.429688 L 498.285156 498.429688 L 606.855469 498.429688 L 606.855469 532.144531 C 606.855469 535 606.238281 537.714844 605 540.285156 C 603.761719 542.855469 602.046875 545.1875 599.855469 547.285156 C 597.667969 549.394531 595.09375 551.046875 592.144531 552.285156 C 589.191406 553.535156 585.90625 554.144531 582.285156 554.144531 L 498.285156 554.144531 L 498.285156 598.714844 C 498.285156 610.144531 496.144531 620.476562 491.855469 629.714844 C 487.570312 638.953125 481.808594 647.570312 474.570312 655.570312 C 483.144531 653.679688 491.714844 652.179688 500.285156 651.144531 C 508.855469 650.105469 517.523438 649.570312 526.285156 649.570312 L 669.714844 649.570312 L 669.714844 685.855469 C 669.714844 690.046875 668.808594 694.332031 667 698.714844 C 665.191406 703.097656 662.667969 707.046875 659.429688 710.570312 C 656.191406 714.105469 652.238281 716.953125 647.570312 719.144531 C 642.90625 721.320312 637.714844 722.429688 632 722.429688 L 359.429688 722.429688 L 359.429688 669.285156 C 365.714844 668.144531 371.761719 666.320312 377.570312 663.855469 C 383.382812 661.394531 388.476562 658.238281 392.855469 654.429688 C 397.238281 650.617188 400.761719 646.046875 403.429688 640.714844 C 406.09375 635.382812 407.429688 629.1875 407.429688 622.144531 L 407.429688 554.144531 L 354.285156 554.144531 Z M 354.285156 526.714844 "
       id="path4" />
  </g>
</svg>
