<?xml version="1.0" encoding="UTF-8"?>
<svg xmlns="http://www.w3.org/2000/svg" xmlns:xlink="http://www.w3.org/1999/xlink" width="1024pt" height="1024pt" viewBox="0 0 1024 1024" version="1.1">
<g id="surface1">
<path style=" stroke:none;fill-rule:nonzero;fill:rgb(0%,0%,0%);fill-opacity:1;" d="M 999.570312 782.851562 C 994.945312 778.164062 990.558594 773.535156 986.113281 768.863281 L 960.507812 742.726562 C 857.410156 641.328125 816.933594 599.851562 812.65625 596.953125 C 807.984375 592.507812 803.359375 588.0625 798.671875 583.496094 C 747.957031 535.785156 712.683594 573.835938 666.765625 643.285156 C 662.5625 649.683594 658.589844 655.738281 654.976562 661.425781 C 654.859375 661.59375 654.738281 661.777344 654.617188 662.015625 C 653.253906 664.082031 652.132812 665.871094 650.828125 667.871094 C 599.035156 748.289062 603.359375 750.066406 585.289062 745.804688 C 584.515625 745.699219 583.863281 745.4375 583.105469 745.199219 C 524.304688 726.828125 531.070312 723.277344 416.929688 607.132812 C 300.847656 492.992188 297.238281 499.746094 278.867188 440.960938 C 278.625 440.261719 278.441406 439.546875 278.277344 438.773438 C 273.996094 420.691406 275.789062 424.96875 356.191406 373.238281 C 358.207031 371.933594 360.105469 370.75 362.0625 369.445312 C 362.242188 369.328125 362.421875 369.207031 362.652344 369.089844 C 368.339844 365.417969 374.332031 361.503906 380.796875 357.300781 C 450.246094 311.363281 488.292969 276.046875 440.582031 225.378906 C 435.953125 220.707031 431.570312 216.082031 427.125 211.40625 C 424.226562 207.128906 382.691406 166.65625 281.355469 63.558594 L 255.148438 37.886719 C 250.476562 33.441406 245.851562 28.996094 241.164062 24.429688 C 184.761719 -28.664062 132.542969 9.441406 78.324219 93.835938 C 24.699219 177.332031 7.039062 228.105469 6.917969 228.515625 C -17.324219 305.203125 28.429688 398.953125 47.695312 431.191406 C 114.292969 543.359375 140.25 590.359375 288.101562 735.902344 C 433.644531 883.75 480.640625 909.707031 592.808594 976.304688 C 625.046875 995.570312 718.800781 1041.324219 795.425781 1017.082031 C 795.835938 1016.976562 846.5625 999.304688 930.105469 945.675781 C 1014.558594 891.457031 1052.667969 839.242188 999.570312 782.835938 Z M 999.570312 782.851562 "/>
</g>
</svg>
