<?xml version="1.0" encoding="UTF-8" standalone="no"?>
<svg
   xmlns:dc="http://purl.org/dc/elements/1.1/"
   xmlns:cc="http://creativecommons.org/ns#"
   xmlns:rdf="http://www.w3.org/1999/02/22-rdf-syntax-ns#"
   xmlns:svg="http://www.w3.org/2000/svg"
   xmlns="http://www.w3.org/2000/svg"
   xmlns:sodipodi="http://sodipodi.sourceforge.net/DTD/sodipodi-0.dtd"
   xmlns:inkscape="http://www.inkscape.org/namespaces/inkscape"
   width="1024"
   height="1024"
   viewBox="0 0 1024 1024"
   version="1.1"
   id="svg2"
   inkscape:version="0.91 r13725"
   sodipodi:docname="AOK_Knowledge_Base_Categories.svg">
  <metadata
     id="metadata18">
    <rdf:RDF>
      <cc:Work
         rdf:about="">
        <dc:format>image/svg+xml</dc:format>
        <dc:type
           rdf:resource="http://purl.org/dc/dcmitype/StillImage" />
        <dc:title>acc_kb_cat</dc:title>
      </cc:Work>
    </rdf:RDF>
  </metadata>
  <sodipodi:namedview
     pagecolor="#ffffff"
     bordercolor="#666666"
     borderopacity="1"
     objecttolerance="10"
     gridtolerance="10"
     guidetolerance="10"
     inkscape:pageopacity="0"
     inkscape:pageshadow="2"
     inkscape:window-width="1366"
     inkscape:window-height="703"
     id="namedview16"
     showgrid="false"
     inkscape:zoom="0.17383042"
     inkscape:cx="-246.17313"
     inkscape:cy="240.28705"
     inkscape:window-x="0"
     inkscape:window-y="0"
     inkscape:window-maximized="1"
     inkscape:current-layer="svg2" />
  <!-- Generator: Sketch 3.8.3 (29802) - http://www.bohemiancoding.com/sketch -->
  <title
     id="title4">acc_kb_cat</title>
  <desc
     id="desc6">Created with Sketch.</desc>
  <defs
     id="defs8" />
  <path
     style="fill:#000000;fill-rule:evenodd;stroke:none;stroke-width:1;fill-opacity:1"
     inkscape:connector-curvature="0"
     id="Fill-1"
     d="m 673.10767,467.06342 c 1.18161,5.88996 10.63277,27.55504 11.86913,33.78825 1.49733,7.34526 -1.29123,11.84852 -8.47596,13.61964 -4.67074,1.12563 -9.45134,1.92224 -14.12207,3.10283 -4.98667,1.29048 -8.75074,-0.20736 -12.18509,-3.85798 -15.01497,-16.09094 -38.46472,-47.4628 -53.49345,-63.55374 -1.93685,-2.08676 -3.59919,-2.73235 -6.59396,-2.03181 -13.42144,3.15778 -25.77137,1.77122 -34.89301,-9.44588 -19.9055,10.68155 -39.92093,6.80982 -59.82643,1.66132 -9.45134,-2.45759 -17.87235,-7.18051 -25.4829,-13.30388 -8.37979,-6.69999 -14.12204,-15.06122 -16.85579,-25.46815 -0.31468,-1.18059 -0.7006,-2.36151 -0.96168,-3.26769 -7.78912,1.8673 -15.08368,4.13256 -22.59803,5.29956 -15.02873,2.36152 -29.453,0.8101 -42.11889,-8.73192 -5.90702,-4.44848 -10.35796,-10.0913 -13.14663,-16.95603 -0.59063,-1.49646 -1.51116,-3.15778 -2.78856,-4.06392 -17.87238,-12.71349 -26.84291,-30.35586 -28.76613,-51.81503 -2.1018,-23.69708 3.43417,-45.47202 17.7075,-64.5148 4.23112,-5.684 10.46793,-9.87149 15.7156,-14.74546 1.18127,-1.1258 2.69243,-2.21045 3.28341,-3.65204 13.88851,-34.21385 40.51163,-52.50151 75.39092,-60.54698 5.09656,-1.18072 10.35799,-1.77112 15.45455,-2.84201 2.03298,-0.42561 4.13499,-1.18072 5.85214,-2.30656 17.48775,-11.58767 36.91244,-17.10692 57.57349,-18.87802 22.37823,-1.93587 44.11082,1.55141 65.62358,7.40018 25.01582,6.80982 50.44378,12.17805 74.1683,23.12044 22.74914,10.44813 41.58314,26.00362 58.21913,44.29128 7.73414,8.526 12.40488,18.87803 16.04529,29.7655 0.7006,2.03198 2.47285,3.80307 4.13495,5.36822 4.50586,4.2836 10.19315,7.60613 13.57255,12.60366 9.71235,14.21001 14.49298,30.02636 12.29499,47.4628 -1.71726,13.45488 -9.01175,23.58723 -19.4247,31.79746 -1.34621,1.01597 -2.69242,2.03198 -3.91515,3.00675 0.0968,0.37084 0.0415,0.59029 0.0968,0.64525 13.09175,12.69977 12.88569,27.88454 7.89899,43.81073 -10.26183,32.8272 -34.45339,50.57939 -66.00822,59.8056 -7.23961,2.08676 -15.24853,2.30656 -23.24372,3.43219 l 0,0 z" />
  <path
     style="fill:#000000;fill-rule:evenodd;stroke:none;stroke-width:1;fill-opacity:1"
     inkscape:connector-curvature="0"
     id="Fill-2"
     d="m 452.7734,1012 -32.29665,-67.89224 c -4.67073,-9.76169 -9.34144,-19.41348 -14.16325,-29.07906 -14.32814,-29.38107 -17.33663,-29.38107 -30.11242,-29.38107 -6.11315,0 -14.10831,0.64524 -23.8756,1.92225 -31.60979,3.76186 -64.55209,1.93572 -94.66449,-0.59029 -25.00208,-2.08707 -45.82799,-12.38417 -60.30722,-29.71079 -8.21497,-9.85776 -21.58147,-31.48165 -18.51803,-65.3111 1.60728,-17.75219 -0.8105,-30.7403 -8.64083,-46.24085 -4.08001,-7.93566 -7.56931,-17.10695 -10.56406,-27.82966 l -0.54952,-2.36151 -7.34951,-38.23659 c -0.90665,-6.21942 -1.77211,-11.79357 -2.67878,-16.99705 -14.32811,-5.90368 -35.15403,-17.58744 -45.29223,-40.76282 -12.020234,-27.62368 -2.73375,-54.38245 5.26142,-72.13464 5.04163,-10.83254 10.67397,-21.6102 17.76247,-34.10403 7.45942,-13.67455 14.27317,-26.16838 18.46308,-37.97573 5.26143,-14.91019 5.57739,-25.31712 4.93173,-28.04929 C 113.47315,337.22379 134.07927,236.22977 211.24229,147.26278 283.95439,63.801305 408.0856,11.999997 535.25278,11.999997 c 57.73836,0 113.77322,10.832555 162.06022,31.316931 165.92043,70.528312 256.77963,239.304742 220.925,410.332802 -5.15154,23.38129 -12.02024,45.10133 -20.49623,64.78939 -8.47596,20.05875 -18.88894,40.65298 -28.12045,58.8857 l -4.23115,8.36127 c -30.64813,59.53098 -56.99651,110.75565 -49.37223,165.76965 0.85171,6.32929 1.88221,11.75244 3.26957,17.12067 L 829.96147,816.62957 452.77347,1012 Z M 376.20108,830.30412 c 42.61343,0 60.32097,20.2647 79.74566,60.27241 4.82182,9.5969 9.60245,19.57822 14.38305,29.55954 l 7.83034,16.40672 288.4306,-149.36293 -1.29123,-5.68401 c -1.71726,-6.60387 -3.15961,-14.26494 -4.23112,-22.53006 -10.04204,-72.23079 22.96894,-136.31998 54.89468,-198.32227 l 4.13495,-8.21021 c 9.23154,-18.23275 18.77904,-37.11078 26.60935,-55.5632 7.19843,-16.66759 12.98186,-35.01017 17.28168,-54.75315 30.31838,-144.64 -47.17433,-287.7835 -188.46358,-347.795033 -41.52819,-17.58746 -90.03498,-26.923503 -140.42377,-26.923503 -111.57523,0 -219.70237,44.510956 -282.20758,116.220006 -64.34602,74.1117 -80.87212,154.77236 -50.33386,246.43032 7.29456,21.6102 -0.21994,49.23392 -5.31638,63.77341 -5.68729,15.98111 -13.53135,30.35588 -21.78753,45.58188 -6.9786,12.43888 -11.96528,21.93967 -16.32004,31.16588 -5.68729,12.60366 -7.29456,21.18459 -4.82183,26.81369 2.36284,5.40939 9.97336,10.18726 23.12006,14.37474 l 4.1899,1.33161 8.36609,6.01351 8.59962,10.18727 1.55231,6.10962 c 2.7887,10.68155 4.39597,21.77495 6.00324,32.55261 l 6.92366,35.83392 c 1.93698,6.69998 4.08001,12.21921 6.38789,16.83233 12.50105,24.83663 16.91075,48.27283 14.38307,76.26724 -1.2913,14.00405 3.15961,21.61017 5.90709,24.9327 4.82183,5.79385 12.33619,9.1713 22.3645,9.98136 27.47481,2.30656 56.83165,3.96781 83.12505,0.85122 12.13014,-1.55142 22.32329,-2.34769 30.96413,-2.34769 l 0,0 z" />
  <path
     style="fill:#000000;fill-rule:evenodd;stroke:none;stroke-width:1;fill-opacity:1"
     inkscape:connector-curvature="0"
     id="Fill-3"
     d="m 322.06196,548.41055 c -17.65257,0.43937 -28.65623,-8.47106 -28.87603,-23.86181 -0.1099,-8.41619 -3.75031,-10.5168 -10.56407,-12.49383 -21.58147,-6.43912 -29.83765,-18.12289 -24.85097,-33.7333 4.83557,-15.02005 18.03722,-19.63318 39.06919,-13.56475 29.94755,8.63585 59.99126,17.16187 89.88384,25.94871 15.50954,4.5582 22.85908,14.059 21.73259,26.92352 -1.18126,13.30385 -10.7289,21.29439 -27.04894,23.17534 -20.55118,2.40264 -40.99244,5.24464 -59.34561,7.60612 l 0,0 z" />
</svg>
