<?xml version="1.0" encoding="UTF-8" standalone="no"?>
<svg
   xmlns:dc="http://purl.org/dc/elements/1.1/"
   xmlns:cc="http://creativecommons.org/ns#"
   xmlns:rdf="http://www.w3.org/1999/02/22-rdf-syntax-ns#"
   xmlns:svg="http://www.w3.org/2000/svg"
   xmlns="http://www.w3.org/2000/svg"
   xmlns:sodipodi="http://sodipodi.sourceforge.net/DTD/sodipodi-0.dtd"
   xmlns:inkscape="http://www.inkscape.org/namespaces/inkscape"
   width="1024"
   height="1024"
   viewBox="0 0 1024 1024"
   version="1.1"
   id="svg2"
   inkscape:version="0.91 r13725"
   sodipodi:docname="template-file.svg">
  <metadata
     id="metadata27">
    <rdf:RDF>
      <cc:Work
         rdf:about="">
        <dc:format>image/svg+xml</dc:format>
        <dc:type
           rdf:resource="http://purl.org/dc/dcmitype/StillImage" />
        <dc:title>my_pdf_templates_dark</dc:title>
      </cc:Work>
    </rdf:RDF>
  </metadata>
  <sodipodi:namedview
     pagecolor="#ffffff"
     bordercolor="#666666"
     borderopacity="1"
     objecttolerance="10"
     gridtolerance="10"
     guidetolerance="10"
     inkscape:pageopacity="0"
     inkscape:pageshadow="2"
     inkscape:window-width="1366"
     inkscape:window-height="703"
     id="namedview25"
     showgrid="false"
     inkscape:zoom="0.51300001"
     inkscape:cx="-226.79141"
     inkscape:cy="512.00003"
     inkscape:window-x="0"
     inkscape:window-y="0"
     inkscape:window-maximized="1"
     inkscape:current-layer="Page-1" />
  <!-- Generator: Sketch 39.1 (31720) - http://www.bohemiancoding.com/sketch -->
  <title
     id="title4">my_pdf_templates_dark</title>
  <desc
     id="desc6">Created with Sketch.</desc>
  <defs
     id="defs8" />
  <g
     id="Page-1"
     style="fill:none;fill-rule:evenodd;stroke:none;stroke-width:1"
     transform="translate(0,994)">
    <path
       id="Fill-11"
       style="fill:#000000"
       d="m 843.21962,-380.70219 c -220.81628,0 -441.63256,0 -662.44884,0 0,107.63823 0,215.27649 0,322.914718 220.81628,0 441.63256,0 662.44884,0 0,-107.638228 0,-215.276488 0,-322.914718 z M 180.77079,-584.43171 c 0,33.72503 0,67.4501 0,101.17513 140.82059,-140.8206 281.64119,-281.64119 422.46179,-422.46179 -33.72503,0 -67.4501,0 -101.17514,0 -107.09555,107.09555 -214.1911,214.1911 -321.28665,321.28666 z m 0,-321.28666 c 0,48.37351 0,96.74703 0,145.12055 48.37351,-48.37352 96.74703,-96.74704 145.12054,-145.12055 -48.37351,0 -96.74703,0 -145.12054,0 z m 0,459.96293 c 1.4257,12.14275 -2.85907,29.99599 2.1528,38.55258 20.15658,0 40.31315,0 60.46972,0 161.15209,-161.13702 322.30417,-322.27402 483.45627,-483.41103 -11.44078,-21.3495 -34.73391,-13.83098 -54.11663,-15.10448 -14.24189,1.76271 -32.32326,-5.74393 -41.13281,9.13359 -150.27645,150.27645 -300.5529,300.55289 -450.82935,450.82934 z m 0,-277.35253 c 0,33.7288 0,67.45761 0,101.18642 94.59893,-94.59894 189.19787,-189.19788 283.79681,-283.79682 -33.72881,0 -67.45761,0 -101.18642,0 -60.87013,60.87013 -121.74026,121.74027 -182.61039,182.6104 z m 377.46492,315.90511 c 33.72503,0 67.45007,0 101.1751,0 61.2696,-61.25452 122.53922,-122.50904 183.80881,-183.76356 0,-33.74012 0,-67.48023 0,-101.22034 -94.99463,94.99462 -189.98929,189.98928 -284.98391,284.9839 z M 843.21962,-553.5218 c -48.77298,48.77298 -97.54596,97.54596 -146.31894,146.31894 48.77298,0 97.54596,0 146.31894,0 0,-48.77298 0,-97.54596 0,-146.31894 z m -47.03189,-267.75396 c -16.87193,-16.87194 -33.74389,-33.74388 -50.61583,-50.61582 -154.89248,154.89624 -309.78496,309.79248 -464.67743,464.68872 33.72503,0 67.45007,0 101.17511,0 138.03939,-138.02431 276.07877,-276.0486 414.11815,-414.0729 z m -376.6283,414.0729 c 33.74011,0 67.48024,0 101.22034,0 107.47996,-107.49502 214.95989,-214.99004 322.43985,-322.48506 -1.03861,-15.13937 2.06354,-31.99391 -1.52228,-46.0782 -9.43651,-7.32523 -18.87305,-23.04907 -28.30959,-25.26506 -131.27608,131.27611 -262.5522,262.5522 -393.82832,393.82832 z" />
  </g>
</svg>
