<?xml version="1.0" encoding="UTF-8" standalone="no"?>
<svg
   xmlns:dc="http://purl.org/dc/elements/1.1/"
   xmlns:cc="http://creativecommons.org/ns#"
   xmlns:rdf="http://www.w3.org/1999/02/22-rdf-syntax-ns#"
   xmlns:svg="http://www.w3.org/2000/svg"
   xmlns="http://www.w3.org/2000/svg"
   xmlns:sodipodi="http://sodipodi.sourceforge.net/DTD/sodipodi-0.dtd"
   xmlns:inkscape="http://www.inkscape.org/namespaces/inkscape"
   width="1024"
   height="1024"
   viewBox="0 0 1024 1024"
   version="1.1"
   id="svg2"
   inkscape:version="0.91 r13725"
   sodipodi:docname="template-company.svg">
  <metadata
     id="metadata23">
    <rdf:RDF>
      <cc:Work
         rdf:about="">
        <dc:format>image/svg+xml</dc:format>
        <dc:type
           rdf:resource="http://purl.org/dc/dcmitype/StillImage" />
        <dc:title>acc_default_module</dc:title>
      </cc:Work>
    </rdf:RDF>
  </metadata>
  <sodipodi:namedview
     pagecolor="#ffffff"
     bordercolor="#666666"
     borderopacity="1"
     objecttolerance="10"
     gridtolerance="10"
     guidetolerance="10"
     inkscape:pageopacity="0"
     inkscape:pageshadow="2"
     inkscape:window-width="1366"
     inkscape:window-height="703"
     id="namedview21"
     showgrid="false"
     showguides="true"
     inkscape:guide-bbox="true"
     inkscape:zoom="0.36274578"
     inkscape:cx="-20.445083"
     inkscape:cy="441.45509"
     inkscape:window-x="0"
     inkscape:window-y="0"
     inkscape:window-maximized="1"
     inkscape:current-layer="svg2" />
  <!-- Generator: Sketch 39.1 (31720) - http://www.bohemiancoding.com/sketch -->
  <title
     id="title4">acc_default_module</title>
  <desc
     id="desc6">Created with Sketch.</desc>
  <defs
     id="defs8" />
  <path
     style="fill:#000000;fill-opacity:1;stroke:none"
     d="m 390.61522,279.51195 c 64.16085,0 128.32167,0 192.48253,0 0,204.08563 0,408.17122 0,612.25686 -64.16086,0 -128.32168,0 -192.48253,0 0,-204.08564 0,-408.17123 0,-612.25686 z M 471.59076,37.797034 c 11.62818,51.455531 -54.75693,55.215887 -85.19625,80.239936 -16.19268,31.45626 -74.02199,29.09615 -71.51604,75.63992 0.79672,128.08745 0.65892,256.17922 0,384.26695 -70.04785,0 -140.09569,0 -210.14354,0 0,135.68048 0,271.36091 0,407.04139 70.15449,0 140.30897,0 210.46346,0 23.39734,2.83619 52.08282,0.38207 77.51074,1.18698 176.10893,0.30746 350.45033,-1.09509 526.55594,-0.68055 0,-198.1774 0,-396.35484 0,-594.53224 -87.13322,0 -174.26644,0 -261.39966,0 -0.817,-69.86661 2.88939,-140.10494 -0.84844,-209.75216 C 644.34866,136.82886 590.96098,144.99744 570.24531,108.425 536.81396,96.01981 493.66704,76.361923 501.60524,38.623996 491.60042,38.348384 481.59561,38.072417 471.59076,37.797034 Z m 12.73384,64.438006 c 30.9108,6.33334 44.92284,35.65945 77.41956,36.44456 11.84091,21.21962 13.39273,35.68899 42.70566,31.73044 39.18931,16.96618 14.80275,69.35211 21.36807,102.6636 -0.98801,226.83028 -2.7025,453.65834 -2.82134,680.49165 -91.84707,0.0449 -183.69413,0.0898 -275.54118,0.13473 -3.35127,-253.3552 1.51672,-506.72466 -0.0688,-760.08623 -0.63681,-34.69176 51.12575,-11.56586 49.7183,-39.35445 7.62182,-31.63805 47.9579,-11.48264 57.39938,-36.98633 9.251,-6.23829 19.40198,-11.09426 29.82048,-15.03797 z m 0.64152,29.75542 c -10.09999,22.22566 -20.08059,53.09566 -50.55584,50.58472 -19.20444,-4.0687 -9.98025,22.58115 -17.4107,33.47591 9.81195,4.52614 30.49902,0.65136 44.49934,1.94202 31.83877,0 63.67749,0 95.51626,0 -7.76036,-11.11537 1.50681,-39.22652 -17.23604,-35.51447 -26.98058,3.84919 -43.30271,-18.84695 -50.61798,-41.30105 -1.39816,-3.06229 -2.79806,-6.12542 -4.19504,-9.18713 z M 670.0257,423.46539 c 72.2448,0 144.48956,0 216.73436,0 -4.11604,12.83231 9.68361,43.53044 -9.85648,40.97991 -68.96649,0.304 -137.92977,1.29926 -206.87788,2.9153 0,-14.63047 0,-29.27099 0,-43.89524 z m 216.73436,73.46043 c 0.14854,21.00195 6.4785,48.12185 -26.18207,36.4366 -63.524,0.36101 -127.04487,1.29097 -190.55229,2.78714 0.88022,-18.68798 -7.77366,-46.71247 22.37072,-36.79156 64.77815,-1.37975 129.57419,-2.26343 194.36364,-2.43236 z m 0,68.85349 c 0.15891,20.9909 6.46441,48.06168 -26.18207,36.38807 -63.524,0.3952 -127.04466,1.34141 -190.55229,2.83619 0.88782,-18.70142 -7.78198,-46.76342 22.37072,-36.85405 64.77846,-1.3763 129.57122,-2.23476 194.36364,-2.37018 z m -749.51628,44.72917 c 50.91479,0 101.82958,0 152.74437,0 0,113.98775 0,227.97553 0,341.96327 -50.91479,0 -101.82958,0 -152.74437,0 0,-113.98774 0,-227.97552 0,-341.96327 z m 749.51607,24.12418 c 0.15891,20.99118 6.4642,48.06179 -26.18237,36.38814 -63.52387,0.3952 -127.04443,1.34141 -190.55195,2.83585 0.88816,-18.70153 -7.78202,-46.7637 22.37068,-36.85444 64.77849,-1.3756 129.57102,-2.23613 194.36364,-2.36948 z m 0,68.78938 c 0.14855,21.00216 6.47826,48.12165 -26.18237,36.4365 -63.52391,0.36135 -127.04467,1.29166 -190.55195,2.78852 0.88022,-18.68791 -7.77362,-46.71233 22.37068,-36.79108 64.77853,-1.38113 129.57157,-2.25893 194.36364,-2.43373 z m 0,68.85342 c 0.15891,20.99114 6.46417,48.06168 -26.18237,36.388 -63.52387,0.39521 -127.04443,1.34141 -190.55195,2.83585 0.88816,-18.70153 -7.78202,-46.7637 22.37068,-36.85447 64.77836,-1.37526 129.57205,-2.23683 194.36364,-2.36914 z m 0,68.85339 c 0.15891,20.99114 6.46417,48.06158 -26.18237,36.38793 -63.52387,0.39521 -127.04443,1.34175 -190.55195,2.83654 0.88816,-18.70149 -7.78198,-46.76352 22.37068,-36.8544 64.77849,-1.37595 129.57115,-2.23683 194.36364,-2.36983 z m 0,68.78934 c -1.82332,13.36531 3.55263,33.92971 -2.50041,43.06525 -71.41132,0 -142.82267,0 -214.23398,0 4.24589,-12.98219 -10.39173,-44.41446 11.26738,-40.3841 68.47781,-1.53347 136.9748,-2.48935 205.46694,-2.68108 z"
     id="rect3920"
     inkscape:connector-curvature="0" />
</svg>
